<?xml version="1.0" encoding="UTF-8"?>
<svg id="Layer_1" data-name="Layer 1" xmlns="http://www.w3.org/2000/svg" viewBox="0 0 482.79 482.79">
  <path d="M9.57,236.96s.07,0,.1,0c15.15,0,27.43-19.07,27.43-42.61,0-12-3.19-22.84-8.33-30.59-2.31-3.49-6.22-4.69-9.73-3.94-8.77,23.58-13.91,48.92-14.76,75.34,1.48,1.11,3.3,1.78,5.3,1.79Z" fill="#faf2d5"/>
  <path d="M29.73,322.79c4.57-7.61,7.37-17.83,7.37-29.06,0-23.52-12.28-42.61-27.43-42.61-.03,0-.06,0-.1,0-1.98.01-3.78.69-5.22,1.82,1.06,25.83,6.22,50.59,14.85,73.66,3.73,1.24,8.18.1,10.53-3.81Z" fill="#faf2d5"/>
  <ellipse cx="80.19" cy="142.87" rx="29.11" ry="38.54" fill="#faf2d5"/>
  <ellipse cx="80.19" cy="344.43" rx="29.11" ry="38.54" fill="#faf2d5"/>
  <path d="M287.91,17.03c12.51,19.93,38.8,25.96,58.73,13.46.02-.01.04-.02.05-.03.66-.42,1.12-.99,1.39-1.63-19.96-9.84-41.49-16.97-64.12-20.91-.05.54,0,1.1.22,1.65.98,2.55,2.21,5.05,3.72,7.45Z" fill="#faf2d5"/>
  <ellipse cx="157.15" cy="395.25" rx="38.07" ry="40.45" fill="#faf2d5"/>
  <circle cx="242.48" cy="241.39" r="47.98" transform="translate(-99.67 242.16) rotate(-45)" fill="#faf2d5"/>
  <path d="M77.29,86.5c17.36,0,31.49-18.39,31.99-41.34-16.17,10.93-30.92,23.8-43.94,38.27,3.69,1.98,7.73,3.07,11.95,3.07Z" fill="#faf2d5"/>
  <path d="M109.81,435.16c0-23.52-14.84-36.41-32.53-36.41-.05,0-.11,0-.16,0-4.74.03-7.85,3.85-8.01,7.91,11.86,12.58,25.07,23.87,39.4,33.64,1.14-.99,1.3-3.23,1.3-5.14Z" fill="#faf2d5"/>
  <path d="M343.46,453.31c-5.83-3-12.44-4.69-19.44-4.69-16.75,0-31.24,9.66-38.2,23.72-.98,1.98-.06,4.16,1.64,5.09,20.2-3.83,39.5-10.2,57.55-18.77,1.02-1.79.53-4.29-1.55-5.35Z" fill="#faf2d5"/>
  <path d="M420.44,402.28c-.09-.35-.3-.67-.64-.88-4.07-2.49-8.59-3.88-13.37-3.88-17.68,0-32.02,19.07-32.02,42.61v.03c0,.62.39,1.09.89,1.29,16.64-11.14,31.8-24.31,45.13-39.17Z" fill="#faf2d5"/>
  <path d="M152.53,251.12c-22.09,0-40,19.08-40,42.61s17.91,42.61,40,42.61,40-19.08,40-42.61-17.91-42.61-40-42.61Z" fill="#faf2d5"/>
  <path d="M157.15,56.71c-21.03,0-38.07,18.11-38.07,40.45s17.05,40.45,38.07,40.45,38.07-18.11,38.07-40.45-17.05-40.45-38.07-40.45Z" fill="#faf2d5"/>
  <ellipse cx="152.53" cy="194.36" rx="40" ry="42.61" fill="#faf2d5"/>
  <path d="M77.28,200.02c-17.68,0-32.02,19.08-32.02,42.61s14.33,42.61,32.02,42.61,32.02-19.08,32.02-42.61-14.33-42.61-32.02-42.61Z" fill="#faf2d5"/>
  <path d="M406.43,85.26c4.4,0,8.59-1.19,12.4-3.33-13.17-14.39-28.08-27.15-44.39-37.96.52,22.92,14.64,41.29,31.99,41.29Z" fill="#faf2d5"/>
  <path d="M473.74,249.88h-.09c-14.92,0-27.03,19.08-27.03,42.61,0,11.36,2.82,21.68,7.42,29.32,3.03,5.03,9.65,5.37,13.4,1.75,7.8-21.76,12.54-44.97,13.68-69.13-1.41-2.66-4.16-4.53-7.37-4.55Z" fill="#faf2d5"/>
  <circle cx="242.48" cy="440.13" r="40.31" transform="translate(-256.93 495.72) rotate(-67.5)" fill="#faf2d5"/>
  <path d="M454.55,162.98c-4.9,7.71-7.93,18.37-7.93,30.14,0,23.53,12.1,42.61,27.03,42.61.03,0,.06,0,.09,0,3.16-.02,5.88-1.79,7.37-4.35-1.2-24.94-6.22-48.88-14.5-71.24-3.84-2.3-9.28-1.52-12.05,2.85Z" fill="#faf2d5"/>
  <path d="M202.17,42.66c0,22.26,18.05,40.31,40.31,40.31s40.31-18.05,40.31-40.31c0-17.44-11.08-32.29-26.58-37.91-4.46-.25-8.94-.39-13.46-.39-4.75,0-9.46.15-14.13.43-15.44,5.65-26.45,20.47-26.45,37.87Z" fill="#faf2d5"/>
  <path d="M195.94,470.05c-7.51-12.12-20.93-20.2-36.24-20.2-5.67,0-11.09,1.11-16.04,3.12-2.5,1.01-3.49,3.57-2.95,5.79,16.9,8.01,34.88,14.09,53.67,17.96,2.08-1.35,3.08-4.22,1.56-6.67Z" fill="#faf2d5"/>
  <circle cx="242.48" cy="343.91" r="42.61" transform="translate(-168.04 436.33) rotate(-67.5)" fill="#faf2d5"/>
  <path d="M137,31.68s.05.03.07.04c19.94,12.51,46.23,6.48,58.73-13.46,1.49-2.37,2.71-4.83,3.68-7.34.35-.9.38-1.82.19-2.66-22.73,4.15-44.33,11.51-64.33,21.61.35.71.9,1.34,1.65,1.81Z" fill="#faf2d5"/>
  <path d="M380.22,339.91c0,21.29,13.03,38.54,29.11,38.54s29.11-17.25,29.11-38.54-13.04-38.54-29.11-38.54-29.11,17.25-29.11,38.54Z" fill="#faf2d5"/>
  <path d="M409.34,104.33c-16.08,0-29.11,17.25-29.11,38.54s13.03,38.54,29.11,38.54,29.11-17.25,29.11-38.54-13.04-38.54-29.11-38.54Z" fill="#faf2d5"/>
  <path d="M406.43,198.79c-17.68,0-32.02,19.08-32.02,42.61s14.33,42.61,32.02,42.61,32.02-19.08,32.02-42.61-14.33-42.61-32.02-42.61Z" fill="#faf2d5"/>
  <circle cx="242.48" cy="138.87" r="42.61" transform="translate(-27.18 212.14) rotate(-45)" fill="#faf2d5"/>
  <path d="M331.18,249.89c-22.09,0-40,19.08-40,42.61s17.91,42.61,40,42.61,40-19.08,40-42.61-17.91-42.61-40-42.61Z" fill="#faf2d5"/>
  <ellipse cx="330.42" cy="95.92" rx="38.07" ry="40.45" fill="#faf2d5"/>
  <path d="M331.18,150.52c-22.09,0-40,19.08-40,42.61s17.91,42.61,40,42.61,40-19.08,40-42.61-17.91-42.61-40-42.61Z" fill="#faf2d5"/>
  <ellipse cx="330.42" cy="394.45" rx="38.07" ry="40.45" fill="#faf2d5"/>
</svg>