<?xml version="1.0" encoding="UTF-8"?>
<svg id="Layer_2" data-name="Layer 2" xmlns="http://www.w3.org/2000/svg" viewBox="0 0 406.63 439.4">
  <g id="Layer_1-2" data-name="Layer 1">
    <g>
      <path d="M132.26,329.83c.04-.08.08-.17.13-.25.05-.09.09-.17.14-.27.28-.53.61-1.12.95-1.73l.05-.08c.28-.51.57-1.04.87-1.58.29-.54.58-1.1.87-1.68.29-.57.57-1.17.83-1.78.27-.61.51-1.25.73-1.9,1-2.95,2.12-6.43,2.79-9.99.13-.69.25-1.39.37-2.07s.22-1.35.31-2.01c.31-2.2.51-4.28.59-6.22.15-3.31-1.03-6.1-1.88-8.13l-.16-.37c-.25-.59-.41-1.22-.51-1.85-.03-.19-.04-.39-.05-.58-.02-.34-.01-.69.01-1.03l.07-.79c.19-2.14.43-4.79-.29-7.7-.52-2.12-1.21-4.12-1.95-6.06-.29-.77-.6-1.54-.91-2.3-.15-.38-.31-.76-.46-1.14l-.08-.19h0c-.09-.25-.2-.48-.3-.71-.21-.47-.43-.92-.65-1.37-.11-.23-.23-.45-.34-.66-.15-.29-.31-.57-.47-.85-.32-.56-.64-1.1-.96-1.62-.32-.53-.63-1.04-.94-1.52l-.06-.11c-.43-.68-.85-1.36-1.26-2.07-1.84-3.15-3.98-5.93-5.85-8.3-1.86-2.35-3.81-4.52-5.93-6.6-.31-.3-.61-.59-.92-.89-.27-.26-.55-.51-.82-.75-.55-.49-1.1-.94-1.65-1.38-.43-.34-.87-.67-1.3-.99-.39-.29-.79-.57-1.18-.85-.55-.39-1.09-.76-1.62-1.14-.18-.12-.35-.24-.53-.36-.32-.22-.65-.44-.97-.67-.24-.17-.48-.34-.72-.52-.12-.09-.25-.17-.37-.27-.12-.09-.25-.18-.37-.27-.39-.27-.77-.55-1.16-.83-.39-.28-.79-.56-1.19-.84-1.34-.92-2.76-1.82-4.34-2.65-.1-.05-.21-.11-.31-.17-.3-.18-.59-.38-.87-.6-.07-.05-.15-.11-.23-.19-.13-.11-.27-.23-.42-.35-.07-.06-.15-.12-.22-.19-.08-.07-.15-.13-.22-.19-.21-.18-.43-.37-.66-.55-.11-.1-.23-.19-.35-.29-.23-.19-.47-.39-.72-.58-1.38-1.08-3.01-2.14-5.02-2.83-1.47-.5-3.03-.74-4.78-.74-1.31,0-2.51.13-3.6.25l-.69.07c-.25.03-.5.04-.75.04-.65,0-1.29-.09-1.92-.26-.23-.06-.47-.13-.73-.21-.23-.07-.47-.14-.71-.21-.03,0-.05-.01-.08-.02l-.41-.13c-.73-.22-1.42-.55-2.02-.96-.21-.14-.4-.29-.59-.44-.15-.11-.29-.25-.43-.39s-.27-.28-.4-.42c-.09-.11-.19-.22-.27-.34-.18-.23-.35-.47-.49-.71-.07-.12-.15-.25-.21-.37-.61-1.18-.92-2.52-.81-3.91.13-1.86.96-3.55,2.22-4.76.08-.09.16-.17.25-.23.09-.09.17-.17.27-.23.07-.07.14-.12.21-.17.13-.09.25-.19.39-.27.12-.07.23-.15.35-.21.13-.08.26-.15.4-.21.29-.15.6-.27.92-.38.2-.07.4-.12.61-.17.21-.05.41-.09.63-.12.76-.11,1.52-.25,2.26-.39,1.09-.21,2.25-.43,3.46-.7,1.2-.27,2.46-.57,3.73-.93.85-.24,1.72-.51,2.59-.8.77-.27,1.62-.51,2.51-.79.54-.16,1.1-.33,1.66-.5.79-.25,1.61-.51,2.44-.84.28-.1.56-.21.84-.33.69-.28,1.4-.59,2.1-.96.31-.16.61-.32.9-.49h0c.29-.17.57-.35.84-.53h0c.27-.18.54-.36.79-.55h0c.26-.19.51-.37.75-.56.98-.75,1.84-1.53,2.61-2.22.46-.41.97-.86,1.35-1.18.59-.49,1.26-.89,1.97-1.18.29-.11.66-.25.96-.37,2.1-.8,4.71-1.78,7.03-3.99,2.4-2.27,4.88-4.62,7.11-7.46,1.47-1.86,2.46-3.81,3.31-5.6.12-.25.24-.51.36-.75.06-.13.12-.25.17-.37.17-.37.34-.72.5-1.05.21-.44.43-.84.64-1.21.02-.04.04-.08.07-.11.02-.04.05-.08.07-.11.13-.21.28-.43.46-.67.29-.4.66-.86,1.14-1.47,1.05-1.3,2.2-2.73,3.15-4.46.24-.43.47-.89.68-1.37.07-.15.14-.32.21-.48.11-.27.21-.55.3-.82.27-.82.45-1.64.57-2.43.02-.13.04-.26.05-.39.03-.25.06-.51.08-.77,0-.09.01-.17.02-.25.05-.75.06-1.48.05-2.15,0-.51-.02-.99-.04-1.44v-.37c-.03-.38-.01-.76.03-1.13.02-.13.03-.27.06-.4.02-.14.05-.28.09-.42.13-.55.32-1.1.58-1.61l.28-.55c.25-.49.51-1.01.77-1.56.59-1.25,1.16-2.65,1.5-4.25.05-.26.11-.53.15-.81.05-.28.08-.56.11-.85.03-.25.05-.51.07-.78.28-2.95.51-6.29.35-9.57-.02-.49-.05-.98-.07-1.45-.06-.96-.13-1.87-.21-2.76-.21-2.22-.48-4.24-.84-6.12-.59-3.09-1.58-5.94-2.53-8.7l-.43-1.22h0c-.11-.33-.23-.65-.36-.97h0c-.13-.31-.27-.62-.41-.92h0c-.14-.3-.28-.59-.43-.87h0c-.15-.29-.3-.56-.45-.83-.62-1.08-1.28-2.06-1.9-2.97-.81-1.19-1.2-1.77-1.51-2.36-.05-.09-.09-.19-.14-.28-.27-.59-.51-1.31-.88-2.41-.4-1.2-.83-2.48-1.42-3.79-.13-.29-.27-.58-.42-.88-.15-.29-.31-.59-.48-.88s-.35-.59-.55-.88c-.09-.15-.19-.29-.3-.44-.13-.19-.27-.38-.41-.56-.42-.54-.87-1.04-1.32-1.49-.37-.36-.73-.7-1.11-1.02-.25-.21-.5-.41-.75-.61-.74-.58-1.47-1.09-2.14-1.56-.18-.13-.38-.27-.58-.41-.19-.14-.39-.27-.55-.39-.05-.04-.11-.08-.15-.11-.05-.04-.09-.07-.13-.1-.3-.23-.57-.48-.84-.76l-.67-.71c-.36-.38-.73-.77-1.1-1.16-.37-.39-.74-.78-1.13-1.17-1.28-1.3-2.65-2.59-4.23-3.83-.17-.13-.34-.27-.51-.42-.17-.15-.35-.31-.53-.46-.36-.31-.73-.65-1.08-.98-1.54-1.42-3.45-3.19-5.85-4.58-1.48-.86-2.96-1.65-4.44-2.38-.55-.27-1.1-.53-1.66-.79-.55-.25-1.1-.49-1.65-.73-.37-.15-.73-.31-1.1-.45-1.06-.43-2.11-.77-3.14-1.08-1.03-.3-2.04-.55-3.01-.78-.65-.15-1.28-.29-1.9-.43l-.16-.03c-.47-.11-.94-.21-1.39-.31-2.82-.65-5.46-.74-7.8-.81h-.19c-.33-.01-.65-.03-.97-.04s-.64-.03-.96-.05c-.09,0-.19,0-.28,0h-.01c-.15,0-.29-.01-.43-.02-.24-.01-.49-.01-.73-.01-1.7,0-3.3.17-4.78.36-.28.04-.55.07-.83.11-.2.03-.4.06-.6.09l-.19.03c-.59.09-1.18.17-1.78.24-.29.03-.57.05-.86.05-.04,0-.07,0-.11,0h-.15c-.33,0-.81-.04-1.29-.07-.07,0-.15-.01-.22-.02-.19-.01-.39-.03-.61-.04-.69-.04-1.44-.08-2.22-.08-1.54,0-2.93.16-4.23.47-.19.04-.37.09-.55.14-.54.15-1.09.32-1.64.5-.55.18-1.12.37-1.68.57-1.9.68-3.87,1.5-5.99,2.49-.62.29-1.27.57-1.92.86l-.11.05c-2.13.92-4.54,1.97-6.85,3.49-2.46,1.61-3.99,3.73-5.22,5.42,0,0-.06.09-.07.09-.8,1.13-1.91,2.01-3.19,2.54-.57.23-1.23.51-1.94.84-.42.2-.86.43-1.31.68-.29.17-.59.35-.9.55-.15.1-.31.21-.45.31-.45.31-.9.67-1.32,1.06-.14.13-.29.27-.43.41-.14.13-.28.28-.42.43-.15.17-.3.34-.45.51-.29.34-.57.69-.85,1.04-.14.18-.27.35-.4.53-.53.69-1.02,1.4-1.48,2.1-.31.46-.6.91-.89,1.36-.56.85-1.08,1.66-1.6,2.37-1.54,2.11-2.32,4.28-3.03,6.19-.32.88-.54,1.48-.77,1.98-.09.21-.21.42-.33.62-.42.72-.82,1.44-1.2,2.14-.58,1.06-1.12,2.09-1.64,3.12-.34.69-.67,1.37-.99,2.04-.16.34-.32.68-.47,1.02-.35.77-.67,1.55-.98,2.31-.15.38-.3.76-.45,1.14-.29.76-.56,1.5-.81,2.23-.38,1.1-.73,2.15-1.05,3.14-.07.21-.15.41-.23.62-.07.17-.15.35-.26.56-.07.15-.16.32-.26.51-.03.07-.07.13-.1.2-.09.19-.2.39-.32.62-.36.69-.74,1.42-1.1,2.19-.24.51-.47,1.06-.68,1.62-.27.73-.51,1.52-.7,2.36-.03.13-.06.25-.09.39-.13.69-.23,1.37-.29,2.03-.18,1.84-.15,3.57-.11,5.03,0,.28.01.55.02.82,0,.69.01,1.34-.02,1.9-.05.73-.17,1.52-.39,2.77-.07.4-.14.82-.21,1.26-.07.44-.14.9-.19,1.37-.05.47-.1.95-.14,1.44-.07.98-.08,2,0,3.05.07.84.21,1.62.42,2.36.11.37.22.73.34,1.07.25.69.53,1.33.84,1.91.44.88.9,1.64,1.3,2.28.13.21.25.43.36.66.11.23.21.46.29.69.29.81.43,1.66.43,2.52-.01,2.08-.03,4.93,1.24,7.88l.5,1.18c1.05,2.47,2.23,5.26,3.95,7.9,1.68,2.59,3.66,4.71,5.6,6.78l.89.96c.55.6,1.13,1.2,1.72,1.78,1.76,1.76,3.64,3.43,5.62,5,.67.53,1.36,1.04,2.06,1.52.7.49,1.4.96,2.1,1.4,1.4.9,2.79,1.72,4.09,2.47,1.62.94,3.25,1.66,4.81,2.27.51.21,1,.39,1.49.57.28.11.56.21.84.31l.14.05c.72.27,1.44.53,2.14.82.4.17.8.32,1.2.47.8.29,1.59.55,2.38.8.78.24,1.56.46,2.33.67.77.21,1.54.4,2.29.59.38.09.76.19,1.14.28l.29.07c.27.07.54.15.8.24.37.14.81.32,1.56.66.33.15.65.32.95.51.3.19.58.41.85.63,1.8,1.57,2.77,3.95,2.48,6.41-.07.59-.21,1.17-.42,1.72-.13.36-.3.71-.49,1.04-.19.33-.41.65-.64.95-.59.75-1.33,1.38-2.17,1.84-.17.09-.34.18-.52.26-.53.24-1.1.42-1.68.53-.05,0-.1.02-.15.03-.26.04-.51.1-.75.16-.36.09-.73.19-1.1.29-2.57.7-5.28,1.65-8.67,3.03-1.63.66-3.22,1.37-4.76,2.12-1.54.75-3.04,1.55-4.48,2.39-.77.45-1.48.95-2.12,1.46s-1.22,1.05-1.75,1.58c-.43.42-.83.84-1.19,1.24-.19.19-.37.39-.54.57-.13.15-.25.29-.37.41-.35.39-.64.69-.91.95-.16.15-.32.3-.5.43-.27.22-.53.43-.78.65s-.49.44-.73.66c-.23.22-.47.45-.69.67-.45.45-.87.89-1.26,1.33-.6.66-1.15,1.31-1.67,1.92-.27.33-.54.65-.79.94-.13.15-.27.29-.41.43-.14.14-.29.27-.44.4-.31.26-.63.49-.99.69l-.51.3c-1.42.81-3.23,1.86-4.81,3.51-.13.14-.26.28-.39.43-.29.33-.57.68-.84,1.06-.09.12-.17.25-.26.38-.21.33-.41.65-.58.99-.09.16-.17.33-.25.49-.16.33-.31.66-.44.99-.13.33-.25.65-.36.97-.49,1.44-.75,2.83-.98,4.04-.02.11-.04.22-.07.34-.01.1-.03.19-.05.29-.01.05-.02.11-.03.16-.02.1-.04.2-.06.29,0,.05-.02.09-.03.13-.11.47-.26.94-.45,1.38-.2.45-.4.89-.6,1.33l-.05.13c-.97,2.12-2.06,4.53-2.74,7.33-.48,1.96-.85,4.01-1.13,6.28-.05.41-.1.83-.15,1.26-.07.64-.13,1.3-.19,1.98,0,.09-.01.17-.02.25,0,.09-.02.17-.03.25-.03.16-.05.32-.09.48-.04.17-.1.43-.17.71-.04.14-.08.29-.12.44-.04.15-.08.31-.12.45-.06.23-.13.45-.19.69-.13.47-.25.97-.37,1.49-.35,1.56-.62,3.33-.5,5.27.04.63.1,1.26.19,1.88.25,1.86.67,3.61,1.05,5.2.05.22.11.43.15.65.1.43.2.88.29,1.3.05.21.09.41.13.62.48,2.45,1.31,4.69,2.06,6.71.16.44.32.87.47,1.29.07.21.15.41.21.61.07.2.14.4.2.6.04.13.09.25.13.38.05.17.11.34.17.51.42,1.16.88,2.26,1.37,3.33.2.44.41.88.61,1.32.16.34.33.68.49,1.02l.03.07c.17.35.34.7.51,1.06.17.35.34.71.5,1.07,1.34,2.96,2.76,5.71,4.33,8.42.44.75.85,1.63,1.32,2.67.82,1.78,1.75,3.79,3.17,5.74.35.48.69.96,1.04,1.45l.09.13c.18.25.36.51.55.76.36.5.73,1.01,1.11,1.52.95,1.28,1.96,2.56,3.09,3.79.12.13.25.26.37.39.63.64,1.29,1.2,1.95,1.68,1.32.97,2.65,1.66,3.81,2.27.25.13.56.29.81.43.39.21.75.45,1.1.72.17.14.34.28.49.43.08.07.15.15.23.23.07.08.15.16.22.24.13.15.28.32.43.5s.3.37.44.53c.31.39.65.79,1.02,1.21.36.41.75.84,1.18,1.27h0c.21.21.43.43.65.64.45.42.95.84,1.48,1.24.27.2.54.39.83.58.29.19.58.37.87.53.29.17.58.32.87.47.29.14.57.28.86.41,1.14.51,2.26.88,3.33,1.22.27.09.53.17.8.25,1.11.34,1.64.51,2.14.72.09.03.15.07.23.11.35.16.7.31,1.05.46h0c.69.29,1.38.55,2.06.79,1.7.6,3.34,1.06,4.96,1.51l1.17.33c.77.22,1.63.45,2.55.69.23.05.47.11.71.17.48.11.98.23,1.49.33.26.05.52.11.78.16.64.12,1.3.24,1.97.35.67.11,1.38.2,2.08.28,2.26.25,4.73.48,7.31.48.7,0,1.4-.01,2.1-.05.11,0,.24,0,.36,0,.17,0,.35,0,.53.01.17.01.35.03.52.06.04,0,.08,0,.12.01.04,0,.09.01.13.02.19.03.4.07.6.1.09.01.19.03.28.05,1.3.22,2.89.49,4.64.49,1.18,0,2.3-.13,3.37-.37,3.15-.73,5.42-2.56,7.07-3.87l.33-.26c.11-.09.21-.17.33-.25.56-.4,1.18-.72,1.83-.95.13-.05.26-.09.39-.13.13-.03.27-.07.4-.1l.35-.08.35-.08c.5-.11,1.03-.23,1.58-.37,1.66-.41,3.53-1,5.42-2.09.9-.53,1.72-1.1,2.48-1.7.32-.25.63-.49.92-.75.3-.25.58-.5.86-.75.27-.25.54-.49.79-.73.26-.24.51-.47.75-.7.57-.55,1.1-1.04,1.59-1.46.16-.14.33-.27.49-.4l.08-.07h.02c.6-.49,1.2-.97,1.81-1.46,1.82-1.47,3.66-3.03,5.41-4.84.18-.19.36-.36.55-.52.19-.16.4-.32.61-.46.06-.04.12-.08.19-.13.06-.04.13-.09.19-.13.09-.07.2-.13.3-.19.05-.03.1-.07.15-.1.1-.06.2-.13.29-.19.12-.07.24-.15.36-.23,1.47-.94,3.16-2.06,4.64-3.71.09-.1.19-.21.27-.31.27-.31.54-.65.79-1.02.2-.28.39-.57.57-.86,1.08-1.74,1.82-3.54,2.43-5.12.05-.13.1-.26.15-.39.05-.13.1-.25.15-.37.13-.35.25-.65.35-.94.04-.09.07-.19.11-.27.09-.23.19-.45.27-.65.13-.3.26-.57.39-.82Z" fill="#ff7900"/>
      <path d="M405.32,288.14l-.24-.75c-.21-.65-.32-1.32-.34-1.99l-.03-1.16c-.06-2.2-.12-4.7-.6-7.32-.09-.5-.13-1.02-.11-1.52,0-.29.03-.72.05-1.11.11-2.13.25-5.05-.89-8.02-.98-2.58-2.44-4.7-3.73-6.57-.51-.75-1.05-1.53-1.46-2.22-1.5-2.53-3.45-5.18-5.95-8.12-1.84-2.17-3.89-3.89-5.92-5.58-.47-.39-.94-.78-1.38-1.17-.57-.49-1.19-1.1-1.9-1.81-1.45-1.45-3.25-3.25-5.54-4.72-2.69-1.71-5.44-2.2-7.68-2.61-.28-.05-.61-.11-.89-.16-.88-.17-1.72-.51-2.49-.98-.37-.23-.86-.55-1.24-.81-1.84-1.22-3.92-2.59-6.67-3.39-.63-.18-1.26-.37-1.89-.57l-1.12-.34c-3.05-.92-5.15-3.69-5.22-6.87-.07-3.18,1.91-6.04,4.91-7.09,1.96-.69,3.63-1.68,4.98-2.48.33-.19.73-.43,1.05-.61.85-.49,1.8-.8,2.78-.92.28-.03.61-.07.9-.1,2.22-.23,5-.53,7.78-2,3.1-1.64,5.86-3.65,8.31-5.43,2.63-1.92,4.08-4.45,5.16-6.34.12-.21.25-.44.37-.64.35-.59.77-1.12,1.27-1.59.35-.34.75-.7,1.16-1.08,1.62-1.48,3.45-3.17,5.04-5.4,1.62-2.29,2.55-4.66,3.29-6.57.33-.85.64-1.64.96-2.32.32-.67.68-1.35,1.1-2.14,1.02-1.93,2.19-4.12,2.95-6.79,1.01-3.52,1.65-6.56,2.02-9.57.42-3.45.61-6.34.57-9.1,0-.58.06-1.16.19-1.72.06-.28.15-.65.23-.95.52-2.12,1.16-4.77.69-7.83-.43-2.78-1.74-4.9-2.97-6.6-1.02-1.43-1.5-3.18-1.35-4.93.19-2.1.23-4.61-.84-7.26-.93-2.3-2.08-4.38-3.21-6.4l-.05-.09c-.39-.7-.77-1.4-1.14-2.09-1.37-2.58-2.98-5.56-4.83-8.32-1.57-2.35-3.62-3.75-5.6-4.92-1.4-.83-2.48-2.1-3.09-3.61-.85-2.13-1.92-4.36-3.93-6.25-1.92-1.78-3.97-3.07-5.78-4.2-.78-.49-1.59-1-2.26-1.47-.62-.44-1.27-1-2.19-1.78-1.54-1.32-3.47-2.97-5.81-4.17-2.49-1.28-5.03-2.02-7.27-2.69l-.15-.04c-.7-.21-1.4-.41-2.08-.63-3.02-1-6.33-1.77-9.82-2.3-.65-.1-1.32-.21-2-.33l-.12-.03c-2.25-.4-4.8-.86-7.52-.86-.16,0-.31,0-.48,0-2.75.05-5.26.79-7.29,1.38-1.17.35-1.93.56-2.65.69-.73.14-1.57.26-2.38.38-2.24.33-4.78.69-7.41,1.64-2.96,1.06-4.98,3.06-6.33,4.39-1.08,1.06-2.46,1.76-3.95,2.01-2.01.34-5.04.84-7.76,2.82-2.26,1.64-3.96,3.65-5.33,5.28-.8.96-1.37,1.62-1.92,2.15-2.66,2.59-4.9,5.09-6.85,7.64-1.79,2.33-2.67,4.82-3.37,6.81-.33.95-.53,1.48-.73,1.93-.09.22-.2.44-.32.65l-.53.95c-1.38,2.44-2.81,4.97-3.96,7.94-1.12,2.88-2.03,5.95-2.89,9.65,0,.03-.02.07-.03.1-.16.65-.39,1.3-.87,2.57-.77,2.05-1.65,4.36-1.89,7.18-.23,2.72.13,5.28.43,7.33.14.98.28,2,.33,2.87.04.65.07,1.31.09,1.96v.12c.11,2.41.21,5.15.79,8,.03.15.06.3.08.45.08.58.11,1.26.17,2.34.11,2.24.22,4.8,1.21,7.53,1.05,2.92,2.9,4.98,4.38,6.63.28.31.63.71.87.98.4.47.73.99,1.01,1.54.28.58.6,1.3.94,2.05.87,1.98,1.86,4.23,3.44,6.4,1.74,2.39,3.71,4.36,5.45,6.09.47.47.96.95,1.43,1.44,2.68,2.75,5.5,5,7.66,6.67,2.18,1.67,4.5,2.75,6.35,3.6.67.31,1.33.62,1.85.88.59.31,1.14.69,1.64,1.14.23.21.54.51.82.78,1.61,1.54,3.61,3.45,6.55,4.59.64.25,1.28.51,1.93.77,1.72.69,3.5,1.42,5.4,2.01,3.11.97,5.2,3.87,5.14,7.13-.05,3.25-2.25,6.09-5.39,6.95-.61.17-1.23.35-1.86.53l-.92.27c-2.91.85-5.91,1.74-8.88,3.11-2.64,1.21-4.52,2.94-6.2,4.48-.73.67-1.24,1.13-1.7,1.48-.15.12-.31.23-.48.34-3.07,1.99-5.72,3.97-8.12,6.06-2.06,1.8-3.51,3.89-4.68,5.57-.28.4-.56.81-.82,1.16-.58.8-1.31,1.48-2.15,1.98l-.42.25c-1.94,1.16-4.61,2.76-6.45,5.65-1.76,2.76-2.21,5.72-2.55,7.92-.05.29-.1.63-.15.92-.11.69-.33,1.36-.63,1.98-.25.51-.53,1.08-.85,1.69-1.02,1.99-2.16,4.24-2.92,6.85-.77,2.69-.86,5.24-.93,7.31-.04,1.25-.07,2.06-.17,2.8-.11.77-.23,1.52-.37,2.28l-.04.23c-.39,2.23-.82,4.76-.81,7.53.01,3.17.28,6.47.81,10.09.41,2.73,1.22,5.13,1.93,7.25.3.88.58,1.72.8,2.45.24.81.43,1.75.64,2.78.41,2,.91,4.5,2.06,7,1.14,2.47,2.61,4.48,3.91,6.29.35.48.68.94.98,1.37.45.65.8,1.36,1.02,2.12.07.25.15.53.22.76.6,2.14,1.43,5.06,3.63,7.58,2.2,2.52,5,3.7,7.07,4.57l.75.31c.66.29,1.28.67,1.83,1.14,1.86,1.58,4.38,3.63,7.35,5.53,2.45,1.56,4.86,2.62,6.98,3.54l.4.17c.82.36,1.57.87,2.21,1.5l.26.26c1.6,1.6,3.8,3.79,7.14,4.71,1.08.29,2.21.44,3.38.44,1.77,0,3.4-.33,4.9-.7.57-.14,1.16-.21,1.74-.21.85,0,1.7.15,2.51.45,1.57.57,3.95,1.44,6.71,1.44.31,0,.63-.01.94-.03,3.74-.27,7-.74,9.97-1.46,3.54-.86,6.75-1.88,9.55-3.04.73-.31,1.57-.61,2.38-.91,2.1-.77,4.49-1.64,6.79-3.01,2.2-1.31,3.94-2.94,5.49-4.39.76-.71,1.48-1.38,2.13-1.9.63-.49,1.36-1.01,2.13-1.56l.07-.05c1.73-1.22,3.68-2.6,5.48-4.42,2.11-2.14,3.11-4.59,3.92-6.58,0,0,.27-.65.36-.86.24-.57.55-1.11.94-1.6,1.54-2.02,2.83-4.05,4.09-6.05l.43-.68c.34-.54.75-1.04,1.22-1.47.21-.19.49-.45.73-.66,1.55-1.39,3.47-3.11,4.79-5.73,1.28-2.56,1.62-5.08,1.91-7.17.06-.44.14-.99.19-1.32.07-.42.19-.84.33-1.25,1-2.75,1.64-5.36,2.33-8.24.14-.59.36-1.18.65-1.72.13-.25.32-.6.47-.87,1.04-1.9,2.34-4.26,2.65-7.29.33-3.18-.57-5.93-1.24-7.95Z" fill="#ff7900"/>
      <path d="M273.62,356.48c-.26-.75-.51-1.48-.73-2.14-.05-.16-.1-.32-.15-.47-.25-.87-.58-1.68-.96-2.42-.13-.25-.26-.49-.39-.73-.9-1.56-1.95-2.84-2.81-3.87l-.31-.37c-.76-.91-1.29-1.99-1.53-3.15l-.15-.69c-.08-.4-.17-.82-.26-1.26-.03-.15-.07-.29-.1-.44-.07-.29-.15-.59-.23-.9-.41-1.54-1.02-3.18-2.06-4.8-.24-.37-.49-.75-.73-1.12-.49-.74-.99-1.46-1.5-2.16-.88-1.22-1.77-2.4-2.68-3.51-.29-.35-.57-.69-.87-1.04-.12-.15-.25-.29-.37-.43-.68-.78-1.39-1.5-2.1-2.16-.47-.44-.96-.87-1.43-1.27-.71-.6-1.42-1.17-2.09-1.7-.27-.22-.54-.43-.81-.66-.43-.34-.85-.69-1.24-1.03-2.04-1.78-4.22-2.97-6.15-4.05-.44-.24-.87-.48-1.28-.71-.41-.23-.79-.47-1.16-.7h0c-.7-.45-1.47-1.04-2.3-1.66-1.74-1.32-3.71-2.81-6.21-3.95-2.47-1.13-4.88-1.64-7.01-2.1-1.01-.22-1.96-.42-2.8-.67-.79-.23-1.65-.57-2.66-.97-.32-.13-.65-.25-.98-.39-.68-.26-1.4-.52-2.16-.77-.38-.13-.77-.24-1.18-.35-.06-.01-.11-.03-.17-.05-.14-.04-.28-.09-.42-.14-.19-.07-.38-.15-.56-.23h0c-.36-.17-.71-.37-1.04-.59-.17-.11-.33-.23-.48-.35-.15-.13-.3-.26-.44-.39-.07-.07-.15-.14-.2-.21-.13-.12-.25-.25-.35-.39-.21-.24-.39-.49-.56-.75,0,0,0-.01,0-.01-.09-.14-.18-.29-.27-.45-.13-.23-.24-.47-.34-.72-.05-.14-.11-.28-.15-.42-.06-.18-.12-.37-.17-.57-.05-.19-.09-.39-.12-.59-.07-.39-.1-.79-.1-1.2,0-.26.01-.53.04-.79.01-.11.03-.22.05-.33.05-.33.12-.65.21-.96.09-.31.21-.62.34-.92.09-.19.18-.39.29-.57,1.2-2.14,3.49-4.52,6.01-5.09.78-.17,2.58-.8,4.84-1.21,2.04.17,4.08.13,5.97.56,2.45.55,4.93.96,7.13,1.7,2.42.81,4.56,2.19,6.59,3.24,3.15,1.62,7.08-.29,7.43-3.72.24-2.4.76-4.93,1.4-7.54.58-2.38.67-5.08,1.54-7.57.82-2.35,3-4.26,4.05-6.65,1.01-2.31,1.96-4.66,3.15-6.95,1.17-2.26,1.66-4.92,2.97-7.12,1.31-2.2,2.33-4.65,3.76-6.74,1.46-2.14,3.79-3.65,5.34-5.62,1.62-2.06,3.51-3.79,5.19-5.62,1.8-1.96,3.37-3.98,5.2-5.6,2.04-1.8,4.16-3.2,6.17-4.48,2.99-1.9,2.32-6.61-.61-8.61-1.98-1.36-3.76-3.25-5.75-5.11-1.8-1.68-3.07-3.96-4.84-5.96-1.65-1.88-3.74-3.45-5.33-5.55-1.52-2.02-3.41-3.84-4.85-6.01-1.41-2.13-1.99-4.79-3.29-7.02-1.3-2.22-3.69-3.85-4.87-6.12-1.19-2.31-2.47-4.6-3.5-6.92-1.07-2.4-.79-5.31-1.66-7.65-.93-2.51-2.51-4.69-3.17-7.06-.73-2.63-.31-5.33-.66-7.7-.5-3.41-4.7-5.19-7.99-3.83-2.3.95-5.04,1.19-7.71,1.92-.68.19-1.35.45-2.02.73,0,0,0,0,0,0-1.64.37-7.82.26-9.4-.33-.75-.28-1.46-.55-1.96-.73h0c-.33-.12-.57-.21-.67-.24-.02,0-.03-.01-.05-.01-2.9-.65-5.12-3-5.62-5.94-.11-.61-.13-1.21-.08-1.8h0c.03-.4.09-.78.18-1.15.05-.19.1-.37.16-.55h0c.09-.29.21-.58.34-.86.13-.28,1.2-1.12,1.3-1.23.43-.46.91-.86,1.45-1.2l.73-.45c.21-.13.46-.29.69-.43.07-.05.15-.09.21-.13.13-.07.25-.15.38-.21.39-.21.79-.37,1.22-.51,2.46-.78,7.28-2.51,9.18-3.45l.15-.07c.57-.29,1.16-.57,1.75-.85.18-.09.37-.17.57-.23.19-.07.39-.14.59-.19.05-.01.1-.03.15-.04.05-.01.11-.03.17-.04.13-.03.27-.07.41-.1.21-.05.45-.11.65-.15.07-.01.14-.03.21-.05,2.1-.47,4.72-1.06,7.26-2.69.16-.11.33-.21.51-.31.18-.11.37-.22.58-.33.31-.17.66-.35,1.07-.56.13-.07.27-.15.42-.22.23-.12.48-.24.73-.37.25-.13.5-.26.76-.4.26-.13.52-.28.79-.43.53-.29,1.08-.62,1.62-.97.82-.52,1.63-1.12,2.41-1.79.52-.45,1.02-.92,1.5-1.4.24-.24.47-.48.7-.73.45-.49.89-.98,1.31-1.47.41-.49.81-.97,1.2-1.44.19-.23.38-.47.57-.69l.05-.07.06-.09c.13-.15.26-.31.39-.47.13-.16.25-.31.38-.47.25-.31.51-.61.77-.91,1.78-2.06,3.07-4.29,4.2-6.27.13-.21.25-.42.37-.63.24-.41.47-.82.71-1.2.12-.19.23-.38.35-.56,1.5-2.32,3.55-5.5,5.1-8.9,1.28-2.78,1.44-5.48,1.58-7.71.02-.31.05-.65.07-.96.01-.19.03-.35.04-.48.02-.23.06-.44.1-.66.05-.22.1-.43.16-.65.45-1.54.97-3.31,1.42-5.24.07-.29.13-.59.2-.88.19-.89.37-1.81.51-2.77.03-.17.06-.33.1-.5.03-.12.05-.23.09-.35.04-.14.08-.28.13-.41s.09-.27.15-.4c.03-.07.06-.15.1-.23.1-.24.22-.52.32-.75.43-1,.94-2.16,1.34-3.49.1-.33.19-.67.27-1.03.25-1.06.41-2.19.41-3.41,0-1.42-.11-2.79-.26-4.09-.08-.65-.17-1.29-.26-1.9s-.19-1.22-.29-1.8v-.07s-.03-.09-.03-.14c-.07-.45-.15-.89-.21-1.33-.01-.08-.03-.16-.04-.24-.01-.09-.03-.17-.04-.25-.05-.36-.11-.71-.18-1.06-.07-.34-.15-.68-.25-1.01-.53-1.96-1.35-3.63-2.03-5.04l-.33-.67c-.12-.25-.22-.5-.31-.75-.13-.36-.22-.71-.29-1.08-.08-.44-.12-.88-.12-1.32v-.37c0-1.06,0-2.3-.15-3.63-.02-.16-.04-.32-.07-.48-.02-.16-.05-.33-.08-.49-.03-.17-.06-.33-.1-.5-.11-.51-.25-1.02-.43-1.54-.05-.17-.12-.35-.19-.52-.14-.34-.29-.69-.47-1.04-.33-.67-.68-1.32-1.04-1.95-.24-.42-.47-.84-.71-1.24-.6-1.01-1.2-1.95-1.78-2.81-.23-.34-.45-.67-.67-.98-.11-.16-.22-.31-.33-.47-.23-.33-.46-.65-.68-.95-.07-.1-.14-.19-.21-.29-.13-.17-.25-.33-.39-.49-.13-.17-.27-.33-.41-.47-.14-.15-.28-.29-.42-.43-.43-.43-.87-.81-1.31-1.15-.44-.34-.9-.64-1.34-.93-.15-.09-.3-.18-.45-.27t0,0c-.29-.17-.59-.33-.88-.48-.15-.08-.29-.15-.43-.23-.28-.15-.55-.28-.81-.4,0,0,0,0,0,0-.13-.06-.26-.12-.39-.18l-.23-.12c-.58-.29-1.13-.64-1.62-1.06-.11-.1-.22-.19-.32-.3-.19-.19-.37-.38-.54-.58-.09-.11-.19-.23-.29-.36-.1-.12-.2-.24-.29-.36-.33-.42-.68-.85-1.05-1.28-.74-.88-1.56-1.77-2.53-2.63-.37-.32-.76-.63-1.17-.95h0c-.13-.1-.27-.2-.42-.3-.27-.19-.53-.37-.81-.54-.55-.34-1.1-.65-1.64-.92-.82-.41-1.62-.77-2.38-1.09-.51-.21-1-.4-1.46-.58-1.12-.44-1.85-.73-2.48-1.04-.09-.05-.19-.1-.29-.15-.25-.14-.5-.29-.81-.5-.16-.1-.33-.21-.51-.34-.19-.13-.4-.27-.63-.44-.43-.3-.88-.61-1.35-.93-.37-.25-.77-.5-1.18-.75-1.1-.67-2.33-1.3-3.75-1.79-2.34-.81-4.64-1.18-6.67-1.5-.94-.15-1.9-.3-2.79-.49h0c-1.09-.23-2.19-.47-3.32-.7-.28-.05-.57-.11-.85-.16-.44-.09-.88-.17-1.32-.24-.43-.08-.86-.15-1.3-.21-.79-.12-1.6-.23-2.43-.31-.15-.02-.31-.04-.45-.07-.15-.03-.3-.05-.45-.09-.05-.01-.11-.03-.17-.05-.13-.03-.27-.07-.42-.11-.12-.03-.24-.07-.37-.11-.13-.03-.27-.08-.43-.13-.11-.03-.23-.07-.35-.1-1.9-.56-4.27-1.27-6.99-1.27-.55,0-1.08.03-1.59.09-.34.04-.67.09-1,.14-.82.14-1.59.34-2.32.56-.58.17-1.13.37-1.65.55-.26.09-.51.18-.76.27l-.66.23c-.8.29-1.63.43-2.47.43-.19,0-.37,0-.56-.02-.16-.01-.33-.03-.51-.05h0c-.18-.01-.36-.03-.53-.05-.25-.02-.52-.05-.79-.07-.27-.02-.55-.04-.84-.06-.57-.03-1.16-.06-1.78-.06-.33,0-.65,0-.97.02-.32.01-.63.03-.94.07-.31.03-.6.07-.9.11-.17.03-.35.06-.52.09-.12.03-.23.05-.35.07-.11.03-.23.05-.35.08-.12.02-.23.05-.35.08-2.2.55-4.18,1.36-5.92,2.08-.77.31-1.4.57-1.98.79-.09.03-.19.07-.28.1-.09.04-.19.07-.28.11-.61.21-1.21.45-1.78.69-.57.25-1.11.51-1.63.79-.52.27-1.02.55-1.5.83-.49.27-.96.55-1.4.82-.84.5-1.63.97-2.34,1.33-2.66,1.34-5.33,2.93-8.15,4.9-.3.21-.61.39-.94.55-.21.1-.57.26-.92.42-.09.04-.19.08-.27.13-.09.03-.17.07-.25.11-1.96.86-4.4,1.92-6.53,3.97-.31.3-.61.6-.92.91-1.22,1.22-2.39,2.49-3.49,3.78-.21.24-.41.49-.61.73-.4.49-.79.98-1.16,1.46-.18.25-.37.49-.55.73-.41.56-.79,1.13-1.16,1.7-.88,1.44-1.58,2.89-2.21,4.26-.12.27-.25.54-.37.81-.07.15-.14.3-.21.45-.07.15-.13.29-.2.43-.18.39-.35.75-.51,1.08-.04.09-.08.17-.12.24-.26.52-.48,1.04-.67,1.54-.37,1.02-.59,2.02-.75,2.97-.07.47-.13.94-.18,1.39-.03.29-.05.59-.08.88-.01.14-.02.28-.03.42,0,.13-.02.27-.03.41-.01.17-.03.37-.05.56-.01.19-.03.38-.04.53-.01.17-.03.34-.07.51-.05.33-.13.67-.23.99-.05.16-.11.32-.17.48-.15.38-.36.9-.55,1.36-.03.07-.05.13-.08.19-.11.25-.21.49-.32.75-.11.25-.21.51-.32.77-.21.53-.42,1.08-.62,1.65-.39,1.15-.73,2.4-.93,3.8-.37,2.53-.19,4.75-.03,6.91.08.96.15,1.94.15,2.81,0,.78-.08,1.62-.23,2.92-.02.16-.03.33-.05.49-.03.33-.07.69-.1,1.04-.16,1.72-.25,3.67.05,5.72.03.21.05.43.08.67.03.23.05.47.06.71.02.25.04.5.05.76.02.27.03.53.05.81.01.27.03.55.05.84.03.57.07,1.16.13,1.75.07.75.16,1.52.29,2.3.06.32.12.63.19.96.07.32.15.64.23.97.05.16.09.33.14.49.21.74.47,1.45.74,2.13.09.23.18.45.28.67.64,1.47,1.37,2.8,2.04,4.03.47.85.96,1.74,1.32,2.53.27.59.53,1.26.8,1.97.09.23.18.47.27.72.1.26.19.53.29.79.41,1.08.85,2.2,1.4,3.35.41.86.89,1.73,1.44,2.59.27.43.56.84.85,1.24.29.39.59.77.9,1.14.61.73,1.24,1.42,1.86,2.06.21.21.41.43.61.63.21.21.41.41.6.61.53.55,1.06,1.07,1.52,1.57.15.17.31.33.45.49.22.26.45.51.68.76.23.25.47.48.7.71.47.47.95.91,1.42,1.33.47.41.95.81,1.42,1.2.46.39.91.75,1.36,1.1.7.55,1.42,1.13,2.06,1.68,1.97,1.71,3.9,3.23,5.86,4.61.33.23.65.45.98.67.33.22.66.44.99.65.09.06.18.12.27.19.09.06.17.13.26.19.09.07.17.14.25.21.08.07.16.14.24.21h0l.11.11.12.12c.09.09.19.18.28.27.09.09.19.19.29.3l.15.15s.09.09.13.14h0s.09.1.14.15l.15.15c1.5,1.52,3.37,3.33,6,4.54,2.89,1.32,7.72,2.73,10.03,2.79.39.01.9.03,1.22.04.52.03,1.04.11,1.54.25l.18.05c1,.27,1.91.74,2.68,1.36.16.13.31.26.45.39,1.45,1.36,2.32,1.94,2.31,4.02,0,2.28-1.07,4.38-2.77,5.73-.19.15-.39.3-.61.43-.21.14-.43.26-.65.37-.45.23-.94.41-1.44.54-.01,0-.03,0-.07.02-.13.04-.41.13-.8.27-.82.28-3.28,1.91-6.12,2.1,0,0,0,0-.01.01-2.51-.28-5.16.33-7.37-.31-2.7-.78-4.7-3.1-6.92-4.11-3.14-1.43-8.1,1.18-8.35,4.52-.18,2.39-.05,4.99-.69,7.7-.57,2.4-.93,5.02-1.82,7.58-.82,2.37-1.44,4.97-2.51,7.41-1.01,2.33-2.39,4.6-3.6,6.94-1.18,2.28-2.14,4.77-3.47,7.01-1.33,2.23-3.07,4.25-4.53,6.38-1.48,2.16-3.24,4.12-4.83,6.13-1.64,2.08-4.09,3.36-5.81,5.22-1.82,1.96-3.57,3.77-5.46,5.41-2.04,1.78-3.16,4.62-5.24,5.95-2.9,1.87-3.61,6.68-.6,8.38,2.19,1.23,4.86,1.88,6.98,3.56,1.99,1.58,3.27,4.03,5.16,5.93,1.81,1.81,3.57,3.66,5.26,5.71,1.65,1.99,4.09,3.41,5.6,5.56,1.5,2.13,1.95,4.95,3.29,7.19,1.35,2.26,3.06,4.26,4.22,6.58,1.19,2.37,2.36,4.71,3.32,7.08,1.01,2.49,1.92,4.94,2.65,7.36.79,2.61,1.05,5.21,1.47,7.66.47,2.74.58,5.27.55,7.71-.05,3.4,5.02,5.51,8.14,3.92,2.02-1.03,4.43-1.51,6.86-2.34,2.19-.74,4.35-1.99,6.81-2.56,1.93-.45,3.95-.82,6-1.15.66.06,1.18.16,1.45.26.22.09.46.18.69.27,1.27.5,2.71,1.08,4.32,1.52,1,.28,1.9.75,2.67,1.38.16.13.31.26.45.39,1.6,1.54,2.48,3.75,2.22,6.09-.2,1.9-1.12,3.57-2.48,4.75-.16.14-.33.27-.49.39h0c-.17.13-.34.25-.52.35h0c-.27.17-.55.31-.85.44-.1.04-.2.08-.3.12-.2.08-.4.15-.61.21-.53.15-1.07.24-1.63.27-.46.03-.94.06-1.44.1-.49.04-1.01.09-1.53.17-.52.07-1.06.15-1.6.27-.54.11-1.08.24-1.63.4-2.97.87-5.16,2.54-6.94,3.89-.25.19-.55.42-.82.62-.08.05-.15.11-.22.16-.07.05-.14.1-.19.14-.03.02-.06.04-.09.06-.15.11-.31.21-.47.29,0,0,0,0,0,0-.16.09-.32.18-.49.26-2.39,1.12-4.35,2.53-6.09,3.77-.74.53-1.5,1.08-2.22,1.54-1.8,1.16-3.48,2.34-5.09,3.59-.96.75-1.9,1.51-2.82,2.3-.25.21-.51.41-.79.59-.2.13-.43.27-.69.43-.07.04-.13.08-.2.12-.2.12-.43.25-.67.39-.23.13-.47.27-.72.41-1.72,1-3.7,2.26-5.41,4.23-2.08,2.39-4.08,5.1-6.12,8.27-.19.29-.36.57-.53.86-.33.57-.63,1.14-.92,1.72-.41.86-.77,1.7-1.11,2.53-.21.54-.42,1.08-.62,1.6-.35.9-.71,1.83-1.08,2.64-1.14,2.48-1.72,4.92-2.26,7.11-.05.22-.11.43-.15.65-.15.63-.31,1.24-.48,1.82-.07.24-.15.49-.25.72-.05.14-.12.29-.19.45-.07.17-.15.35-.25.55-.04.08-.08.17-.13.25-.09.18-.18.38-.29.6-.23.48-.49.99-.73,1.52-.12.27-.25.55-.37.83-.13.31-.25.62-.38.94-.16.43-.31.87-.46,1.33h0c-.1.33-.19.66-.27,1-.12.51-.23,1.04-.31,1.59-.03.2-.05.39-.07.59-.21,2.2.09,4.18.44,5.89.09.43.19.85.27,1.26.05.19.09.41.14.63.05.21.09.42.13.6.07.35.11.71.13,1.07.02.48,0,.97-.07,1.44-.05.39-.15.95-.23,1.39-.29,1.72-.66,3.81-.5,6.13.03.34.07.69.11,1.04.29,2.02.63,4.12,1.1,6.25.16.74.35,1.49.55,2.24.11.41.23.82.36,1.24.42,1.36.94,2.6,1.5,3.75.28.57.57,1.13.85,1.67.14.27.29.53.43.79.15.26.29.51.43.77.21.37.41.73.59,1.08.18.34.35.66.49.94.01.03.03.06.05.09.26.55.49,1.17.92,2.37.19.51.38,1.06.59,1.6.47,1.24,1.04,2.53,1.82,3.83.13.21.27.43.41.64.14.22.29.43.45.65.06.08.13.17.19.25.08.11.17.22.25.33.13.15.25.3.37.45.1.12.19.23.29.34.18.19.35.38.53.56.56.59,1.14,1.14,1.7,1.64.17.15.34.29.51.44.5.43,1,.83,1.45,1.2.19.16.39.31.57.47.18.15.36.29.53.44.17.14.33.28.49.43.16.14.31.28.47.43h0c.06.06.12.12.17.18.13.13.25.25.37.4.13.15.27.3.41.47.22.26.47.55.75.9.34.42.7.85,1.08,1.3.47.55.98,1.12,1.52,1.67.66.66,1.4,1.32,2.22,1.94.14.11.28.21.42.31,2.74,1.91,5.71,2.3,7.92,2.6l.49.07c.75.11,1.48.33,2.16.65,1.82.88,3.77,1.7,5.95,2.51.31.11.63.23.95.34.24.09.48.19.72.3.47.22.9.5,1.31.81l.37.29c.53.41,1.12.88,1.78,1.34.39.27.81.55,1.26.81.75.44,1.56.86,2.47,1.18.54.2,1.11.37,1.71.5,1.22.26,2.5.39,3.95.39.81,0,1.59-.04,2.34-.09.25-.02.49-.03.73-.05.33-.02.67-.04,1.01-.06.33-.02.67-.03.98-.03h.03c.25,0,.49.01.72.03.25.03.51.05.76.07.87.07,1.78.1,2.78.1,1.08,0,2.06-.03,3.12-.07.62-.03,1.22-.05,1.78-.05h.15c.36,0,.72.03,1.07.08.37.05.74.14,1.09.25.22.07.47.14.68.2,1.68.51,3.79,1.16,6.21,1.16.23,0,.46,0,.69-.02.23-.01.45-.03.67-.05l.71-.07c2.78-.29,5.93-.61,8.91-1.26.36-.08.71-.17,1.06-.27.34-.1.67-.21,1-.33.32-.12.63-.25.94-.38,1.52-.67,2.79-1.5,3.9-2.22.31-.2.71-.47,1-.63.45-.28.94-.51,1.44-.68.33-.11.66-.23,1-.35.76-.27,1.54-.55,2.34-.84.27-.1.53-.2.8-.31,1.44-.55,2.91-1.18,4.36-1.9.3-.15.59-.31.88-.47,1.14-.63,2.16-1.32,3.11-2.02.71-.52,1.38-1.05,2.03-1.56.17-.14.35-.27.52-.41.35-.27.67-.53,1-.76.16-.12.32-.24.48-.35.56-.39,1.1-.8,1.6-1.22s.98-.84,1.43-1.26c.9-.84,1.72-1.68,2.49-2.49.15-.15.29-.3.43-.45.14-.15.29-.29.42-.43.27-.28.53-.54.77-.77.44-.42.96-.84,1.68-1.4.1-.08.21-.16.31-.25.41-.31.83-.65,1.26-.99,1.29-1.04,2.64-2.25,3.87-3.87.23-.29.47-.57.73-.82.19-.18.5-.47.79-.73.1-.09.19-.18.29-.26.13-.11.26-.23.39-.35.26-.24.53-.49.81-.75.14-.13.28-.26.42-.39l.34-.34c.33-.34.67-.7,1-1.09.33-.38.65-.79.96-1.23.41-.58.8-1.21,1.15-1.9.32-.63.61-1.28.87-1.92.13-.31.24-.61.36-.92.24-.66.46-1.32.67-1.97.3-.95.57-1.88.82-2.77l.03-.13c.19-.64.37-1.28.57-1.92.95-3.07.51-5.95.23-7.85-.22-1.44,0-2.91.61-4.22.12-.26.25-.53.37-.8.25-.54.48-1.12.7-1.71h0c.16-.46.31-.92.44-1.4.31-1.13.51-2.35.51-3.68,0-.43,0-.87.02-1.33,0-.11,0-.23.01-.35,0-.24.02-.48.03-.73,0-.13,0-.25.01-.38.02-.41.03-.83.05-1.26.01-.43.03-.86.04-1.31.03-1.6,0-3.3-.25-5.03-.39-2.74-1.26-5.2-2.02-7.38Z" fill="#ff7900"/>
    </g>
  </g>
</svg>