<?xml version="1.0" encoding="UTF-8"?>
<svg id="Layer_1" data-name="Layer 1" xmlns="http://www.w3.org/2000/svg" viewBox="0 0 1236.94 482.01">
  <g>
    <path d="M78.06,102.58c-16.24,0-29.4,17.43-29.4,38.92s13.16,38.92,29.4,38.92,29.4-17.43,29.4-38.92-13.16-38.92-29.4-38.92Z" fill="#eb741d"/>
    <path d="M27.1,323.21c4.62-7.69,7.44-18.01,7.44-29.35,0-23.76-12.4-43.03-27.7-43.03-.03,0-.07,0-.1,0-2.62.01-4.94,1.19-6.54,3.02,1.34,25.54,6.67,50.03,15.36,72.86,3.93,1.78,8.97.77,11.53-3.5Z" fill="#eb741d"/>
    <ellipse cx="78.06" cy="345.07" rx="29.4" ry="38.92" fill="#eb741d"/>
    <circle cx="241.98" cy="241" r="48.46" transform="translate(-48.9 62.04) rotate(-13.28)" fill="#eb741d"/>
    <path d="M407.55,83.32c4.47,0,8.71-1.21,12.58-3.39-13.29-14.78-28.36-27.9-44.9-39.03.25,23.49,14.62,42.42,32.32,42.42Z" fill="#eb741d"/>
    <path d="M287.86,14.41c12.63,20.13,39.18,26.22,59.31,13.6.02-.01.04-.02.06-.03.94-.59,1.48-1.49,1.66-2.46-20.1-10.09-41.8-17.46-64.62-21.61-.45.88-.56,1.93-.16,2.98.99,2.58,2.23,5.1,3.76,7.53Z" fill="#eb741d"/>
    <ellipse cx="75.13" cy="242.25" rx="32.34" ry="43.03" fill="#eb741d"/>
    <ellipse cx="155.79" cy="396.39" rx="38.45" ry="40.85" fill="#eb741d"/>
    <path d="M75.14,399.93c-.05,0-.11,0-.16,0-4.73.03-7.85,3.79-8.09,7.83,12.11,12.63,25.57,23.94,40.17,33.7.8-1.13.93-3.07.93-4.76,0-23.76-14.99-36.77-32.85-36.77Z" fill="#eb741d"/>
    <path d="M6.75,236.53s.07,0,.1,0c15.3,0,27.7-19.26,27.7-43.03,0-12.12-3.23-23.07-8.42-30.89-2.85-4.3-8.09-5.17-12.09-3.19C5.69,182.65.8,207.52,0,233.43c1.66,1.88,4.04,3.08,6.75,3.1Z" fill="#eb741d"/>
    <path d="M343.95,455.03c-5.89-3.03-12.56-4.73-19.63-4.73-16.92,0-31.55,9.76-38.58,23.95-.61,1.23-.49,2.52.08,3.56,21.17-3.99,41.36-10.74,60.18-19.88-.16-1.17-.83-2.28-2.04-2.9Z" fill="#eb741d"/>
    <path d="M151.13,250.83c-22.31,0-40.4,19.27-40.4,43.03s18.09,43.03,40.4,43.03,40.4-19.27,40.4-43.03-18.09-43.03-40.4-43.03Z" fill="#eb741d"/>
    <ellipse cx="155.79" cy="95.33" rx="38.45" ry="40.85" fill="#eb741d"/>
    <path d="M151.13,150.47c-22.31,0-40.4,19.26-40.4,43.03s18.09,43.03,40.4,43.03,40.4-19.27,40.4-43.03-18.09-43.03-40.4-43.03Z" fill="#eb741d"/>
    <path d="M61.22,80.38s.07.06.11.09c4.19,2.63,8.87,4.11,13.81,4.11,17.86,0,32.33-19.26,32.33-43.03v-.04c0-.39-.11-.74-.26-1.05-16.97,11.34-32.42,24.77-45.99,39.93Z" fill="#eb741d"/>
    <path d="M330.79,134.93c21.24,0,38.45-18.29,38.45-40.85s-17.22-40.85-38.45-40.85-38.45,18.29-38.45,40.85,17.21,40.85,38.45,40.85Z" fill="#eb741d"/>
    <path d="M475.53,249.58h-.09c-15.07,0-27.3,19.27-27.3,43.03,0,11.47,2.85,21.9,7.49,29.61,2.44,4.05,7.18,5.08,10.92,3.49,8.64-23.02,13.87-47.71,15.05-73.46-1.53-1.62-3.68-2.66-6.08-2.68Z" fill="#eb741d"/>
    <path d="M420.13,402.08c-3.87-2.18-8.11-3.39-12.58-3.39-17.71,0-32.08,18.93-32.32,42.42,16.54-11.13,31.62-24.25,44.9-39.03Z" fill="#eb741d"/>
    <path d="M201.26,40.3c0,22.48,18.23,40.71,40.71,40.71s40.71-18.23,40.71-40.71c0-20.21-14.73-36.97-34.03-40.16-2.59-.08-5.18-.14-7.79-.14-1.73,0-3.45.03-5.17.07-19.51,3.02-34.44,19.88-34.44,40.23Z" fill="#eb741d"/>
    <path d="M135.44,29.2s.05.03.07.04c20.14,12.63,46.69,6.54,59.31-13.6,1.5-2.39,2.74-4.88,3.72-7.42.61-1.59.28-3.21-.6-4.42-22.83,4.11-44.54,11.44-64.66,21.49.01,1.5.71,2.98,2.16,3.89Z" fill="#eb741d"/>
    <path d="M248.66,481.87c19.3-3.19,34.03-19.95,34.03-40.16,0-22.49-18.23-40.71-40.71-40.71s-40.71,18.23-40.71,40.71c0,20.35,14.93,37.21,34.44,40.23,1.72.04,3.45.07,5.18.07,2.61,0,5.2-.06,7.79-.14Z" fill="#eb741d"/>
    <circle cx="241.98" cy="344.54" r="43.03" fill="#eb741d"/>
    <path d="M194.97,471.93c-7.59-12.24-21.14-20.4-36.6-20.4-5.73,0-11.2,1.12-16.2,3.15-2.14.87-3.18,2.86-3.11,4.81,17.48,8.16,36.1,14.28,55.56,18.07,1.2-1.52,1.55-3.7.35-5.62Z" fill="#eb741d"/>
    <circle cx="241.98" cy="137.47" r="43.03" fill="#eb741d"/>
    <ellipse cx="410.49" cy="141.5" rx="29.4" ry="38.92" fill="#eb741d"/>
    <ellipse cx="410.49" cy="340.51" rx="29.4" ry="38.92" fill="#eb741d"/>
    <ellipse cx="407.55" cy="241" rx="32.34" ry="43.03" fill="#eb741d"/>
    <ellipse cx="331.55" cy="292.61" rx="40.4" ry="43.03" fill="#eb741d"/>
    <path d="M456.15,161.81c-4.95,7.79-8.01,18.55-8.01,30.44,0,23.77,12.22,43.03,27.3,43.03.03,0,.06,0,.09,0,2.44-.01,4.62-1.06,6.18-2.71-.89-25.96-5.88-50.88-14.35-74.12-3.78-1.68-8.64-.69-11.21,3.37Z" fill="#eb741d"/>
    <ellipse cx="331.55" cy="192.26" rx="40.4" ry="43.03" fill="#eb741d"/>
    <path d="M330.79,354.73c-21.24,0-38.45,18.29-38.45,40.85s17.21,40.85,38.45,40.85,38.45-18.29,38.45-40.85-17.22-40.85-38.45-40.85Z" fill="#eb741d"/>
  </g>
  <g>
    <path d="M1197.57,318.85c-.79-1.85-2.9-2.38-4.48-2.38-7.12.27-14.23,1.85-21.35,2.11-6.41.59-12.9.77-19.42.77-5.28,0-10.59-.12-15.89-.24,15.02-17.92,34.78-31.89,52.18-47.43,2.37-1.85,8.17-5.27,6.06-8.7-.48-1.11-1.34-1.56-2.3-1.56-.63,0-1.29.19-1.92.51-18.45,10.8-45.59,39-61.66,54.81-5.31-3.65-11.68-5.01-17.63-5.01-10.21,0-19.22,3.99-19.69,7.27-17.38,12.57-36.02,22.04-55.17,25.41-2.01.39-3.94.61-5.69.61-5.39,0-9.14-2.16-8.54-8.52,1.36-11.9,30.19-43.76,50.41-64.72h.01c4.65-4.84,8.83-9.08,12.13-12.37,1.73-1.72,3.21-3.18,4.38-4.33.99-.96,1.98-1.92,2.97-2.88,8.76-8.48,17.57-16.72,26.81-24.53,5.27-4.74,12.38-9.22,17.13-14.23,1.05-1.32,1.31-2.9,0-4.22-.72-.71-1.33-.99-1.92-.99-.73,0-1.43.41-2.3.99-15.42,10.62-29.15,23.66-42.56,36.57-.57.54-1.14,1.09-1.71,1.64-1.25,1.2-2.83,2.75-4.68,4.59-5.66,5.6-13.82,13.89-22.51,23.17-12.57,13.42-26.24,28.88-35.08,41.27-.14-.01-.29-.02-.45-.02-.17,0-.34.01-.52.03-8.3,1.19-16.61,2.23-25.02,2.23-2.8,0-5.62-.12-8.45-.38,3.16-4.48,5.53-10.02,7.64-15.02,1.32-3.95,1.85-5.27.26-9.49-1.46-3.39-4.28-4.81-7.63-4.81-13.57,0-35.75,23.29-10.81,33.01-3.14,4.1-20.39,22.1-28.35,22.1-.74,0-1.4-.16-1.96-.49-8.17-5.01,12.13-25.3,15.29-29.78,1.59-2.39-.12-5.23-2.53-5.23-.78,0-1.64.3-2.48,1.01-.07.06-.13.12-.2.18-1.05-.05-2.2-.07-3.44-.07-16.04,0-46.54,3.69-61.18,4.64v-.53c7.12-6.59,16.07-14.23,22.14-22.14,1.88-2.51.77-5.36-1.62-5.36-.62,0-1.32.19-2.07.62-17.4,9.49-33.21,20.82-51.13,29.78-7.11.26-14.23.52-21.34,1.05-8.03-2.81-17.12-3.63-25.89-3.63-2.75,0-5.46.08-8.1.21-9.23.26-35.05,2.1-42.69,5.53-2.9,1.32-3.69,5.53,0,6.59,3.36.87,8.84,1.15,14.74,1.15,8.4,0,17.67-.58,22.94-.89,12.65-.79,25.03-1.84,37.68-2.63l3.16,1.05c-23.19,8.96-41.11,14.18-65.62,18.93-5.74,1.09-10.31,1.54-19.41,1.54-8.44,0-12.46-1.25-16.65-5.18-5.8-5.27-2.9-16.91.53-22.71,11.07-19.24,26.41-34.81,47.06-46.79,10.77-6.25,24.12-13.87,37.76-20.48,3.06-1.48,6.14-2.92,9.19-4.29,14.01-6.3,27.64-11.21,38.12-12.59,1.1-.15,2.16-.25,3.18-.32.33-.02.66-.04.98-.05.46-.02.91-.03,1.35-.03,1.36,0,2.64.09,3.83.27,15.18,2.31-1.35,18.13-10.59,25.98l-1,4.84-1.13,5.44c13.56-10.22,25.45-22.64,24.32-32.31-.27-3.16-2.38-7.64-5.27-9.22-2.13-1.25-5.01-1.81-8.48-1.81-1.78,0-3.72.15-5.79.43-10.47,1.41-24.27,6.2-38.18,12.1-3.08,1.3-6.16,2.66-9.21,4.05-14.33,6.53-28.04,13.72-37.53,19.06-3.64,2.04-6.66,3.81-8.86,5.17-13.17,8.17-15.61,10.92-26.68,21.72-8.17,7.91-14.28,17.13-19.82,27.14-3.95,6.85-7.43,18.34-2.16,25.98,5.1,7.36,12.35,10.18,25.03,10.18,33.17,0,72.95-14.37,90.3-22.57,4.48,6.59,3.69,15.02,1.32,22.14-7.38,7.64-27.4,27.66-30.57,36.89-.85,2.55.36,4.58,2.52,4.58.52,0,1.09-.11,1.7-.37,18.18-8.17,33.47-38.73,33.99-39,10.28-11.06,20.82-21.87,31.36-32.94,19.34-.91,43.39-1.03,63.51-3.59-14.72,16.82-14.2,33.48-2.43,33.48,7.87,0,20.75-7.44,37.47-27.25,6.72,0,13.3.43,19.81.43,4.57,0,9.11-.21,13.63-.93-2.82,4.59-4.63,8.48-4.98,11.3-.53,3.69,0,8.17,2.37,11.33,3.25,4.34,7.98,5.82,13.18,5.82,2.4,0,4.89-.31,7.38-.81,17.65-3.95,45.32-16.07,57.44-27.14.34-.34.61-.68.84-1.03,6.14,1.04,20.87,2.35,24.2,2.35l-18.19,21.34c-6.58,7.91-12.38,15.29-18.18,23.72-2.63,3.95-4.74,9.48,0,13.7.97.84,2.32,1.24,3.97,1.24,15.91,0,59.38-36.53,47.68-59.21,3.69,0,9.49.26,16.07.26,2.58.04,5.18.06,7.76.06,14.79,0,28.87-.71,34.93-2.96,1.59-.52,2.64-2.37,2.38-4.21ZM858.16,343.62c0-5.8-.52-11.34-3.68-16.34,3.42-1.06,6.85-2.9,10.01-4.74,5.01-.27,9.75-.53,14.76-.53-7.65,6.59-14.23,14.23-21.09,21.61ZM984.46,312.14c-.51.83-1,1.63-1.47,2.42-4.1-2.02-5.9-4.41-5.36-7.14.97-4.95,8.66-9.97,12.84-10.35.35,4.76-3.01,10.21-6.01,15.07ZM1093.53,374.95c-1.06.57-1.79.85-2.27.99.18-.62.58-1.56,1.34-2.71,6.85-10.39,29.11-35.69,36.78-43.99,6.27,14.13-19.35,36.79-35.85,45.71ZM834.71,286.95c.85,1.01,1.8,1.49,2.86,1.49.6,0,1.22-.15,1.88-.44,4.73-1.66,12.21-5.51,20.17-10.58h-15.3c-2.75,1.48-5.45,3.03-8.03,4.79-1.58,1.05-2.37,2.9-1.58,4.74Z" fill="#eb741d"/>
    <g>
      <path d="M573.99,139.24c.2-1.18,1.22-2.04,2.41-2.04h30.96c1.52,0,2.67,1.37,2.41,2.87l-.07.42-23.95,130.55c0,.05-.02.1-.03.15l-.1.39c-.27,1.09-1.25,1.85-2.37,1.85h-30.93c-1.52,0-2.67-1.37-2.41-2.87l.07-.42,23.96-130.62.05-.28Z" fill="#eb741d"/>
      <path d="M648.13,170.07c-.44,2.08,1.81,3.7,3.64,2.6,10.01-6,20.5-9,31.46-9,9.66,0,17.9,2.96,24.73,8.89,6.83,5.93,10.24,13.85,10.24,23.77,0,2.83-.26,5.54-.77,8.12-7.73,41.22-11.92,63.44-12.56,66.66l-.12.47c-.27,1.09-1.25,1.85-2.37,1.85h-31.09c-1.53,0-2.68-1.39-2.4-2.89l.04-.2,11.01-54.68c.77-3.86,1.16-6.5,1.16-7.92,0-4.12-.94-7.21-2.8-9.27-1.87-2.06-5.31-3.09-10.34-3.09-12.02,0-20.92,3.91-26.73,11.73-.21.29-.36.62-.43.97l-13.03,63.04-.05.28c-.2,1.18-1.22,2.04-2.41,2.04h-29.99c-1.52,0-2.67-1.37-2.41-2.87l.07-.42,18.74-101.83.05-.28c.2-1.18,1.22-2.04,2.41-2.04h31.76c1.51,0,2.66,1.36,2.41,2.84l-.11.63-.13.6Z" fill="#eb741d"/>
      <path d="M793.15,273.42h27.54c1.12,0,2.09-.76,2.37-1.85l.1-.4c.01-.05.02-.09.03-.14l2.7-15.38c-11.51,5.67-22.94,11.96-32.74,17.77ZM831.33,208.22h-29.22c-1.19,0-2.21.86-2.41,2.04l-.05.28-8.12,46.16c9.61-5.28,23.23-12.37,37.48-18.75l4.65-26.45.08-.41c.26-1.5-.89-2.87-2.41-2.87ZM790.6,262.02l-1.43,8.11-.08.42c-.02.13-.04.27-.04.4,10.69-6.39,24.12-13.87,37.76-20.48l1.32-7.51c-14.33,6.53-28.04,13.72-37.53,19.06ZM841.16,149.53c-2.97-2.64-6.7-3.96-11.21-3.96-5.02,0-9.5,1.55-13.43,4.64-3.93,3.09-6.35,7.34-7.25,12.75-.25,1.55-.38,2.84-.38,3.87,0,4.51,1.48,8.08,4.44,10.72,2.96,2.64,6.7,3.96,11.21,3.96,5.02,0,9.5-1.54,13.43-4.64,3.93-3.09,6.34-7.34,7.25-12.75.25-1.54.38-2.83.38-3.86,0-4.51-1.48-8.09-4.44-10.73Z" fill="#eb741d"/>
      <path d="M946.56,172.55c-6.83-5.92-15.07-8.88-24.73-8.88-10.97,0-21.46,2.99-31.47,8.99-1.82,1.1-4.08-.51-3.63-2.6l.12-.6.11-.63c.25-1.49-.9-2.85-2.41-2.85h-31.76c-1.2,0-2.21.87-2.41,2.05l-.05.27-12.08,65.65c13.85-5.75,27.6-10.34,38.18-11.51l2.97-14.38c.07-.35.22-.69.43-.97,5.81-7.82,14.72-11.74,26.73-11.74,5.03,0,8.47,1.04,10.34,3.1s2.8,5.15,2.8,9.27c0,1.42-.38,4.06-1.16,7.92l-11.01,54.69-.04.2c-.28,1.5.87,2.89,2.4,2.89h31.09c1.12,0,2.1-.76,2.37-1.85l.12-.47c.64-3.22,4.83-25.44,12.56-66.66.51-2.58.77-5.28.77-8.12,0-9.92-3.41-17.84-10.24-23.77ZM837.34,238.91l-1.34,7.27c14.01-6.3,27.64-11.21,38.12-12.59l1.4-6.78c-10.47,1.41-24.27,6.2-38.18,12.1Z" fill="#eb741d"/>
      <g>
        <path d="M873.21,237.99l-3.91,18.92-1.35,6.56-1.58,7.63-.05.28c-.19,1.18-1.21,2.04-2.4,2.04h-30c-1.52,0-2.67-1.37-2.4-2.87l.07-.42,3.47-18.84c14.17-6.51,27.85-11.63,38.15-13.3Z" fill="#eb741d"/>
        <path d="M877.3,233.27c.33-.02.66-.04.98-.05l.02-.11-1,.16Z" fill="#eb741d"/>
        <path d="M869.3,256.91l-1.35,6.56-1.58,7.63-.05.28c-.19,1.18-1.21,2.04-2.4,2.04h-30c-1.52,0-2.67-1.37-2.4-2.87l.07-.42,3.47-18.84c14.17-6.51,27.85-11.63,38.15-13.3l-3.91,18.92Z" fill="#eb741d"/>
      </g>
      <path d="M969.47,168.03c.2-1.18,1.22-2.04,2.41-2.04h29.22c1.52,0,2.67,1.37,2.41,2.87l-.07.42-18.92,101.76s-.02.1-.03.15l-.1.4c-.27,1.09-1.25,1.85-2.37,1.85h-29.19c-1.52,0-2.67-1.37-2.41-2.87l.07-.42,18.94-101.83.05-.28ZM972.7,143.96c.9-5.41,3.32-9.66,7.25-12.75,3.93-3.09,8.41-4.64,13.43-4.64,4.51,0,8.24,1.32,11.21,3.96,2.96,2.64,4.44,6.22,4.44,10.72,0,1.03-.13,2.32-.39,3.86-.9,5.41-3.32,9.66-7.25,12.75-3.93,3.09-8.41,4.64-13.43,4.64-4.51,0-8.25-1.32-11.21-3.96-2.96-2.64-4.44-6.21-4.44-10.72,0-1.03.13-2.32.39-3.86Z" fill="#eb741d"/>
      <path d="M1082.74,252.01c-5.66,5.6-13.82,13.89-22.51,23.17,3.08-.5,6.08-1.24,8.97-2.24,1.18-.41,2.27-.8,3.28-1.17h.01c4.65-4.84,8.83-9.08,12.13-12.37l-1.88-7.39ZM1091.24,165.98h-22.5c-1.56,0-2.71-1.43-2.39-2.94l4.78-22.56.11-.64c.25-1.48-.9-2.84-2.41-2.84h-33.28c-1.12,0-2.09.76-2.37,1.85l-.11.47-5.2,24.72c-.24,1.13-1.23,1.94-2.39,1.94h-13.53c-1.2,0-2.21.87-2.41,2.05l-.05.27-4.63,25.9-.11.63c-.25,1.49.9,2.84,2.41,2.84h11.93c1.54,0,2.69,1.4,2.4,2.91l-3.88,19.89c-1.93,10.44-2.9,18.49-2.9,24.16,0,20.87,11.98,31.3,35.94,31.3,1.07,0,2.14-.03,3.19-.09,10.89-11.76,21.33-22.33,27.69-28.58l-1.51-5.92-.11-.5c-.4-1.75-2.47-2.49-3.89-1.39l-.29.23c-.1.08-.21.15-.33.21l-1.95,1.07c-1.42.9-3.54,1.77-6.38,2.61-2.83.83-5.73,1.25-8.69,1.25s-4.8-.58-5.89-1.74c-1.1-1.16-1.65-3.09-1.65-5.79,0-1.55.39-4.26,1.16-8.12.26-1.55,1.03-4.64,2.32-9.28l4.78-20.33c.26-1.11,1.24-1.89,2.37-1.89h25.18c1.19,0,2.21-.86,2.41-2.04l.04-.28,4.45-25.89.1-.63c.25-1.49-.9-2.85-2.41-2.85Z" fill="#eb741d"/>
      <path d="M1195.32,244.67l-.44-.24-22.61-12.36-.65-.33c-.98-.49-2.17-.27-2.91.55l-.49.55c-6.7,7.99-15.07,11.98-25.12,11.98-6.06,0-11.02-1.29-14.88-3.86-2.86-1.91-4.87-4.34-6.04-7.31-.63-1.59.57-3.32,2.28-3.32h34.29c14.55,0,26.08-3.45,34.59-10.34,8.5-6.89,12.75-14.91,12.75-24.06,0-10.3-4.35-18.26-13.04-23.86-8.7-5.6-19.68-8.4-32.95-8.4-17.91,0-33.72,5.21-47.44,15.65-13.72,10.43-22.06,23.76-25.02,40-.65,4.25-.97,7.85-.97,10.82,0,3.89.39,7.57,1.16,11.03,12.96-12.44,26.4-25.07,41.46-35.44h.03s.03-.03.03-.03c.95-.64,2.56-1.71,4.64-1.71,1.77,0,3.42.75,4.9,2.24,2.72,2.72,2.85,6.67.31,9.84l-.11.14-.12.12c-2.99,3.17-6.75,6.04-10.37,8.83-2.53,1.94-4.92,3.77-7,5.64l-.05.04-.05.04c-9.84,8.33-19.19,17.17-27.24,24.96,1.86,2.64,4.07,5.09,6.62,7.34,9.46,8.37,21.93,12.56,37.39,12.56,11.46,0,22.28-2.42,32.46-7.25,10.17-4.83,18.55-11.43,25.12-19.8l.31-.44c.86-1.2.47-2.89-.84-3.58ZM1138.38,202.89c-2.58,0-3.4-3.52-1.07-4.64,5.08-2.44,10.87-3.67,17.38-3.67,3.99,0,7.21.26,9.66.77,2.45.52,3.99,1,4.64,1.45.64.46.97.81.97,1.07,0,.51-.55,1.16-1.65,1.93-1.09.77-2.93,1.48-5.5,2.12-2.58.65-5.54.97-8.89.97h-15.54ZM1135.91,209.21c-.72-.71-1.33-.99-1.92-.99-.73,0-1.43.41-2.3.99-15.42,10.62-29.15,23.66-42.56,36.57.76,2.24,1.71,4.37,2.84,6.41,8.76-8.48,17.57-16.72,26.81-24.53,5.27-4.74,12.38-9.22,17.13-14.23,1.05-1.32,1.31-2.9,0-4.22Z" fill="#eb741d"/>
    </g>
    <path d="M737.31,164.24c1.56-6.05,3.3-11.36,5.24-15.93,2.13-5.02,5.05-9.88,8.79-14.59,3.73-4.7,8.6-8.28,14.59-10.72,5.99-2.45,12.98-3.67,20.97-3.67,6.54,0,14.48,2.05,21.97,8.99l.73.73c1,.86,1.13,2.94.79,3.92l-.09.27-5.99,26.09-.31.4c-.87,1.13-2.53,1.28-3.59.31l-.36-.33c-7.22-6.31-9.5-9.47-15.29-9.47s-10.03,4.26-12.4,12.77c-.43,1.55.75,3.08,2.36,3.08h25.32c1.51,0,2.66,1.36,2.41,2.84l-.11.63-4.64,25.89-.05.28c-.2,1.18-1.22,2.04-2.41,2.04h-27.43c-1.16,0-2.16.82-2.39,1.96l-1.92,9.45-7.34,36.91-1.55,9.08-3.28,15.84c-1.55,6.7-3.38,12.53-5.51,17.49-2.13,4.96-5.06,9.82-8.79,14.59-3.74,4.76-8.66,8.41-14.78,10.92-6.12,2.51-13.3,3.77-21.54,3.77-11.59,0-21.26-4.57-28.98-13.72l-.19-.19-.21-.29c-.47-.66-.58-1.52-.3-2.28l.12-.33,8.12-19.9.26-.59c.65-1.46,2.51-1.91,3.76-.92l.43.34c6.06,4.64,12.5,6.96,19.32,6.96,3.99,0,6.99-1.55,8.99-4.64,2-3.09,3.57-7.54,4.73-13.33l3.09-15.46,1.55-8.89,7.34-36.52,1.52-7.3c.31-1.52,6.79-35.39,7.06-36.48Z" fill="#eb741d"/>
  </g>
</svg>