<?xml version="1.0" encoding="UTF-8"?>
<svg id="Layer_1" data-name="Layer 1" xmlns="http://www.w3.org/2000/svg" viewBox="0 0 1220.73 504.43">
  <g>
    <g>
      <path d="M101.95,450.92c-.38,0-1.55,0-4.01-1.67-13.18-8.94-20.58-15.55-31.26-26.13-2.37-2.34-3.08-5.86-1.81-8.96.28-.7.65-1.34,1.1-1.92,5.76-7.48,4.68-18.15-2.46-24.32-1.67-1.44-3.22-3.1-4.61-4.95-5.46-7.23-8.47-16.84-8.47-27.06s3.01-19.83,8.47-27.06c1.79-2.37,3.82-4.42,6.03-6.1,4.7-3.57,7.32-9.23,7-15.12-.32-5.89-3.53-11.24-8.58-14.28-3.51-2.12-6.66-5.01-9.37-8.61-6-7.99-9.31-18.61-9.31-29.91s3.31-21.92,9.31-29.91c2.46-3.28,5.32-5.99,8.47-8.05,4.74-3.09,7.73-8.26,8.04-13.91.31-5.65-2.08-11.12-6.45-14.72-1.87-1.54-3.6-3.35-5.14-5.4-5.46-7.23-8.47-16.84-8.47-27.06s3.01-19.83,8.47-27.06c1.67-2.21,3.55-4.15,5.59-5.76,4.16-3.29,6.63-8.26,6.75-13.56.12-5.3-2.14-10.38-6.15-13.84-.44-.38-.72-.91-.8-1.5-.1-.72.11-1.4.6-1.93,12.56-13.77,26.73-26.08,42.12-36.57.42-.29.86-.42,1.35-.42,1.3,0,2.4,1.09,2.4,2.39,0,11.3-3.31,21.92-9.31,29.91-2.08,2.77-4.45,5.14-7.04,7.05-4.48,3.3-7.16,8.52-7.23,14.08-.07,5.57,2.47,10.85,6.86,14.27,2.11,1.64,4.04,3.62,5.76,5.89,5.46,7.23,8.47,16.84,8.47,27.06s-3.01,19.83-8.47,27.06c-2.01,2.66-4.32,4.92-6.85,6.7-4.63,3.26-7.43,8.53-7.54,14.19-.11,5.66,2.47,11.03,6.96,14.48,2.42,1.85,4.63,4.11,6.58,6.71,6,7.99,9.31,18.61,9.31,29.91s-3.31,21.92-9.31,29.91c-2.2,2.93-4.73,5.41-7.5,7.38-4.81,3.41-7.61,8.99-7.49,14.88.12,5.9,3.16,11.35,8.11,14.55,2.88,1.86,5.47,4.32,7.72,7.29,5.46,7.23,8.47,16.84,8.47,27.06s-3.01,19.83-8.47,27.06c-1.76,2.33-3.75,4.35-5.92,6.02-4.23,3.25-6.78,8.23-6.95,13.56-.17,5.33,2.07,10.46,6.1,13.96,7.53,6.56,11.68,16.79,11.68,28.79,0,.67,0,2.46-.45,3.75-.43,1.24-1.19,1.86-2.28,1.86Z" fill="#faf2d5"/>
      <path d="M101.95,450.92c-.38,0-1.55,0-4.01-1.67-13.18-8.94-20.58-15.55-31.26-26.13-2.37-2.34-3.08-5.86-1.81-8.96.28-.7.65-1.34,1.1-1.92,5.76-7.48,4.68-18.15-2.46-24.32-1.67-1.44-3.22-3.1-4.61-4.95-5.46-7.23-8.47-16.84-8.47-27.06s3.01-19.83,8.47-27.06c1.79-2.37,3.82-4.42,6.03-6.1,4.7-3.57,7.32-9.23,7-15.12-.32-5.89-3.53-11.24-8.58-14.28-3.51-2.12-6.66-5.01-9.37-8.61-6-7.99-9.31-18.61-9.31-29.91s3.31-21.92,9.31-29.91c2.46-3.28,5.32-5.99,8.47-8.05,4.74-3.09,7.73-8.26,8.04-13.91.31-5.65-2.08-11.12-6.45-14.72-1.87-1.54-3.6-3.35-5.14-5.4-5.46-7.23-8.47-16.84-8.47-27.06s3.01-19.83,8.47-27.06c1.67-2.21,3.55-4.15,5.59-5.76,4.16-3.29,6.63-8.26,6.75-13.56.12-5.3-2.14-10.38-6.15-13.84-.44-.38-.72-.91-.8-1.5-.1-.72.11-1.4.6-1.93,12.56-13.77,26.73-26.08,42.12-36.57.42-.29.86-.42,1.35-.42,1.3,0,2.4,1.09,2.4,2.39,0,11.3-3.31,21.92-9.31,29.91-2.08,2.77-4.45,5.14-7.04,7.05-4.48,3.3-7.16,8.52-7.23,14.08-.07,5.57,2.47,10.85,6.86,14.27,2.11,1.64,4.04,3.62,5.76,5.89,5.46,7.23,8.47,16.84,8.47,27.06s-3.01,19.83-8.47,27.06c-2.01,2.66-4.32,4.92-6.85,6.7-4.63,3.26-7.43,8.53-7.54,14.19-.11,5.66,2.47,11.03,6.96,14.48,2.42,1.85,4.63,4.11,6.58,6.71,6,7.99,9.31,18.61,9.31,29.91s-3.31,21.92-9.31,29.91c-2.2,2.93-4.73,5.41-7.5,7.38-4.81,3.41-7.61,8.99-7.49,14.88.12,5.9,3.16,11.35,8.11,14.55,2.88,1.86,5.47,4.32,7.72,7.29,5.46,7.23,8.47,16.84,8.47,27.06s-3.01,19.83-8.47,27.06c-1.76,2.33-3.75,4.35-5.92,6.02-4.23,3.25-6.78,8.23-6.95,13.56-.17,5.33,2.07,10.46,6.1,13.96,7.53,6.56,11.68,16.79,11.68,28.79,0,.67,0,2.46-.45,3.75-.43,1.24-1.19,1.86-2.28,1.86Z" fill="#faf2d5"/>
    </g>
    <g>
      <path d="M187.45,482.94c-.35,0-.71-.04-1.06-.11-16.08-3.43-31.86-8.56-46.89-15.25-1.79-.79-2.92-2.57-2.89-4.52.03-1.58.81-3.06,2.1-3.96,3.75-2.6,5.91-6.95,5.72-11.51-.19-4.57-2.7-8.72-6.66-11-12.23-7.07-19.83-20.6-19.83-35.32,0-13.43,6.32-25.93,16.9-33.43,3.77-2.67,5.89-7.11,5.6-11.72-.29-4.61-2.94-8.75-7.02-10.93-13.55-7.25-21.97-21.75-21.97-37.83s8.33-30.42,21.74-37.71c4.29-2.34,6.97-6.83,6.97-11.72s-2.67-9.38-6.97-11.72c-13.41-7.29-21.74-21.75-21.74-37.71s9.27-31.84,23.61-38.66c4.39-2.09,7.3-6.39,7.59-11.24.29-4.85-2.07-9.48-6.18-12.08-11.43-7.24-18.53-20.47-18.53-34.53s6.73-26.79,18.01-34.2c4.03-2.64,6.32-7.26,5.99-12.06s-3.23-9.07-7.58-11.14c-1.47-.7-2.92-1.49-4.3-2.36-.03-.02-.06-.04-.1-.06-1.4-.88-2.22-2.47-2.12-4.14.1-1.73,1.13-3.26,2.69-4,17.88-8.53,36.79-14.81,56.21-18.66.3-.06.62-.09.92-.09,1.52,0,2.96.77,3.84,2.05.86,1.25,1.04,2.83.5,4.23-.97,2.52-2.2,4.98-3.66,7.29-3.76,5.99-8.94,10.97-15,14.4-4.19,2.37-6.78,6.81-6.77,11.62s2.6,9.25,6.79,11.61c12.44,7.01,20.17,20.62,20.17,35.51s-8.57,29.78-21.82,36.39c-4.35,2.17-7.17,6.53-7.38,11.38-.2,4.85,2.25,9.44,6.4,11.96,12.42,7.54,20.13,21.64,20.13,36.78,0,15.97-8.33,30.42-21.74,37.71-4.29,2.34-6.97,6.83-6.97,11.72s2.67,9.38,6.97,11.72c13.41,7.29,21.74,21.74,21.74,37.71,0,14.52-6.91,27.88-18.47,35.72-3.82,2.59-6.04,6.98-5.84,11.6s2.76,8.81,6.79,11.07c12.46,7.01,20.2,20.62,20.2,35.52s-7.54,28.13-19.67,35.22c-4.23,2.47-6.76,7.05-6.6,11.94.16,4.89,2.98,9.3,7.35,11.5,6.94,3.48,12.81,8.87,16.97,15.59.92,1.48.96,3.34.11,4.86-.87,1.57-2.5,2.54-4.25,2.55Z" fill="#faf2d5"/>
      <path d="M187.45,482.94c-.35,0-.71-.04-1.06-.11-16.08-3.43-31.86-8.56-46.89-15.25-1.79-.79-2.92-2.57-2.89-4.52.03-1.58.81-3.06,2.1-3.96,3.75-2.6,5.91-6.95,5.72-11.51-.19-4.57-2.7-8.72-6.66-11-12.23-7.07-19.83-20.6-19.83-35.32,0-13.43,6.32-25.93,16.9-33.43,3.77-2.67,5.89-7.11,5.6-11.72-.29-4.61-2.94-8.75-7.02-10.93-13.55-7.25-21.97-21.75-21.97-37.83s8.33-30.42,21.74-37.71c4.29-2.34,6.97-6.83,6.97-11.72s-2.67-9.38-6.97-11.72c-13.41-7.29-21.74-21.75-21.74-37.71s9.27-31.84,23.61-38.66c4.39-2.09,7.3-6.39,7.59-11.24.29-4.85-2.07-9.48-6.18-12.08-11.43-7.24-18.53-20.47-18.53-34.53s6.73-26.79,18.01-34.2c4.03-2.64,6.32-7.26,5.99-12.06s-3.23-9.07-7.58-11.14c-1.47-.7-2.92-1.49-4.3-2.36-.03-.02-.06-.04-.1-.06-1.4-.88-2.22-2.47-2.12-4.14.1-1.73,1.13-3.26,2.69-4,17.88-8.53,36.79-14.81,56.21-18.66.3-.06.62-.09.92-.09,1.52,0,2.96.77,3.84,2.05.86,1.25,1.04,2.83.5,4.23-.97,2.52-2.2,4.98-3.66,7.29-3.76,5.99-8.94,10.97-15,14.4-4.19,2.37-6.78,6.81-6.77,11.62s2.6,9.25,6.79,11.61c12.44,7.01,20.17,20.62,20.17,35.51s-8.57,29.78-21.82,36.39c-4.35,2.17-7.17,6.53-7.38,11.38-.2,4.85,2.25,9.44,6.4,11.96,12.42,7.54,20.13,21.64,20.13,36.78,0,15.97-8.33,30.42-21.74,37.71-4.29,2.34-6.97,6.83-6.97,11.72s2.67,9.38,6.97,11.72c13.41,7.29,21.74,21.74,21.74,37.71,0,14.52-6.91,27.88-18.47,35.72-3.82,2.59-6.04,6.98-5.84,11.6s2.76,8.81,6.79,11.07c12.46,7.01,20.2,20.62,20.2,35.52s-7.54,28.13-19.67,35.22c-4.23,2.47-6.76,7.05-6.6,11.94.16,4.89,2.98,9.3,7.35,11.5,6.94,3.48,12.81,8.87,16.97,15.59.92,1.48.96,3.34.11,4.86-.87,1.57-2.5,2.54-4.25,2.55Z" fill="#faf2d5"/>
    </g>
    <g>
      <path d="M248.89,504.22c-24.53,0-44.48-19.06-44.48-42.5,0-16.65,10.29-31.86,26.23-38.75,4.28-1.85,7.04-6.09,6.99-10.75-.04-4.67-2.88-8.85-7.2-10.62-17.35-7.11-28.55-23.32-28.55-41.31,0-17.05,10.4-32.91,26.5-40.41,4.17-1.94,6.79-6.16,6.7-10.76-.1-4.6-2.91-8.7-7.16-10.46-19.42-8.04-31.97-26.27-31.97-46.44s12.55-38.4,31.97-46.44c4.25-1.76,7.06-5.86,7.16-10.46.1-4.6-2.53-8.82-6.7-10.76-16.1-7.5-26.5-23.36-26.5-40.41,0-17.98,11.21-34.2,28.55-41.31,4.32-1.77,7.15-5.95,7.2-10.62.04-4.66-2.71-8.9-6.99-10.75-15.93-6.88-26.22-22.1-26.22-38.75C204.41,19.28,224.36.22,248.89.22s44.48,19.06,44.48,42.5c0,16.66-10.29,31.87-26.22,38.75-4.28,1.85-7.04,6.09-6.99,10.75.04,4.66,2.88,8.85,7.2,10.62,17.34,7.11,28.55,23.32,28.55,41.31,0,17.05-10.4,32.91-26.5,40.41-4.17,1.94-6.79,6.16-6.7,10.76.1,4.6,2.91,8.7,7.16,10.46,19.42,8.04,31.97,26.27,31.97,46.44s-12.55,38.4-31.97,46.44c-4.25,1.76-7.06,5.86-7.16,10.46-.1,4.6,2.53,8.82,6.7,10.76,16.1,7.5,26.5,23.36,26.5,40.41,0,17.98-11.21,34.2-28.55,41.31-4.32,1.77-7.15,5.95-7.2,10.62-.04,4.67,2.71,8.9,6.99,10.75,15.93,6.89,26.23,22.1,26.23,38.75,0,23.43-19.95,42.5-44.48,42.5Z" fill="#faf2d5"/>
      <path d="M248.89,504.22c-24.53,0-44.48-19.06-44.48-42.5,0-16.65,10.29-31.86,26.23-38.75,4.28-1.85,7.04-6.09,6.99-10.75-.04-4.67-2.88-8.85-7.2-10.62-17.35-7.11-28.55-23.32-28.55-41.31,0-17.05,10.4-32.91,26.5-40.41,4.17-1.94,6.79-6.16,6.7-10.76-.1-4.6-2.91-8.7-7.16-10.46-19.42-8.04-31.97-26.27-31.97-46.44s12.55-38.4,31.97-46.44c4.25-1.76,7.06-5.86,7.16-10.46.1-4.6-2.53-8.82-6.7-10.76-16.1-7.5-26.5-23.36-26.5-40.41,0-17.98,11.21-34.2,28.55-41.31,4.32-1.77,7.15-5.95,7.2-10.62.04-4.66-2.71-8.9-6.99-10.75-15.93-6.88-26.22-22.1-26.22-38.75C204.41,19.28,224.36.22,248.89.22s44.48,19.06,44.48,42.5c0,16.66-10.29,31.87-26.22,38.75-4.28,1.85-7.04,6.09-6.99,10.75.04,4.66,2.88,8.85,7.2,10.62,17.34,7.11,28.55,23.32,28.55,41.31,0,17.05-10.4,32.91-26.5,40.41-4.17,1.94-6.79,6.16-6.7,10.76.1,4.6,2.91,8.7,7.16,10.46,19.42,8.04,31.97,26.27,31.97,46.44s-12.55,38.4-31.97,46.44c-4.25,1.76-7.06,5.86-7.16,10.46-.1,4.6,2.53,8.82,6.7,10.76,16.1,7.5,26.5,23.36,26.5,40.41,0,17.98-11.21,34.2-28.55,41.31-4.32,1.77-7.15,5.95-7.2,10.62-.04,4.67,2.71,8.9,6.99,10.75,15.93,6.89,26.23,22.1,26.23,38.75,0,23.43-19.95,42.5-44.48,42.5Z" fill="#faf2d5"/>
    </g>
    <g>
      <path d="M44.49,400.59c-1.93,0-3.28-1.36-3.92-2.17-7.41-9.48-13.94-19.9-19.41-30.95-.79-1.59-.96-3.42-.47-4.89,2.75-8.11.59-17.08-5.54-23.05-.85-.83-1.53-1.96-2.02-3.35-6.71-19.2-10.93-39.26-12.56-59.64-.12-1.44.71-2.72,1.42-3.54.51-.58,1.2-1.2,2.01-1.79,5.77-4.2,9.18-10.92,9.15-18.06-.03-7.14-3.48-13.83-9.28-17.99-.84-.61-1.55-1.22-2.09-1.82-.76-.85-1.65-2.18-1.56-3.69,1.21-20.6,5.07-40.94,11.46-60.43.6-1.83,1.52-3.15,2.72-3.93,7.51-4.82,11.41-13.66,9.91-22.45-.22-1.29,0-2.74.62-3.98,5.5-11.04,12.15-21.4,19.74-30.81,1.09-1.35,2.51-2.09,3.99-2.09,2.2,0,3.89,1.7,4.11,4.13.48,5.39-.81,12.05-3.55,18.28-2.53,5.76-5.88,10.57-9.66,13.9-9.13,8.02-10.14,21.88-2.26,31.13,1.98,2.32,3.8,5.15,5.43,8.41,3.44,6.89,5.5,14.73,5.5,20.96,0,10.48-3.78,20.04-10.65,26.92-1.91,1.91-4.04,3.6-6.33,5.02-6.4,3.96-10.35,10.89-10.52,18.42-.16,7.52,3.49,14.62,9.71,18.86,2.56,1.75,4.96,3.87,7.12,6.31,6.88,7.76,10.67,17.89,10.67,28.53,0,8.47-4.99,18.73-12.7,26.13-4.36,4.18-6.83,9.95-6.85,15.99-.02,6.04,2.43,11.83,6.76,16.03,3.46,3.35,6.55,8,8.94,13.44,2.74,6.23,4.12,12.85,3.79,18.17-.11,1.84-1.15,3.99-3.7,3.99h0Z" fill="#faf2d5"/>
      <path d="M44.49,400.59c-1.93,0-3.28-1.36-3.92-2.17-7.41-9.48-13.94-19.9-19.41-30.95-.79-1.59-.96-3.42-.47-4.89,2.75-8.11.59-17.08-5.54-23.05-.85-.83-1.53-1.96-2.02-3.35-6.71-19.2-10.93-39.26-12.56-59.64-.12-1.44.71-2.72,1.42-3.54.51-.58,1.2-1.2,2.01-1.79,5.77-4.2,9.18-10.92,9.15-18.06-.03-7.14-3.48-13.83-9.28-17.99-.84-.61-1.55-1.22-2.09-1.82-.76-.85-1.65-2.18-1.56-3.69,1.21-20.6,5.07-40.94,11.46-60.43.6-1.83,1.52-3.15,2.72-3.93,7.51-4.82,11.41-13.66,9.91-22.45-.22-1.29,0-2.74.62-3.98,5.5-11.04,12.15-21.4,19.74-30.81,1.09-1.35,2.51-2.09,3.99-2.09,2.2,0,3.89,1.7,4.11,4.13.48,5.39-.81,12.05-3.55,18.28-2.53,5.76-5.88,10.57-9.66,13.9-9.13,8.02-10.14,21.88-2.26,31.13,1.98,2.32,3.8,5.15,5.43,8.41,3.44,6.89,5.5,14.73,5.5,20.96,0,10.48-3.78,20.04-10.65,26.92-1.91,1.91-4.04,3.6-6.33,5.02-6.4,3.96-10.35,10.89-10.52,18.42-.16,7.52,3.49,14.62,9.71,18.86,2.56,1.75,4.96,3.87,7.12,6.31,6.88,7.76,10.67,17.89,10.67,28.53,0,8.47-4.99,18.73-12.7,26.13-4.36,4.18-6.83,9.95-6.85,15.99-.02,6.04,2.43,11.83,6.76,16.03,3.46,3.35,6.55,8,8.94,13.44,2.74,6.23,4.12,12.85,3.79,18.17-.11,1.84-1.15,3.99-3.7,3.99h0Z" fill="#faf2d5"/>
    </g>
    <g>
      <path d="M396.55,450.92c-1.08,0-1.85-.63-2.28-1.87-.44-1.29-.44-3.08-.44-3.75,0-12,4.15-22.23,11.68-28.79,4.02-3.51,6.26-8.63,6.1-13.96-.17-5.33-2.72-10.31-6.95-13.56-2.17-1.67-4.16-3.69-5.92-6.02-5.46-7.23-8.47-16.84-8.47-27.06s3.01-19.83,8.47-27.06c2.24-2.97,4.84-5.42,7.72-7.29,4.95-3.21,7.99-8.66,8.11-14.55.12-5.89-2.68-11.47-7.49-14.88-2.78-1.97-5.3-4.46-7.5-7.38-6-7.99-9.31-18.61-9.31-29.91s3.31-21.92,9.31-29.91c1.96-2.6,4.17-4.86,6.58-6.71,4.49-3.44,7.08-8.82,6.96-14.48s-2.92-10.93-7.54-14.19c-2.53-1.78-4.84-4.04-6.85-6.7-5.46-7.23-8.47-16.84-8.47-27.06s3.01-19.83,8.47-27.06c1.71-2.27,3.65-4.25,5.76-5.89,4.39-3.42,6.93-8.7,6.86-14.27s-2.75-10.78-7.23-14.08c-2.6-1.92-4.97-4.29-7.05-7.06-6-7.99-9.31-18.61-9.31-29.91,0-1.3,1.1-2.39,2.4-2.39.49,0,.93.14,1.35.42,15.38,10.5,29.55,22.8,42.11,36.57.49.53.7,1.22.6,1.93-.08.6-.36,1.12-.81,1.51-4.01,3.47-6.26,8.54-6.15,13.85s2.59,10.27,6.75,13.56c2.04,1.61,3.92,3.55,5.59,5.76,5.46,7.23,8.47,16.84,8.47,27.06s-3.01,19.83-8.47,27.06c-1.54,2.04-3.27,3.86-5.14,5.4-4.37,3.6-6.76,9.06-6.45,14.72.31,5.65,3.3,10.82,8.04,13.91,3.16,2.06,6.01,4.77,8.47,8.05,6,7.99,9.31,18.61,9.31,29.91s-3.31,21.92-9.31,29.91c-2.7,3.59-5.85,6.49-9.37,8.61-5.05,3.04-8.26,8.39-8.58,14.28-.32,5.89,2.3,11.55,7,15.12,2.21,1.68,4.24,3.73,6.03,6.1,5.46,7.23,8.47,16.84,8.47,27.06s-3.01,19.83-8.47,27.06c-1.4,1.85-2.95,3.52-4.61,4.95-7.14,6.17-8.22,16.84-2.46,24.32.45.58.82,1.23,1.1,1.92,1.26,3.1.55,6.61-1.81,8.96-10.68,10.59-18.08,17.2-31.26,26.13-2.46,1.67-3.62,1.67-4.01,1.67h0Z" fill="#faf2d5"/>
      <path d="M396.55,450.92c-1.08,0-1.85-.63-2.28-1.87-.44-1.29-.44-3.08-.44-3.75,0-12,4.15-22.23,11.68-28.79,4.02-3.51,6.26-8.63,6.1-13.96-.17-5.33-2.72-10.31-6.95-13.56-2.17-1.67-4.16-3.69-5.92-6.02-5.46-7.23-8.47-16.84-8.47-27.06s3.01-19.83,8.47-27.06c2.24-2.97,4.84-5.42,7.72-7.29,4.95-3.21,7.99-8.66,8.11-14.55.12-5.89-2.68-11.47-7.49-14.88-2.78-1.97-5.3-4.46-7.5-7.38-6-7.99-9.31-18.61-9.31-29.91s3.31-21.92,9.31-29.91c1.96-2.6,4.17-4.86,6.58-6.71,4.49-3.44,7.08-8.82,6.96-14.48s-2.92-10.93-7.54-14.19c-2.53-1.78-4.84-4.04-6.85-6.7-5.46-7.23-8.47-16.84-8.47-27.06s3.01-19.83,8.47-27.06c1.71-2.27,3.65-4.25,5.76-5.89,4.39-3.42,6.93-8.7,6.86-14.27s-2.75-10.78-7.23-14.08c-2.6-1.92-4.97-4.29-7.05-7.06-6-7.99-9.31-18.61-9.31-29.91,0-1.3,1.1-2.39,2.4-2.39.49,0,.93.14,1.35.42,15.38,10.5,29.55,22.8,42.11,36.57.49.53.7,1.22.6,1.93-.08.6-.36,1.12-.81,1.51-4.01,3.47-6.26,8.54-6.15,13.85s2.59,10.27,6.75,13.56c2.04,1.61,3.92,3.55,5.59,5.76,5.46,7.23,8.47,16.84,8.47,27.06s-3.01,19.83-8.47,27.06c-1.54,2.04-3.27,3.86-5.14,5.4-4.37,3.6-6.76,9.06-6.45,14.72.31,5.65,3.3,10.82,8.04,13.91,3.16,2.06,6.01,4.77,8.47,8.05,6,7.99,9.31,18.61,9.31,29.91s-3.31,21.92-9.31,29.91c-2.7,3.59-5.85,6.49-9.37,8.61-5.05,3.04-8.26,8.39-8.58,14.28-.32,5.89,2.3,11.55,7,15.12,2.21,1.68,4.24,3.73,6.03,6.1,5.46,7.23,8.47,16.84,8.47,27.06s-3.01,19.83-8.47,27.06c-1.4,1.85-2.95,3.52-4.61,4.95-7.14,6.17-8.22,16.84-2.46,24.32.45.58.82,1.23,1.1,1.92,1.26,3.1.55,6.61-1.81,8.96-10.68,10.59-18.08,17.2-31.26,26.13-2.46,1.67-3.62,1.67-4.01,1.67h0Z" fill="#faf2d5"/>
    </g>
    <g>
      <path d="M309.48,492.47c-1.9,0-3.65-1.04-4.57-2.72-.85-1.55-.79-3.45.16-4.95,4.35-6.84,10.48-12.37,17.71-15.97,4.6-2.3,7.57-6.93,7.74-12.07s-2.5-9.96-6.95-12.54c-12.69-7.38-20.58-21.28-20.58-36.27s8.11-29.31,21.17-36.61c4.24-2.37,6.95-6.78,7.15-11.63.2-4.86-2.13-9.47-6.17-12.19-12.1-8.14-19.32-21.88-19.32-36.77,0-16.37,8.72-31.25,22.77-38.85,4.52-2.44,7.33-7.17,7.33-12.3s-2.81-9.86-7.33-12.3c-14.04-7.6-22.77-22.49-22.77-38.86,0-15.52,8.07-30.03,21.05-37.87,4.37-2.64,6.96-7.45,6.74-12.55s-3.18-9.68-7.76-11.95c-13.9-6.9-22.88-21.62-22.88-37.51s8.09-29.28,21.12-36.58c4.41-2.47,7.15-7.14,7.15-12.2,0-5.06-2.73-9.73-7.14-12.21-6.3-3.54-11.7-8.63-15.61-14.71-1.55-2.4-2.85-4.93-3.89-7.55-.56-1.42-.38-3.03.49-4.31.93-1.37,2.47-2.19,4.13-2.19.32,0,.65.03.98.09,20.64,3.99,40.73,10.49,59.72,19.32,1.66.77,2.75,2.36,2.86,4.16.1,1.72-.76,3.36-2.25,4.27h.02s-.12.06-.15.08c-1.37.83-2.8,1.6-4.24,2.28-4.58,2.17-7.63,6.64-7.98,11.69s2.07,9.9,6.31,12.67c11.78,7.69,18.81,20.85,18.81,35.18s-7.24,27.89-19.36,35.53c-4.32,2.72-6.81,7.58-6.5,12.68.31,5.1,3.37,9.62,7.98,11.8,15.05,7.12,24.78,22.77,24.78,39.87s-8.72,31.25-22.77,38.86c-4.52,2.44-7.33,7.17-7.33,12.3,0,5.14,2.81,9.86,7.33,12.3,14.04,7.6,22.77,22.49,22.77,38.85s-8.83,31.45-23.06,39.01c-4.29,2.28-7.1,6.63-7.4,11.48-.3,4.85,1.93,9.52,5.91,12.31,11.05,7.78,17.65,20.64,17.65,34.4,0,15.1-7.97,29.05-20.79,36.4-4.14,2.37-6.78,6.69-7.02,11.45s1.97,9.32,5.86,12.08c1.32.94,2.09,2.41,2.12,4.02.03,2.05-1.14,3.84-3.07,4.67-15.97,6.92-32.73,12.23-49.83,15.79-.37.08-.75.12-1.12.12Z" fill="#faf2d5"/>
      <path d="M309.48,492.47c-1.9,0-3.65-1.04-4.57-2.72-.85-1.55-.79-3.45.16-4.95,4.35-6.84,10.48-12.37,17.71-15.97,4.6-2.3,7.57-6.93,7.74-12.07s-2.5-9.96-6.95-12.54c-12.69-7.38-20.58-21.28-20.58-36.27s8.11-29.31,21.17-36.61c4.24-2.37,6.95-6.78,7.15-11.63.2-4.86-2.13-9.47-6.17-12.19-12.1-8.14-19.32-21.88-19.32-36.77,0-16.37,8.72-31.25,22.77-38.85,4.52-2.44,7.33-7.17,7.33-12.3s-2.81-9.86-7.33-12.3c-14.04-7.6-22.77-22.49-22.77-38.86,0-15.52,8.07-30.03,21.05-37.87,4.37-2.64,6.96-7.45,6.74-12.55s-3.18-9.68-7.76-11.95c-13.9-6.9-22.88-21.62-22.88-37.51s8.09-29.28,21.12-36.58c4.41-2.47,7.15-7.14,7.15-12.2,0-5.06-2.73-9.73-7.14-12.21-6.3-3.54-11.7-8.63-15.61-14.71-1.55-2.4-2.85-4.93-3.89-7.55-.56-1.42-.38-3.03.49-4.31.93-1.37,2.47-2.19,4.13-2.19.32,0,.65.03.98.09,20.64,3.99,40.73,10.49,59.72,19.32,1.66.77,2.75,2.36,2.86,4.16.1,1.72-.76,3.36-2.25,4.27h.02s-.12.06-.15.08c-1.37.83-2.8,1.6-4.24,2.28-4.58,2.17-7.63,6.64-7.98,11.69s2.07,9.9,6.31,12.67c11.78,7.69,18.81,20.85,18.81,35.18s-7.24,27.89-19.36,35.53c-4.32,2.72-6.81,7.58-6.5,12.68.31,5.1,3.37,9.62,7.98,11.8,15.05,7.12,24.78,22.77,24.78,39.87s-8.72,31.25-22.77,38.86c-4.52,2.44-7.33,7.17-7.33,12.3,0,5.14,2.81,9.86,7.33,12.3,14.04,7.6,22.77,22.49,22.77,38.85s-8.83,31.45-23.06,39.01c-4.29,2.28-7.1,6.63-7.4,11.48-.3,4.85,1.93,9.52,5.91,12.31,11.05,7.78,17.65,20.64,17.65,34.4,0,15.1-7.97,29.05-20.79,36.4-4.14,2.37-6.78,6.69-7.02,11.45s1.97,9.32,5.86,12.08c1.32.94,2.09,2.41,2.12,4.02.03,2.05-1.14,3.84-3.07,4.67-15.97,6.92-32.73,12.23-49.83,15.79-.37.08-.75.12-1.12.12Z" fill="#faf2d5"/>
    </g>
    <g>
      <path d="M457.02,400.59c-2.55,0-3.58-2.15-3.7-3.99-.33-5.32,1.05-11.94,3.79-18.17,2.39-5.44,5.48-10.09,8.94-13.44,4.34-4.2,6.78-9.99,6.76-16.03-.02-6.04-2.49-11.81-6.85-15.99-7.71-7.4-12.7-17.65-12.7-26.13,0-10.64,3.79-20.77,10.67-28.53,2.17-2.44,4.56-4.57,7.12-6.31,6.22-4.24,9.87-11.33,9.71-18.86s-4.12-14.46-10.52-18.42c-2.29-1.42-4.42-3.11-6.34-5.03-6.86-6.88-10.65-16.44-10.65-26.92,0-6.23,2.05-14.07,5.5-20.96,1.63-3.26,3.45-6.09,5.43-8.41,7.88-9.25,6.88-23.12-2.26-31.13-3.79-3.32-7.13-8.13-9.66-13.9-2.74-6.23-4.03-12.89-3.55-18.28.22-2.44,1.91-4.13,4.11-4.13,1.48,0,2.9.75,3.99,2.1,7.59,9.4,14.23,19.77,19.74,30.8.62,1.24.84,2.69.62,3.98-1.5,8.79,2.4,17.63,9.91,22.45,1.21.78,2.12,2.1,2.72,3.93,6.39,19.5,10.25,39.83,11.46,60.43.09,1.51-.8,2.84-1.56,3.68-.54.61-1.25,1.22-2.09,1.83-5.8,4.16-9.26,10.85-9.28,17.99s3.38,13.86,9.15,18.06c.82.6,1.5,1.2,2.02,1.8.71.81,1.53,2.09,1.42,3.54-1.63,20.38-5.86,40.45-12.57,59.64-.49,1.39-1.17,2.52-2.02,3.35-6.13,5.98-8.29,14.95-5.54,23.06.5,1.47.32,3.29-.47,4.88-5.47,11.06-12,21.47-19.41,30.95-.63.81-1.98,2.17-3.92,2.17Z" fill="#faf2d5"/>
      <path d="M457.02,400.59c-2.55,0-3.58-2.15-3.7-3.99-.33-5.32,1.05-11.94,3.79-18.17,2.39-5.44,5.48-10.09,8.94-13.44,4.34-4.2,6.78-9.99,6.76-16.03-.02-6.04-2.49-11.81-6.85-15.99-7.71-7.4-12.7-17.65-12.7-26.13,0-10.64,3.79-20.77,10.67-28.53,2.17-2.44,4.56-4.57,7.12-6.31,6.22-4.24,9.87-11.33,9.71-18.86s-4.12-14.46-10.52-18.42c-2.29-1.42-4.42-3.11-6.34-5.03-6.86-6.88-10.65-16.44-10.65-26.92,0-6.23,2.05-14.07,5.5-20.96,1.63-3.26,3.45-6.09,5.43-8.41,7.88-9.25,6.88-23.12-2.26-31.13-3.79-3.32-7.13-8.13-9.66-13.9-2.74-6.23-4.03-12.89-3.55-18.28.22-2.44,1.91-4.13,4.11-4.13,1.48,0,2.9.75,3.99,2.1,7.59,9.4,14.23,19.77,19.74,30.8.62,1.24.84,2.69.62,3.98-1.5,8.79,2.4,17.63,9.91,22.45,1.21.78,2.12,2.1,2.72,3.93,6.39,19.5,10.25,39.83,11.46,60.43.09,1.51-.8,2.84-1.56,3.68-.54.61-1.25,1.22-2.09,1.83-5.8,4.16-9.26,10.85-9.28,17.99s3.38,13.86,9.15,18.06c.82.6,1.5,1.2,2.02,1.8.71.81,1.53,2.09,1.42,3.54-1.63,20.38-5.86,40.45-12.57,59.64-.49,1.39-1.17,2.52-2.02,3.35-6.13,5.98-8.29,14.95-5.54,23.06.5,1.47.32,3.29-.47,4.88-5.47,11.06-12,21.47-19.41,30.95-.63.81-1.98,2.17-3.92,2.17Z" fill="#faf2d5"/>
    </g>
  </g>
  <g>
    <path d="M1212,352.74c-.79-1.85-2.9-2.38-4.48-2.38-7.12.27-14.23,1.85-21.35,2.11-6.41.59-12.9.77-19.42.77-5.28,0-10.59-.12-15.89-.24,15.02-17.92,34.78-31.89,52.18-47.43,2.37-1.85,8.17-5.27,6.06-8.7-.48-1.11-1.34-1.56-2.3-1.56-.63,0-1.29.19-1.92.51-18.45,10.8-45.59,39-61.66,54.81-5.31-3.65-11.68-5.01-17.63-5.01-10.21,0-19.22,3.99-19.69,7.27-17.38,12.57-36.02,22.04-55.17,25.41-2.01.39-3.94.61-5.69.61-5.39,0-9.14-2.16-8.54-8.52,1.36-11.9,30.19-43.76,50.41-64.72h.01c4.65-4.84,8.83-9.08,12.13-12.37,1.73-1.72,3.21-3.18,4.38-4.33.99-.96,1.98-1.92,2.97-2.88,8.76-8.48,17.57-16.72,26.81-24.53,5.27-4.74,12.38-9.22,17.13-14.23,1.05-1.32,1.31-2.9,0-4.22-.72-.71-1.33-.99-1.92-.99-.73,0-1.43.41-2.3.99-15.42,10.62-29.15,23.66-42.56,36.57-.57.54-1.14,1.09-1.71,1.64-1.25,1.2-2.83,2.75-4.68,4.59-5.66,5.6-13.82,13.89-22.51,23.17-12.57,13.42-26.24,28.88-35.08,41.27-.14-.01-.29-.02-.45-.02-.17,0-.34.01-.52.03-8.3,1.19-16.61,2.23-25.02,2.23-2.8,0-5.62-.12-8.45-.38,3.16-4.48,5.53-10.02,7.64-15.02,1.32-3.95,1.85-5.27.26-9.49-1.46-3.39-4.28-4.81-7.63-4.81-13.57,0-35.75,23.29-10.81,33.01-3.14,4.1-20.39,22.1-28.35,22.1-.74,0-1.4-.16-1.96-.49-8.17-5.01,12.13-25.3,15.29-29.78,1.59-2.39-.12-5.23-2.53-5.23-.78,0-1.64.3-2.48,1.01-.07.06-.13.12-.2.18-1.05-.05-2.2-.07-3.44-.07-16.04,0-46.54,3.69-61.18,4.64v-.53c7.12-6.59,16.07-14.23,22.14-22.14,1.88-2.51.77-5.36-1.62-5.36-.62,0-1.32.19-2.07.62-17.4,9.49-33.21,20.82-51.13,29.78-7.11.26-14.23.52-21.34,1.05-8.03-2.81-17.12-3.63-25.89-3.63-2.75,0-5.46.08-8.1.21-9.23.26-35.05,2.1-42.69,5.53-2.9,1.32-3.69,5.53,0,6.59,3.36.87,8.84,1.15,14.74,1.15,8.4,0,17.67-.58,22.94-.89,12.65-.79,25.03-1.84,37.68-2.63l3.16,1.05c-23.19,8.96-41.11,14.18-65.62,18.93-5.74,1.09-10.31,1.54-19.41,1.54-8.44,0-12.46-1.25-16.65-5.18-5.8-5.27-2.9-16.91.53-22.71,11.07-19.24,26.41-34.81,47.06-46.79,10.77-6.25,24.12-13.87,37.76-20.48,3.06-1.48,6.14-2.92,9.19-4.29,14.01-6.3,27.64-11.21,38.12-12.59,1.1-.15,2.16-.25,3.18-.32.33-.02.66-.04.98-.05.46-.02.91-.03,1.35-.03,1.36,0,2.64.09,3.83.27,15.18,2.31-1.35,18.13-10.59,25.98l-1,4.84-1.13,5.44c13.56-10.22,25.45-22.64,24.32-32.31-.27-3.16-2.38-7.64-5.27-9.22-2.13-1.25-5.01-1.81-8.48-1.81-1.78,0-3.72.15-5.79.43-10.47,1.41-24.27,6.2-38.18,12.1-3.08,1.3-6.16,2.66-9.21,4.05-14.33,6.53-28.04,13.72-37.53,19.06-3.64,2.04-6.66,3.81-8.86,5.17-13.17,8.17-15.61,10.92-26.68,21.72-8.17,7.91-14.28,17.13-19.82,27.14-3.95,6.85-7.43,18.34-2.16,25.98,5.1,7.36,12.35,10.18,25.03,10.18,33.17,0,72.95-14.37,90.3-22.57,4.48,6.59,3.69,15.02,1.32,22.14-7.38,7.64-27.4,27.66-30.57,36.89-.85,2.55.36,4.58,2.52,4.58.52,0,1.09-.11,1.7-.37,18.18-8.17,33.47-38.73,33.99-39,10.28-11.06,20.82-21.87,31.36-32.94,19.34-.91,43.39-1.03,63.51-3.59-14.72,16.82-14.2,33.48-2.43,33.48,7.87,0,20.75-7.44,37.47-27.25,6.72,0,13.3.43,19.81.43,4.57,0,9.11-.21,13.63-.93-2.82,4.59-4.63,8.48-4.98,11.3-.53,3.69,0,8.17,2.37,11.33,3.25,4.34,7.98,5.82,13.18,5.82,2.4,0,4.89-.31,7.38-.81,17.65-3.95,45.32-16.07,57.44-27.14.34-.34.61-.68.84-1.03,6.14,1.04,20.87,2.35,24.2,2.35l-18.19,21.34c-6.58,7.91-12.38,15.29-18.18,23.72-2.63,3.95-4.74,9.48,0,13.7.97.84,2.32,1.24,3.97,1.24,15.91,0,59.38-36.53,47.68-59.21,3.69,0,9.49.26,16.07.26,2.58.04,5.18.06,7.76.06,14.79,0,28.87-.71,34.93-2.96,1.59-.52,2.64-2.37,2.38-4.21ZM872.59,377.51c0-5.8-.52-11.34-3.68-16.34,3.42-1.06,6.85-2.9,10.01-4.74,5.01-.27,9.75-.53,14.76-.53-7.65,6.59-14.23,14.23-21.09,21.61ZM998.89,346.03c-.51.83-1,1.63-1.47,2.42-4.1-2.02-5.9-4.41-5.36-7.14.97-4.95,8.66-9.97,12.84-10.35.35,4.76-3.01,10.21-6.01,15.07ZM1107.96,408.85c-1.06.57-1.79.85-2.27.99.18-.62.58-1.56,1.34-2.71,6.85-10.39,29.11-35.69,36.78-43.99,6.27,14.13-19.35,36.79-35.85,45.71ZM849.14,320.85c.85,1.01,1.8,1.49,2.86,1.49.6,0,1.22-.15,1.88-.44,4.73-1.66,12.21-5.51,20.17-10.58h-15.3c-2.75,1.48-5.45,3.03-8.03,4.79-1.58,1.05-2.37,2.9-1.58,4.74Z" fill="#faf2d5"/>
    <g>
      <path d="M588.41,173.13c.2-1.18,1.22-2.04,2.41-2.04h30.96c1.52,0,2.67,1.37,2.41,2.87l-.07.42-23.95,130.55c0,.05-.02.1-.03.15l-.1.39c-.27,1.09-1.25,1.85-2.37,1.85h-30.93c-1.52,0-2.67-1.37-2.41-2.87l.07-.42,23.96-130.62.05-.28Z" fill="#faf2d5"/>
      <path d="M662.55,203.96c-.44,2.08,1.81,3.7,3.64,2.6,10.01-6,20.5-9,31.46-9,9.66,0,17.9,2.96,24.73,8.89,6.83,5.93,10.24,13.85,10.24,23.77,0,2.83-.26,5.54-.77,8.12-7.73,41.22-11.92,63.44-12.56,66.66l-.12.47c-.27,1.09-1.25,1.85-2.37,1.85h-31.09c-1.53,0-2.68-1.39-2.4-2.89l.04-.2,11.01-54.68c.77-3.86,1.16-6.5,1.16-7.92,0-4.12-.94-7.21-2.8-9.27-1.87-2.06-5.31-3.09-10.34-3.09-12.02,0-20.92,3.91-26.73,11.73-.21.29-.36.62-.43.97l-13.03,63.04-.05.28c-.2,1.18-1.22,2.04-2.41,2.04h-29.99c-1.52,0-2.67-1.37-2.41-2.87l.07-.42,18.74-101.83.05-.28c.2-1.18,1.22-2.04,2.41-2.04h31.76c1.51,0,2.66,1.36,2.41,2.84l-.11.63-.13.6Z" fill="#faf2d5"/>
      <path d="M807.58,307.32h27.54c1.12,0,2.09-.76,2.37-1.85l.1-.4c.01-.05.02-.09.03-.14l2.7-15.38c-11.51,5.67-22.94,11.96-32.74,17.77ZM845.76,242.12h-29.22c-1.19,0-2.21.86-2.41,2.04l-.05.28-8.12,46.16c9.61-5.28,23.23-12.37,37.48-18.75l4.65-26.45.08-.41c.26-1.5-.89-2.87-2.41-2.87ZM805.03,295.92l-1.43,8.11-.08.42c-.02.13-.04.27-.04.4,10.69-6.39,24.12-13.87,37.76-20.48l1.32-7.51c-14.33,6.53-28.04,13.72-37.53,19.06ZM855.59,183.43c-2.97-2.64-6.7-3.96-11.21-3.96-5.02,0-9.5,1.55-13.43,4.64-3.93,3.09-6.35,7.34-7.25,12.75-.25,1.55-.38,2.84-.38,3.87,0,4.51,1.48,8.08,4.44,10.72,2.96,2.64,6.7,3.96,11.21,3.96,5.02,0,9.5-1.54,13.43-4.64,3.93-3.09,6.34-7.34,7.25-12.75.25-1.54.38-2.83.38-3.86,0-4.51-1.48-8.09-4.44-10.73Z" fill="#faf2d5"/>
      <path d="M960.99,206.45c-6.83-5.92-15.07-8.88-24.73-8.88-10.97,0-21.46,2.99-31.47,8.99-1.82,1.1-4.08-.51-3.63-2.6l.12-.6.11-.63c.25-1.49-.9-2.85-2.41-2.85h-31.76c-1.2,0-2.21.87-2.41,2.05l-.05.27-12.08,65.65c13.85-5.75,27.6-10.34,38.18-11.51l2.97-14.38c.07-.35.22-.69.43-.97,5.81-7.82,14.72-11.74,26.73-11.74,5.03,0,8.47,1.04,10.34,3.1s2.8,5.15,2.8,9.27c0,1.42-.38,4.06-1.16,7.92l-11.01,54.69-.04.2c-.28,1.5.87,2.89,2.4,2.89h31.09c1.12,0,2.1-.76,2.37-1.85l.12-.47c.64-3.22,4.83-25.44,12.56-66.66.51-2.58.77-5.28.77-8.12,0-9.92-3.41-17.84-10.24-23.77ZM851.77,272.81l-1.34,7.27c14.01-6.3,27.64-11.21,38.12-12.59l1.4-6.78c-10.47,1.41-24.27,6.2-38.18,12.1Z" fill="#faf2d5"/>
      <g>
        <path d="M887.64,271.89l-3.91,18.92-1.35,6.56-1.58,7.63-.05.28c-.19,1.18-1.21,2.04-2.4,2.04h-30c-1.52,0-2.67-1.37-2.4-2.87l.07-.42,3.47-18.84c14.17-6.51,27.85-11.63,38.15-13.3Z" fill="#faf2d5"/>
        <path d="M891.73,267.17c.33-.02.66-.04.98-.05l.02-.11-1,.16Z" fill="#faf2d5"/>
        <path d="M883.73,290.81l-1.35,6.56-1.58,7.63-.05.28c-.19,1.18-1.21,2.04-2.4,2.04h-30c-1.52,0-2.67-1.37-2.4-2.87l.07-.42,3.47-18.84c14.17-6.51,27.85-11.63,38.15-13.3l-3.91,18.92Z" fill="#faf2d5"/>
      </g>
      <path d="M983.89,201.92c.2-1.18,1.22-2.04,2.41-2.04h29.22c1.52,0,2.67,1.37,2.41,2.87l-.07.42-18.92,101.76s-.02.1-.03.15l-.1.4c-.27,1.09-1.25,1.85-2.37,1.85h-29.19c-1.52,0-2.67-1.37-2.41-2.87l.07-.42,18.94-101.83.05-.28ZM987.13,177.85c.9-5.41,3.32-9.66,7.25-12.75,3.93-3.09,8.41-4.64,13.43-4.64,4.51,0,8.24,1.32,11.21,3.96,2.96,2.64,4.44,6.22,4.44,10.72,0,1.03-.13,2.32-.39,3.86-.9,5.41-3.32,9.66-7.25,12.75-3.93,3.09-8.41,4.64-13.43,4.64-4.51,0-8.25-1.32-11.21-3.96-2.96-2.64-4.44-6.21-4.44-10.72,0-1.03.13-2.32.39-3.86Z" fill="#faf2d5"/>
      <path d="M1097.17,285.91c-5.66,5.6-13.82,13.89-22.51,23.17,3.08-.5,6.08-1.24,8.97-2.24,1.18-.41,2.27-.8,3.28-1.17h.01c4.65-4.84,8.83-9.08,12.13-12.37l-1.88-7.39ZM1105.67,199.88h-22.5c-1.56,0-2.71-1.43-2.39-2.94l4.78-22.56.11-.64c.25-1.48-.9-2.84-2.41-2.84h-33.28c-1.12,0-2.09.76-2.37,1.85l-.11.47-5.2,24.72c-.24,1.13-1.23,1.94-2.39,1.94h-13.53c-1.2,0-2.21.87-2.41,2.05l-.05.27-4.63,25.9-.11.63c-.25,1.49.9,2.84,2.41,2.84h11.93c1.54,0,2.69,1.4,2.4,2.91l-3.88,19.89c-1.93,10.44-2.9,18.49-2.9,24.16,0,20.87,11.98,31.3,35.94,31.3,1.07,0,2.14-.03,3.19-.09,10.89-11.76,21.33-22.33,27.69-28.58l-1.51-5.92-.11-.5c-.4-1.75-2.47-2.49-3.89-1.39l-.29.23c-.1.08-.21.15-.33.21l-1.95,1.07c-1.42.9-3.54,1.77-6.38,2.61-2.83.83-5.73,1.25-8.69,1.25s-4.8-.58-5.89-1.74c-1.1-1.16-1.65-3.09-1.65-5.79,0-1.55.39-4.26,1.16-8.12.26-1.55,1.03-4.64,2.32-9.28l4.78-20.33c.26-1.11,1.24-1.89,2.37-1.89h25.18c1.19,0,2.21-.86,2.41-2.04l.04-.28,4.45-25.89.1-.63c.25-1.49-.9-2.85-2.41-2.85Z" fill="#faf2d5"/>
      <path d="M1209.75,278.57l-.44-.24-22.61-12.36-.65-.33c-.98-.49-2.17-.27-2.91.55l-.49.55c-6.7,7.99-15.07,11.98-25.12,11.98-6.06,0-11.02-1.29-14.88-3.86-2.86-1.91-4.87-4.34-6.04-7.31-.63-1.59.57-3.32,2.28-3.32h34.29c14.55,0,26.08-3.45,34.59-10.34,8.5-6.89,12.75-14.91,12.75-24.06,0-10.3-4.35-18.26-13.04-23.86-8.7-5.6-19.68-8.4-32.95-8.4-17.91,0-33.72,5.21-47.44,15.65-13.72,10.43-22.06,23.76-25.02,40-.65,4.25-.97,7.85-.97,10.82,0,3.89.39,7.57,1.16,11.03,12.96-12.44,26.4-25.07,41.46-35.44h.03s.03-.03.03-.03c.95-.64,2.56-1.71,4.64-1.71,1.77,0,3.42.75,4.9,2.24,2.72,2.72,2.85,6.67.31,9.84l-.11.14-.12.12c-2.99,3.17-6.75,6.04-10.37,8.83-2.53,1.94-4.92,3.77-7,5.64l-.05.04-.05.04c-9.84,8.33-19.19,17.17-27.24,24.96,1.86,2.64,4.07,5.09,6.62,7.34,9.46,8.37,21.93,12.56,37.39,12.56,11.46,0,22.28-2.42,32.46-7.25,10.17-4.83,18.55-11.43,25.12-19.8l.31-.44c.86-1.2.47-2.89-.84-3.58ZM1152.81,236.79c-2.58,0-3.4-3.52-1.07-4.64,5.08-2.44,10.87-3.67,17.38-3.67,3.99,0,7.21.26,9.66.77,2.45.52,3.99,1,4.64,1.45.64.46.97.81.97,1.07,0,.51-.55,1.16-1.65,1.93-1.09.77-2.93,1.48-5.5,2.12-2.58.65-5.54.97-8.89.97h-15.54ZM1150.34,243.11c-.72-.71-1.33-.99-1.92-.99-.73,0-1.43.41-2.3.99-15.42,10.62-29.15,23.66-42.56,36.57.76,2.24,1.71,4.37,2.84,6.41,8.76-8.48,17.57-16.72,26.81-24.53,5.27-4.74,12.38-9.22,17.13-14.23,1.05-1.32,1.31-2.9,0-4.22Z" fill="#faf2d5"/>
    </g>
    <path d="M751.73,198.13c1.56-6.05,3.3-11.36,5.24-15.93,2.13-5.02,5.05-9.88,8.79-14.59,3.73-4.7,8.6-8.28,14.59-10.72,5.99-2.45,12.98-3.67,20.97-3.67,6.54,0,14.48,2.05,21.97,8.99l.73.73c1,.86,1.13,2.94.79,3.92l-.09.27-5.99,26.09-.31.4c-.87,1.13-2.53,1.28-3.59.31l-.36-.33c-7.22-6.31-9.5-9.47-15.29-9.47s-10.03,4.26-12.4,12.77c-.43,1.55.75,3.08,2.36,3.08h25.32c1.51,0,2.66,1.36,2.41,2.84l-.11.63-4.64,25.89-.05.28c-.2,1.18-1.22,2.04-2.41,2.04h-27.43c-1.16,0-2.16.82-2.39,1.96l-1.92,9.45-7.34,36.91-1.55,9.08-3.28,15.84c-1.55,6.7-3.38,12.53-5.51,17.49-2.13,4.96-5.06,9.82-8.79,14.59-3.74,4.76-8.66,8.41-14.78,10.92-6.12,2.51-13.3,3.77-21.54,3.77-11.59,0-21.26-4.57-28.98-13.72l-.19-.19-.21-.29c-.47-.66-.58-1.52-.3-2.28l.12-.33,8.12-19.9.26-.59c.65-1.46,2.51-1.91,3.76-.92l.43.34c6.06,4.64,12.5,6.96,19.32,6.96,3.99,0,6.99-1.55,8.99-4.64,2-3.09,3.57-7.54,4.73-13.33l3.09-15.46,1.55-8.89,7.34-36.52,1.52-7.3c.31-1.52,6.79-35.39,7.06-36.48Z" fill="#faf2d5"/>
  </g>
</svg>