<?xml version="1.0" encoding="UTF-8"?>
<svg id="Layer_1" data-name="Layer 1" xmlns="http://www.w3.org/2000/svg" viewBox="0 0 532.95 532.29">
  <g>
    <g>
      <path d="M488.33,310.98c-1.96,0-3.85-1.29-5.75-1.54s-3.99.09-5.84-.4-3.7-1.3-5.48-2.05-3.17-2.28-4.85-3.26-3.06-2.23-4.6-3.42-3.91-1.4-5.28-2.79-1.76-3.59-2.94-5.15-2.42-2.97-3.38-4.67-2.03-3.28-2.77-5.09c-.73-1.8-1.56-3.64-2.87-4.98s-3.17-2.21-4.92-2.97-3.58-1.94-5.53-1.98c-.09,0-.2.51-.29.51-1.91,0-3.91.27-5.62.96s-3.16,2.11-4.52,3.41-2.57,2.73-3.36,4.48c-.78,1.73-1.14,3.7-2.14,5.27s-2.53,2.86-3.74,4.28-2.67,2.64-4.08,3.87-3.02,2.18-4.59,3.2-3,2.29-4.7,3.08-3.69.72-5.49,1.26-3.35,2.15-5.22,2.42-3.8.2-5.69.2-3.78-.37-5.6-.63-3.55-1.23-5.32-1.75-3.71-.7-5.39-1.47-3.31-1.75-4.87-2.76-3.22-1.96-4.62-3.18-2.11-3.13-3.33-4.54-3.31-2.17-4.32-3.74-1.84-3.32-2.62-5.02-.29-3.84-.82-5.64-2.46-3.27-2.72-5.14.62-3.8.62-5.7.67-3.65.93-5.48-.41-3.9.11-5.67,2.23-3.14,3-4.82,1.15-3.56,2.15-5.12,1.48-3.6,2.7-5.01,3.18-2.14,4.59-3.36,2.47-2.96,4.04-3.97,3.78-.83,5.48-1.61,3.14-2.08,4.95-2.61,3.59-1.05,5.45-1.31,3.71-.06,5.6-.06,3.77-.07,5.61.2,3.84.22,5.63.75,3.35,1.84,5.05,2.62,3.07,2.08,4.65,3.1,3.06,2.02,4.48,3.26,3.35,1.93,4.57,3.36,2.43,2.92,3.45,4.51,1.33,3.54,2.11,5.27c.79,1.75,2.69,2.58,4.02,3.86s2.37,2.95,4.11,3.65,3.57,1.75,5.49,1.75c.09,0,.18-.92.27-.92,1.95-.04,3.54-.9,5.26-1.65s4-.82,5.34-2.18,2.71-3.02,3.44-4.82c.74-1.81.24-4.21,1.19-5.88s2.54-3.06,3.7-4.59,2.91-2.59,4.27-3.97,2.45-3.04,3.98-4.23,3.12-2.33,4.79-3.3,3.46-1.75,5.26-2.5,3.45-1.99,5.34-2.49,4.01.31,5.94.05,3.77-.24,5.73-.24,3.76.3,5.65.54,3.98-.42,5.82.08,3.72,1.15,5.48,1.88,3.8,1.16,5.45,2.12,3.04,2.49,4.56,3.66,3,2.46,4.36,3.82,2.41,3.01,3.59,4.54,1.72,3.41,2.69,5.08,1.89,3.26,2.63,5.04,2.46,3.22,2.97,5.09-.17,3.95.08,5.88,1.28,3.75,1.28,5.7-.1,3.94-.34,5.82-.36,3.96-.86,5.8-1.87,3.5-2.6,5.26-1,3.86-1.96,5.52-2.53,3.01-3.7,4.53-3.11,2.34-4.47,3.7-2.56,2.8-4.08,3.97-2.57,3.07-4.24,4.04-3.8,1.01-5.58,1.75-3.62,1.04-5.49,1.55-3.56,1.48-5.49,1.73-3.8,1.25-5.75,1.25Z" fill="#eb741d"/>
      <path d="M488.33,310.55c-1.96,0-3.97.06-5.87-.19s-3.81-1.03-5.67-1.53-3.67-1.31-5.45-2.05-3.19-2.2-4.86-3.17-3.45-1.7-4.98-2.89-3.76-1.64-5.13-3.03-1.82-3.58-3-5.14-1.95-3.27-2.91-4.97-2.7-2.97-3.43-4.78c-.73-1.8-1.81-3.16-3.12-4.5s-2.67-2.47-4.42-3.23-3.44-.83-5.39-.86c-.09,0-.17-.2-.26-.2-1.91,0-3.8-.24-5.52.45s-2.81,2.33-4.16,3.63-2.88,2.32-3.67,4.07c-.78,1.73-1.9,3.25-2.89,4.81s-2.38,2.85-3.6,4.26-1.64,3.69-3.05,4.92-2.96,2.49-4.54,3.51-3.53,1.54-5.23,2.33-3.74.65-5.55,1.19-3.58.75-5.44,1.02-3.62.75-5.51.75-3.69-.28-5.51-.54-3.69-.45-5.46-.97-3.4-1.43-5.09-2.2-3.78-.87-5.34-1.87-2.68-2.66-4.09-3.88-2.48-2.72-3.7-4.13-2.47-2.72-3.48-4.3-2.11-3.05-2.89-4.76-2.14-3.21-2.67-5.01-.94-3.69-1.2-5.55,1.06-3.78,1.06-5.67-.75-3.76-.49-5.59,1.28-3.52,1.8-5.29,1.34-3.39,2.11-5.08,1.17-3.54,2.18-5.1,1.92-3.21,3.14-4.62,2.39-2.91,3.8-4.13,2.94-2.36,4.51-3.37,3.42-1.52,5.12-2.3,3.58-.83,5.38-1.36,3.47-1.03,5.33-1.29,3.59-1.13,5.48-1.13,3.87-.48,5.71-.21,3.46,1.83,5.25,2.36,3.97.15,5.67.93c1.71.79,3.3,1.94,4.87,2.96s2.54,2.85,3.96,4.08,3.01,2.23,4.24,3.66,2.79,2.63,3.8,4.22,1.85,3.31,2.63,5.04c.79,1.75,1.13,3.86,2.46,5.14s3.5,1.52,5.25,2.22,3.41.91,5.33.91c.09,0,.19.93.28.93,1.95-.04,3.75-1,5.47-1.74s3.55-1.56,4.89-2.92,2.69-2.9,3.42-4.7c.74-1.81,1.08-3.78,2.02-5.45s2.11-3.27,3.27-4.81,2.38-3.08,3.73-4.46,3.13-2.28,4.66-3.47,2.86-2.64,4.54-3.61,3.33-2.04,5.12-2.78,3.84-.67,5.72-1.17,3.71-.75,5.65-1,3.76-.61,5.72-.61,3.88-.28,5.76-.04,4-.04,5.84.46,3.56,1.71,5.32,2.44,3.88.99,5.54,1.96,3.28,2.2,4.8,3.37,2.08,3.47,3.44,4.83,2.51,2.8,3.68,4.32,2.76,2.71,3.73,4.38,2.66,3.02,3.4,4.81-.06,4.08.44,5.95,1.9,3.51,2.15,5.43.51,3.86.51,5.81-.55,3.88-.8,5.77.03,4.01-.47,5.85-1.36,3.71-2.09,5.48-2.08,3.32-3.04,4.98-2.71,2.77-3.88,4.29-2.36,2.92-3.72,4.28-2.28,3.16-3.8,4.34-3.53,1.54-5.2,2.5-2.69,3.21-4.47,3.95-3.93.45-5.8.95-3.58,1.78-5.51,2.03-3.9.07-5.85.07Z" fill="#eb741d"/>
    </g>
    <g>
      <path d="M44.8,310.01c-1.95,0-3.92.43-5.81.18s-3.64-1.48-5.48-1.98-3.96-.33-5.72-1.06-3.09-2.42-4.75-3.38-3.73-1.33-5.25-2.5-3.26-2.22-4.62-3.58-1.99-3.41-3.16-4.94-1.79-3.35-2.75-5.02-3.13-2.73-3.87-4.52-.8-3.84-1.3-5.71-1.44-3.67-1.69-5.6-.38-3.9-.38-5.85,1.31-3.81,1.55-5.69.02-3.91.51-5.76,1.11-3.72,1.85-5.48,2.08-3.26,3.04-4.92,2.15-3.12,3.32-4.64,1.63-3.68,2.99-5.04,3.17-2.27,4.7-3.44,3.44-1.7,5.1-2.67,3.27-1.87,5.06-2.61,3.59-1.08,5.46-1.58,3.51-1.77,5.44-2.02,3.82.42,5.77.42,3.9-.56,5.8-.31,3.91.39,5.76.89,3.85.9,5.63,1.64,3.02,2.63,4.69,3.6,3.11,2.15,4.64,3.34,2.99,2.31,4.36,3.7,2.79,2.61,3.96,4.16,2.1,3.17,3.06,4.87,2.6,3.01,3.34,4.83c.73,1.8,1.73,3.27,3.04,4.61s2.39,3.31,4.14,4.06,3.83,1.26,5.78,1.29c.09,0,.2-.07.29-.07,1.91,0,3.74-1.03,5.46-1.72s3.41-1.61,4.77-2.91,1.77-3.14,2.56-4.89c.78-1.73,1.91-3.34,2.91-4.91s2.72-2.68,3.93-4.1,2.15-3.16,3.56-4.39,2.81-2.6,4.39-3.62,3.37-1.78,5.08-2.57,3.43-1.7,5.24-2.24,3.76-.56,5.63-.83,3.74-.28,5.64-.28,3.82-.23,5.64.03,3.56,1.33,5.34,1.85,3.39,1.45,5.08,2.23,3.54,1.23,5.1,2.24,3.61,1.49,5.02,2.71,1.93,3.39,3.15,4.8,2.29,2.87,3.3,4.44,2.81,2.73,3.59,4.43,1.39,3.54,1.92,5.34.2,3.78.47,5.65.04,3.66.04,5.55.69,3.8.43,5.62-1.12,3.6-1.64,5.37-.25,3.95-1.03,5.64-3.02,2.62-4.02,4.18-1.46,3.53-2.68,4.93-2.82,2.45-4.23,3.67-2.37,3.1-3.94,4.11-3.31,1.89-5.02,2.67-3.66.95-5.47,1.48-3.68.4-5.55.67-3.62.5-5.51.5-3.79.37-5.63.1-3.91-.07-5.7-.6-3.65-1.28-5.35-2.06-3.08-2.31-4.65-3.33-3.05-2.2-4.46-3.43-3.28-2.09-4.51-3.52-2.2-3.14-3.21-4.73-.7-3.84-1.48-5.57c-.79-1.75-2.5-3.11-3.83-4.39s-3.26-1.8-5-2.5-3.43-2.17-5.34-2.17c-.09,0-.18,1-.27,1.01-1.95.04-3.68.56-5.4,1.31s-3.13,1.85-4.46,3.22-2.93,2.51-3.66,4.31c-.74,1.81-.71,4.03-1.66,5.7s-3.36,2.44-4.52,3.98-1.41,3.9-2.76,5.27-3.6,1.78-5.13,2.97-2.59,3.05-4.27,4.03-3.88.82-5.67,1.57-3.26,2.28-5.15,2.79-3.75,1.14-5.69,1.4-3.9-.23-5.86-.23Z" fill="#eb741d"/>
      <path d="M44.8,310.95c-1.95,0-3.97-.15-5.86-.4s-3.66-1.59-5.5-2.09-3.71-1.03-5.47-1.76-3.29-1.96-4.95-2.92-3.03-2.24-4.55-3.41-3.15-2.12-4.51-3.48-2.77-2.62-3.95-4.15-2.08-3.18-3.05-4.85c-.96-1.66-2.51-3.04-3.25-4.82s-.58-3.84-1.08-5.72-.88-3.67-1.13-5.6-.61-3.75-.61-5.7.4-3.81.65-5.69-.13-3.96.36-5.8,1.48-3.59,2.21-5.36,1.94-3.3,2.9-4.96,1.36-3.71,2.53-5.24,3.23-2.25,4.59-3.61,2.5-2.88,4.02-4.06,3.05-2.28,4.72-3.25,3.27-2,5.06-2.74,3.5-1.66,5.37-2.16,3.72-1.24,5.64-1.5,3.89.36,5.84.36,3.9-.06,5.81.19,3.91.42,5.77.92,3.89.82,5.67,1.56,3.21,2.33,4.88,3.31,3.21,2.12,4.74,3.31,3.68,1.74,5.05,3.12,1.92,3.5,3.1,5.06,2.07,3.22,3.03,4.92,2.4,3.12,3.14,4.93c.73,1.8,1.82,3.22,3.13,4.56s2.77,2.39,4.53,3.14,3.42,2.3,5.37,2.34c.09,0,.2-.77.29-.77,1.91,0,3.79-.31,5.51-1s3.03-2.08,4.39-3.38,3-2.39,3.79-4.14c.78-1.73.8-3.88,1.8-5.45s3.1-2.4,4.32-3.81,2.3-2.94,3.71-4.17,3.13-1.99,4.7-3.01,2.67-2.91,4.38-3.69,3.51-1.54,5.31-2.07,3.88.23,5.75-.04,3.62-1.18,5.52-1.18,3.73.44,5.56.7,3.67.67,5.44,1.19,3.94.28,5.63,1.05,3.04,2.36,4.6,3.37,2.89,2.36,4.29,3.58,2.88,2.38,4.1,3.79,2.33,2.91,3.35,4.48,1.69,3.3,2.47,5,1.74,3.31,2.27,5.11,1.24,3.57,1.51,5.43.63,3.75.63,5.64-.38,3.82-.64,5.64-1.67,3.46-2.19,5.23-.36,3.84-1.13,5.52-2.18,3.07-3.18,4.63-1.65,3.44-2.87,4.84-3.03,2.24-4.44,3.47-2.92,2.21-4.5,3.23-2.76,2.7-4.47,3.48c-1.69.77-3.59,1.13-5.39,1.66s-3.52,1.59-5.38,1.85c-1.82.26-3.79-.48-5.69-.48s-3.66-.71-5.51-.98-3.7-.31-5.49-.84-3.32-1.61-5.02-2.4-3.31-1.55-4.88-2.57-3.25-1.79-4.67-3.02-3.57-1.78-4.8-3.21c-1.22-1.41-1.57-3.55-2.59-5.14s-1.46-3.39-2.24-5.12c-.79-1.75-2.25-3.25-3.58-4.53s-3.15-2.16-4.89-2.86-3.59-1.31-5.51-1.31c-.09,0-.18.77-.27.77-1.95.04-3.63.47-5.35,1.22s-3.75,1.17-5.09,2.53-2.5,3.01-3.24,4.81c-.74,1.81-.9,3.9-1.85,5.57s-2.56,2.99-3.72,4.52-2.67,2.76-4.03,4.13-2.78,2.6-4.31,3.78-2.47,3.28-4.14,4.25-3.42,2.02-5.22,2.77-4.05.17-5.93.68-3.61,1.58-5.54,1.83-3.87.92-5.83.92Z" fill="#eb741d"/>
    </g>
  </g>
  <g>
    <g>
      <path d="M425.83,471.36c-1.94,0-3.95-.11-5.85-.35s-3.64-1.61-5.49-2.1-3.94-.4-5.72-1.14-3.19-2.24-4.86-3.21-3.39-1.8-4.93-2.98-2.88-2.51-4.25-3.89-2.82-2.67-3.99-4.18-2.18-3.19-3.14-4.85-1.75-3.43-2.49-5.2-.88-3.72-1.38-5.58-1.28-3.62-1.53-5.54.14-3.8.14-5.74-1.03-3.99-.78-5.92.43-3.99.94-5.88,1.28-3.79,2.04-5.6c.76-1.79,1.08-3.43,1.1-5.31s-.32-3.54-1.03-5.32-1.51-3.21-2.86-4.61c-1.4-1.45-2.6-3.03-4.39-3.79s-3.79-1.47-5.77-1.47c-1.74,0-3.59.4-5.28,1.04-2.22.84-4.39,1.8-6.72,2.22s-4.68-.14-7.07-.14c-2.07,0-4.02-.15-6.03-.46s-4.35.5-6.3-.13-3.33-2.68-5.16-3.61-4.22-.93-5.89-2.15-2.48-3.39-3.94-4.86c-1.34-1.34-2.29-2.86-3.39-4.33s-3.47-2.22-4.35-3.84-1.7-3.46-2.35-5.19-.63-3.78-1.02-5.59-.91-3.68-1.04-5.54.77-3.72.91-5.58.46-3.62.86-5.45-.12-3.91.53-5.66,1.9-3.25,2.8-4.9,1.22-3.69,2.35-5.2,3.52-1.85,4.86-3.19c1.47-1.47,2.56-3.24,4.2-4.44s3.32-2.43,5.14-3.37,3.99-.93,5.95-1.56,3.73-1.69,5.77-2.01,4.03-1.19,6.11-1.19,4.16.47,6.17.79,4.1.72,6.05,1.35,3.72,1.79,5.55,2.73,3.87,1.58,5.54,2.8,3.34,2.5,4.8,3.97c1.34,1.34,1.52,3.64,2.63,5.13s2.19,2.93,3.08,4.57,2.22,3.06,2.87,4.81,1.23,3.54,1.63,5.38.49,3.7.62,5.58.47,3.75.33,5.62-.83,3.65-1.24,5.49-1.45,3.38-2.12,5.15c-.69,1.82-.42,4.01-.36,5.89s.23,3.97,1,5.72,2.44,2.94,3.84,4.29c1.38,1.33,3.13,1.75,4.85,2.44s3.3,2.63,5.19,2.63,4.16-.49,6.01-1.27c1.81-.77,3.49-1.65,5.38-2.16s3.74-.95,5.69-1.2,3.83-.75,5.81-.75,3.9-.15,5.79.1,3.6,1.54,5.45,2.04,3.59,1.12,5.36,1.86,3.66,1.12,5.33,2.09,3.61,1.53,5.14,2.71,2.65,2.82,4.02,4.19,2.11,3.22,3.27,4.73,2.38,2.95,3.34,4.6,1.97,3.27,2.7,5.03,2.25,3.32,2.74,5.18.69,3.85.94,5.76.25,3.88.25,5.81.2,3.92-.05,5.83-.44,3.92-.94,5.79-2.06,3.4-2.79,5.19-1.54,3.49-2.51,5.17-1.49,3.63-2.68,5.17-2.69,2.78-4.07,4.16c-1.37,1.37-2.98,2.47-4.49,3.64s-3.33,1.89-4.99,2.85-3.12,2.32-4.9,3.06-3.49,1.83-5.35,2.33-3.84.69-5.76.93-3.87.66-5.81.66Z" fill="#eb741d"/>
      <path d="M425.83,471.5c-1.94,0-3.78-1.61-5.67-1.86s-4.08.73-5.93.23-3.34-2.2-5.12-2.93-4.02-.58-5.69-1.55-2.88-2.67-4.42-3.85-3.52-1.87-4.89-3.25-2.78-2.83-3.95-4.35-1.38-3.77-2.34-5.43-2.81-2.95-3.54-4.73-.99-3.81-1.48-5.68-.79-3.81-1.04-5.73-.88-3.86-.88-5.8,1.45-3.86,1.7-5.78.87-3.73,1.38-5.62-.08-4.14.68-5.95c.76-1.79,1.65-3.47,1.67-5.35s-.48-3.75-1.19-5.53-1.69-3.32-3.05-4.72c-1.4-1.45-2.98-2.59-4.77-3.35s-3.74-1.6-5.72-1.6c-1.74,0-3.66.22-5.35.86-2.22.84-4.47,1.13-6.8,1.55s-4.53,1.78-6.92,1.78c-2.07,0-4.23.15-6.25-.16s-3.69-2.25-5.63-2.88-4.11-.65-5.94-1.59-3.63-1.94-5.3-3.15-3.15-2.61-4.62-4.08c-1.34-1.34-2.38-2.89-3.48-4.37s-1.85-3.2-2.74-4.82-1.97-3.16-2.62-4.9-.56-3.66-.95-5.48-.7-3.56-.83-5.42-.14-3.63,0-5.49-.33-3.76.06-5.59.46-3.78,1.11-5.54,1.6-3.42,2.5-5.07,2.19-3.03,3.32-4.54,2.66-2.54,4-3.88c1.47-1.47,2.58-3.28,4.22-4.48s3.18-2.81,5-3.74,4.21-.62,6.16-1.25,3.82-1.38,5.86-1.69,4.03-.4,6.1-.4,4.03.45,6.05.76,3.88,1,5.82,1.63,4.24.38,6.07,1.31,3.28,2.49,4.94,3.71,3.83,1.85,5.3,3.32c1.34,1.34,1.82,3.43,2.94,4.92s2.1,3.06,2.99,4.7,1.35,3.43,1.99,5.18,1.19,3.46,1.58,5.29,1.57,3.54,1.7,5.41.29,3.8.15,5.67-.33,3.8-.74,5.64-1.46,3.5-2.13,5.27c-.69,1.82-1.32,3.73-1.27,5.6s1.36,3.53,2.13,5.28,1.39,3.45,2.79,4.8c1.38,1.33,2.7,2.91,4.42,3.6s3.8.15,5.68.15,3.86.05,5.7-.73c1.81-.77,3.81-.87,5.7-1.38s3.71-1.13,5.66-1.38c1.93-.25,3.85.06,5.82.06s3.83-.3,5.72-.05,3.97-.12,5.82.37,3.86.86,5.64,1.6,3.59,1.64,5.26,2.61,2.84,2.74,4.38,3.92,2.67,2.72,4.04,4.09,2.84,2.6,4,4.11,2.72,2.85,3.68,4.5,1.1,3.76,1.83,5.53,1.33,3.56,1.82,5.42.54,3.74.79,5.65.48,3.74.48,5.66.83,3.89.58,5.8-.96,3.75-1.46,5.61-1.51,3.51-2.25,5.3-1.61,3.41-2.58,5.09-1.12,3.86-2.3,5.4-3.12,2.37-4.5,3.75c-1.37,1.37-2.84,2.55-4.35,3.72s-2.78,2.76-4.44,3.72-3.52,1.59-5.3,2.33-3.55,1.51-5.42,2.01-3.76.85-5.68,1.09-3.83,1.08-5.77,1.08Z" fill="#eb741d"/>
    </g>
    <g>
      <path d="M180.59,218.29c-2.07,0-4-1.23-6.01-1.54s-4.33.52-6.28-.11-3.37-2.55-5.2-3.48-3.57-1.83-5.24-3.04-3.72-1.9-5.19-3.37c-1.34-1.34-1.95-3.27-3.06-4.76s-3.28-2.39-4.17-4.03-.97-3.75-1.62-5.5-1.34-3.53-1.73-5.37-1.26-3.68-1.39-5.55,1.4-3.74,1.53-5.62-.18-3.74.23-5.58c.4-1.82,1.45-3.4,2.12-5.17.69-1.82.54-3.97.49-5.85s-.22-3.99-.99-5.73-2.45-2.95-3.85-4.3c-1.38-1.33-2.91-2.33-4.62-3.02s-3.55-1.3-5.43-1.3-4.03.07-5.88.85c-1.81.77-3.49,1.84-5.38,2.35s-3.83.77-5.78,1.02-3.87-.29-5.85-.29-3.81.15-5.7-.1-3.9-.05-5.75-.54-3.64-1.28-5.42-2.01-3.74-1.16-5.41-2.13-3.32-2.05-4.85-3.23-2.82-2.67-4.19-4.04-1.91-3.43-3.07-4.94-2.53-2.87-3.49-4.52-2.12-3.23-2.85-5-1.72-3.51-2.22-5.36-1.16-3.77-1.4-5.67-.45-3.92-.45-5.84,1.06-3.82,1.31-5.73.46-3.81.96-5.67,1.6-3.47,2.34-5.25.93-3.78,1.89-5.46,1.75-3.48,2.93-5.03,3.24-2.23,4.62-3.61c1.37-1.37,2.13-3.41,3.64-4.58s3.21-2.23,4.87-3.19,3.57-1.53,5.34-2.27,3.77-.74,5.63-1.24,3.61-1.23,5.53-1.48,3.79-.02,5.73-.02,3.78.23,5.67.48,4-.43,5.85.06,3.8.97,5.58,1.71,3.57,1.62,5.24,2.58,2.49,3.15,4.02,4.33,3.59,1.67,4.96,3.04,2.67,2.83,3.84,4.35,1.77,3.44,2.73,5.1,1.53,3.47,2.27,5.24,1.85,3.38,2.34,5.24.19,3.81.44,5.73.91,3.71.91,5.66.02,3.91-.23,5.84-.4,3.91-.91,5.8-.94,3.84-1.7,5.65c-.76,1.79-1.25,3.54-1.26,5.41s-.15,3.9.56,5.68,2.07,3.17,3.42,4.57c1.4,1.45,2.8,3.01,4.59,3.77s3.92,1.41,5.9,1.41c1.74,0,3.29-1.43,4.98-2.07,2.22-.84,4.76-.63,7.09-1.05s4.61-.97,7-.97c2.07,0,4.23-.47,6.24-.16s4.1.96,6.05,1.59,3.59,2.13,5.42,3.06,3.23,2.42,4.9,3.64,3.79,1.79,5.26,3.25c1.34,1.34,2.43,2.89,3.53,4.36s2.54,2.86,3.43,4.49,1.83,3.37,2.48,5.1.63,3.76,1.02,5.58.66,3.68.79,5.54.05,3.73-.09,5.59-.27,3.73-.67,5.56-1.25,3.5-1.9,5.26-1.86,3.15-2.76,4.8-.92,3.78-2.05,5.29-2.13,3.15-3.47,4.49c-1.47,1.47-3.61,2.18-5.25,3.38s-3.48,2.11-5.3,3.04-3.45,2.38-5.41,3.01-4.09.55-6.13.87-4.02.97-6.1.97Z" fill="#eb741d"/>
      <path d="M180.59,217.38c-2.07,0-4.19.89-6.2.57s-4.13-.71-6.08-1.34-4.05-1.21-5.88-2.15-3.26-2.64-4.93-3.86-3.75-2.01-5.21-3.48c-1.34-1.34-2.18-3.19-3.29-4.68s-2.14-3.13-3.03-4.77-.82-3.71-1.46-5.47-2.23-3.24-2.62-5.07-.57-3.75-.69-5.63.63-3.73.76-5.61-.56-3.87-.15-5.71,1.89-3.34,2.56-5.11c.69-1.82-.26-3.86-.32-5.74s1.04-4.12.26-5.86-3.07-2.44-4.48-3.79c-1.38-1.33-2.14-3.67-3.86-4.36s-3.92-.11-5.8-.11-3.59.85-5.44,1.63c-1.81.77-3.99.57-5.88,1.08s-3.82.6-5.77.85-3.82,1.57-5.8,1.57-3.88-.73-5.78-.97-3.67-1.23-5.52-1.72-3.94-.34-5.72-1.08-3.28-2.06-4.95-3.03-3.69-1.44-5.22-2.62-2.23-3.26-3.61-4.63-3.13-2.37-4.29-3.87-1.71-3.47-2.67-5.12-2.34-3.12-3.07-4.88-.91-3.74-1.41-5.59-1.5-3.62-1.75-5.53.59-3.87.59-5.79-1.35-3.95-1.1-5.86,1.48-3.67,1.98-5.53,1.53-3.49,2.27-5.28.97-3.76,1.94-5.44,1.56-3.63,2.75-5.17,3.32-2.19,4.7-3.57c1.37-1.37,2.09-3.49,3.6-4.66s3.34-2.06,5-3.02,3.4-1.94,5.18-2.67,3.69-1.26,5.56-1.75,3.83-.55,5.75-.8,3.82.29,5.76.29,3.91-.88,5.81-.63,3.8.84,5.65,1.33,3.61,1.36,5.39,2.1,3.89.9,5.56,1.86,3.28,2.16,4.81,3.34,2.57,2.94,3.94,4.32,2.48,2.94,3.65,4.46,2.37,3.03,3.33,4.69,1.31,3.6,2.05,5.37,1.66,3.43,2.15,5.3.46,3.76.71,5.68,1.47,3.73,1.47,5.67-.85,3.88-1.1,5.81-.63,3.82-1.14,5.71-1.3,3.62-2.06,5.43c-.76,1.79-1.42,3.87-1.44,5.74s.53,4.03,1.23,5.81,2.68,2.76,4.03,4.17c1.4,1.45,2.68,2.9,4.46,3.66s3.75.8,5.73.8c1.74,0,3.3-.41,4.99-1.05,2.22-.84,4.56-1.69,6.89-2.11s4.8.37,7.19.37c2.07,0,4.24-.83,6.25-.52s4.18.76,6.12,1.39,3.34,2.72,5.17,3.65,3.62,1.79,5.28,3.01,4.02,1.64,5.49,3.11c1.34,1.34,1.71,3.54,2.82,5.01s2.47,2.85,3.35,4.48,1.73,3.34,2.38,5.08.65,3.69,1.04,5.5,1.88,3.53,2.01,5.39-.93,3.77-1.06,5.63-.8,3.59-1.19,5.42-.57,3.64-1.22,5.4-1.69,3.24-2.59,4.89-1.91,3.07-3.04,4.58-1.85,3.22-3.19,4.55c-1.47,1.47-3.39,2.28-5.03,3.48s-3.18,2.49-5,3.42-3.31,2.78-5.26,3.41-4.22.04-6.26.36-3.99.25-6.07.25Z" fill="#eb741d"/>
    </g>
  </g>
  <g>
    <g>
      <path d="M352.53,218.39c-2.07,0-4.1-.65-6.11-.96s-4.05-.71-5.99-1.34-3.89-1.33-5.72-2.27-3.19-2.55-4.85-3.77-3.03-2.58-4.5-4.05c-1.34-1.34-3.38-2-4.48-3.48s-1.45-3.51-2.34-5.14-1.92-3.19-2.57-4.93-1.43-3.47-1.82-5.29-.89-3.68-1.02-5.53.12-3.76.25-5.62-.21-3.85.18-5.68.85-3.74,1.5-5.5,1.96-3.27,2.86-4.92,1.54-3.5,2.67-5.01,2.43-2.92,3.77-4.26c1.47-1.47,3.43-2.42,5.08-3.62s3.22-2.71,5.04-3.64,3.79-1.82,5.74-2.45,4.26.27,6.3-.05,3.93-1.38,6.01-1.38c2.39,0,4.72.49,7.04.91s4.39,1.57,6.61,2.41c1.69.64,3.72.48,5.47.48,1.98,0,4.09-.26,5.91-1.03s3.73-1.81,5.13-3.26c1.35-1.4,1.69-3.56,2.38-5.3s1.36-3.57,1.34-5.48-.09-3.91-.85-5.71c-.76-1.8-2.12-3.39-2.63-5.23s-.22-3.93-.48-5.83.12-3.82.1-5.75-.25-3.81-.01-5.73-.55-4.07-.06-5.94,2.4-3.28,3.14-5.07,1.48-3.49,2.45-5.17,1.01-3.98,2.2-5.52,3.57-1.98,4.96-3.36c1.37-1.37,1.88-3.7,3.39-4.86s3.3-2.11,4.96-3.08,3.4-1.94,5.18-2.68,3.6-1.61,5.46-2.11,3.91-.3,5.83-.55,3.84.33,5.78.33,3.97-1.26,5.87-1.01,3.74,1.31,5.59,1.81,3.47,1.68,5.25,2.42,4,.61,5.67,1.58,3.18,2.27,4.71,3.45,2.73,2.74,4.11,4.11c1.38,1.38,3.27,2.35,4.43,3.86s1.79,3.53,2.74,5.19,1.39,3.61,2.12,5.38,1.88,3.44,2.37,5.29.2,3.88.45,5.78.66,3.78.66,5.7.38,3.9.13,5.81-1.29,3.67-1.78,5.53-1.28,3.56-2.02,5.35-1.56,3.43-2.53,5.11-1.45,3.61-2.63,5.15-2.07,3.34-3.45,4.72c-1.37,1.37-3.74,1.59-5.26,2.76s-2.44,3.27-4.1,4.23-3.94.68-5.72,1.42-3.21,2.44-5.07,2.94-3.78,1.02-5.7,1.27-3.89-.43-5.83-.43-3.83-.6-5.75-.85-3.99.19-5.87-.32-3.54-1.64-5.35-2.4c-1.84-.78-3.94-1.08-5.87-1.08s-3.79.57-5.54,1.27-2.92,2.18-4.31,3.52c-1.4,1.35-2.49,2.73-3.25,4.44-.77,1.75-2.39,3.45-2.44,5.36s1.2,3.76,1.89,5.58c.84,2.21,1.05,4.59,1.47,6.92.42,2.31.31,4.61.31,7,0,2.07.1,4.07-.21,6.08s.28,4.33-.35,6.27-1.62,3.89-2.56,5.72-1.88,3.78-3.09,5.45-2.63,3.29-4.09,4.76c-1.47,1.47-3.68,2.11-5.33,3.31s-3.2,2.67-5.02,3.6c-1.83.93-4.01,1-5.96,1.63s-3.73,1.95-5.77,2.27-4.12.48-6.19.48Z" fill="#eb741d"/>
      <path d="M352.53,218.24c-2.07,0-4.24.35-6.25.04s-3.93-1.5-5.88-2.13-4.13-.89-5.96-1.82-2.88-3.12-4.55-4.33-3.56-2.03-5.03-3.5c-1.34-1.34-2.28-2.95-3.38-4.42s-2.25-2.95-3.14-4.57-1.83-3.25-2.48-4.99-.63-3.66-1.02-5.48-1.31-3.54-1.44-5.4.7-3.68.83-5.54.36-3.6.76-5.43.31-3.72.96-5.48,1.83-3.19,2.73-4.84.75-3.94,1.88-5.45,2.56-2.8,3.9-4.14c1.47-1.47,3.05-2.9,4.7-4.1s3.63-2.07,5.45-3,4-1.02,5.96-1.65,3.88-1.05,5.92-1.37,3.98-.73,6.05-.73c2.39,0,4.81-.38,7.13.03s4.37,1.88,6.59,2.72c1.69.64,3.65,1.09,5.39,1.09,1.98,0,4.2-.42,6.02-1.19s3.36-2.32,4.76-3.77c1.35-1.4,2.55-3.07,3.24-4.81s.03-3.8,0-5.71.4-3.82-.36-5.61c-.76-1.8-1.73-3.53-2.24-5.38s-1.04-3.79-1.31-5.7-.59-3.91-.6-5.84.47-3.9.72-5.82.93-3.77,1.42-5.64.23-4.05.97-5.85,2.56-3.09,3.53-4.77,2.43-2.94,3.62-4.48,2.32-2.97,3.7-4.35c1.37-1.37,2.07-3.48,3.58-4.64s3.41-1.89,5.07-2.85,3.26-2.15,5.03-2.89,3.95-.23,5.81-.73,3.52-1.77,5.44-2.02,3.83.02,5.77.02,3.79.44,5.68.69,3.96-.24,5.81.26,3.67,1.26,5.44,2,3.29,1.98,4.96,2.95,3.04,2.25,4.57,3.43,3.49,1.79,4.87,3.16c1.38,1.38,3.14,2.48,4.3,3.99s1.21,3.87,2.16,5.52,1.82,3.34,2.55,5.11,1.7,3.46,2.2,5.31.83,3.75,1.08,5.66.58,3.82.58,5.74-.55,3.81-.8,5.72-.6,3.76-1.09,5.62-.42,3.92-1.16,5.71-2.55,3-3.52,4.68-1.94,3.21-3.12,4.75-1.9,3.37-3.28,4.75c-1.37,1.37-2.9,2.55-4.42,3.71s-3.19,2.13-4.85,3.09-3.37,1.82-5.15,2.55-3.71.83-5.58,1.32-3.55,1.59-5.47,1.84-3.82,1.18-5.76,1.18-3.84-1.62-5.76-1.87-3.75-.7-5.64-1.21-4.07-.07-5.88-.83c-1.84-.78-3.64-1.65-5.57-1.65s-3.63.83-5.37,1.54-3.89.94-5.27,2.27c-1.4,1.35-2.79,3.07-3.55,4.79s-1.08,3.94-1.14,5.85,1.42,3.59,2.11,5.41c.84,2.21,1.68,4.56,2.1,6.89s-.43,4.8-.43,7.19c0,2.07.69,4.21.37,6.22s-1.98,3.75-2.61,5.69-.54,4.18-1.48,6.01-2.92,2.96-4.13,4.63-1.83,3.73-3.3,5.2c-1.47,1.47-2.61,3.39-4.25,4.59s-3.88,1.66-5.7,2.59-3.53,2.34-5.48,2.97-4.19.18-6.23.5-4.01,1-6.09,1Z" fill="#eb741d"/>
    </g>
    <g>
      <path d="M107.29,471.28c-1.94,0-3.96,0-5.85-.25s-3.75-1.22-5.6-1.72-3.98-.45-5.76-1.18c-1.78-.74-3.37-2.04-5.04-3s-2.77-2.75-4.3-3.93-3.15-2.16-4.52-3.53c-1.38-1.38-3.21-2.37-4.36-3.88s-2.06-3.34-3.01-4.99-1.41-3.62-2.14-5.38-.92-3.7-1.42-5.56-1.56-3.59-1.81-5.49-.83-3.85-.83-5.77.59-3.86.84-5.77.67-3.8,1.17-5.66,1.1-3.69,1.84-5.48.92-3.89,1.89-5.56,2.47-3.05,3.65-4.59,2.36-3.08,3.74-4.46c1.37-1.37,3.59-1.75,5.1-2.92s3.04-2.24,4.7-3.2,2.95-2.68,4.72-3.42,3.67-1.24,5.54-1.74,3.7-1.4,5.62-1.65,3.91-.39,5.85-.39,4.04.02,5.97.28,3.6,2.08,5.48,2.59,4.08.14,5.89.9c1.85.78,3.62,1.84,5.54,1.84s3.66-.85,5.4-1.55,3.21-1.68,4.6-3.01c1.4-1.35,2.72-2.72,3.48-4.44s.67-3.66.72-5.57-.1-3.63-.79-5.46c-.67-1.77-1.48-3.56-1.88-5.38s-.51-3.8-.65-5.66.12-3.8.24-5.67-.05-3.85.34-5.69,1.65-3.46,2.3-5.22.92-3.72,1.82-5.37,2.3-3,3.43-4.51,2.42-2.83,3.76-4.16c1.47-1.47,2.84-3.03,4.48-4.23s3.6-2,5.42-2.93,3.48-2.39,5.44-3.02,3.99-1.34,6.03-1.65,4.18-.29,6.25-.29,4.25-.08,6.26.23,3.79,1.98,5.74,2.61,3.92,1.15,5.75,2.08,4,1.38,5.67,2.6,3.35,2.53,4.82,3.99c1.34,1.34,1.86,3.41,2.96,4.88s2.83,2.66,3.72,4.29,1.19,3.62,1.84,5.36.38,3.73.78,5.54,1.16,3.53,1.29,5.39,1.06,3.76.92,5.62-1.3,3.61-1.69,5.44-1.31,3.43-1.97,5.18-1.52,3.27-2.42,4.92-1.74,3.16-2.87,4.67-1.51,3.55-2.85,4.89c-1.47,1.47-3.33,2.47-4.98,3.67s-3.03,3.02-4.85,3.95-3.94,1.42-5.9,2.06-4.15.17-6.19.49-3.97.47-6.04.47c-2.4,0-4.84.86-7.15.44s-4.35-2.02-6.57-2.86c-1.69-.64-3.65.18-5.4.18-1.98,0-3.92-.19-5.74.58s-3.97,1.34-5.37,2.79c-1.35,1.4-1.31,3.75-2,5.49s-2.27,3.46-2.25,5.37,1.08,3.74,1.84,5.54c.76,1.8.6,3.86,1.11,5.71s.89,3.68,1.16,5.58,1.84,3.75,1.85,5.68-.52,3.91-.76,5.83-.14,3.98-.64,5.86-1.85,3.51-2.59,5.3-1.54,3.55-2.51,5.24-2.38,3.02-3.57,4.57-1.9,3.45-3.29,4.83c-1.37,1.37-2.85,2.67-4.36,3.84s-2.91,2.72-4.57,3.68-3.69,1.41-5.46,2.14-3.53,1.79-5.4,2.28-3.92.29-5.84.54-3.84.78-5.78.78Z" fill="#eb741d"/>
      <path d="M107.29,471.38c-1.94,0-3.76-1.61-5.66-1.86s-4.04.64-5.89.15-3.35-2.09-5.13-2.83c-1.78-.74-4.04-.52-5.71-1.49s-3.03-2.47-4.56-3.65-2.84-2.58-4.21-3.96c-1.38-1.38-2.67-2.8-3.83-4.31s-1.65-3.49-2.6-5.14-3.12-2.77-3.85-4.54-.22-4.01-.71-5.87-1.5-3.61-1.75-5.52.47-3.86.47-5.78-.1-3.79.15-5.7.56-3.75,1.05-5.62.69-3.8,1.43-5.58,1.94-3.29,2.91-4.97,1.16-3.86,2.34-5.4,2.88-2.63,4.26-4c1.37-1.37,3.04-2.38,4.56-3.55s2.68-2.98,4.34-3.94,3.4-2.03,5.18-2.77,3.84-.88,5.7-1.38,3.79-.79,5.71-1.04,3.84-.12,5.79-.12,3.9.36,5.82.61,4.05-.16,5.94.35,3.52,1.86,5.33,2.63c1.85.78,3.87,1.82,5.8,1.82s3.68-1.36,5.43-2.07,3.66-1.25,5.05-2.59c1.4-1.35,1.86-3.39,2.62-5.1s1.72-3.47,1.77-5.38-.03-3.93-.72-5.75c-.67-1.77-2.14-3.3-2.54-5.12s-.77-3.77-.91-5.63.37-3.81.5-5.67.05-3.82.44-5.66.79-3.75,1.44-5.51c.65-1.75,2.3-3.09,3.2-4.74.89-1.64,1.54-3.43,2.67-4.94s2.66-2.61,4-3.95c1.47-1.47,2.84-2.97,4.48-4.17s3.4-2.29,5.22-3.22,3.71-1.74,5.66-2.37,3.93-1.13,5.97-1.45,4.05-1.11,6.13-1.11,4.03,1.31,6.05,1.62,4,.61,5.95,1.24,3.87,1.26,5.7,2.19,3.89,1.5,5.56,2.72,3.21,2.61,4.67,4.08c1.34,1.34,2.97,2.5,4.07,3.97s1.95,3.31,2.84,4.93.89,3.71,1.54,5.45,2.3,3.25,2.69,5.07.66,3.79.79,5.65.03,3.83-.1,5.7-1.33,3.61-1.73,5.43-.62,3.68-1.27,5.44-1.28,3.52-2.18,5.17-1.83,3.28-2.97,4.79-2.54,2.74-3.87,4.08c-1.47,1.47-3.19,2.59-4.84,3.79s-3.3,2.45-5.12,3.38-3.55,2.27-5.5,2.9-4.2.03-6.24.35-3.97.51-6.05.51c-2.4,0-4.65-.28-6.97-.69s-4.46-1.18-6.68-2.02c-1.69-.64-3.72.13-5.47.13-1.98,0-3.81.33-5.62,1.1s-3.48,1.66-4.87,3.11c-1.35,1.4-1.74,3.23-2.44,4.97s-1.37,3.38-1.35,5.28.28,3.64,1.04,5.43c.76,1.8.94,3.8,1.45,5.65s1.31,3.71,1.57,5.61.13,3.9.14,5.83-.33,3.85-.57,5.76-.46,3.83-.95,5.71-1.4,3.57-2.14,5.37-1.72,3.38-2.7,5.07-2.19,3.07-3.37,4.61-1.67,3.61-3.05,4.99c-1.37,1.37-2.94,2.53-4.45,3.69s-2.91,2.64-4.57,3.6-3.41,1.93-5.19,2.67-3.78.95-5.65,1.45-3.76.81-5.68,1.06-3.82,1.02-5.76,1.02Z" fill="#eb741d"/>
    </g>
  </g>
  <g>
    <g>
      <path d="M266.27,187.67c-1.89,0-3.71-.94-5.54-1.2-1.87-.27-3.74-.35-5.51-.87s-3.88-.48-5.57-1.25-3.24-2.05-4.8-3.06c-1.57-1.01-2.63-2.73-4.04-3.95s-2.61-2.59-3.83-4-2.49-2.73-3.5-4.31-2.78-2.77-3.56-4.47-.33-3.87-.86-5.67-1.96-3.39-2.23-5.25-.35-3.78-.35-5.67.71-3.77.98-5.61.64-3.72,1.17-5.5,1.83-3.28,2.61-4.98,1.12-3.61,2.14-5.19,2.55-2.72,3.78-4.14,2.21-3.03,3.63-4.26c1.41-1.22,2.59-2.84,4.18-3.85s3.66-1.11,5.39-1.89c1.78-.8,3.44-2.02,4.73-3.39s2.19-3.22,2.88-5,.49-3.67.46-5.62-.64-3.57-1.38-5.29-1.3-3.54-2.67-4.88-2.66-2.97-4.46-3.71c-1.81-.74-4.15-.4-5.82-1.35s-2.48-3.3-4.02-4.46-3.96-1.35-5.33-2.71-1.91-3.52-3.09-5.05-2.49-2.96-3.47-4.63-2.29-3.21-3.04-5-1.28-3.7-1.78-5.58-.16-3.9-.42-5.83-1.04-3.78-1.04-5.74-.16-3.94.09-5.83,1.21-3.73,1.71-5.58.3-4.03,1.04-5.8,2.75-2.97,3.71-4.63,2.01-3.23,3.18-4.75,1.73-3.61,3.09-4.97,3.56-1.77,5.08-2.94,2.56-3.06,4.23-4.03,3.55-1.55,5.34-2.29,3.79-.62,5.67-1.12,3.6-1.16,5.53-1.42,3.76-.92,5.71-.92,3.93-.12,5.81.12,3.96.3,5.8.79,3.29,2.37,5.05,3.11,3.46,1.54,5.12,2.5,3.38,1.79,4.9,2.96,3.07,2.31,4.43,3.67,2.49,2.9,3.67,4.43,2.13,3.15,3.09,4.82,2.24,3.16,2.98,4.94.74,3.77,1.24,5.64,1.89,3.53,2.14,5.46-.49,3.87-.49,5.82-.1,3.85-.34,5.75.18,4.01-.32,5.87-1.69,3.56-2.43,5.34-1.65,3.5-2.63,5.17-2.02,3.29-3.21,4.82-2.92,2.51-4.3,3.88-2.64,2.73-4.19,3.91-2.86,2.61-4.56,3.58-3.38,1.85-5.2,2.59c-1.8.73-3.04,2.16-4.38,3.47s-2.44,2.71-3.2,4.46-1.42,3.43-1.46,5.38.24,3.81.92,5.56,1.21,3.86,2.52,5.25,3.38,1.89,5.15,2.69c1.73.78,3.45,1.61,5.02,2.61s2.46,2.94,3.88,4.15,3.61,1.68,4.83,3.09,1.34,3.66,2.36,5.23,1.85,3.13,2.63,4.84,1.63,3.28,2.17,5.09,1.69,3.43,1.96,5.3.01,3.74.01,5.64.11,3.76-.15,5.59-.76,3.67-1.28,5.44-.76,3.74-1.53,5.43-1.39,3.6-2.4,5.16-3.32,2.19-4.54,3.6-2.58,2.54-3.99,3.77-2.64,2.53-4.22,3.54-2.95,2.27-4.66,3.05-3.2,2.19-5,2.72-3.72.77-5.59,1.04-3.76.37-5.66.37Z" fill="#eb741d"/>
      <path d="M266.27,188.01c-1.89,0-3.72-1.22-5.55-1.48s-3.81-.15-5.58-.67-3.57-1.26-5.25-2.03-2.95-2.34-4.52-3.35-3.05-2.04-4.45-3.26-2.76-2.43-3.98-3.84-2.42-2.79-3.43-4.36-1.98-3.13-2.76-4.83-2.18-3.19-2.71-5-1.06-3.67-1.33-5.54.83-3.79.83-5.69.11-3.7.37-5.54-.25-3.91.28-5.7,1.76-3.38,2.54-5.08,1.42-3.51,2.44-5.09,2.81-2.55,4.04-3.96,2.15-3.08,3.58-4.31,2.51-2.97,4.1-3.98c1.57-1,3.57-1.35,5.3-2.13,1.78-.8,3.67-1.6,4.96-2.96s1.52-3.51,2.21-5.29.73-3.43.69-5.38.46-3.89-.28-5.61-1.52-3.75-2.89-5.08-3.35-2.01-5.15-2.75c-1.81-.74-3.94-.9-5.61-1.84s-2.47-3.3-4.01-4.46-3.45-1.85-4.82-3.21-2.32-3.07-3.51-4.6-2.4-2.99-3.37-4.66-2.78-2.97-3.52-4.76-.25-4.01-.76-5.89-1.89-3.56-2.14-5.5-.22-3.91-.22-5.87.06-3.93.31-5.82,1.1-3.75,1.59-5.6,1-3.75,1.73-5.51,2.09-3.25,3.05-4.91,1.73-3.44,2.91-4.96,2.67-2.74,4.03-4.1,2.12-3.45,3.64-4.62,3.29-2.12,4.96-3.09,3.79-1,5.58-1.74,3.55-1.28,5.42-1.78,3.62-1.22,5.54-1.47,3.79-.28,5.74-.28,3.77.66,5.65.91,3.86.08,5.7.58,3.77.86,5.54,1.59,3.48,1.66,5.14,2.62,3.19,2.14,4.71,3.31,2.73,2.66,4.09,4.02,2.86,2.55,4.04,4.08,2.02,3.23,2.99,4.9,1.96,3.27,2.7,5.05,1,3.66,1.5,5.53.65,3.68.9,5.61,1.67,3.7,1.67,5.65-.05,3.97-.3,5.87-2.03,3.54-2.53,5.4.21,4.16-.53,5.94-2.35,3.19-3.32,4.86-1.58,3.61-2.77,5.15-2.86,2.65-4.25,4.01-2.45,3.1-4,4.28-3.11,2.42-4.81,3.38-3.9.81-5.72,1.55c-1.8.73-2.78,2.7-4.11,4.01s-3.21,2.33-3.96,4.09-1.07,3.72-1.1,5.67-.15,4.1.53,5.85,2.31,3.23,3.62,4.61,2.69,2.94,4.47,3.74c1.73.78,3.82.83,5.39,1.83s2.83,2.54,4.24,3.75,2.38,2.87,3.61,4.27,2.44,2.77,3.46,4.34,2,3.12,2.78,4.82,1.59,3.36,2.13,5.17.27,3.7.54,5.56,1.35,3.59,1.35,5.49-.8,3.68-1.06,5.5-.18,3.75-.7,5.53-1.34,3.47-2.11,5.16-.85,3.84-1.86,5.4-3.09,2.37-4.32,3.78-2.73,2.42-4.14,3.64-2.77,2.33-4.35,3.34-2.7,2.74-4.41,3.52-3.37,1.76-5.17,2.29-3.69.84-5.56,1.1-3.75.79-5.64.79Z" fill="#eb741d"/>
    </g>
    <g>
      <path d="M266.85,532.29c-1.95,0-3.9-.25-5.79-.5s-3.6-1.57-5.44-2.06-3.81-.6-5.58-1.33-3.7-1.23-5.35-2.19-3.58-1.68-5.1-2.86-2.16-3.38-3.52-4.74-3.04-2.41-4.21-3.94-1.82-3.37-2.79-5.04-1.46-3.47-2.2-5.25-2.2-3.25-2.71-5.12-.58-3.78-.83-5.71-.73-3.78-.73-5.73,1.07-3.79,1.32-5.69.02-3.9.51-5.75.65-3.89,1.4-5.67,1.47-3.66,2.45-5.33,2.72-2.86,3.91-4.39,1.77-3.64,3.16-5,3.72-1.61,5.27-2.78,2.5-3.21,4.2-4.17,3.84-.91,5.66-1.65c1.8-.73,3.18-2.29,4.52-3.6s2.08-3.06,2.84-4.81,1.83-3.41,1.87-5.36-.32-3.94-1-5.69-1.62-3.64-2.93-5.03-3.29-1.95-5.06-2.76c-1.73-.78-3.65-1.31-5.22-2.31s-2.61-2.86-4.02-4.07-3.14-2.19-4.37-3.6-1.52-3.52-2.53-5.1-1.85-3.14-2.64-4.85-2.64-2.99-3.18-4.8-1.15-3.67-1.42-5.54,1.09-3.82,1.09-5.71-.78-3.78-.52-5.6c.27-1.87,1.27-3.54,1.79-5.31s.31-3.88,1.08-5.57,2.27-3.04,3.28-4.6,1.94-3.2,3.17-4.6,3.11-2.09,4.52-3.31,2.26-3.13,3.83-4.14,3.34-1.67,5.05-2.45,3.46-1.31,5.26-1.84,3.66-.32,5.52-.59,3.57-1.07,5.47-1.07,3.81-.36,5.64-.1,3.43,1.75,5.21,2.27,3.97.03,5.66.8,3.52,1.54,5.08,2.55,2.78,2.62,4.19,3.85,2.57,2.72,3.79,4.13,1.8,3.24,2.82,4.81,1.81,3.14,2.59,4.84c.77,1.69,2.65,2.96,3.18,4.76s-.18,3.83.09,5.7.66,3.6.66,5.5.49,3.81.22,5.65-1.64,3.46-2.17,5.25-.39,3.83-1.17,5.53-1.64,3.42-2.66,4.99-1.92,3.33-3.15,4.74-3.46,1.82-4.89,3.05-2.12,3.41-3.72,4.42-3.7,1.05-5.43,1.83c-1.78.8-3.75,1.71-5.04,3.07s-2.08,3.43-2.77,5.21-.98,3.76-.95,5.7.96,3.71,1.7,5.43,1.24,3.81,2.61,5.15,3.22,2.2,5.02,2.93c1.81.74,3.79,1.13,5.46,2.08s2.78,2.82,4.31,3.98,3.83,1.51,5.2,2.86,2.72,2.88,3.9,4.41,1.36,3.76,2.33,5.44,3.01,2.85,3.76,4.64,1.39,3.72,1.89,5.6-.28,4.02-.02,5.95.15,3.79.15,5.74.12,3.82-.13,5.71-1.01,3.66-1.5,5.5-.17,3.98-.91,5.75-1.21,3.77-2.17,5.43-3.02,2.63-4.19,4.15-1.5,3.83-2.86,5.19-2.96,2.6-4.48,3.78-3.31,2.1-4.98,3.06-3.53,1.63-5.31,2.37-3.8.66-5.67,1.16-3.56,1.62-5.49,1.87-3.84.5-5.79.5Z" fill="#eb741d"/>
      <path d="M266.85,531.68c-1.95,0-3.88.15-5.76-.09s-3.91-.3-5.75-.79-3.61-1.45-5.38-2.19-3.39-1.82-5.05-2.78-3.39-1.84-4.91-3.01-2.8-2.63-4.16-3.99-3.23-2.31-4.4-3.84-2.14-3.26-3.11-4.93-1.72-3.48-2.47-5.26-.48-3.86-.98-5.73-2.35-3.45-2.6-5.38-.38-3.92-.38-5.87.32-3.98.57-5.88,1.14-3.79,1.64-5.65.49-4.01,1.23-5.79,2.84-2.95,3.81-4.62,2.26-3.04,3.44-4.58,1.87-3.44,3.25-4.8,2.97-2.44,4.53-3.61,2.57-3.18,4.27-4.14,3.56-1.73,5.37-2.47c1.8-.73,4.11-.69,5.45-2s1.68-3.52,2.43-5.27,1.98-3.44,2.02-5.39-.35-4.02-1.02-5.77-2.47-2.95-3.78-4.34-2.48-2.94-4.25-3.74c-1.73-.78-3.09-2.07-4.66-3.07s-3.24-1.83-4.65-3.05-3.1-2.2-4.32-3.61-1.7-3.37-2.72-4.94-2.34-2.93-3.13-4.63-1.06-3.55-1.6-5.35-2.18-3.36-2.45-5.23.08-3.82.08-5.71-.18-3.84.08-5.66.47-3.83,1-5.61,2.47-3.08,3.25-4.77.81-3.8,1.81-5.37,2.1-3.18,3.32-4.58,2.99-2.33,4.4-3.55,2.87-2.37,4.44-3.38,3.22-1.85,4.92-2.63,3.52-1.06,5.33-1.59,3.41-1.71,5.28-1.97,3.73.71,5.62.71,3.79-.92,5.61-.65,3.46,1.58,5.23,2.1,3.41,1.26,5.09,2.04,3.84.69,5.41,1.69,3.37,1.86,4.77,3.08,2.56,2.83,3.78,4.24,1.79,3.32,2.8,4.9,1.5,3.34,2.28,5.04,1.62,3.27,2.15,5.07,1,3.51,1.27,5.38,1.6,3.63,1.6,5.52-.91,3.77-1.18,5.61-.45,3.77-.98,5.56-1.64,3.4-2.42,5.1-1.4,3.5-2.42,5.08-2.39,2.88-3.63,4.3-2.58,2.68-4,3.9-3.18,1.87-4.77,2.88-2.8,2.55-4.53,3.33c-1.78.8-3.7,1.58-4.99,2.94s-1.62,3.5-2.31,5.28-.87,3.49-.83,5.44,0,3.81.75,5.53,1.51,3.66,2.87,4.99,3.36,1.75,5.16,2.49c1.81.74,3.62,1.58,5.29,2.52s3.39,2.03,4.92,3.19,2.38,3.17,3.76,4.53,3.13,2.38,4.31,3.9,2.3,3.14,3.27,4.82,2.05,3.34,2.8,5.13,1.85,3.54,2.35,5.42-.61,4.07-.36,6,1.89,3.75,1.89,5.71-1.45,3.81-1.69,5.69-.79,3.71-1.28,5.55-.68,3.79-1.41,5.55-1.23,3.69-2.2,5.35-1.92,3.39-3.09,4.92c-1.17,1.53-3.32,2.17-4.68,3.53s-1.94,3.59-3.47,4.76-3.15,2.32-4.82,3.29-3.54,1.62-5.33,2.36-3.51,1.79-5.38,2.29-3.98-.35-5.91-.09-3.74.66-5.69.66Z" fill="#eb741d"/>
    </g>
  </g>
  <path d="M330.49,266.04c0,2.11-.14,4.21-.34,6.27s-.95,4.09-1.35,6.12-.5,4.18-1.1,6.17-2.26,3.6-3.05,5.51-.74,4.23-1.73,6.07-2.39,3.43-3.55,5.16-2,3.72-3.33,5.33-3.13,2.8-4.6,4.27-3.21,2.62-4.82,3.94-2.78,3.22-4.52,4.38-3.65,2.05-5.49,3.03-4.04,1.1-5.98,1.9-3.75,1.65-5.76,2.26-3.79,1.9-5.85,2.31-4.06,1.23-6.16,1.44-4.21-1.32-6.32-1.32-4.14.22-6.19.02-4.4,1.01-6.43.61-4.1-1.2-6.08-1.8-4.11-1.15-6.03-1.94-3.9-1.74-5.73-2.72-3.1-3.02-4.83-4.18-3.15-2.69-4.76-4.01-3.84-1.96-5.32-3.44-2.14-3.69-3.46-5.3-3.23-2.77-4.4-4.51-2.14-3.6-3.13-5.44-2.03-3.67-2.84-5.61-1.2-4.01-1.81-6.02-.92-4.05-1.32-6.11-.79-4.07-1-6.16-.47-4.13-.47-6.24.11-4.2.31-6.26,1.07-4.06,1.47-6.09.75-4.08,1.35-6.07,1.73-3.76,2.53-5.68,1.15-4.02,2.14-5.85,1.27-4.13,2.43-5.86,2.9-3.1,4.22-4.71,2.72-3.19,4.19-4.66,3.19-2.69,4.81-4.02,3.37-2.42,5.11-3.58,3.19-2.78,5.04-3.77,3.65-2.14,5.58-2.94,3.9-1.65,5.91-2.26,4.39.42,6.45.01,3.92-1.64,6.02-1.84,4.15-.09,6.26-.09,4.11.92,6.16,1.12,4.43-1.3,6.46-.9,3.76,2.3,5.75,2.9,3.97,1.2,5.88,2,3.78,1.7,5.61,2.68,4.14,1.23,5.88,2.39c1.74,1.16,2.91,3.11,4.52,4.43s3.62,2.23,5.1,3.7,2.94,3.02,4.27,4.63,1.74,3.89,2.9,5.63,3.51,2.77,4.5,4.61,1.1,4.14,1.9,6.07,1.4,3.91,2.01,5.92.61,4.1,1.01,6.16,2.22,3.89,2.43,5.98-.42,4.23-.42,6.34Z" fill="#eb741d"/>
  <path d="M129.96,332.22c0,2.02-.62,3.93-1.05,5.83s-.74,3.94-1.59,5.7-2.66,2.92-3.89,4.46-1.93,3.56-3.48,4.79-3.4,1.99-5.19,2.86-3.49,1.94-5.45,2.38-3.92.18-5.94.18-3.88-.5-5.77-.93-4.04-.4-5.8-1.25-3.39-2.11-4.93-3.34-2.37-3.11-3.6-4.66-2.35-3.01-3.22-4.8c-.85-1.76-2.19-3.35-2.64-5.3s-1.14-3.9-1.14-5.93,1.67-3.81,2.1-5.71.79-3.78,1.64-5.54.78-4.24,2.01-5.78,2.93-2.89,4.48-4.13,3.25-2.53,5.05-3.39,3.81-1.56,5.76-2.01,4.04.31,6.06.31,3.87.56,5.77.99,4.11.23,5.88,1.08,2.99,2.67,4.53,3.9,3.46,2.09,4.7,3.64,2.22,3.31,3.09,5.1,1.67,3.63,2.11,5.59.52,3.93.52,5.95Z" fill="#eb741d"/>
  <path d="M121.14,199.9c0,2.02-.62,3.93-1.05,5.83s-.74,3.94-1.59,5.7-2.66,2.92-3.89,4.46-1.93,3.56-3.48,4.79-3.4,1.99-5.19,2.86-3.49,1.94-5.45,2.38-3.92.18-5.94.18-3.88-.5-5.77-.93-4.04-.4-5.8-1.25-3.39-2.11-4.93-3.34-2.37-3.11-3.6-4.66-2.35-3.01-3.22-4.8-2.19-3.35-2.64-5.3-1.14-3.9-1.14-5.93,1.67-3.81,2.1-5.71.79-3.78,1.64-5.54.78-4.24,2.01-5.78,2.93-2.89,4.48-4.13,3.25-2.53,5.05-3.39,3.81-1.56,5.76-2.01,4.04.31,6.06.31,3.87.56,5.77.99,4.11.23,5.88,1.08,2.99,2.67,4.53,3.9,3.46,2.09,4.7,3.64,2.22,3.31,3.09,5.1,1.67,3.63,2.11,5.59.52,3.93.52,5.95Z" fill="#eb741d"/>
  <path d="M226.99,102.87c0,2.02-.62,3.93-1.05,5.83s-.74,3.94-1.59,5.7-2.66,2.92-3.89,4.46-1.93,3.56-3.48,4.79-3.4,1.99-5.19,2.86-3.49,1.94-5.45,2.38-3.92.18-5.94.18-3.88-.5-5.77-.93-4.04-.4-5.8-1.25-3.39-2.11-4.93-3.34-2.37-3.11-3.6-4.66c-1.23-1.54-2.35-3.01-3.22-4.8s-2.19-3.35-2.64-5.3-1.14-3.9-1.14-5.93,1.67-3.81,2.1-5.71.79-3.78,1.64-5.54.78-4.24,2.01-5.78,2.93-2.89,4.48-4.13,3.25-2.53,5.05-3.39,3.81-1.56,5.76-2.01,4.04.31,6.06.31,3.87.56,5.77.99,4.11.23,5.88,1.08,2.99,2.67,4.53,3.9,3.46,2.09,4.7,3.64,2.22,3.31,3.09,5.1,1.67,3.63,2.11,5.59.52,3.93.52,5.95Z" fill="#eb741d"/>
  <path d="M359.31,102.87c0,2.02-.62,3.93-1.05,5.83s-.74,3.94-1.59,5.7-2.66,2.92-3.89,4.46c-1.24,1.55-1.93,3.56-3.48,4.79s-3.4,1.99-5.19,2.86-3.49,1.94-5.45,2.38-3.92.18-5.94.18-3.88-.5-5.77-.93-4.04-.4-5.8-1.25-3.39-2.11-4.93-3.34-2.37-3.11-3.6-4.66c-1.23-1.54-2.35-3.01-3.22-4.8s-2.19-3.35-2.64-5.3-1.14-3.9-1.14-5.93,1.67-3.81,2.1-5.71.79-3.78,1.64-5.54.78-4.24,2.01-5.78,2.93-2.89,4.48-4.13,3.25-2.53,5.05-3.39,3.81-1.56,5.76-2.01,4.04.31,6.06.31,3.87.56,5.77.99,4.11.23,5.88,1.08,2.99,2.67,4.53,3.9,3.46,2.09,4.7,3.64,2.22,3.31,3.09,5.1,1.67,3.63,2.11,5.59.52,3.93.52,5.95Z" fill="#eb741d"/>
  <path d="M456.34,199.9c0,2.02-.62,3.93-1.05,5.83s-.74,3.94-1.59,5.7-2.66,2.92-3.89,4.46-1.93,3.56-3.48,4.79-3.4,1.99-5.19,2.86c-1.76.85-3.49,1.94-5.45,2.38s-3.92.18-5.94.18-3.88-.5-5.77-.93-4.04-.4-5.8-1.25-3.39-2.11-4.93-3.34-2.37-3.11-3.6-4.66-2.35-3.01-3.22-4.8-2.19-3.35-2.64-5.3-1.14-3.9-1.14-5.93,1.67-3.81,2.1-5.71.79-3.78,1.64-5.54.78-4.24,2.01-5.78,2.93-2.89,4.48-4.13,3.25-2.53,5.05-3.39,3.81-1.56,5.76-2.01,4.04.31,6.06.31,3.87.56,5.77.99,4.11.23,5.88,1.08,2.99,2.67,4.53,3.9,3.46,2.09,4.7,3.64,2.22,3.31,3.09,5.1,1.67,3.63,2.11,5.59.52,3.93.52,5.95Z" fill="#eb741d"/>
  <path d="M456.34,332.22c0,2.02-.62,3.93-1.05,5.83s-.74,3.94-1.59,5.7-2.66,2.92-3.89,4.46-1.93,3.56-3.48,4.79-3.4,1.99-5.19,2.86-3.49,1.94-5.45,2.38-3.92.18-5.94.18-3.88-.5-5.77-.93-4.04-.4-5.8-1.25-3.39-2.11-4.93-3.34-2.37-3.11-3.6-4.66-2.35-3.01-3.22-4.8-2.19-3.35-2.64-5.3-1.14-3.9-1.14-5.93,1.67-3.81,2.1-5.71.79-3.78,1.64-5.54.78-4.24,2.01-5.78,2.93-2.89,4.48-4.13,3.25-2.53,5.05-3.39,3.81-1.56,5.76-2.01,4.04.31,6.06.31,3.87.56,5.77.99,4.11.23,5.88,1.08,2.99,2.67,4.53,3.9,3.46,2.09,4.7,3.64,2.22,3.31,3.09,5.1,1.67,3.63,2.11,5.59.52,3.93.52,5.95Z" fill="#eb741d"/>
  <path d="M359.34,429.25c0,2.02-.26,4.02-.69,5.92s-1.48,3.68-2.33,5.45-1.59,3.66-2.82,5.2-3.23,2.26-4.78,3.49-2.66,3.04-4.46,3.9-3.74,1.18-5.7,1.63-3.82,1.11-5.84,1.11-3.94-.71-5.84-1.14-3.65-1.35-5.42-2.2-3.84-1.29-5.38-2.52-2.83-2.8-4.06-4.35-1.61-3.55-2.48-5.34-1.62-3.44-2.06-5.4-1.39-3.74-1.39-5.76-.23-4.14.2-6.03,2.47-3.33,3.32-5.09,1.6-3.5,2.83-5.04,1.69-3.95,3.24-5.19,3.49-2.17,5.28-3.03,3.72-1.73,5.68-2.18,4.04-.67,6.06-.67,3.95,1.21,5.84,1.64,3.64,1.4,5.4,2.25,3.95,1.14,5.49,2.37,2.31,3.26,3.55,4.81,2.91,2.79,3.77,4.59,1.43,3.71,1.87,5.67.7,3.89.7,5.92Z" fill="#eb741d"/>
  <path d="M226.99,429.25c0,2.02-.62,3.93-1.05,5.83s-.74,3.94-1.59,5.7-2.66,2.92-3.89,4.46-1.93,3.56-3.48,4.79-3.4,1.99-5.19,2.86c-1.76.85-3.49,1.94-5.45,2.38s-3.92.18-5.94.18-3.88-.5-5.77-.93-4.04-.4-5.8-1.25-3.39-2.11-4.93-3.34-2.37-3.11-3.6-4.66-2.35-3.01-3.22-4.8-2.19-3.35-2.64-5.3-1.14-3.9-1.14-5.93,1.67-3.81,2.1-5.71.79-3.78,1.64-5.54.78-4.24,2.01-5.78,2.93-2.89,4.48-4.13,3.25-2.53,5.05-3.39,3.81-1.56,5.76-2.01,4.04.31,6.06.31,3.87.56,5.77.99,4.11.23,5.88,1.08,2.99,2.67,4.53,3.9,3.46,2.09,4.7,3.64,2.22,3.31,3.09,5.1,1.67,3.63,2.11,5.59.52,3.93.52,5.95Z" fill="#eb741d"/>
</svg>