<?xml version="1.0" encoding="UTF-8"?>
<svg id="Layer_2" data-name="Layer 2" xmlns="http://www.w3.org/2000/svg" viewBox="0 0 413.45 446.76">
  <g id="Layer_1-2" data-name="Layer 1">
    <path d="M342.25,374.52c-2.82,0-5.23-.88-6.83-1.46-.82-.3-1.69-.45-2.55-.45-.59,0-1.19.07-1.77.21-1.52.37-3.18.72-4.98.72-1.19,0-2.34-.15-3.44-.45-3.4-.93-5.63-3.16-7.26-4.79l-.27-.27c-.65-.64-1.41-1.15-2.25-1.52l-.41-.18c-2.15-.94-4.6-2.01-7.1-3.6-3.03-1.93-5.59-4.02-7.48-5.62-.56-.47-1.18-.86-1.86-1.15l-.76-.32c-2.1-.88-4.95-2.08-7.19-4.64-2.24-2.56-3.08-5.54-3.69-7.71-.07-.23-.15-.52-.22-.77-.23-.77-.58-1.5-1.04-2.16-.3-.43-.64-.9-.99-1.39-1.33-1.84-2.82-3.89-3.98-6.4-1.17-2.54-1.68-5.08-2.1-7.11-.21-1.04-.41-2.01-.65-2.82-.22-.75-.51-1.6-.81-2.5-.73-2.15-1.55-4.59-1.97-7.37-.54-3.68-.82-7.03-.83-10.25-.01-2.82.43-5.39.83-7.65l.04-.23c.13-.76.26-1.53.37-2.31.1-.75.14-1.58.18-2.85.07-2.1.15-4.71.94-7.43.77-2.66,1.94-4.94,2.97-6.96.32-.63.61-1.2.86-1.72.31-.64.53-1.32.64-2.02.05-.28.1-.64.15-.93.34-2.23.8-5.24,2.59-8.04,1.88-2.94,4.58-4.56,6.56-5.75l.43-.26c.86-.52,1.6-1.2,2.19-2.02.26-.36.55-.78.84-1.19,1.18-1.7,2.66-3.83,4.76-5.66,2.43-2.12,5.13-4.14,8.25-6.16.17-.11.33-.22.49-.35.46-.36.98-.83,1.72-1.5,1.71-1.57,3.62-3.32,6.31-4.55,3.02-1.39,6.08-2.29,9.03-3.16l.94-.28c.64-.19,1.27-.37,1.89-.54,3.19-.88,5.42-3.76,5.48-7.07.06-3.31-2.07-6.26-5.23-7.25-1.93-.6-3.74-1.34-5.49-2.04-.66-.27-1.31-.53-1.96-.78-2.99-1.16-5.02-3.1-6.66-4.67-.29-.28-.61-.58-.84-.79-.5-.46-1.06-.84-1.66-1.15-.53-.27-1.19-.58-1.88-.9-1.89-.87-4.24-1.96-6.46-3.67-2.2-1.69-5.07-3.98-7.79-6.77-.48-.49-.97-.98-1.46-1.46-1.77-1.76-3.77-3.76-5.54-6.19-1.61-2.21-2.61-4.49-3.5-6.51-.34-.77-.66-1.5-.95-2.09-.27-.56-.62-1.09-1.03-1.57-.23-.27-.59-.68-.88-.99-1.51-1.67-3.39-3.77-4.46-6.74-1-2.78-1.12-5.38-1.23-7.66-.05-1.09-.09-1.78-.17-2.37-.02-.16-.05-.31-.08-.46-.59-2.9-.7-5.68-.81-8.14v-.13c-.03-.66-.06-1.33-.1-1.99-.05-.89-.2-1.92-.34-2.93-.3-2.08-.66-4.68-.43-7.45.24-2.86,1.13-5.22,1.92-7.3.49-1.3.73-1.96.89-2.62,0-.03.02-.07.02-.1.87-3.76,1.8-6.88,2.94-9.81,1.17-3.02,2.62-5.59,4.03-8.07l.54-.96c.12-.21.23-.44.33-.66.2-.46.4-1,.74-1.96.71-2.03,1.6-4.55,3.42-6.92,1.99-2.59,4.27-5.13,6.97-7.76.56-.55,1.14-1.22,1.95-2.19,1.39-1.65,3.12-3.7,5.41-5.37,2.76-2.01,5.85-2.52,7.89-2.86,1.52-.25,2.92-.97,4.01-2.05,1.36-1.35,3.43-3.38,6.43-4.46,2.68-.96,5.26-1.34,7.54-1.67.82-.12,1.67-.24,2.42-.38.73-.14,1.5-.36,2.69-.71,2.07-.61,4.62-1.35,7.42-1.41.16,0,.32,0,.48,0,2.76,0,5.35.46,7.64.87l.12.02c.69.12,1.37.24,2.04.34,3.55.54,6.91,1.33,9.98,2.34.69.23,1.4.44,2.11.65l.15.04c2.28.67,4.87,1.43,7.39,2.73,2.38,1.22,4.34,2.9,5.91,4.24.94.8,1.6,1.36,2.23,1.81.68.48,1.5,1,2.29,1.49,1.84,1.15,3.93,2.46,5.88,4.28,2.05,1.91,3.14,4.18,4,6.35.61,1.54,1.72,2.82,3.14,3.67,2.01,1.19,4.1,2.62,5.69,5.01,1.88,2.82,3.52,5.84,4.91,8.46.38.71.77,1.42,1.16,2.13l.05.09c1.15,2.06,2.32,4.17,3.27,6.51,1.09,2.7,1.04,5.25.86,7.38-.16,1.78.33,3.56,1.38,5.02,1.25,1.73,2.58,3.89,3.02,6.71.48,3.11-.18,5.8-.7,7.95-.08.31-.17.68-.23.97-.13.57-.19,1.16-.19,1.75.03,2.81-.16,5.75-.59,9.26-.38,3.05-1.03,6.14-2.05,9.72-.78,2.72-1.96,4.94-3.01,6.91-.42.8-.79,1.49-1.12,2.17-.33.69-.64,1.5-.98,2.36-.76,1.94-1.7,4.36-3.35,6.68-1.61,2.28-3.48,3.99-5.12,5.5-.42.38-.82.75-1.18,1.1-.5.48-.94,1.02-1.29,1.62-.12.2-.26.44-.38.65-1.1,1.93-2.57,4.5-5.25,6.45-2.49,1.81-5.3,3.85-8.45,5.52-2.83,1.5-5.65,1.8-7.92,2.04-.28.03-.62.07-.91.1-.99.12-1.95.43-2.82.93-.33.19-.73.43-1.06.62-1.36.81-3.06,1.82-5.06,2.52-3.05,1.07-5.06,3.98-4.99,7.21.07,3.23,2.21,6.05,5.3,6.98l1.14.35c.64.2,1.28.39,1.93.58,2.8.81,4.91,2.21,6.78,3.44.39.26.9.59,1.27.82.78.48,1.64.82,2.53.99.28.05.62.12.9.17,2.28.41,5.08.91,7.81,2.65,2.33,1.49,4.16,3.32,5.64,4.79.72.72,1.34,1.34,1.93,1.85.46.39.93.79,1.41,1.19,2.06,1.73,4.14,3.47,6.02,5.67,2.54,2.99,4.52,5.69,6.04,8.26.41.7.96,1.49,1.48,2.25,1.31,1.91,2.79,4.06,3.79,6.68,1.16,3.02,1.01,5.99.9,8.16-.02.4-.04.83-.05,1.13-.01.52.03,1.04.12,1.55.49,2.67.55,5.2.61,7.44l.03,1.17c.02.69.14,1.37.34,2.02l.25.76c.68,2.05,1.59,4.85,1.26,8.09-.32,3.09-1.63,5.49-2.69,7.41-.15.28-.34.62-.48.89-.29.55-.51,1.14-.66,1.75-.7,2.93-1.36,5.58-2.37,8.38-.15.41-.26.84-.34,1.27-.06.33-.14.89-.2,1.34-.29,2.12-.64,4.69-1.95,7.29-1.33,2.66-3.29,4.42-4.87,5.83-.24.21-.52.47-.74.67-.48.44-.89.94-1.24,1.49l-.44.69c-1.29,2.03-2.59,4.11-4.16,6.15-.38.5-.7,1.04-.95,1.62-.09.22-.36.88-.36.88-.82,2.02-1.84,4.52-3.99,6.69-1.83,1.85-3.82,3.25-5.57,4.49l-.08.05c-.78.56-1.53,1.08-2.16,1.58-.67.53-1.4,1.21-2.17,1.93-1.58,1.47-3.35,3.13-5.58,4.46-2.35,1.4-4.77,2.28-6.91,3.06-.83.3-1.68.61-2.42.92-2.84,1.18-6.1,2.22-9.7,3.09-3.02.73-6.34,1.22-10.14,1.49-.31.02-.63.03-.95.03ZM216.46,446.69l.73-.07c2.83-.29,6.03-.62,9.06-1.27,2.96-.64,5.21-2.1,7.01-3.26.32-.21.73-.47,1.01-.64.46-.29.95-.52,1.47-.7,2.67-.92,5.69-1.97,8.66-3.46,2.43-1.22,4.36-2.74,6.11-4.11.72-.56,1.4-1.1,2.04-1.55,2.3-1.6,4.04-3.41,5.61-5.04.6-.62,1.16-1.2,1.66-1.68.51-.49,1.13-.98,2.03-1.67,1.66-1.29,3.55-2.75,5.22-4.94.23-.3.48-.58.75-.84.25-.25.73-.68,1.1-1.01,1.67-1.49,3.75-3.35,5.16-6.15,1.3-2.58,2.08-5.29,2.76-7.7l.04-.13c.19-.65.37-1.31.57-1.95.97-3.13.52-6.05.23-7.98-.22-1.46,0-2.95.62-4.29.99-2.12,2.05-4.64,2.05-7.73,0-.86.04-1.8.09-2.85.1-2.34.22-5-.17-7.72-.4-2.78-1.28-5.29-2.05-7.51-.33-.95-.65-1.84-.89-2.66-.92-3.15-2.84-5.45-4.24-7.13l-.31-.37c-.78-.93-1.31-2.04-1.56-3.23l-.14-.67c-.45-2.18-1-4.89-2.7-7.52-1.97-3.06-4.07-5.89-6.25-8.39-1.83-2.12-3.9-3.77-5.72-5.22-.71-.57-1.44-1.15-2.08-1.71-2.08-1.81-4.29-3.03-6.25-4.11-.9-.5-1.74-.96-2.49-1.44-.72-.47-1.5-1.05-2.34-1.69-1.77-1.34-3.78-2.86-6.31-4.02-2.51-1.15-4.97-1.67-7.14-2.14-1.02-.22-1.99-.43-2.85-.68-.8-.24-1.68-.58-2.71-.98-1.29-.51-2.75-1.09-4.39-1.54-3.52-.98-5.82-4.36-5.43-7.99.39-3.64,3.36-6.45,7.01-6.65,1.87-.1,4.08-.3,6.3-.95,3.01-.88,5.25-2.58,7.04-3.95.41-.32.96-.73,1.27-.94.34-.24.71-.45,1.09-.63,2.43-1.15,4.43-2.58,6.19-3.84.75-.54,1.53-1.09,2.25-1.56,2.93-1.88,5.56-3.85,8.06-6,.25-.22.52-.42.8-.6.38-.25.87-.53,1.58-.94,1.89-1.08,4.25-2.43,6.24-4.72,2.11-2.44,4.15-5.18,6.22-8.4,1.49-2.32,2.41-4.71,3.24-6.85.37-.95.71-1.85,1.08-2.64,1.15-2.52,1.76-5.01,2.29-7.21l.02-.09c.21-.86.41-1.68.63-2.45.07-.24.15-.47.24-.7.2-.49.47-1.05.85-1.84l.03-.07c.95-1.94,2.14-4.37,2.56-7.34.43-3.05-.17-5.72-.65-7.87-.09-.41-.21-.93-.28-1.29-.16-.79-.19-1.6-.09-2.39.06-.45.17-1.15.26-1.69.34-2.09.77-4.68.36-7.56-.47-3.27-1.04-6.77-2.05-10.22-.79-2.71-1.99-5.04-3.04-7.11-.43-.85-.84-1.65-1.2-2.43-.31-.68-.56-1.48-.95-2.74-.67-2.14-1.42-4.57-2.96-6.97-1.51-2.34-3.33-4.12-4.97-5.72-.76-.74-1.47-1.44-2.03-2.09-.5-.57-.99-1.28-1.74-2.39-1.2-1.77-2.69-3.97-4.84-5.83-2.59-2.25-5.6-3.04-7.78-3.61-.24-.06-.52-.14-.77-.2-.7-.19-1.37-.48-1.98-.87-2.3-1.44-4.67-2.71-7.47-4.02-.64-.3-1.23-.69-1.76-1.15-.2-.17-.43-.38-.61-.55-1.68-1.51-3.97-3.57-7.25-4.53-.35-.1-.69-.19-1.03-.27-2.95-.67-5.21-3.05-5.72-6.03-.51-2.99.84-5.98,3.41-7.58l.73-.46c.29-.18.65-.41.92-.58.51-.31,1.05-.56,1.62-.73,2.51-.79,4.69-1.87,6.62-2.82l.16-.08c.59-.29,1.18-.58,1.78-.86.38-.18.77-.32,1.17-.43.37-.1,1.09-.27,1.62-.39,2.14-.48,4.8-1.08,7.38-2.74.67-.43,1.44-.83,2.64-1.44,1.92-.98,4.3-2.2,6.42-4.03,2.13-1.85,3.85-3.97,5.36-5.84l.12-.15c.52-.64,1.04-1.28,1.56-1.89,1.82-2.09,3.12-4.36,4.28-6.36.5-.87.97-1.69,1.45-2.43,1.52-2.36,3.61-5.6,5.19-9.06,1.29-2.83,1.47-5.57,1.61-7.84.03-.49.07-1.11.11-1.47.05-.45.13-.89.26-1.33.73-2.5,1.64-5.61,2.18-9.05.09-.58.25-1.14.47-1.68.12-.29.29-.69.43-1,.87-2.01,2.06-4.77,2.06-8.06,0-2.89-.44-5.57-.82-7.93v-.08c-.12-.67-.23-1.33-.32-1.99-.42-2.94-1.58-5.32-2.51-7.22l-.33-.69c-.48-1-.73-2.1-.73-3.22v-.37c0-2.24.02-5.31-1.51-8.34-1.82-3.62-4.01-6.8-5.51-8.84-2.07-2.79-4.89-4.15-6.96-5.14l-.23-.11c-.98-.47-1.84-1.14-2.53-1.98-.19-.23-.4-.49-.59-.73-1.37-1.69-2.92-3.61-5.26-5.25-2.2-1.53-4.53-2.45-6.41-3.18-1.14-.45-1.88-.74-2.52-1.06-.1-.05-.2-.1-.3-.16-.5-.28-1.04-.64-1.99-1.31-1.75-1.22-3.74-2.61-6.38-3.52-2.38-.83-4.72-1.2-6.78-1.53-.95-.15-1.94-.31-2.84-.5-2.95-.64-6-1.3-9.38-1.66-.31-.03-.62-.09-.93-.16-.46-.11-1.01-.27-1.78-.5-1.94-.58-4.35-1.29-7.11-1.29-2.97,0-5.44.91-7.44,1.64l-.67.24c-.81.29-1.66.44-2.52.44-.19,0-.38,0-.57-.02-.33-.03-.72-.06-1.07-.09-1.04-.09-2.21-.2-3.47-.2-1.35,0-2.57.12-3.73.37-2.54.55-4.77,1.47-6.74,2.28-1.04.43-1.84.76-2.59,1.02-2.51.87-4.58,2.1-6.41,3.19-.85.51-1.66.99-2.39,1.35-2.7,1.36-5.41,2.99-8.28,4.98-.3.21-.62.4-.96.56-.33.16-.97.45-1.48.67-1.99.87-4.46,1.95-6.63,4.04-2.52,2.42-4.89,5.1-6.84,7.74-1.69,2.28-2.81,4.73-3.79,6.89-.38.83-.74,1.61-1.05,2.24-1.41,2.8-1.61,5.54-1.77,7.73-.02.35-.06.8-.09,1.12-.06.69-.22,1.36-.47,2.01-.17.44-.43,1.05-.65,1.57-.85,1.99-1.82,4.25-2.22,7.09-.37,2.58-.19,4.83-.03,7.02.08.97.15,1.98.15,2.86,0,.8-.08,1.64-.23,2.97-.22,2.06-.5,4.63-.11,7.38.12.87.18,1.88.24,3,.12,2.24.26,4.78,1.04,7.43.79,2.69,2.03,4.94,3.12,6.94.48.88.98,1.78,1.34,2.58.37.81.72,1.75,1.09,2.74.79,2.12,1.69,4.52,3.18,6.84,1.5,2.33,3.31,4.17,4.91,5.79.73.74,1.42,1.44,2,2.1,1.84,2.12,3.88,3.75,5.67,5.19.71.56,1.44,1.15,2.08,1.71,2.67,2.31,5.27,4.29,7.96,6.04.37.24.72.51,1.04.81.28.26.76.74,1.11,1.11,1.58,1.61,3.55,3.62,6.4,4.92,2.94,1.35,5.81,1.42,8.15,1.47.41.01.91.02,1.25.04.53.03,1.05.11,1.55.25l.19.05c3.27.88,5.53,3.84,5.53,7.22,0,3.38-2.29,6.34-5.55,7.2-.36.09-.71.19-1.06.29-3,.88-5.25,2.57-7.11,3.97-.42.31-.94.7-1.25.91-.36.24-.73.46-1.13.64-2.28,1.04-5.73,2.62-8.89,4.66-2.34,1.51-4.18,3.28-5.8,4.84-.68.65-1.38,1.33-2.04,1.9-2.12,1.84-3.73,3.84-5.14,5.61-.6.74-1.16,1.44-1.67,2.03-.51.58-1.11,1.15-2.06,2.04-1.56,1.45-3.33,3.1-4.84,5.39-.19.29-.41.58-.64.84-.26.3-.81.86-1.23,1.29-1.56,1.59-3.51,3.58-4.79,6.37-1.19,2.61-1.91,5.31-2.55,7.7l-.03.12c-.2.76-.4,1.51-.62,2.25-.93,3.17-.5,6.15-.19,8.35l.02.17c.18,1.34-.01,2.7-.55,3.93-.02.04-.06.13-.07.17-.91,2.02-2.16,4.78-2.16,8.14,0,.88-.04,1.83-.09,2.85-.1,2.34-.22,5,.17,7.72.4,2.79,1.28,5.3,2.05,7.51.33.95.65,1.84.89,2.66.92,3.16,2.84,5.45,4.26,7.16l.3.36c.77.93,1.3,2.04,1.55,3.22l.14.66c.45,2.18,1,4.89,2.69,7.52,1.98,3.07,4.08,5.89,6.25,8.39,1.83,2.11,3.89,3.77,5.73,5.23.74.59,1.44,1.15,2.07,1.7,2.09,1.81,4.29,3.03,6.3,4.14.88.49,1.71.95,2.43,1.41.73.47,1.5,1.06,2.34,1.69,1.77,1.34,3.78,2.86,6.32,4.02,2.51,1.15,4.97,1.67,7.13,2.14,1.03.22,2,.43,2.85.68.81.24,1.68.58,2.71.98,1.29.51,2.75,1.09,4.39,1.54,3.52.98,5.82,4.36,5.43,8-.39,3.63-3.36,6.45-7.01,6.65-1.87.1-4.08.3-6.3.95-3.01.88-5.25,2.58-7.06,3.96-.41.31-.95.72-1.26.93-.34.24-.71.45-1.09.63-2.42,1.14-4.41,2.57-6.18,3.83-.75.54-1.53,1.09-2.26,1.57-2.93,1.89-5.56,3.85-8.05,5.99-.25.22-.52.42-.8.6-.41.27-.94.58-1.59.94-1.89,1.08-4.25,2.43-6.24,4.72-2.11,2.43-4.15,5.18-6.22,8.4-1.5,2.32-2.42,4.71-3.23,6.82-.35.91-.72,1.86-1.09,2.68-1.15,2.52-1.76,5.01-2.29,7.23-.22.89-.42,1.73-.65,2.51-.07.25-.15.49-.25.73-.19.46-.44,1-.88,1.89-.95,1.94-2.14,4.37-2.56,7.33-.44,3.05.17,5.72.65,7.86.09.4.2.89.27,1.25.17.84.19,1.71.07,2.56-.06.39-.16.97-.24,1.41-.35,2.01-.79,4.5-.4,7.29.45,3.16,1.01,6.55,2.04,9.89.85,2.76,2.13,5.06,3.26,7.1.42.76.82,1.48,1.11,2.06.01.03.03.06.04.09.27.56.51,1.2.94,2.41.75,2.11,1.61,4.51,3.33,6.83,1.68,2.26,3.73,3.94,5.39,5.29.79.65,1.48,1.21,2.09,1.8.47.46.96,1.05,1.72,1.98,1.41,1.72,3,3.67,5.33,5.3,2.79,1.94,5.81,2.35,8.06,2.65l.5.07c.76.11,1.5.33,2.2.66,2.11,1.02,4.4,1.96,7,2.89.74.27,1.44.65,2.06,1.13l.37.29c1.72,1.34,4.07,3.18,7.33,3.89,1.23.27,2.54.4,4.01.4,1.1,0,2.14-.07,3.13-.14.68-.05,1.39-.1,2.02-.1h.03c.25,0,.5.01.75.04,1.11.11,2.28.16,3.6.16,1.09,0,2.09-.03,3.17-.07.63-.02,1.24-.04,1.82-.05.05,0,.1,0,.15,0,.71,0,1.42.1,2.1.3.25.07.54.16.78.24,1.72.52,3.85,1.18,6.32,1.18.47,0,.93-.02,1.38-.07ZM87.66,373.45c3.2-.74,5.51-2.6,7.18-3.94l.33-.27c.88-.7,1.91-1.2,3.01-1.45l.72-.16c2.03-.45,4.57-1.01,7.12-2.5,2.44-1.42,4.34-3.23,5.91-4.71.78-.74,1.45-1.38,2.11-1.9l.1-.08c2.45-1.93,4.98-3.94,7.35-6.39.36-.37.75-.7,1.17-.99.3-.2.78-.51,1.16-.75,1.93-1.23,4.33-2.75,6.17-5.36,1.63-2.31,2.58-4.83,3.35-6.85.47-1.24.78-2.05,1.13-2.74.34-.68.78-1.46,1.24-2.29l.05-.08c1.15-2.06,2.45-4.4,3.36-7.05,1.02-2.99,2.15-6.54,2.83-10.15.72-3.79,1.15-7.32,1.29-10.47.15-3.37-1.04-6.2-1.92-8.27l-.16-.38c-.47-1.11-.66-2.31-.56-3.51,0,0,.07-.8.07-.8.2-2.17.44-4.87-.29-7.83-.85-3.44-2.13-6.59-3.38-9.65l-.08-.2c-1.05-2.6-2.47-4.86-3.71-6.86l-.06-.1c-.43-.69-.87-1.39-1.28-2.11-1.87-3.2-4.05-6.03-5.95-8.43-2.17-2.74-4.45-5.23-6.97-7.61-2.22-2.1-4.5-3.67-6.69-5.18-.5-.35-1.01-.69-1.52-1.05-.49-.35-.98-.7-1.5-1.07-2.08-1.5-4.23-3.05-6.8-4.39-.42-.22-.82-.48-1.2-.78-.28-.22-.72-.6-1.12-.94-1.73-1.48-3.88-3.31-6.87-4.33-1.49-.51-3.08-.75-4.86-.75-1.32,0-2.54.13-3.66.26l-.7.08c-.26.03-.51.04-.77.04-.66,0-1.32-.09-1.95-.26-.46-.13-1.01-.29-1.55-.45l-.43-.13c-3.35-1-5.57-4.19-5.32-7.68.24-3.49,2.88-6.34,6.34-6.86.77-.12,1.54-.25,2.3-.39,2.96-.56,6.42-1.27,9.94-2.47.8-.27,1.65-.53,2.56-.8,2.19-.65,4.67-1.39,7.16-2.67,2.52-1.28,4.44-3.01,6.01-4.42.47-.42.98-.88,1.37-1.2.6-.5,1.28-.91,2.01-1.2.29-.12.67-.26.97-.37,2.13-.81,4.79-1.81,7.15-4.06,2.44-2.31,4.96-4.71,7.24-7.6,1.7-2.15,2.78-4.44,3.73-6.46.49-1.04.91-1.93,1.34-2.67.05-.08.09-.16.14-.23.36-.58.85-1.19,1.63-2.17,1.42-1.76,3.03-3.76,4.1-6.42,1.25-3.1,1.14-6.15,1.05-8.39v-.37c-.06-1.25.21-2.5.77-3.62l.28-.56c1.01-2,2.26-4.48,2.57-7.59.31-3.17.6-6.89.44-10.53-.18-4.01-.56-7.44-1.14-10.49-.6-3.15-1.61-6.04-2.58-8.85l-.43-1.25c-.92-2.7-2.36-4.79-3.62-6.65-.83-1.21-1.22-1.81-1.53-2.4-.05-.1-.1-.19-.14-.29-.28-.6-.52-1.32-.9-2.44-.72-2.16-1.54-4.6-3.23-6.98-1.76-2.49-4.02-4.06-5.83-5.32-.49-.34-1.13-.79-1.44-1.03-.31-.24-.59-.5-.86-.78l-.69-.73c-1.97-2.09-4-4.25-6.56-6.27-.68-.54-1.43-1.23-2.16-1.9-1.57-1.44-3.52-3.24-5.95-4.65-3-1.74-6.02-3.23-8.98-4.43-2.86-1.16-5.68-1.78-8.18-2.33l-.17-.04c-.47-.1-.94-.21-1.41-.31-2.87-.66-5.56-.75-7.93-.83h-.19c-.65-.03-1.31-.05-1.96-.09-.48-.03-.98-.04-1.49-.04-2.31,0-4.43.3-6.31.57l-.19.03c-.6.09-1.2.17-1.8.24-.29.03-.58.05-.87.05-.04,0-.07,0-.11,0-.38,0-1.05-.05-1.69-.09-.86-.06-1.83-.12-2.87-.12-1.79,0-3.39.21-4.87.63-2.93.84-6.03,2.02-9.47,3.62-.64.3-1.29.58-1.95.87l-.12.05c-2.16.94-4.61,2.01-6.97,3.55-2.5,1.64-4.06,3.79-5.3,5.52,0,0-.06.09-.07.09-.82,1.15-1.94,2.05-3.25,2.58-1.85.76-4.66,1.92-6.88,4.35-1.66,1.82-2.96,3.82-4.13,5.61-.56.87-1.1,1.69-1.62,2.41-1.57,2.15-2.37,4.35-3.08,6.3-.32.88-.55,1.5-.79,2.01-.1.22-.21.43-.33.64-1.7,2.94-3.13,5.7-4.37,8.45-1.42,3.16-2.47,6.29-3.34,8.97-.07.22-.15.43-.24.63-.2.47-.47,1-.96,1.93-.98,1.87-2.1,4-2.62,6.68-.51,2.62-.46,5.15-.41,7.18.02,1.01.04,1.97,0,2.77-.04.74-.17,1.54-.39,2.81-.34,2.02-.77,4.54-.55,7.24.29,3.4,1.89,6.02,2.94,7.75.73,1.19,1.1,2.55,1.09,3.95-.02,2.12-.04,5.01,1.25,8.01l.51,1.19c1.06,2.51,2.27,5.35,4.01,8.03,1.71,2.62,3.73,4.79,5.69,6.89l.91.98c2.26,2.45,4.77,4.77,7.46,6.89,2.73,2.15,5.76,3.96,8.39,5.49,2.49,1.45,5.02,2.39,7.25,3.21l.14.05c.74.27,1.47.54,2.18.83,3.27,1.32,6.44,2.1,9.49,2.85l.3.07c.28.07.55.15.81.25.37.14.82.33,1.58.67,2.97,1.34,4.73,4.45,4.35,7.69-.38,3.24-2.82,5.85-6.02,6.46-.31.06-.61.13-.92.2-2.94.73-6,1.76-9.92,3.36-3.31,1.35-6.47,2.89-9.39,4.59-2.53,1.47-4.29,3.39-5.7,4.94-.54.59-.95,1.04-1.31,1.38-.16.15-.33.3-.5.44-2.2,1.76-3.81,3.65-5.22,5.33-.28.33-.56.66-.81.95-.53.62-1.16,1.14-1.87,1.55l-.53.31c-1.92,1.11-4.56,2.63-6.4,5.47-1.73,2.67-2.25,5.41-2.67,7.6-.08.4-.17.91-.24,1.23-.1.48-.26.95-.46,1.41-.2.45-.4.91-.61,1.35l-.06.13c-.98,2.16-2.09,4.61-2.78,7.45-.71,2.91-1.18,5.98-1.49,9.67-.03.33-.08.67-.15,1-.08.35-.26,1.04-.42,1.63-.56,2.06-1.27,4.62-1.08,7.57.16,2.6.74,5.05,1.25,7.21.21.88.43,1.79.59,2.62.49,2.49,1.33,4.77,2.09,6.82.33.89.64,1.74.9,2.54.79,2.44,1.82,4.59,2.82,6.66l.03.07c.34.72.69,1.44,1.02,2.17,1.36,3.01,2.8,5.81,4.4,8.55.45.76.86,1.66,1.34,2.72.83,1.81,1.78,3.86,3.22,5.84.36.49.71.98,1.06,1.47l.09.13c1.47,2.05,2.98,4.18,4.82,6.18,2.02,2.21,4.35,3.42,6.24,4.41.26.14.57.3.82.44.78.42,1.49.98,2.07,1.65.26.3.61.72.88,1.05,1.3,1.56,2.91,3.5,5.24,5.02,2.37,1.54,4.72,2.26,6.85,2.92,1.13.34,1.67.52,2.18.73.08.03.16.07.24.11,2.87,1.33,5.57,2.08,8.2,2.82l1.2.34c2.51.71,5.88,1.59,9.74,2.01,2.31.26,4.8.49,7.43.49.71,0,1.43-.02,2.13-.05.12,0,.25,0,.37,0,.36,0,.71.03,1.07.08.31.05.79.13,1.16.19,1.31.22,2.94.5,4.71.5,1.19,0,2.35-.13,3.43-.38ZM280.26,369.96c-.4-2.78-1.28-5.28-2.05-7.51-.33-.95-.64-1.84-.89-2.66-.93-3.16-2.84-5.46-4.23-7.14l-.31-.37c-.78-.93-1.31-2.04-1.56-3.22l-.14-.67c-.45-2.18-1-4.89-2.7-7.52-1.97-3.06-4.08-5.89-6.25-8.39-1.84-2.12-3.9-3.77-5.72-5.23-.7-.57-1.43-1.15-2.08-1.72-2.08-1.81-4.28-3.02-6.26-4.11-.9-.49-1.75-.96-2.49-1.44-.72-.46-1.49-1.05-2.34-1.69-1.77-1.34-3.78-2.86-6.32-4.02-2.52-1.15-4.96-1.67-7.14-2.14-1.02-.22-1.99-.43-2.84-.68-.81-.23-1.68-.58-2.7-.99-1.29-.51-2.75-1.08-4.4-1.54-3.52-.98-5.82-4.36-5.43-7.99.39-3.64,3.36-6.45,7.01-6.65,1.87-.1,4.08-.3,6.29-.95,3.02-.88,5.26-2.58,7.05-3.95.42-.31.96-.72,1.27-.94.35-.24.71-.46,1.09-.63,2.43-1.14,4.43-2.58,6.19-3.84.75-.54,1.53-1.09,2.25-1.56,2.93-1.88,5.56-3.84,8.05-5.99.25-.22.52-.43.81-.6.37-.25.87-.53,1.58-.93,1.9-1.08,4.25-2.43,6.24-4.73,2.11-2.43,4.14-5.18,6.22-8.41,1.49-2.32,2.41-4.7,3.24-6.85.37-.96.72-1.85,1.07-2.64,1.16-2.52,1.76-5,2.29-7.2l.02-.1c.21-.87.41-1.68.63-2.45.07-.24.15-.48.25-.7.19-.49.46-1.05.85-1.84l.04-.07c.95-1.95,2.14-4.37,2.56-7.34.43-3.05-.16-5.72-.65-7.87-.1-.41-.21-.93-.28-1.28-.16-.79-.19-1.6-.08-2.4.05-.45.16-1.15.25-1.69.34-2.08.78-4.68.37-7.55-.47-3.27-1.04-6.77-2.05-10.23-.79-2.71-1.99-5.05-3.04-7.11-.43-.85-.84-1.65-1.2-2.43-.31-.68-.56-1.49-.95-2.75-.67-2.14-1.43-4.57-2.97-6.96-1.51-2.34-3.33-4.12-4.97-5.73-.75-.74-1.47-1.43-2.03-2.08-.5-.57-.99-1.28-1.74-2.39-1.19-1.77-2.69-3.97-4.83-5.82-2.6-2.25-5.6-3.04-7.79-3.61-.24-.06-.52-.13-.77-.2-.7-.19-1.37-.49-1.99-.87-2.3-1.43-4.67-2.71-7.46-4.02-.64-.3-1.23-.69-1.76-1.15-.2-.17-.43-.38-.61-.54-1.68-1.51-3.97-3.58-7.26-4.54-.35-.1-.69-.19-1.03-.26-2.95-.66-5.21-3.05-5.72-6.04-.51-2.99.84-5.98,3.41-7.58l.74-.46c.28-.19.64-.41.92-.57.51-.31,1.05-.56,1.62-.74,2.5-.79,4.69-1.87,6.61-2.82l.16-.07c.59-.29,1.18-.58,1.78-.87.37-.18.77-.32,1.17-.43.37-.1,1.08-.26,1.62-.39,2.14-.48,4.81-1.07,7.38-2.73.66-.43,1.43-.83,2.63-1.44,1.92-.99,4.3-2.2,6.41-4.03,2.13-1.85,3.85-3.97,5.37-5.84l.12-.16c.52-.64,1.04-1.28,1.57-1.88,1.81-2.1,3.12-4.36,4.27-6.37.51-.87.98-1.69,1.45-2.43,1.52-2.36,3.61-5.6,5.19-9.05,1.3-2.82,1.47-5.57,1.61-7.84.03-.49.07-1.11.11-1.47.04-.45.13-.89.26-1.33.73-2.49,1.64-5.61,2.17-9.04.1-.58.25-1.15.47-1.69.12-.29.29-.69.43-1,.87-2.02,2.06-4.77,2.06-8.06,0-2.89-.43-5.57-.82-7.93v-.07c-.12-.67-.23-1.33-.33-1.99-.42-2.95-1.58-5.32-2.5-7.23l-.34-.69c-.48-1.01-.73-2.11-.73-3.22v-.37c.01-2.24.02-5.31-1.5-8.34-1.83-3.62-4.01-6.8-5.52-8.84-2.08-2.79-4.89-4.14-6.96-5.14l-.23-.11c-.98-.47-1.84-1.14-2.54-1.98-.19-.24-.4-.49-.59-.73-1.37-1.69-2.93-3.61-5.26-5.25-2.2-1.53-4.53-2.44-6.41-3.18-1.14-.45-1.88-.74-2.52-1.06-.1-.05-.19-.1-.29-.16-.5-.28-1.05-.64-1.99-1.31-1.75-1.22-3.74-2.61-6.38-3.52-2.38-.82-4.73-1.19-6.79-1.53-.96-.15-1.94-.31-2.84-.5-2.96-.64-6.01-1.3-9.38-1.66-.31-.04-.62-.09-.93-.16-.46-.11-1.01-.28-1.78-.5C211.86.72,209.44,0,206.67,0c-2.97,0-5.44.9-7.44,1.64l-.67.24c-.81.29-1.66.44-2.52.44-.19,0-.38,0-.57-.02-.33-.03-.72-.06-1.07-.1-1.04-.09-2.21-.19-3.46-.19-1.35,0-2.57.12-3.73.37-2.54.54-4.77,1.47-6.74,2.28-1.05.43-1.84.75-2.59,1.02-2.51.87-4.58,2.1-6.41,3.19-.85.51-1.66.99-2.38,1.35-2.7,1.36-5.42,2.99-8.29,4.98-.31.21-.63.4-.96.57-.33.16-.97.45-1.48.66-1.99.87-4.46,1.96-6.64,4.04-2.52,2.43-4.88,5.1-6.84,7.74-1.69,2.28-2.81,4.73-3.8,6.88-.37.84-.73,1.61-1.05,2.24-1.41,2.81-1.6,5.55-1.76,7.73-.03.35-.06.8-.09,1.11-.06.69-.22,1.37-.47,2.01-.17.44-.43,1.06-.65,1.57-.86,1.99-1.82,4.25-2.22,7.09-.37,2.58-.19,4.83-.03,7.02.08.97.16,1.97.16,2.86,0,.8-.08,1.64-.23,2.97-.22,2.07-.5,4.64-.11,7.38.13.87.19,1.87.25,2.99.13,2.24.26,4.78,1.05,7.43.78,2.69,2.02,4.95,3.12,6.94.48.87.97,1.78,1.34,2.58.37.81.72,1.75,1.09,2.74.79,2.12,1.69,4.52,3.19,6.85,1.5,2.33,3.31,4.17,4.91,5.79.73.74,1.42,1.44,1.99,2.1,1.84,2.12,3.88,3.75,5.67,5.19.71.57,1.44,1.15,2.09,1.71,2.66,2.31,5.27,4.29,7.96,6.04.37.25.72.52,1.04.81.28.26.75.75,1.11,1.11,1.58,1.61,3.55,3.61,6.4,4.92,2.94,1.34,5.81,1.42,8.15,1.47.4.01.91.03,1.25.04.53.03,1.05.11,1.56.25l.19.05c3.26.87,5.53,3.84,5.52,7.23,0,3.38-2.28,6.33-5.55,7.2-.35.1-.71.19-1.06.3-2.99.87-5.24,2.57-7.1,3.97-.42.31-.95.7-1.25.91-.35.25-.73.46-1.12.64-2.28,1.05-5.73,2.62-8.89,4.65-2.34,1.51-4.17,3.28-5.8,4.84-.68.65-1.38,1.33-2.04,1.9-2.12,1.84-3.72,3.84-5.14,5.61-.6.75-1.16,1.45-1.67,2.04-.51.58-1.1,1.15-2.05,2.03-1.57,1.46-3.34,3.11-4.84,5.39-.19.29-.4.57-.64.84-.26.3-.81.87-1.22,1.3-1.57,1.59-3.51,3.58-4.79,6.37-1.19,2.61-1.92,5.31-2.55,7.7l-.03.13c-.2.76-.4,1.52-.62,2.25-.93,3.17-.51,6.15-.19,8.35l.02.17c.18,1.34,0,2.69-.54,3.93-.01.04-.06.13-.07.17-.91,2.02-2.16,4.79-2.16,8.14,0,.88-.04,1.84-.08,2.84-.1,2.34-.22,5,.16,7.73.4,2.79,1.28,5.3,2.05,7.51.33.95.65,1.84.89,2.66.93,3.15,2.84,5.45,4.26,7.16l.3.36c.77.93,1.31,2.04,1.55,3.22l.13.66c.45,2.18,1,4.89,2.69,7.52,1.98,3.07,4.08,5.9,6.25,8.4,1.84,2.11,3.9,3.76,5.73,5.23.74.59,1.43,1.15,2.07,1.7,2.09,1.81,4.29,3.03,6.3,4.14.88.49,1.71.95,2.43,1.42.72.46,1.51,1.05,2.34,1.69,1.77,1.34,3.78,2.86,6.32,4.02,2.51,1.15,4.96,1.68,7.14,2.14,1.02.22,1.99.43,2.84.67.81.24,1.69.58,2.71.99,1.29.51,2.75,1.09,4.39,1.54,3.52.98,5.82,4.36,5.43,7.99-.39,3.64-3.36,6.45-7.01,6.65-1.87.1-4.08.3-6.29.95-3.02.89-5.26,2.58-7.06,3.96-.41.31-.95.72-1.25.93-.35.25-.71.46-1.09.63-2.43,1.14-4.42,2.57-6.18,3.83-.75.54-1.53,1.1-2.26,1.57-2.93,1.89-5.56,3.84-8.05,5.99-.25.22-.52.42-.8.6-.41.27-.94.57-1.59.95-1.9,1.08-4.25,2.43-6.23,4.72-2.11,2.43-4.15,5.19-6.23,8.41-1.49,2.32-2.42,4.71-3.22,6.82-.35.92-.72,1.86-1.09,2.68-1.16,2.52-1.75,5.01-2.3,7.23-.21.89-.42,1.73-.64,2.52-.07.25-.16.49-.25.73-.18.46-.44,1-.88,1.9-.95,1.94-2.14,4.37-2.56,7.33-.43,3.05.17,5.72.65,7.86.09.4.2.9.28,1.25.16.84.19,1.7.07,2.55-.06.4-.16.96-.24,1.41-.35,2.01-.79,4.51-.4,7.29.46,3.17,1.02,6.55,2.05,9.89.85,2.76,2.13,5.05,3.25,7.1.43.75.82,1.47,1.11,2.05.01.03.03.06.04.09.27.56.51,1.19.94,2.41.75,2.12,1.61,4.52,3.33,6.84,1.68,2.25,3.73,3.94,5.39,5.29.79.64,1.48,1.2,2.09,1.79.47.46.96,1.05,1.72,1.99,1.4,1.72,3,3.67,5.33,5.3,2.78,1.94,5.81,2.34,8.05,2.64l.5.07c.76.11,1.51.34,2.19.66,2.12,1.02,4.4,1.97,7.01,2.9.74.27,1.44.65,2.06,1.13l.37.29c1.72,1.34,4.07,3.18,7.33,3.89,1.24.27,2.55.4,4.02.4,1.1,0,2.14-.07,3.13-.14.68-.04,1.38-.09,2.02-.1h.02c.25,0,.5.01.75.04,1.1.11,2.28.16,3.6.16,1.09,0,2.09-.03,3.17-.07.63-.02,1.24-.04,1.81-.05h.15c.71,0,1.42.1,2.1.3.25.07.54.16.78.24,1.72.52,3.85,1.17,6.32,1.17.47,0,.93-.02,1.38-.07l.73-.07c2.82-.29,6.02-.62,9.05-1.28,2.96-.64,5.21-2.1,7.01-3.26.32-.2.73-.47,1.02-.64.46-.28.96-.52,1.46-.69,2.67-.93,5.7-1.97,8.66-3.46,2.43-1.22,4.37-2.74,6.11-4.11.72-.56,1.4-1.1,2.04-1.55,2.3-1.61,4.05-3.41,5.61-5.04.6-.62,1.16-1.19,1.66-1.68.51-.49,1.13-.98,2.02-1.66,1.66-1.29,3.55-2.75,5.22-4.94.23-.3.48-.57.75-.84.25-.25.73-.68,1.1-1.01,1.67-1.49,3.76-3.35,5.17-6.15,1.3-2.58,2.08-5.3,2.76-7.7l.04-.13c.19-.65.37-1.31.57-1.95.96-3.13.52-6.05.23-7.98-.22-1.46,0-2.96.62-4.29.99-2.12,2.05-4.64,2.05-7.73,0-.87.04-1.79.09-2.84.1-2.34.22-5-.17-7.73ZM141.33,297.04l-.16-.38c-.46-1.11-.66-2.31-.56-3.52l.07-.8c.2-2.17.44-4.87-.29-7.82-.85-3.45-2.13-6.59-3.37-9.65l-.08-.2c-1.06-2.6-2.47-4.87-3.72-6.86l-.06-.1c-.43-.69-.87-1.39-1.28-2.1-1.87-3.2-4.05-6.03-5.95-8.44-2.17-2.73-4.44-5.23-6.96-7.61-2.22-2.1-4.5-3.67-6.69-5.18-.51-.34-1.02-.69-1.52-1.05-.49-.34-.98-.7-1.5-1.07-2.08-1.49-4.23-3.05-6.79-4.39-.43-.22-.83-.48-1.2-.78-.28-.22-.72-.6-1.11-.94-1.73-1.47-3.88-3.31-6.87-4.33-1.49-.51-3.08-.75-4.86-.75-1.33,0-2.55.13-3.66.26l-.7.07c-.25.02-.51.04-.77.04-.66,0-1.31-.09-1.96-.26-.46-.13-1.01-.29-1.55-.45l-.43-.13c-3.36-1-5.57-4.2-5.32-7.68.25-3.49,2.88-6.35,6.35-6.86.77-.11,1.54-.25,2.3-.39,2.96-.57,6.41-1.27,9.94-2.48.79-.28,1.64-.52,2.55-.8,2.19-.65,4.67-1.39,7.17-2.67,2.52-1.28,4.44-3.01,6.01-4.42.47-.42.99-.87,1.37-1.2.6-.5,1.28-.9,2.01-1.19.29-.12.67-.26.97-.37,2.13-.81,4.79-1.81,7.15-4.06,2.44-2.31,4.96-4.7,7.23-7.59,1.7-2.16,2.78-4.44,3.73-6.46.49-1.04.9-1.93,1.34-2.67.04-.08.1-.16.14-.23.37-.58.85-1.19,1.63-2.17,1.42-1.76,3.02-3.75,4.11-6.42,1.25-3.1,1.13-6.15,1.05-8.39l-.02-.38c-.04-1.25.22-2.5.78-3.62l.28-.56c1.01-2,2.27-4.49,2.57-7.59.31-3.17.6-6.9.44-10.53-.19-4.01-.56-7.44-1.14-10.5-.6-3.15-1.6-6.04-2.58-8.85l-.43-1.25c-.93-2.69-2.36-4.8-3.62-6.65-.83-1.21-1.22-1.8-1.54-2.4-.04-.1-.1-.19-.14-.29-.28-.6-.52-1.33-.9-2.45-.72-2.16-1.54-4.6-3.22-6.98-1.76-2.49-4.02-4.06-5.83-5.33-.49-.34-1.13-.79-1.44-1.03-.31-.24-.59-.49-.86-.78l-.69-.72c-1.96-2.09-4-4.25-6.56-6.27-.68-.53-1.43-1.22-2.16-1.9-1.57-1.44-3.52-3.24-5.95-4.65-2.99-1.74-6.02-3.23-8.98-4.43-2.87-1.16-5.69-1.78-8.18-2.33l-.16-.04c-.48-.1-.95-.21-1.41-.31-2.87-.66-5.55-.75-7.93-.83h-.19c-.66-.02-1.31-.04-1.96-.08-.48-.03-.98-.04-1.49-.04-2.31,0-4.43.3-6.32.57l-.19.02c-.6.09-1.2.17-1.81.25-.29.03-.58.05-.87.05h-.11c-.37,0-1.05-.05-1.69-.09-.86-.06-1.84-.13-2.87-.13-1.79,0-3.38.21-4.87.63-2.93.84-6.02,2.02-9.47,3.62-.63.3-1.29.58-1.96.87l-.11.04c-2.17.94-4.61,2.01-6.96,3.55-2.51,1.64-4.06,3.79-5.31,5.52,0,0-.06.09-.07.1-.81,1.15-1.94,2.05-3.25,2.58-1.85.76-4.65,1.91-6.88,4.35-1.66,1.82-2.96,3.81-4.14,5.61-.57.87-1.1,1.69-1.63,2.41-1.56,2.15-2.37,4.35-3.08,6.29-.33.89-.55,1.51-.79,2.02-.1.22-.21.43-.33.63-1.7,2.93-3.13,5.7-4.37,8.46-1.42,3.15-2.46,6.29-3.34,8.97-.07.22-.15.43-.24.63-.2.47-.47.99-.96,1.93-.98,1.87-2.09,3.99-2.61,6.67-.52,2.63-.46,5.15-.42,7.18.02,1.02.04,1.97,0,2.77-.05.74-.18,1.55-.4,2.81-.34,2.02-.77,4.54-.54,7.24.28,3.4,1.89,6.02,2.95,7.75.72,1.19,1.11,2.56,1.09,3.95-.01,2.11-.04,5.01,1.25,8.01l.51,1.19c1.07,2.51,2.27,5.35,4.02,8.02,1.71,2.63,3.73,4.79,5.7,6.9l.9.98c2.26,2.45,4.78,4.77,7.46,6.89,2.72,2.15,5.76,3.96,8.38,5.49,2.49,1.45,5.02,2.39,7.26,3.21l.14.05c.73.28,1.46.54,2.18.84,3.28,1.33,6.44,2.11,9.5,2.85l.3.07c.28.07.55.15.81.25.37.14.82.33,1.58.67,2.97,1.34,4.73,4.45,4.35,7.69-.39,3.23-2.82,5.85-6.02,6.46-.31.05-.62.12-.92.19-2.94.73-6,1.77-9.93,3.37-3.31,1.34-6.47,2.89-9.39,4.59-2.52,1.47-4.28,3.4-5.7,4.93-.54.6-.95,1.05-1.31,1.38-.16.16-.33.31-.51.44-2.2,1.76-3.81,3.66-5.23,5.33-.28.34-.55.66-.81.96-.54.61-1.16,1.14-1.87,1.55l-.52.31c-1.93,1.11-4.56,2.64-6.4,5.48-1.73,2.67-2.25,5.4-2.67,7.6-.07.4-.17.91-.25,1.23-.1.49-.26.96-.46,1.41-.2.46-.4.9-.6,1.35l-.06.13c-.99,2.16-2.09,4.61-2.78,7.45-.71,2.91-1.18,5.99-1.49,9.67-.02.34-.07.66-.15.99-.07.35-.26,1.04-.42,1.63-.57,2.06-1.27,4.62-1.08,7.58.16,2.61.74,5.05,1.25,7.2.21.88.43,1.79.58,2.62.49,2.49,1.34,4.77,2.1,6.82.33.9.64,1.74.9,2.55.8,2.43,1.82,4.58,2.82,6.66l.03.07c.34.72.69,1.44,1.02,2.17,1.37,3.01,2.81,5.81,4.4,8.55.45.76.86,1.66,1.34,2.72.84,1.81,1.78,3.86,3.22,5.84.36.49.71.98,1.06,1.47l.09.13c1.47,2.05,2.99,4.17,4.82,6.18,2.02,2.2,4.35,3.42,6.24,4.41.26.13.57.3.82.43.79.43,1.49.99,2.08,1.66.26.3.61.72.89,1.05,1.29,1.56,2.91,3.5,5.24,5.02,2.37,1.55,4.72,2.26,6.85,2.92,1.13.34,1.67.52,2.18.73.08.03.16.07.25.1,2.87,1.33,5.57,2.08,8.2,2.81l1.19.34c2.51.72,5.88,1.59,9.74,2.02,2.31.25,4.81.49,7.44.49.71,0,1.43-.01,2.13-.05.12,0,.25,0,.37,0,.36,0,.72.02,1.07.07.31.04.79.13,1.16.19,1.31.22,2.94.5,4.72.5,1.19,0,2.34-.13,3.43-.38,3.2-.74,5.52-2.6,7.18-3.93l.34-.27c.88-.71,1.9-1.2,3-1.46l.72-.16c2.03-.45,4.56-1.01,7.11-2.49,2.44-1.43,4.34-3.23,5.91-4.71.78-.74,1.45-1.38,2.11-1.9l.1-.08c2.44-1.93,4.97-3.93,7.35-6.39.36-.37.75-.7,1.18-.99.29-.2.78-.51,1.16-.75,1.93-1.22,4.34-2.75,6.17-5.36,1.63-2.31,2.59-4.83,3.35-6.85.47-1.24.78-2.05,1.13-2.73.34-.68.78-1.46,1.24-2.29l.04-.08c1.15-2.06,2.45-4.4,3.36-7.05,1.02-2.99,2.15-6.54,2.83-10.15.72-3.79,1.16-7.32,1.29-10.47.15-3.37-1.05-6.2-1.91-8.27Z" fill="#ff7900"/>
  </g>
</svg>