<?xml version="1.0" encoding="UTF-8"?>
<svg id="Layer_1" data-name="Layer 1" xmlns="http://www.w3.org/2000/svg" viewBox="0 0 1171.5 502.85">
  <g>
    <path d="M151.45,377.36c.05-.09.09-.19.15-.29.05-.1.1-.2.16-.31.32-.61.7-1.28,1.08-1.98l.05-.09c.32-.58.66-1.18.99-1.8.33-.62.66-1.26.99-1.92.33-.66.65-1.34.95-2.04.31-.7.59-1.43.84-2.17,1.15-3.37,2.42-7.36,3.19-11.42.15-.79.29-1.59.42-2.37s.25-1.54.35-2.3c.35-2.51.59-4.89.68-7.11.17-3.78-1.18-6.97-2.15-9.3l-.18-.43c-.28-.68-.47-1.39-.58-2.12-.03-.22-.05-.44-.06-.66-.02-.39-.02-.79.02-1.18l.08-.9c.22-2.44.5-5.48-.33-8.8-.6-2.42-1.38-4.71-2.23-6.93-.34-.89-.69-1.76-1.04-2.63-.18-.44-.35-.87-.53-1.3l-.09-.22h0c-.11-.28-.23-.55-.34-.82-.24-.53-.49-1.05-.74-1.57-.13-.26-.26-.51-.39-.76-.18-.33-.36-.66-.53-.98-.37-.64-.73-1.26-1.09-1.86-.37-.6-.73-1.18-1.08-1.74l-.07-.12c-.49-.78-.97-1.56-1.44-2.37-2.1-3.6-4.55-6.78-6.69-9.49-2.13-2.69-4.36-5.17-6.78-7.55-.35-.34-.69-.68-1.05-1.02-.31-.3-.63-.58-.94-.86-.63-.56-1.26-1.08-1.89-1.57-.5-.39-.99-.77-1.49-1.13-.45-.34-.9-.66-1.34-.97-.63-.44-1.24-.87-1.86-1.3-.21-.14-.4-.27-.61-.41-.37-.25-.74-.5-1.11-.76-.27-.19-.55-.39-.82-.6-.14-.1-.28-.2-.43-.31-.14-.1-.28-.21-.43-.31-.44-.31-.88-.63-1.33-.95-.44-.32-.9-.64-1.36-.95-1.54-1.05-3.15-2.09-4.96-3.03-.11-.06-.24-.12-.35-.19-.34-.21-.68-.44-.99-.69-.08-.06-.17-.13-.27-.21-.15-.12-.31-.26-.48-.41-.08-.07-.17-.14-.25-.21-.09-.08-.17-.15-.25-.22-.24-.21-.5-.42-.76-.63-.13-.11-.26-.22-.4-.33-.27-.22-.54-.44-.82-.66-1.57-1.23-3.44-2.45-5.74-3.24-1.68-.57-3.47-.85-5.47-.85-1.5,0-2.86.15-4.12.29l-.79.08c-.28.03-.57.05-.86.05-.74,0-1.47-.1-2.2-.3-.26-.07-.54-.15-.84-.24-.27-.08-.54-.16-.82-.24-.03,0-.06-.02-.09-.02l-.47-.15c-.84-.25-1.62-.63-2.31-1.09-.24-.16-.46-.33-.67-.5-.17-.13-.34-.28-.5-.44s-.31-.32-.46-.48c-.11-.12-.21-.25-.31-.39-.21-.26-.4-.53-.57-.82-.08-.14-.17-.28-.24-.43-.7-1.34-1.05-2.88-.93-4.48.15-2.13,1.09-4.06,2.54-5.44.09-.11.18-.19.28-.26.1-.11.2-.19.31-.26.08-.08.16-.14.24-.19.15-.11.29-.21.44-.31.14-.08.27-.17.4-.24.15-.09.3-.18.46-.24.34-.18.69-.31,1.05-.44.23-.08.46-.14.7-.2.24-.05.47-.1.72-.14.87-.13,1.73-.28,2.59-.44,1.24-.24,2.57-.5,3.96-.8,1.38-.31,2.81-.65,4.27-1.06.98-.27,1.96-.58,2.96-.92.89-.31,1.85-.59,2.87-.9.62-.18,1.25-.37,1.9-.57.9-.28,1.84-.59,2.8-.95.32-.11.64-.24.96-.37.79-.32,1.6-.68,2.4-1.09.35-.18.7-.37,1.02-.56h0c.33-.2.65-.4.96-.6h0c.31-.21.62-.41.91-.63h0c.3-.21.58-.43.86-.64,1.12-.86,2.1-1.75,2.99-2.54.53-.47,1.11-.99,1.54-1.35.68-.57,1.44-1.02,2.25-1.34.33-.13.76-.29,1.09-.42,2.41-.91,5.39-2.04,8.04-4.57,2.75-2.6,5.58-5.29,8.13-8.53,1.68-2.12,2.81-4.35,3.79-6.4.14-.29.27-.58.41-.86.07-.15.14-.29.2-.43.2-.43.39-.82.57-1.2.24-.5.49-.96.73-1.38.02-.05.05-.09.08-.13.02-.05.05-.09.08-.13.15-.24.32-.49.53-.76.33-.46.76-.98,1.31-1.68,1.2-1.48,2.51-3.12,3.6-5.1.28-.5.53-1.02.78-1.57.08-.18.16-.37.24-.55.13-.31.24-.63.34-.94.31-.94.52-1.87.65-2.78.02-.15.05-.3.06-.45.04-.29.07-.59.09-.88,0-.1.02-.19.02-.28.06-.86.07-1.69.05-2.46,0-.58-.02-1.13-.05-1.65l-.02-.42c-.02-.44,0-.86.05-1.29.02-.15.04-.31.07-.46.02-.16.06-.32.1-.48.15-.63.37-1.25.66-1.84l.32-.63c.28-.56.58-1.15.88-1.79.67-1.43,1.32-3.03,1.71-4.86.06-.3.12-.61.17-.92.05-.32.09-.64.13-.97.03-.29.05-.59.08-.89.32-3.37.58-7.2.41-10.95-.02-.57-.05-1.12-.08-1.66-.07-1.09-.15-2.14-.24-3.15-.24-2.54-.55-4.85-.96-7-.67-3.54-1.8-6.79-2.89-9.94l-.49-1.4h0c-.13-.38-.27-.75-.41-1.11h0c-.15-.36-.31-.71-.47-1.05h0c-.16-.34-.32-.67-.5-.99h0c-.17-.33-.34-.64-.52-.95-.71-1.24-1.47-2.35-2.18-3.39-.93-1.36-1.37-2.02-1.73-2.7-.05-.11-.11-.21-.16-.32-.31-.68-.59-1.5-1.01-2.76-.46-1.37-.95-2.83-1.63-4.33-.15-.34-.31-.66-.48-1-.18-.34-.36-.67-.55-1.01s-.4-.67-.63-1.01c-.11-.17-.22-.34-.34-.5-.15-.22-.31-.44-.47-.64-.48-.62-.99-1.18-1.51-1.7-.42-.41-.84-.8-1.27-1.17-.28-.24-.57-.47-.86-.7-.85-.66-1.68-1.24-2.44-1.78-.21-.15-.44-.31-.66-.47-.22-.16-.44-.31-.63-.45-.06-.05-.12-.09-.18-.13-.05-.05-.1-.08-.15-.11-.34-.27-.66-.55-.96-.87l-.77-.82c-.41-.44-.83-.88-1.26-1.33-.42-.44-.85-.89-1.29-1.34-1.47-1.48-3.03-2.96-4.84-4.38-.19-.15-.39-.31-.59-.48-.2-.17-.4-.35-.6-.53-.41-.36-.83-.75-1.24-1.12-1.76-1.62-3.95-3.64-6.68-5.23-1.69-.98-3.38-1.89-5.07-2.72-.63-.31-1.26-.61-1.89-.9-.63-.29-1.25-.57-1.89-.84-.42-.18-.83-.35-1.25-.52-1.21-.49-2.41-.89-3.59-1.24-1.18-.34-2.33-.63-3.44-.89-.74-.17-1.47-.33-2.17-.49l-.18-.04c-.54-.12-1.07-.24-1.59-.35-3.22-.75-6.25-.85-8.91-.93h-.22c-.37-.02-.74-.03-1.11-.05s-.73-.03-1.1-.05c-.1,0-.22,0-.32,0h-.02c-.17,0-.33-.02-.5-.02-.28-.02-.56-.02-.84-.02-1.94,0-3.77.19-5.46.41-.32.05-.63.08-.95.13-.23.03-.46.07-.69.1l-.21.03c-.67.1-1.35.19-2.03.27-.33.04-.66.06-.99.06-.05,0-.08,0-.12,0h-.18c-.37,0-.92-.05-1.47-.08-.08,0-.17-.02-.25-.02-.22-.02-.45-.03-.7-.05-.79-.05-1.64-.09-2.54-.09-1.76,0-3.35.18-4.84.54-.21.05-.43.1-.63.16-.62.18-1.24.37-1.87.57-.63.21-1.28.43-1.92.66-2.17.78-4.43,1.72-6.85,2.84-.71.34-1.45.66-2.2.99l-.12.05c-2.44,1.05-5.19,2.25-7.84,3.99-2.82,1.84-4.57,4.26-5.97,6.2,0,0-.07.1-.08.11-.92,1.29-2.18,2.3-3.65,2.9-.65.27-1.41.58-2.22.96-.48.23-.99.49-1.5.78-.34.2-.68.4-1.02.63-.18.11-.35.24-.52.35-.51.36-1.02.76-1.51,1.21-.16.15-.33.31-.49.47-.16.15-.32.32-.48.5-.18.19-.34.39-.51.58-.34.39-.66.79-.97,1.18-.16.21-.31.41-.46.6-.6.79-1.16,1.6-1.69,2.4-.35.53-.69,1.05-1.02,1.55-.64.97-1.24,1.89-1.83,2.71-1.76,2.41-2.66,4.89-3.46,7.07-.37,1-.62,1.7-.89,2.27-.11.24-.24.48-.37.71-.48.82-.94,1.64-1.38,2.44-.66,1.21-1.28,2.39-1.87,3.57-.39.79-.77,1.57-1.13,2.34-.18.39-.37.78-.54,1.17-.4.89-.77,1.77-1.12,2.64-.18.44-.34.87-.51,1.31-.33.87-.64,1.72-.92,2.55-.44,1.25-.83,2.46-1.2,3.59-.08.24-.17.47-.27.71-.08.2-.18.4-.3.64-.08.18-.18.37-.3.59-.03.08-.08.15-.11.23-.11.21-.23.44-.37.71-.41.79-.85,1.62-1.26,2.51-.27.59-.54,1.21-.78,1.86-.31.84-.59,1.74-.8,2.7-.04.15-.07.29-.1.44-.15.79-.26,1.57-.34,2.32-.21,2.1-.17,4.08-.13,5.75,0,.32.02.63.02.94,0,.79.02,1.53-.02,2.17-.05.83-.2,1.74-.44,3.17-.08.46-.16.94-.24,1.44-.08.5-.16,1.02-.22,1.57-.06.53-.11,1.08-.16,1.65-.08,1.12-.09,2.28,0,3.49.08.95.24,1.86.48,2.7.12.42.25.83.39,1.22.28.79.61,1.52.95,2.18.5,1.01,1.03,1.88,1.48,2.61.15.24.28.5.41.76.12.26.24.53.33.79.33.92.5,1.9.49,2.89-.02,2.38-.04,5.64,1.41,9.01l.57,1.34c1.2,2.83,2.55,6.02,4.51,9.03,1.92,2.96,4.19,5.39,6.4,7.75l1.02,1.1c.63.69,1.29,1.37,1.96,2.04,2.01,2.01,4.16,3.92,6.43,5.71.77.6,1.56,1.18,2.35,1.74.8.56,1.6,1.09,2.41,1.6,1.6,1.02,3.19,1.97,4.67,2.83,1.86,1.08,3.72,1.9,5.5,2.6.58.24,1.15.45,1.7.66.32.12.64.24.95.36l.16.05c.82.31,1.64.61,2.45.94.46.19.92.37,1.37.53.92.34,1.82.63,2.72.92.89.27,1.79.53,2.67.76.88.24,1.76.46,2.62.67.44.11.87.21,1.3.32l.34.08c.31.08.62.17.92.27.42.16.92.37,1.78.76.38.18.74.37,1.08.59.34.22.66.47.97.73,2.05,1.8,3.16,4.51,2.83,7.33-.08.68-.24,1.34-.48,1.96-.15.41-.34.81-.56,1.19-.22.38-.47.75-.73,1.08-.68.86-1.52,1.57-2.48,2.11-.19.11-.39.21-.6.3-.6.27-1.25.48-1.92.61-.05,0-.11.02-.17.04-.3.05-.58.11-.86.18-.41.11-.83.21-1.25.33-2.93.8-6.04,1.89-9.91,3.46-1.86.76-3.68,1.57-5.44,2.43-1.76.86-3.48,1.77-5.12,2.73-.89.52-1.7,1.08-2.43,1.67s-1.39,1.2-2,1.8c-.5.48-.95.95-1.36,1.41-.22.22-.42.44-.62.66-.15.17-.29.33-.43.47-.4.44-.73.79-1.04,1.08-.18.18-.37.34-.57.5-.31.25-.6.5-.89.75s-.57.5-.84.76c-.27.25-.53.51-.79.76-.51.51-.99,1.02-1.44,1.52-.69.76-1.31,1.5-1.91,2.2-.31.38-.62.74-.91,1.08-.15.17-.31.34-.47.5-.16.16-.33.31-.5.46-.35.3-.73.56-1.13.79l-.59.34c-1.62.93-3.69,2.13-5.5,4.02-.15.16-.3.32-.45.49-.33.38-.65.78-.95,1.21-.1.14-.2.28-.3.44-.24.37-.47.75-.66,1.13-.11.18-.2.37-.29.56-.18.38-.35.76-.5,1.13-.15.37-.28.74-.41,1.11-.56,1.65-.86,3.23-1.12,4.62-.02.12-.05.25-.08.39-.02.11-.04.22-.06.34-.02.06-.02.12-.04.18-.02.11-.05.23-.07.34,0,.05-.02.1-.03.15-.12.54-.3,1.07-.51,1.58-.23.51-.46,1.02-.69,1.52l-.06.15c-1.11,2.43-2.35,5.18-3.13,8.38-.55,2.25-.97,4.59-1.29,7.18-.06.47-.11.95-.17,1.44-.08.73-.15,1.48-.22,2.26,0,.1-.02.19-.02.28,0,.1-.02.19-.04.28-.03.18-.06.37-.11.55-.05.2-.11.49-.2.82-.05.16-.09.34-.14.5-.05.18-.09.35-.14.51-.07.26-.15.52-.21.79-.15.54-.29,1.11-.43,1.7-.4,1.79-.71,3.8-.57,6.03.05.73.11,1.44.21,2.15.28,2.12.76,4.12,1.2,5.94.06.25.12.5.18.75.11.5.23,1,.34,1.49.05.24.1.47.15.71.55,2.8,1.5,5.36,2.35,7.67.18.5.37.99.54,1.47.08.24.17.47.24.7.08.23.16.46.23.69.05.15.1.29.15.44.06.19.13.39.2.58.48,1.33,1.01,2.59,1.57,3.8.23.5.47,1.01.7,1.5.18.39.37.78.56,1.17l.03.08c.19.4.39.8.58,1.21.19.4.39.81.57,1.22,1.54,3.38,3.15,6.53,4.95,9.62.5.86.97,1.86,1.51,3.06.94,2.04,2,4.34,3.62,6.56.41.55.79,1.1,1.19,1.66l.1.15c.21.29.41.58.63.87.41.57.84,1.15,1.27,1.74,1.08,1.46,2.24,2.93,3.53,4.34.14.15.28.3.43.44.72.73,1.47,1.37,2.23,1.92,1.51,1.11,3.03,1.9,4.36,2.6.29.15.64.34.92.49.44.24.86.52,1.25.82.2.16.39.32.57.5.09.08.18.17.26.27.08.09.18.18.25.27.15.17.32.37.5.57s.34.42.5.6c.36.44.75.9,1.17,1.38.41.47.86.96,1.34,1.45h0c.24.24.49.49.75.73.52.48,1.08.96,1.69,1.41.31.23.62.45.95.66.34.21.66.42,1,.6.33.19.66.37.99.53.33.16.66.32.99.47,1.31.58,2.58,1.01,3.81,1.39.31.1.61.19.92.28,1.27.39,1.88.58,2.45.82.1.04.18.08.27.12.4.18.8.36,1.2.53h0c.79.34,1.58.63,2.35.91,1.94.69,3.82,1.21,5.67,1.73l1.34.37c.89.25,1.86.52,2.92.79.27.06.53.13.81.2.55.13,1.12.26,1.7.38.3.06.6.12.89.18.73.14,1.48.27,2.25.4.77.12,1.57.23,2.38.32,2.59.28,5.41.55,8.36.55.8,0,1.6-.02,2.41-.05.13,0,.27,0,.41,0,.2,0,.4,0,.6.02.2.02.4.04.6.07.05,0,.09,0,.14.02.05,0,.1.02.15.02.21.04.46.08.69.11.11.02.22.04.32.05,1.48.25,3.31.57,5.31.57,1.34,0,2.64-.15,3.85-.43,3.6-.83,6.2-2.93,8.08-4.43l.37-.3c.12-.1.24-.19.37-.29.64-.46,1.34-.82,2.09-1.08.15-.05.3-.1.45-.15.15-.04.31-.08.46-.11l.4-.09.4-.09c.57-.12,1.18-.26,1.81-.42,1.9-.47,4.04-1.14,6.19-2.39,1.03-.6,1.97-1.26,2.84-1.94.37-.28.72-.57,1.05-.86.34-.29.66-.57.99-.86.31-.28.62-.57.91-.84.3-.28.58-.54.86-.8.66-.63,1.25-1.19,1.82-1.67.18-.16.37-.31.56-.46l.09-.08.02-.02c.69-.54,1.37-1.09,2.07-1.65,2.09-1.68,4.19-3.46,6.19-5.53.21-.21.41-.41.63-.6.22-.18.46-.37.7-.53.07-.05.14-.09.22-.15.07-.05.15-.1.22-.15.11-.08.23-.15.34-.22.06-.04.11-.08.18-.11.11-.07.23-.15.34-.21.14-.08.27-.18.41-.27,1.68-1.07,3.61-2.36,5.31-4.24.11-.11.21-.24.31-.36.31-.36.62-.75.91-1.16.23-.32.44-.66.65-.99,1.24-1.99,2.09-4.05,2.78-5.85.06-.15.11-.3.17-.44.06-.15.11-.29.17-.43.15-.4.28-.75.41-1.08.05-.11.08-.21.12-.31.11-.27.21-.52.31-.75.15-.34.3-.65.44-.94Z" fill="#faf2d5"/>
    <path d="M463.67,329.68l-.28-.86c-.24-.74-.37-1.5-.39-2.28l-.03-1.32c-.07-2.52-.14-5.38-.69-8.37-.11-.57-.15-1.16-.13-1.74,0-.34.03-.82.05-1.27.12-2.44.28-5.77-1.02-9.17-1.12-2.95-2.79-5.38-4.26-7.52-.59-.86-1.2-1.75-1.66-2.54-1.72-2.89-3.94-5.93-6.8-9.29-2.11-2.48-4.45-4.45-6.77-6.39-.53-.44-1.07-.89-1.58-1.34-.66-.56-1.36-1.26-2.17-2.07-1.66-1.66-3.72-3.72-6.34-5.39-3.07-1.96-6.22-2.52-8.78-2.98-.32-.06-.7-.13-1.02-.18-1.01-.2-1.97-.58-2.85-1.12-.42-.26-.99-.63-1.42-.92-2.1-1.39-4.48-2.96-7.63-3.87-.72-.21-1.44-.43-2.16-.65l-1.28-.39c-3.48-1.05-5.89-4.22-5.97-7.85-.08-3.64,2.18-6.9,5.61-8.11,2.25-.79,4.16-1.92,5.69-2.83.37-.22.83-.5,1.2-.7.98-.56,2.05-.92,3.18-1.05.32-.04.7-.08,1.02-.11,2.54-.27,5.71-.6,8.9-2.29,3.54-1.88,6.7-4.17,9.5-6.21,3.01-2.19,4.67-5.09,5.9-7.25.14-.24.29-.5.42-.73.4-.67.89-1.28,1.45-1.82.4-.39.86-.8,1.33-1.24,1.85-1.7,3.94-3.62,5.76-6.18,1.85-2.62,2.91-5.33,3.76-7.52.38-.97.73-1.88,1.1-2.65.37-.76.78-1.54,1.26-2.44,1.17-2.21,2.51-4.71,3.38-7.77,1.15-4.02,1.89-7.5,2.31-10.94.48-3.94.7-7.25.66-10.4,0-.66.07-1.32.21-1.96.07-.32.18-.74.26-1.08.6-2.43,1.33-5.45.79-8.95-.5-3.18-1.99-5.6-3.4-7.55-1.17-1.63-1.72-3.64-1.54-5.64.21-2.41.27-5.27-.96-8.3-1.06-2.63-2.38-5-3.67-7.32l-.05-.1c-.44-.8-.89-1.6-1.31-2.39-1.57-2.95-3.41-6.36-5.52-9.52-1.8-2.69-4.14-4.29-6.4-5.63-1.6-.95-2.84-2.4-3.53-4.12-.97-2.44-2.19-4.99-4.5-7.14-2.19-2.04-4.54-3.51-6.61-4.8-.89-.57-1.82-1.14-2.58-1.68-.71-.5-1.45-1.14-2.51-2.04-1.76-1.51-3.97-3.39-6.64-4.77-2.84-1.46-5.75-2.31-8.31-3.07l-.18-.05c-.8-.24-1.6-.47-2.38-.73-3.45-1.14-7.23-2.02-11.23-2.63-.75-.11-1.51-.24-2.28-.38l-.14-.03c-2.57-.46-5.49-.98-8.59-.98-.18,0-.36,0-.55,0-3.15.06-6.02.9-8.34,1.58-1.34.4-2.21.64-3.02.79-.83.16-1.79.3-2.72.44-2.56.37-5.47.79-8.48,1.88-3.38,1.21-5.7,3.5-7.23,5.02-1.23,1.21-2.81,2.02-4.51,2.3-2.3.39-5.77.96-8.87,3.22-2.58,1.87-4.53,4.18-6.1,6.03-.92,1.09-1.57,1.85-2.19,2.46-3.04,2.96-5.61,5.82-7.84,8.73-2.05,2.67-3.05,5.51-3.85,7.78-.38,1.08-.6,1.7-.83,2.21-.11.25-.23.5-.37.74l-.61,1.08c-1.58,2.79-3.22,5.68-4.53,9.07-1.28,3.29-2.32,6.8-3.3,11.03,0,.04-.02.08-.03.11-.18.74-.45,1.49-1,2.94-.89,2.35-1.89,4.99-2.16,8.21-.26,3.11.15,6.03.49,8.38.16,1.12.32,2.29.38,3.28.05.75.08,1.5.11,2.25v.14c.12,2.76.24,5.89.91,9.15.04.18.07.34.09.52.09.66.13,1.44.19,2.67.12,2.57.25,5.48,1.38,8.62,1.2,3.34,3.31,5.69,5.01,7.58.32.35.73.81.99,1.12.46.53.84,1.13,1.15,1.76.32.66.69,1.48,1.07,2.35.99,2.27,2.12,4.83,3.93,7.32,1.99,2.73,4.24,4.98,6.23,6.97.54.54,1.09,1.08,1.63,1.64,3.06,3.14,6.29,5.72,8.76,7.62,2.49,1.91,5.14,3.14,7.26,4.12.77.36,1.52.71,2.12,1.01.68.35,1.31.79,1.87,1.3.26.24.62.58.94.89,1.84,1.76,4.13,3.94,7.49,5.25.73.28,1.47.58,2.21.88,1.97.79,4,1.62,6.18,2.3,3.55,1.11,5.95,4.43,5.88,8.16-.06,3.72-2.57,6.96-6.16,7.94-.7.2-1.41.4-2.12.61l-1.05.31c-3.32.98-6.76,1.99-10.16,3.56-3.02,1.38-5.17,3.36-7.09,5.12-.83.76-1.42,1.29-1.94,1.69-.18.14-.36.27-.55.39-3.51,2.28-6.55,4.54-9.28,6.93-2.35,2.06-4.02,4.45-5.35,6.37-.32.46-.64.92-.94,1.33-.66.92-1.5,1.69-2.46,2.27l-.48.29c-2.22,1.33-5.27,3.15-7.38,6.46-2.01,3.15-2.53,6.54-2.91,9.05-.05.33-.11.73-.17,1.05-.13.79-.37,1.55-.72,2.27-.29.59-.61,1.23-.97,1.93-1.16,2.28-2.47,4.84-3.34,7.83-.89,3.07-.99,6-1.06,8.36-.05,1.43-.08,2.35-.2,3.2-.12.88-.27,1.74-.42,2.6l-.05.26c-.44,2.55-.94,5.44-.92,8.61.02,3.62.32,7.39.93,11.53.47,3.12,1.39,5.87,2.21,8.29.34,1.01.66,1.97.92,2.8.28.92.5,2,.73,3.18.47,2.29,1.04,5.15,2.35,8,1.3,2.83,2.98,5.13,4.48,7.2.4.55.78,1.08,1.12,1.57.52.74.92,1.56,1.17,2.43.08.28.18.6.25.87.69,2.44,1.63,5.79,4.16,8.67,2.51,2.88,5.72,4.23,8.08,5.22l.86.36c.76.33,1.46.77,2.09,1.3,2.12,1.8,5,4.16,8.41,6.32,2.8,1.79,5.56,2.99,7.98,4.05l.46.2c.94.41,1.8.99,2.53,1.71l.3.3c1.83,1.83,4.35,4.33,8.17,5.38,1.23.34,2.53.5,3.86.5,2.02,0,3.89-.38,5.61-.8.66-.16,1.32-.24,1.99-.24.97,0,1.95.17,2.87.51,1.8.65,4.51,1.64,7.68,1.64.36,0,.73-.02,1.07-.04,4.28-.31,8-.85,11.4-1.67,4.05-.99,7.72-2.15,10.91-3.48.83-.35,1.8-.7,2.73-1.04,2.41-.88,5.13-1.87,7.77-3.44,2.51-1.5,4.51-3.36,6.28-5.02.87-.81,1.69-1.57,2.44-2.17.72-.57,1.55-1.15,2.44-1.78l.08-.06c1.98-1.4,4.21-2.97,6.27-5.05,2.41-2.44,3.56-5.25,4.48-7.52,0,0,.31-.75.41-.99.27-.66.63-1.27,1.07-1.83,1.76-2.31,3.23-4.64,4.68-6.92l.49-.78c.39-.62.86-1.18,1.4-1.68.24-.22.57-.51.83-.76,1.77-1.59,3.97-3.56,5.48-6.55,1.47-2.93,1.86-5.81,2.18-8.2.07-.5.16-1.13.22-1.5.08-.48.21-.96.38-1.43,1.14-3.15,1.88-6.13,2.67-9.43.16-.68.41-1.34.74-1.97.15-.29.37-.69.53-.99,1.19-2.17,2.67-4.87,3.02-8.34.37-3.64-.66-6.78-1.42-9.09Z" fill="#faf2d5"/>
    <path d="M313.08,407.83c-.3-.86-.58-1.69-.83-2.45-.05-.18-.11-.37-.17-.54-.29-.99-.66-1.92-1.09-2.77-.15-.28-.3-.57-.45-.83-1.02-1.79-2.23-3.25-3.22-4.42l-.35-.42c-.87-1.04-1.47-2.28-1.75-3.6l-.17-.78c-.09-.46-.19-.94-.3-1.44-.04-.17-.08-.33-.11-.5-.08-.34-.17-.68-.26-1.03-.47-1.76-1.16-3.64-2.35-5.48-.28-.43-.56-.86-.84-1.28-.57-.85-1.13-1.67-1.71-2.47-1-1.4-2.02-2.74-3.06-4.01-.33-.4-.66-.79-.99-1.18-.14-.17-.28-.33-.42-.49-.78-.89-1.59-1.71-2.41-2.47-.54-.5-1.09-.99-1.63-1.45-.82-.69-1.62-1.34-2.39-1.95-.31-.25-.62-.5-.92-.76-.49-.39-.97-.79-1.42-1.18-2.34-2.03-4.82-3.4-7.03-4.63-.5-.27-.99-.55-1.47-.82-.47-.27-.91-.53-1.32-.8h0c-.8-.52-1.68-1.18-2.63-1.89-1.99-1.5-4.25-3.22-7.1-4.52-2.83-1.29-5.58-1.88-8.02-2.4-1.15-.25-2.24-.48-3.2-.76-.91-.26-1.89-.66-3.04-1.11-.37-.15-.74-.29-1.12-.44-.78-.3-1.6-.6-2.47-.88-.44-.15-.89-.28-1.34-.41-.07-.02-.13-.04-.19-.06-.16-.05-.32-.1-.48-.16-.22-.08-.44-.17-.64-.27h0c-.41-.19-.81-.42-1.18-.68-.19-.13-.37-.27-.55-.41-.18-.15-.34-.3-.5-.45-.08-.08-.17-.16-.23-.24-.15-.14-.28-.29-.41-.44-.24-.27-.45-.57-.64-.86,0,0,0-.02,0-.02-.11-.16-.21-.34-.31-.52-.14-.27-.28-.54-.39-.82-.06-.15-.12-.32-.18-.48-.07-.21-.14-.43-.19-.65-.06-.22-.11-.44-.14-.67-.08-.45-.11-.91-.11-1.37,0-.3.02-.6.05-.9.02-.13.03-.25.05-.38.05-.37.14-.74.24-1.1.11-.36.24-.71.39-1.05.1-.22.21-.44.33-.66,1.37-2.44,3.99-5.17,6.87-5.82.89-.2,2.95-.92,5.54-1.39,2.33.2,4.66.15,6.83.64,2.8.63,5.63,1.1,8.15,1.95,2.77.93,5.22,2.51,7.54,3.7,3.61,1.86,8.1-.33,8.49-4.26.27-2.74.87-5.63,1.6-8.62.67-2.73.76-5.81,1.76-8.66.94-2.69,3.43-4.87,4.63-7.6,1.15-2.64,2.24-5.32,3.6-7.95,1.33-2.58,1.89-5.63,3.39-8.14,1.5-2.52,2.66-5.31,4.29-7.71,1.67-2.45,4.34-4.17,6.1-6.43,1.85-2.36,4.02-4.33,5.93-6.42,2.06-2.24,3.86-4.55,5.94-6.4,2.33-2.06,4.75-3.66,7.05-5.12,3.42-2.17,2.65-7.56-.7-9.85-2.27-1.55-4.3-3.72-6.58-5.85-2.05-1.92-3.51-4.52-5.53-6.82-1.89-2.14-4.27-3.94-6.09-6.34-1.74-2.31-3.89-4.39-5.54-6.87-1.61-2.43-2.27-5.48-3.77-8.02-1.49-2.54-4.22-4.4-5.56-7-1.37-2.64-2.83-5.26-4.01-7.91-1.23-2.75-.91-6.07-1.9-8.75-1.06-2.87-2.87-5.36-3.62-8.07-.83-3.01-.35-6.09-.75-8.8-.57-3.9-5.38-5.93-9.13-4.38-2.62,1.09-5.76,1.36-8.82,2.2-.77.21-1.54.51-2.31.84,0,0,0,0,0,0-1.88.42-8.94.3-10.74-.38-.86-.32-1.66-.63-2.24-.84h0c-.37-.14-.65-.24-.77-.27-.02,0-.04-.02-.05-.02-3.31-.75-5.86-3.43-6.43-6.79-.12-.7-.15-1.38-.09-2.06v-.02c.03-.44.11-.88.21-1.3.05-.21.11-.43.18-.63h0c.11-.34.24-.66.39-.98.15-.32,1.37-1.28,1.49-1.41.49-.53,1.04-.99,1.66-1.37l.83-.52c.24-.15.53-.34.79-.5.08-.05.17-.11.24-.15.15-.08.29-.17.44-.24.44-.24.91-.43,1.39-.58,2.81-.89,8.33-2.87,10.49-3.94l.18-.08c.66-.33,1.32-.66,2-.97.21-.1.43-.19.65-.27.22-.08.44-.16.67-.22.05-.02.11-.03.18-.05.06-.02.13-.03.2-.05.14-.04.31-.08.47-.11.24-.06.51-.12.75-.18.08-.02.16-.04.24-.05,2.41-.53,5.4-1.21,8.3-3.07.18-.12.38-.24.59-.36.21-.13.43-.25.66-.37.36-.2.76-.41,1.22-.64.15-.08.31-.17.48-.25.27-.14.55-.28.83-.43.28-.15.57-.3.87-.46.3-.15.6-.32.9-.49.61-.34,1.23-.71,1.86-1.11.93-.6,1.86-1.28,2.76-2.05.6-.52,1.17-1.05,1.71-1.6.27-.27.54-.55.8-.83.52-.56,1.02-1.12,1.5-1.68.47-.56.93-1.11,1.37-1.65.22-.27.44-.53.65-.79l.06-.08.07-.1c.15-.18.3-.36.44-.54.15-.18.29-.36.44-.53.29-.35.59-.7.89-1.04,2.04-2.36,3.51-4.9,4.8-7.16.15-.24.28-.48.42-.72.28-.47.54-.93.81-1.37.14-.22.27-.44.4-.64,1.71-2.65,4.06-6.29,5.84-10.18,1.46-3.18,1.65-6.26,1.81-8.81.02-.35.05-.75.08-1.1.01-.21.03-.4.05-.55.02-.26.07-.5.11-.76.05-.25.11-.5.18-.74.52-1.76,1.11-3.78,1.63-6,.08-.33.15-.67.23-1.01.22-1.02.42-2.07.59-3.16.03-.19.07-.38.11-.57.03-.14.06-.27.1-.4.05-.16.09-.32.15-.47s.11-.31.17-.46c.03-.08.07-.17.11-.26.11-.27.25-.6.37-.86.49-1.14,1.07-2.47,1.53-3.99.11-.38.22-.77.31-1.18.29-1.21.47-2.51.47-3.9,0-1.62-.12-3.19-.3-4.68-.09-.75-.19-1.47-.3-2.18s-.22-1.39-.33-2.05l-.02-.08c0-.05-.01-.11-.02-.16-.08-.51-.17-1.02-.24-1.52-.02-.09-.03-.18-.05-.27-.02-.1-.03-.19-.05-.28-.06-.41-.13-.82-.21-1.21-.08-.39-.18-.78-.28-1.15-.61-2.25-1.54-4.15-2.32-5.76l-.38-.77c-.14-.28-.25-.57-.35-.86-.15-.41-.25-.81-.33-1.24-.09-.5-.14-1.01-.14-1.51v-.42c0-1.21,0-2.63-.18-4.16-.02-.18-.05-.37-.08-.55-.02-.18-.05-.37-.09-.57-.03-.19-.07-.38-.11-.57-.12-.58-.28-1.17-.49-1.76-.06-.2-.14-.4-.21-.6-.16-.39-.34-.79-.53-1.18-.38-.76-.78-1.5-1.18-2.23-.27-.48-.54-.95-.82-1.42-.69-1.15-1.37-2.23-2.03-3.22-.26-.39-.52-.76-.76-1.12-.13-.18-.25-.36-.38-.53-.27-.38-.53-.75-.78-1.08-.08-.11-.16-.22-.24-.33-.15-.19-.29-.38-.44-.57-.15-.19-.31-.37-.47-.54-.16-.17-.32-.34-.48-.5-.49-.49-.99-.92-1.5-1.31-.5-.39-1.02-.73-1.54-1.06-.17-.11-.34-.21-.51-.31t0,0c-.34-.2-.67-.38-1-.55-.17-.09-.34-.18-.5-.26-.32-.17-.63-.32-.93-.46,0,0,0,0,0,0-.15-.07-.3-.14-.44-.21l-.26-.13c-.66-.33-1.29-.73-1.86-1.22-.13-.11-.25-.22-.37-.34-.22-.21-.43-.44-.62-.66-.11-.13-.22-.27-.34-.41-.11-.14-.23-.28-.34-.41-.38-.48-.78-.97-1.2-1.47-.85-1-1.78-2.02-2.89-3-.42-.37-.86-.73-1.34-1.08h0c-.15-.11-.31-.23-.48-.34-.31-.21-.61-.42-.92-.62-.63-.39-1.25-.74-1.88-1.05-.94-.47-1.86-.88-2.73-1.24-.58-.24-1.15-.46-1.67-.66-1.28-.5-2.12-.83-2.84-1.19-.11-.06-.21-.11-.33-.18-.28-.16-.57-.34-.92-.57-.18-.11-.37-.24-.59-.39-.22-.15-.46-.31-.73-.5-.5-.34-1.01-.7-1.54-1.06-.43-.28-.88-.57-1.34-.86-1.26-.76-2.67-1.48-4.28-2.05-2.67-.92-5.31-1.34-7.63-1.72-1.07-.17-2.18-.34-3.19-.57h0c-1.25-.27-2.51-.54-3.8-.8-.32-.06-.65-.12-.97-.18-.5-.1-1-.19-1.51-.28-.49-.09-.99-.17-1.49-.24-.91-.14-1.83-.26-2.78-.36-.18-.02-.35-.05-.52-.08-.18-.03-.34-.06-.52-.1-.06-.02-.13-.03-.2-.05-.15-.04-.31-.08-.48-.13-.14-.03-.28-.08-.43-.12-.15-.04-.31-.09-.49-.15-.13-.03-.26-.08-.4-.11-2.17-.64-4.88-1.45-8-1.45-.63,0-1.24.04-1.82.1-.39.05-.77.1-1.15.16-.94.16-1.82.39-2.65.64-.66.2-1.29.42-1.89.63-.3.11-.59.21-.87.31l-.76.27c-.91.33-1.86.5-2.83.5-.21,0-.43,0-.64-.02-.18-.02-.38-.03-.59-.05h0c-.21-.02-.41-.03-.61-.05-.29-.02-.6-.05-.9-.08-.31-.02-.63-.05-.95-.07-.65-.04-1.33-.07-2.04-.07-.37,0-.75,0-1.11.02-.37.02-.72.04-1.07.08-.35.04-.69.08-1.02.13-.2.03-.4.07-.6.11-.14.03-.27.05-.4.08-.13.03-.27.06-.4.09-.14.02-.27.06-.4.09-2.52.63-4.77,1.55-6.77,2.38-.89.36-1.6.66-2.27.91-.11.04-.21.08-.32.11-.11.05-.21.08-.32.12-.7.24-1.38.51-2.03.79-.65.29-1.27.59-1.86.9-.6.31-1.17.63-1.72.95-.56.31-1.09.63-1.6.94-.95.57-1.86,1.11-2.67,1.52-3.04,1.53-6.1,3.35-9.32,5.6-.34.24-.7.45-1.08.63-.24.11-.65.3-1.05.48-.11.05-.21.09-.31.15-.1.04-.2.08-.29.12-2.25.99-5.03,2.2-7.46,4.54-.35.34-.7.69-1.05,1.04-1.4,1.4-2.73,2.85-3.99,4.32-.24.28-.47.56-.7.83-.46.56-.9,1.12-1.33,1.67-.21.28-.42.57-.63.84-.47.64-.91,1.29-1.32,1.94-1,1.64-1.8,3.31-2.53,4.87-.14.31-.28.62-.42.92-.08.18-.16.34-.24.52-.08.17-.15.33-.23.5-.21.44-.4.86-.58,1.23-.05.1-.09.19-.14.27-.3.6-.55,1.18-.76,1.76-.42,1.16-.68,2.31-.86,3.39-.08.54-.15,1.07-.21,1.59-.04.34-.06.67-.09,1-.02.16-.02.32-.04.48,0,.15-.02.31-.03.47-.02.2-.03.42-.05.64-.02.22-.03.44-.05.61-.02.19-.04.39-.08.58-.06.38-.15.76-.27,1.13-.05.18-.12.37-.19.55-.17.44-.41,1.02-.63,1.55-.03.08-.06.15-.09.22-.12.28-.24.57-.37.86-.12.29-.24.58-.37.89-.24.6-.48,1.23-.71,1.89-.44,1.31-.83,2.75-1.06,4.35-.42,2.89-.21,5.43-.03,7.9.09,1.09.18,2.21.18,3.22,0,.89-.09,1.85-.26,3.34-.02.18-.04.37-.06.57-.04.38-.08.79-.11,1.19-.18,1.96-.28,4.19.05,6.55.03.24.06.5.09.76.03.26.05.53.07.81.02.28.05.57.06.87.02.31.04.61.05.92.02.31.03.63.05.96.04.65.08,1.32.15,2,.08.86.18,1.74.34,2.64.07.37.14.73.21,1.09.08.37.17.73.27,1.11.05.18.11.37.16.56.24.85.53,1.66.85,2.44.1.26.21.51.32.76.73,1.68,1.57,3.2,2.34,4.61.53.98,1.09,1.99,1.5,2.89.31.68.61,1.44.92,2.25.11.27.21.54.31.82.11.3.22.6.34.91.47,1.23.98,2.52,1.6,3.83.47.99,1.02,1.98,1.64,2.96.31.5.64.96.98,1.42.34.45.68.89,1.03,1.31.7.84,1.42,1.63,2.12,2.36.24.24.47.49.7.73.24.24.47.47.69.7.61.63,1.21,1.22,1.73,1.8.18.19.35.38.51.57.25.3.52.59.78.87.27.28.53.55.8.82.53.53,1.08,1.04,1.62,1.52.54.47,1.08.93,1.62,1.37.53.44,1.05.86,1.55,1.26.8.63,1.63,1.29,2.35,1.92,2.25,1.96,4.46,3.69,6.7,5.27.37.27.75.52,1.12.77.37.25.76.5,1.13.75.1.07.21.14.31.21.1.07.2.15.3.22.1.08.2.16.29.24.09.08.18.16.27.24h0l.13.13.14.14c.11.1.21.21.32.31.11.11.22.22.34.34l.17.17c.05.05.1.11.15.16h0c.05.05.11.11.16.17l.18.18c1.72,1.74,3.86,3.81,6.86,5.19,3.31,1.51,8.82,3.12,11.46,3.19.45.02,1.02.03,1.4.05.6.04,1.18.13,1.76.28l.21.05c1.15.31,2.18.85,3.06,1.55.18.15.36.3.51.45,1.66,1.55,2.65,2.21,2.64,4.6,0,2.61-1.22,5-3.17,6.55-.22.18-.45.34-.7.5-.24.16-.49.3-.74.43-.52.26-1.07.47-1.64.62-.02,0-.04,0-.08.02-.15.05-.47.15-.92.31-.94.32-3.75,2.18-6.99,2.41,0,0-.01,0-.02.01-2.87-.32-5.9.38-8.43-.35-3.09-.89-5.37-3.54-7.91-4.7-3.59-1.64-9.26,1.35-9.55,5.17-.21,2.73-.05,5.71-.79,8.8-.65,2.74-1.07,5.74-2.08,8.67-.94,2.71-1.65,5.68-2.87,8.47-1.16,2.67-2.73,5.26-4.11,7.94-1.35,2.61-2.45,5.45-3.97,8.02-1.52,2.55-3.51,4.86-5.18,7.3-1.69,2.47-3.71,4.71-5.52,7.01-1.87,2.37-4.68,3.84-6.65,5.97-2.08,2.24-4.08,4.31-6.24,6.19-2.33,2.04-3.61,5.28-5.99,6.81-3.32,2.13-4.13,7.64-.69,9.58,2.5,1.41,5.56,2.15,7.98,4.07,2.27,1.8,3.74,4.6,5.9,6.78,2.07,2.07,4.08,4.19,6.02,6.53,1.88,2.27,4.67,3.9,6.4,6.36,1.71,2.44,2.23,5.66,3.76,8.22,1.54,2.58,3.5,4.88,4.83,7.52,1.36,2.71,2.69,5.38,3.8,8.09,1.16,2.84,2.2,5.64,3.03,8.41.9,2.98,1.2,5.96,1.68,8.76.54,3.13.67,6.03.63,8.81-.06,3.89,5.74,6.3,9.31,4.48,2.31-1.18,5.06-1.73,7.85-2.67,2.51-.85,4.98-2.28,7.78-2.93,2.21-.51,4.51-.94,6.87-1.32.75.07,1.35.18,1.66.3.26.1.52.2.79.31,1.45.57,3.09,1.23,4.93,1.73,1.15.32,2.18.86,3.05,1.57.18.15.35.3.51.45,1.83,1.76,2.83,4.29,2.54,6.97-.23,2.17-1.28,4.08-2.83,5.43-.18.16-.37.31-.57.45h0c-.19.15-.39.28-.6.4h0c-.31.19-.63.36-.97.5-.11.05-.23.09-.34.14-.23.09-.46.17-.69.24-.6.17-1.22.28-1.86.31-.53.03-1.08.07-1.64.11-.57.05-1.15.11-1.75.19-.6.08-1.21.18-1.83.31-.62.12-1.24.28-1.86.46-3.39.99-5.9,2.9-7.94,4.45-.29.22-.63.48-.94.71-.09.06-.18.13-.25.18-.08.06-.16.11-.22.16-.04.02-.07.05-.11.07-.18.12-.36.24-.54.34,0,0,0,0,0,0-.18.11-.37.21-.57.3-2.73,1.28-4.97,2.89-6.96,4.31-.85.6-1.72,1.23-2.54,1.76-2.05,1.33-3.98,2.68-5.82,4.1-1.1.86-2.18,1.73-3.22,2.63-.29.24-.59.47-.9.67-.23.15-.49.31-.79.49-.08.05-.15.09-.23.14-.23.14-.49.29-.76.44-.27.15-.54.31-.82.47-1.96,1.15-4.23,2.58-6.19,4.84-2.38,2.73-4.67,5.84-7,9.46-.21.33-.41.66-.6.99-.38.65-.73,1.31-1.05,1.96-.47.98-.89,1.95-1.27,2.89-.24.62-.48,1.23-.71,1.83-.4,1.03-.81,2.09-1.23,3.02-1.3,2.83-1.97,5.63-2.58,8.13-.06.25-.12.5-.18.74-.18.73-.36,1.42-.55,2.08-.08.28-.18.56-.28.82-.06.16-.14.34-.22.52-.08.19-.18.4-.29.63-.05.09-.09.19-.15.29-.1.21-.21.44-.33.69-.27.55-.56,1.13-.84,1.74-.14.31-.28.63-.42.95-.14.35-.29.71-.44,1.08-.18.49-.36.99-.53,1.52h0c-.11.37-.21.76-.31,1.14-.14.59-.26,1.19-.35,1.82-.03.23-.06.45-.08.67-.24,2.51.1,4.77.5,6.74.11.5.21.98.31,1.44.05.22.11.47.16.72.06.24.11.48.15.69.08.41.13.81.15,1.22.02.55,0,1.11-.08,1.65-.06.44-.18,1.08-.27,1.59-.34,1.96-.76,4.35-.57,7.01.03.39.08.79.13,1.19.33,2.31.72,4.71,1.26,7.15.18.85.4,1.7.63,2.56.13.47.27.94.41,1.41.48,1.55,1.08,2.97,1.71,4.29.32.66.65,1.29.98,1.91.16.31.33.6.49.9.17.3.33.59.49.88.24.43.47.84.68,1.23.21.39.4.76.57,1.08.02.04.04.07.05.11.3.63.57,1.34,1.05,2.71.21.59.44,1.21.67,1.83.53,1.41,1.18,2.89,2.09,4.38.15.24.31.49.47.73.16.25.34.5.52.74.07.09.15.19.21.28.09.13.19.25.29.37.15.18.28.34.43.51.11.14.22.26.34.39.21.22.4.44.6.64.64.68,1.3,1.3,1.95,1.87.2.17.39.34.58.5.57.49,1.14.95,1.66,1.38.22.18.44.36.65.53.21.17.41.34.6.5.19.16.38.32.57.49.18.16.36.32.53.49h0c.07.07.14.14.2.21.15.15.28.29.42.46.15.17.31.34.47.54.25.3.53.63.86,1.03.39.48.8.98,1.23,1.48.54.63,1.12,1.28,1.74,1.91.76.76,1.6,1.5,2.54,2.21.16.12.32.24.48.35,3.13,2.18,6.53,2.64,9.06,2.97l.57.08c.86.12,1.7.37,2.47.75,2.09,1,4.31,1.95,6.8,2.86.36.13.72.26,1.08.39.27.1.55.22.82.34.53.25,1.03.57,1.49.93l.42.33c.6.47,1.28,1,2.03,1.53.45.31.93.63,1.44.92.86.5,1.79.98,2.83,1.35.62.23,1.27.42,1.96.57,1.39.3,2.86.44,4.51.44.92,0,1.82-.05,2.67-.1.28-.02.57-.04.84-.06.38-.02.77-.05,1.15-.07.38-.02.76-.04,1.12-.04h.04c.28,0,.56.02.82.04.28.03.58.05.87.08.99.08,2.04.11,3.18.11,1.23,0,2.35-.04,3.57-.08.71-.03,1.4-.05,2.04-.06h.17c.41,0,.82.03,1.22.09.42.06.84.16,1.25.28.25.08.54.16.78.23,1.92.59,4.33,1.32,7.1,1.32.27,0,.53,0,.79-.02.26-.01.52-.04.77-.06l.82-.08c3.18-.33,6.78-.7,10.19-1.44.41-.09.82-.19,1.21-.31.39-.11.76-.24,1.14-.38.37-.14.73-.28,1.07-.44,1.73-.77,3.19-1.72,4.46-2.54.36-.23.82-.53,1.14-.73.52-.32,1.08-.58,1.65-.78.37-.13.76-.26,1.15-.4.87-.31,1.76-.63,2.68-.96.31-.11.61-.23.92-.35,1.64-.63,3.32-1.34,4.99-2.18.34-.18.68-.35,1.01-.53,1.3-.73,2.47-1.51,3.55-2.31.82-.6,1.58-1.2,2.32-1.78.2-.16.4-.31.6-.47.4-.31.77-.6,1.15-.87.18-.14.37-.28.55-.4.64-.45,1.25-.92,1.83-1.39s1.12-.95,1.63-1.44c1.03-.96,1.96-1.92,2.85-2.84.17-.18.34-.34.5-.51.16-.17.33-.34.48-.49.31-.32.6-.62.89-.89.5-.48,1.1-.96,1.92-1.6.11-.09.24-.18.36-.28.47-.36.95-.74,1.44-1.13,1.47-1.19,3.02-2.57,4.42-4.42.26-.34.54-.65.84-.94.21-.21.57-.53.91-.84.11-.11.22-.21.33-.3.15-.13.3-.26.45-.4.3-.27.61-.56.92-.86.16-.15.32-.3.48-.45l.39-.39c.38-.39.77-.8,1.15-1.25.37-.44.75-.91,1.1-1.41.47-.66.92-1.38,1.31-2.17.37-.73.69-1.47.99-2.2.15-.35.27-.7.41-1.05.27-.76.53-1.51.76-2.25.34-1.08.65-2.15.94-3.16l.04-.15c.21-.73.42-1.47.65-2.19,1.08-3.51.59-6.8.26-8.97-.25-1.64,0-3.32.7-4.83.14-.3.28-.6.42-.92.28-.62.55-1.28.8-1.96h0c.18-.53.35-1.05.5-1.6.35-1.29.58-2.69.58-4.21,0-.49,0-.99.02-1.52,0-.13,0-.27.02-.41,0-.27.02-.55.04-.84,0-.15,0-.29.02-.44.02-.47.04-.95.06-1.44.02-.49.04-.99.05-1.5.03-1.83,0-3.77-.29-5.75-.45-3.13-1.44-5.94-2.31-8.44Z" fill="#faf2d5"/>
  </g>
  <g>
    <path d="M1162.76,313.98c-.79-1.85-2.9-2.38-4.48-2.38-7.12.27-14.23,1.85-21.35,2.11-6.41.59-12.9.77-19.42.77-5.28,0-10.59-.12-15.89-.24,15.02-17.92,34.78-31.89,52.18-47.43,2.37-1.85,8.17-5.27,6.06-8.7-.48-1.11-1.34-1.56-2.3-1.56-.63,0-1.29.19-1.92.51-18.45,10.8-45.59,39-61.66,54.81-5.31-3.65-11.68-5.01-17.63-5.01-10.21,0-19.22,3.99-19.69,7.27-17.38,12.57-36.02,22.04-55.17,25.41-2.01.39-3.94.61-5.69.61-5.39,0-9.14-2.16-8.54-8.52,1.36-11.9,30.19-43.76,50.41-64.72h.01c4.65-4.84,8.83-9.08,12.13-12.37,1.73-1.72,3.21-3.18,4.38-4.33.99-.96,1.98-1.92,2.97-2.88,8.76-8.48,17.57-16.72,26.81-24.53,5.27-4.74,12.38-9.22,17.13-14.23,1.05-1.32,1.31-2.9,0-4.22-.72-.71-1.33-.99-1.92-.99-.73,0-1.43.41-2.3.99-15.42,10.62-29.15,23.66-42.56,36.57-.57.54-1.14,1.09-1.71,1.64-1.25,1.2-2.83,2.75-4.68,4.59-5.66,5.6-13.82,13.89-22.51,23.17-12.57,13.42-26.24,28.88-35.08,41.27-.14-.01-.29-.02-.45-.02-.17,0-.34.01-.52.03-8.3,1.19-16.61,2.23-25.02,2.23-2.8,0-5.62-.12-8.45-.38,3.16-4.48,5.53-10.02,7.64-15.02,1.32-3.95,1.85-5.27.26-9.49-1.46-3.39-4.28-4.81-7.63-4.81-13.57,0-35.75,23.29-10.81,33.01-3.14,4.1-20.39,22.1-28.35,22.1-.74,0-1.4-.16-1.96-.49-8.17-5.01,12.13-25.3,15.29-29.78,1.59-2.39-.12-5.23-2.53-5.23-.78,0-1.64.3-2.48,1.01-.07.06-.13.12-.2.18-1.05-.05-2.2-.07-3.44-.07-16.04,0-46.54,3.69-61.18,4.64v-.53c7.12-6.59,16.07-14.23,22.14-22.14,1.88-2.51.77-5.36-1.62-5.36-.62,0-1.32.19-2.07.62-17.4,9.49-33.21,20.82-51.13,29.78-7.11.26-14.23.52-21.34,1.05-8.03-2.81-17.12-3.63-25.89-3.63-2.75,0-5.46.08-8.1.21-9.23.26-35.05,2.1-42.69,5.53-2.9,1.32-3.69,5.53,0,6.59,3.36.87,8.84,1.15,14.74,1.15,8.4,0,17.67-.58,22.94-.89,12.65-.79,25.03-1.84,37.68-2.63l3.16,1.05c-23.19,8.96-41.11,14.18-65.62,18.93-5.74,1.09-10.31,1.54-19.41,1.54-8.44,0-12.46-1.25-16.65-5.18-5.8-5.27-2.9-16.91.53-22.71,11.07-19.24,26.41-34.81,47.06-46.79,10.77-6.25,24.12-13.87,37.76-20.48,3.06-1.48,6.14-2.92,9.19-4.29,14.01-6.3,27.64-11.21,38.12-12.59,1.1-.15,2.16-.25,3.18-.32.33-.02.66-.04.98-.05.46-.02.91-.03,1.35-.03,1.36,0,2.64.09,3.83.27,15.18,2.31-1.35,18.13-10.59,25.98l-1,4.84-1.13,5.44c13.56-10.22,25.45-22.64,24.32-32.31-.27-3.16-2.38-7.64-5.27-9.22-2.13-1.25-5.01-1.81-8.48-1.81-1.78,0-3.72.15-5.79.43-10.47,1.41-24.27,6.2-38.18,12.1-3.08,1.3-6.16,2.66-9.21,4.05-14.33,6.53-28.04,13.72-37.53,19.06-3.64,2.04-6.66,3.81-8.86,5.17-13.17,8.17-15.61,10.92-26.68,21.72-8.17,7.91-14.28,17.13-19.82,27.14-3.95,6.85-7.43,18.34-2.16,25.98,5.1,7.36,12.35,10.18,25.03,10.18,33.17,0,72.95-14.37,90.3-22.57,4.48,6.59,3.69,15.02,1.32,22.14-7.38,7.64-27.4,27.66-30.57,36.89-.85,2.55.36,4.58,2.52,4.58.52,0,1.09-.11,1.7-.37,18.18-8.17,33.47-38.73,33.99-39,10.28-11.06,20.82-21.87,31.36-32.94,19.34-.91,43.39-1.03,63.51-3.59-14.72,16.82-14.2,33.48-2.43,33.48,7.87,0,20.75-7.44,37.47-27.25,6.72,0,13.3.43,19.81.43,4.57,0,9.11-.21,13.63-.93-2.82,4.59-4.63,8.48-4.98,11.3-.53,3.69,0,8.17,2.37,11.33,3.25,4.34,7.98,5.82,13.18,5.82,2.4,0,4.89-.31,7.38-.81,17.65-3.95,45.32-16.07,57.44-27.14.34-.34.61-.68.84-1.03,6.14,1.04,20.87,2.35,24.2,2.35l-18.19,21.34c-6.58,7.91-12.38,15.29-18.18,23.72-2.63,3.95-4.74,9.48,0,13.7.97.84,2.32,1.24,3.97,1.24,15.91,0,59.38-36.53,47.68-59.21,3.69,0,9.49.26,16.07.26,2.58.04,5.18.06,7.76.06,14.79,0,28.87-.71,34.93-2.96,1.59-.52,2.64-2.37,2.38-4.21ZM823.35,338.75c0-5.8-.52-11.34-3.68-16.34,3.42-1.06,6.85-2.9,10.01-4.74,5.01-.27,9.75-.53,14.76-.53-7.65,6.59-14.23,14.23-21.09,21.61ZM949.65,307.27c-.51.83-1,1.63-1.47,2.42-4.1-2.02-5.9-4.41-5.36-7.14.97-4.95,8.66-9.97,12.84-10.35.35,4.76-3.01,10.21-6.01,15.07ZM1058.72,370.09c-1.06.57-1.79.85-2.27.99.18-.62.58-1.56,1.34-2.71,6.85-10.39,29.11-35.69,36.78-43.99,6.27,14.13-19.35,36.79-35.85,45.71ZM799.9,282.09c.85,1.01,1.8,1.49,2.86,1.49.6,0,1.22-.15,1.88-.44,4.73-1.66,12.21-5.51,20.17-10.58h-15.3c-2.75,1.48-5.45,3.03-8.03,4.79-1.58,1.05-2.37,2.9-1.58,4.74Z" fill="#faf2d5"/>
    <g>
      <path d="M539.18,134.38c.2-1.18,1.22-2.04,2.41-2.04h30.96c1.52,0,2.67,1.37,2.41,2.87l-.07.42-23.95,130.55c0,.05-.02.1-.03.15l-.1.39c-.27,1.09-1.25,1.85-2.37,1.85h-30.93c-1.52,0-2.67-1.37-2.41-2.87l.07-.42,23.96-130.62.05-.28Z" fill="#faf2d5"/>
      <path d="M613.31,165.2c-.44,2.08,1.81,3.7,3.64,2.6,10.01-6,20.5-9,31.46-9,9.66,0,17.9,2.96,24.73,8.89,6.83,5.93,10.24,13.85,10.24,23.77,0,2.83-.26,5.54-.77,8.12-7.73,41.22-11.92,63.44-12.56,66.66l-.12.47c-.27,1.09-1.25,1.85-2.37,1.85h-31.09c-1.53,0-2.68-1.39-2.4-2.89l.04-.2,11.01-54.68c.77-3.86,1.16-6.5,1.16-7.92,0-4.12-.94-7.21-2.8-9.27-1.87-2.06-5.31-3.09-10.34-3.09-12.02,0-20.92,3.91-26.73,11.73-.21.29-.36.62-.43.97l-13.03,63.04-.05.28c-.2,1.18-1.22,2.04-2.41,2.04h-29.99c-1.52,0-2.67-1.37-2.41-2.87l.07-.42,18.74-101.83.05-.28c.2-1.18,1.22-2.04,2.41-2.04h31.76c1.51,0,2.66,1.36,2.41,2.84l-.11.63-.13.6Z" fill="#faf2d5"/>
      <path d="M758.34,268.56h27.54c1.12,0,2.09-.76,2.37-1.85l.1-.4c.01-.05.02-.09.03-.14l2.7-15.38c-11.51,5.67-22.94,11.96-32.74,17.77ZM796.52,203.36h-29.22c-1.19,0-2.21.86-2.41,2.04l-.05.28-8.12,46.16c9.61-5.28,23.23-12.37,37.48-18.75l4.65-26.45.08-.41c.26-1.5-.89-2.87-2.41-2.87ZM755.79,257.16l-1.43,8.11-.08.42c-.02.13-.04.27-.04.4,10.69-6.39,24.12-13.87,37.76-20.48l1.32-7.51c-14.33,6.53-28.04,13.72-37.53,19.06ZM806.35,144.67c-2.97-2.64-6.7-3.96-11.21-3.96-5.02,0-9.5,1.55-13.43,4.64-3.93,3.09-6.35,7.34-7.25,12.75-.25,1.55-.38,2.84-.38,3.87,0,4.51,1.48,8.08,4.44,10.72,2.96,2.64,6.7,3.96,11.21,3.96,5.02,0,9.5-1.54,13.43-4.64,3.93-3.09,6.34-7.34,7.25-12.75.25-1.54.38-2.83.38-3.86,0-4.51-1.48-8.09-4.44-10.73Z" fill="#faf2d5"/>
      <path d="M911.75,167.69c-6.83-5.92-15.07-8.88-24.73-8.88-10.97,0-21.46,2.99-31.47,8.99-1.82,1.1-4.08-.51-3.63-2.6l.12-.6.11-.63c.25-1.49-.9-2.85-2.41-2.85h-31.76c-1.2,0-2.21.87-2.41,2.05l-.05.27-12.08,65.65c13.85-5.75,27.6-10.34,38.18-11.51l2.97-14.38c.07-.35.22-.69.43-.97,5.81-7.82,14.72-11.74,26.73-11.74,5.03,0,8.47,1.04,10.34,3.1s2.8,5.15,2.8,9.27c0,1.42-.38,4.06-1.16,7.92l-11.01,54.69-.04.2c-.28,1.5.87,2.89,2.4,2.89h31.09c1.12,0,2.1-.76,2.37-1.85l.12-.47c.64-3.22,4.83-25.44,12.56-66.66.51-2.58.77-5.28.77-8.12,0-9.92-3.41-17.84-10.24-23.77ZM802.53,234.05l-1.34,7.27c14.01-6.3,27.64-11.21,38.12-12.59l1.4-6.78c-10.47,1.41-24.27,6.2-38.18,12.1Z" fill="#faf2d5"/>
      <g>
        <path d="M838.4,233.13l-3.91,18.92-1.35,6.56-1.58,7.63-.05.28c-.19,1.18-1.21,2.04-2.4,2.04h-30c-1.52,0-2.67-1.37-2.4-2.87l.07-.42,3.47-18.84c14.17-6.51,27.85-11.63,38.15-13.3Z" fill="#faf2d5"/>
        <path d="M842.49,228.41c.33-.02.66-.04.98-.05l.02-.11-1,.16Z" fill="#faf2d5"/>
        <path d="M834.49,252.05l-1.35,6.56-1.58,7.63-.05.28c-.19,1.18-1.21,2.04-2.4,2.04h-30c-1.52,0-2.67-1.37-2.4-2.87l.07-.42,3.47-18.84c14.17-6.51,27.85-11.63,38.15-13.3l-3.91,18.92Z" fill="#faf2d5"/>
      </g>
      <path d="M934.65,163.17c.2-1.18,1.22-2.04,2.41-2.04h29.22c1.52,0,2.67,1.37,2.41,2.87l-.07.42-18.92,101.76s-.02.1-.03.15l-.1.4c-.27,1.09-1.25,1.85-2.37,1.85h-29.19c-1.52,0-2.67-1.37-2.41-2.87l.07-.42,18.94-101.83.05-.28ZM937.89,139.1c.9-5.41,3.32-9.66,7.25-12.75,3.93-3.09,8.41-4.64,13.43-4.64,4.51,0,8.24,1.32,11.21,3.96,2.96,2.64,4.44,6.22,4.44,10.72,0,1.03-.13,2.32-.39,3.86-.9,5.41-3.32,9.66-7.25,12.75-3.93,3.09-8.41,4.64-13.43,4.64-4.51,0-8.25-1.32-11.21-3.96-2.96-2.64-4.44-6.21-4.44-10.72,0-1.03.13-2.32.39-3.86Z" fill="#faf2d5"/>
      <path d="M1047.93,247.15c-5.66,5.6-13.82,13.89-22.51,23.17,3.08-.5,6.08-1.24,8.97-2.24,1.18-.41,2.27-.8,3.28-1.17h.01c4.65-4.84,8.83-9.08,12.13-12.37l-1.88-7.39ZM1056.43,161.12h-22.5c-1.56,0-2.71-1.43-2.39-2.94l4.78-22.56.11-.64c.25-1.48-.9-2.84-2.41-2.84h-33.28c-1.12,0-2.09.76-2.37,1.85l-.11.47-5.2,24.72c-.24,1.13-1.23,1.94-2.39,1.94h-13.53c-1.2,0-2.21.87-2.41,2.05l-.05.27-4.63,25.9-.11.63c-.25,1.49.9,2.84,2.41,2.84h11.93c1.54,0,2.69,1.4,2.4,2.91l-3.88,19.89c-1.93,10.44-2.9,18.49-2.9,24.16,0,20.87,11.98,31.3,35.94,31.3,1.07,0,2.14-.03,3.19-.09,10.89-11.76,21.33-22.33,27.69-28.58l-1.51-5.92-.11-.5c-.4-1.75-2.47-2.49-3.89-1.39l-.29.23c-.1.08-.21.15-.33.21l-1.95,1.07c-1.42.9-3.54,1.77-6.38,2.61-2.83.83-5.73,1.25-8.69,1.25s-4.8-.58-5.89-1.74c-1.1-1.16-1.65-3.09-1.65-5.79,0-1.55.39-4.26,1.16-8.12.26-1.55,1.03-4.64,2.32-9.28l4.78-20.33c.26-1.11,1.24-1.89,2.37-1.89h25.18c1.19,0,2.21-.86,2.41-2.04l.04-.28,4.45-25.89.1-.63c.25-1.49-.9-2.85-2.41-2.85Z" fill="#faf2d5"/>
      <path d="M1160.51,239.81l-.44-.24-22.61-12.36-.65-.33c-.98-.49-2.17-.27-2.91.55l-.49.55c-6.7,7.99-15.07,11.98-25.12,11.98-6.06,0-11.02-1.29-14.88-3.86-2.86-1.91-4.87-4.34-6.04-7.31-.63-1.59.57-3.32,2.28-3.32h34.29c14.55,0,26.08-3.45,34.59-10.34,8.5-6.89,12.75-14.91,12.75-24.06,0-10.3-4.35-18.26-13.04-23.86-8.7-5.6-19.68-8.4-32.95-8.4-17.91,0-33.72,5.21-47.44,15.65-13.72,10.43-22.06,23.76-25.02,40-.65,4.25-.97,7.85-.97,10.82,0,3.89.39,7.57,1.16,11.03,12.96-12.44,26.4-25.07,41.46-35.44h.03s.03-.03.03-.03c.95-.64,2.56-1.71,4.64-1.71,1.77,0,3.42.75,4.9,2.24,2.72,2.72,2.85,6.67.31,9.84l-.11.14-.12.12c-2.99,3.17-6.75,6.04-10.37,8.83-2.53,1.94-4.92,3.77-7,5.64l-.05.04-.05.04c-9.84,8.33-19.19,17.17-27.24,24.96,1.86,2.64,4.07,5.09,6.62,7.34,9.46,8.37,21.93,12.56,37.39,12.56,11.46,0,22.28-2.42,32.46-7.25,10.17-4.83,18.55-11.43,25.12-19.8l.31-.44c.86-1.2.47-2.89-.84-3.58ZM1103.57,198.03c-2.58,0-3.4-3.52-1.07-4.64,5.08-2.44,10.87-3.67,17.38-3.67,3.99,0,7.21.26,9.66.77,2.45.52,3.99,1,4.64,1.45.64.46.97.81.97,1.07,0,.51-.55,1.16-1.65,1.93-1.09.77-2.93,1.48-5.5,2.12-2.58.65-5.54.97-8.89.97h-15.54ZM1101.1,204.35c-.72-.71-1.33-.99-1.92-.99-.73,0-1.43.41-2.3.99-15.42,10.62-29.15,23.66-42.56,36.57.76,2.24,1.71,4.37,2.84,6.41,8.76-8.48,17.57-16.72,26.81-24.53,5.27-4.74,12.38-9.22,17.13-14.23,1.05-1.32,1.31-2.9,0-4.22Z" fill="#faf2d5"/>
    </g>
    <path d="M702.5,159.37c1.56-6.05,3.3-11.36,5.24-15.93,2.13-5.02,5.05-9.88,8.79-14.59,3.73-4.7,8.6-8.28,14.59-10.72,5.99-2.45,12.98-3.67,20.97-3.67,6.54,0,14.48,2.05,21.97,8.99l.73.73c1,.86,1.13,2.94.79,3.92l-.09.27-5.99,26.09-.31.4c-.87,1.13-2.53,1.28-3.59.31l-.36-.33c-7.22-6.31-9.5-9.47-15.29-9.47s-10.03,4.26-12.4,12.77c-.43,1.55.75,3.08,2.36,3.08h25.32c1.51,0,2.66,1.36,2.41,2.84l-.11.63-4.64,25.89-.05.28c-.2,1.18-1.22,2.04-2.41,2.04h-27.43c-1.16,0-2.16.82-2.39,1.96l-1.92,9.45-7.34,36.91-1.55,9.08-3.28,15.84c-1.55,6.7-3.38,12.53-5.51,17.49-2.13,4.96-5.06,9.82-8.79,14.59-3.74,4.76-8.66,8.41-14.78,10.92-6.12,2.51-13.3,3.77-21.54,3.77-11.59,0-21.26-4.57-28.98-13.72l-.19-.19-.21-.29c-.47-.66-.58-1.52-.3-2.28l.12-.33,8.12-19.9.26-.59c.65-1.46,2.51-1.91,3.76-.92l.43.34c6.06,4.64,12.5,6.96,19.32,6.96,3.99,0,6.99-1.55,8.99-4.64,2-3.09,3.57-7.54,4.73-13.33l3.09-15.46,1.55-8.89,7.34-36.52,1.52-7.3c.31-1.52,6.79-35.39,7.06-36.48Z" fill="#faf2d5"/>
  </g>
</svg>