<?xml version="1.0" encoding="UTF-8"?>
<svg id="Layer_1" data-name="Layer 1" xmlns="http://www.w3.org/2000/svg" viewBox="0 0 501.37 504.29">
  <g>
    <g>
      <path d="M101.88,450.85c-.38,0-1.55,0-4.01-1.67-13.18-8.93-20.58-15.54-31.26-26.13-2.36-2.34-3.07-5.86-1.81-8.96.28-.7.65-1.34,1.1-1.92,5.76-7.48,4.69-18.15-2.46-24.32-1.66-1.44-3.22-3.11-4.62-4.96-5.46-7.23-8.46-16.84-8.46-27.06s3.01-19.83,8.47-27.06c1.79-2.37,3.82-4.42,6.03-6.1,4.7-3.57,7.32-9.23,7-15.12s-3.53-11.24-8.58-14.28c-3.52-2.12-6.67-5.02-9.37-8.61-6-7.99-9.31-18.61-9.31-29.91s3.31-21.92,9.31-29.91c2.46-3.28,5.31-5.99,8.47-8.05,4.74-3.09,7.73-8.26,8.04-13.91.31-5.65-2.08-11.12-6.45-14.72-1.87-1.54-3.6-3.35-5.14-5.4-5.46-7.23-8.47-16.84-8.47-27.06s3.01-19.83,8.47-27.06c1.67-2.21,3.55-4.14,5.59-5.76,4.16-3.29,6.63-8.26,6.75-13.56s-2.14-10.38-6.15-13.84c-.45-.39-.72-.91-.81-1.5-.1-.72.11-1.41.6-1.94,12.56-13.77,26.73-26.08,42.11-36.57.42-.28.86-.42,1.35-.42,1.3,0,2.4,1.09,2.4,2.39,0,11.3-3.31,21.92-9.31,29.91-2.08,2.77-4.45,5.14-7.04,7.05-4.48,3.31-7.15,8.52-7.23,14.08s2.47,10.85,6.86,14.27c2.11,1.64,4.04,3.62,5.76,5.89,5.46,7.23,8.47,16.84,8.47,27.06s-3.01,19.83-8.47,27.06c-2.01,2.66-4.32,4.92-6.85,6.7-4.63,3.26-7.43,8.53-7.54,14.19s2.47,11.04,6.96,14.48c2.42,1.85,4.63,4.11,6.59,6.71,6,7.99,9.31,18.61,9.31,29.91s-3.31,21.92-9.31,29.91c-2.2,2.93-4.73,5.42-7.5,7.38-4.81,3.41-7.61,8.99-7.49,14.88.12,5.9,3.16,11.35,8.11,14.55,2.88,1.87,5.48,4.32,7.72,7.29,5.46,7.23,8.47,16.84,8.47,27.06s-3.01,19.83-8.47,27.06c-1.76,2.33-3.75,4.35-5.92,6.02-4.23,3.25-6.78,8.23-6.95,13.56-.17,5.33,2.07,10.46,6.1,13.96,7.53,6.56,11.68,16.78,11.68,28.79,0,.67,0,2.46-.45,3.75-.43,1.24-1.19,1.86-2.28,1.86h0Z" fill="#faf2d5"/>
      <path d="M101.88,450.85c-.38,0-1.55,0-4.01-1.67-13.18-8.93-20.58-15.54-31.26-26.13-2.36-2.34-3.07-5.86-1.81-8.96.28-.7.65-1.34,1.1-1.92,5.76-7.48,4.69-18.15-2.46-24.32-1.66-1.44-3.22-3.11-4.62-4.96-5.46-7.23-8.46-16.84-8.46-27.06s3.01-19.83,8.47-27.06c1.79-2.37,3.82-4.42,6.03-6.1,4.7-3.57,7.32-9.23,7-15.12s-3.53-11.24-8.58-14.28c-3.52-2.12-6.67-5.02-9.37-8.61-6-7.99-9.31-18.61-9.31-29.91s3.31-21.92,9.31-29.91c2.46-3.28,5.31-5.99,8.47-8.05,4.74-3.09,7.73-8.26,8.04-13.91.31-5.65-2.08-11.12-6.45-14.72-1.87-1.54-3.6-3.35-5.14-5.4-5.46-7.23-8.47-16.84-8.47-27.06s3.01-19.83,8.47-27.06c1.67-2.21,3.55-4.14,5.59-5.76,4.16-3.29,6.63-8.26,6.75-13.56s-2.14-10.38-6.15-13.84c-.45-.39-.72-.91-.81-1.5-.1-.72.11-1.41.6-1.94,12.56-13.77,26.73-26.08,42.11-36.57.42-.28.86-.42,1.35-.42,1.3,0,2.4,1.09,2.4,2.39,0,11.3-3.31,21.92-9.31,29.91-2.08,2.77-4.45,5.14-7.04,7.05-4.48,3.31-7.15,8.52-7.23,14.08s2.47,10.85,6.86,14.27c2.11,1.64,4.04,3.62,5.76,5.89,5.46,7.23,8.47,16.84,8.47,27.06s-3.01,19.83-8.47,27.06c-2.01,2.66-4.32,4.92-6.85,6.7-4.63,3.26-7.43,8.53-7.54,14.19s2.47,11.04,6.96,14.48c2.42,1.85,4.63,4.11,6.59,6.71,6,7.99,9.31,18.61,9.31,29.91s-3.31,21.92-9.31,29.91c-2.2,2.93-4.73,5.42-7.5,7.38-4.81,3.41-7.61,8.99-7.49,14.88.12,5.9,3.16,11.35,8.11,14.55,2.88,1.87,5.48,4.32,7.72,7.29,5.46,7.23,8.47,16.84,8.47,27.06s-3.01,19.83-8.47,27.06c-1.76,2.33-3.75,4.35-5.92,6.02-4.23,3.25-6.78,8.23-6.95,13.56-.17,5.33,2.07,10.46,6.1,13.96,7.53,6.56,11.68,16.78,11.68,28.79,0,.67,0,2.46-.45,3.75-.43,1.24-1.19,1.86-2.28,1.86h0Z" fill="#faf2d5"/>
    </g>
    <g>
      <path d="M101.88,450.85c-.38,0-1.55,0-4.01-1.67-13.18-8.93-20.58-15.54-31.26-26.13-2.36-2.34-3.07-5.86-1.81-8.96.28-.7.65-1.34,1.1-1.92,5.76-7.48,4.69-18.15-2.46-24.32-1.66-1.44-3.22-3.11-4.62-4.96-5.46-7.23-8.46-16.84-8.46-27.06s3.01-19.83,8.47-27.06c1.79-2.37,3.82-4.42,6.03-6.1,4.7-3.57,7.32-9.23,7-15.12s-3.53-11.24-8.58-14.28c-3.52-2.12-6.67-5.02-9.37-8.61-6-7.99-9.31-18.61-9.31-29.91s3.31-21.92,9.31-29.91c2.46-3.28,5.31-5.99,8.47-8.05,4.74-3.09,7.73-8.26,8.04-13.91.31-5.65-2.08-11.12-6.45-14.72-1.87-1.54-3.6-3.35-5.14-5.4-5.46-7.23-8.47-16.84-8.47-27.06s3.01-19.83,8.47-27.06c1.67-2.21,3.55-4.14,5.59-5.76,4.16-3.29,6.63-8.26,6.75-13.56s-2.14-10.38-6.15-13.84c-.45-.39-.72-.91-.81-1.5-.1-.72.11-1.41.6-1.94,12.56-13.77,26.73-26.08,42.11-36.57.42-.28.86-.42,1.35-.42,1.3,0,2.4,1.09,2.4,2.39,0,11.3-3.31,21.92-9.31,29.91-2.08,2.77-4.45,5.14-7.04,7.05-4.48,3.31-7.15,8.52-7.23,14.08s2.47,10.85,6.86,14.27c2.11,1.64,4.04,3.62,5.76,5.89,5.46,7.23,8.47,16.84,8.47,27.06s-3.01,19.83-8.47,27.06c-2.01,2.66-4.32,4.92-6.85,6.7-4.63,3.26-7.43,8.53-7.54,14.19s2.47,11.04,6.96,14.48c2.42,1.85,4.63,4.11,6.59,6.71,6,7.99,9.31,18.61,9.31,29.91s-3.31,21.92-9.31,29.91c-2.2,2.93-4.73,5.42-7.5,7.38-4.81,3.41-7.61,8.99-7.49,14.88.12,5.9,3.16,11.35,8.11,14.55,2.88,1.87,5.48,4.32,7.72,7.29,5.46,7.23,8.47,16.84,8.47,27.06s-3.01,19.83-8.47,27.06c-1.76,2.33-3.75,4.35-5.92,6.02-4.23,3.25-6.78,8.23-6.95,13.56-.17,5.33,2.07,10.46,6.1,13.96,7.53,6.56,11.68,16.78,11.68,28.79,0,.67,0,2.46-.45,3.75-.43,1.24-1.19,1.86-2.28,1.86h0Z" fill="none" stroke="#16300f" stroke-miterlimit="10" stroke-width=".29"/>
      <path d="M101.88,450.85c-.38,0-1.55,0-4.01-1.67-13.18-8.93-20.58-15.54-31.26-26.13-2.36-2.34-3.07-5.86-1.81-8.96.28-.7.65-1.34,1.1-1.92,5.76-7.48,4.69-18.15-2.46-24.32-1.66-1.44-3.22-3.11-4.62-4.96-5.46-7.23-8.46-16.84-8.46-27.06s3.01-19.83,8.47-27.06c1.79-2.37,3.82-4.42,6.03-6.1,4.7-3.57,7.32-9.23,7-15.12s-3.53-11.24-8.58-14.28c-3.52-2.12-6.67-5.02-9.37-8.61-6-7.99-9.31-18.61-9.31-29.91s3.31-21.92,9.31-29.91c2.46-3.28,5.31-5.99,8.47-8.05,4.74-3.09,7.73-8.26,8.04-13.91.31-5.65-2.08-11.12-6.45-14.72-1.87-1.54-3.6-3.35-5.14-5.4-5.46-7.23-8.47-16.84-8.47-27.06s3.01-19.83,8.47-27.06c1.67-2.21,3.55-4.14,5.59-5.76,4.16-3.29,6.63-8.26,6.75-13.56s-2.14-10.38-6.15-13.84c-.45-.39-.72-.91-.81-1.5-.1-.72.11-1.41.6-1.94,12.56-13.77,26.73-26.08,42.11-36.57.42-.28.86-.42,1.35-.42,1.3,0,2.4,1.09,2.4,2.39,0,11.3-3.31,21.92-9.31,29.91-2.08,2.77-4.45,5.14-7.04,7.05-4.48,3.31-7.15,8.52-7.23,14.08s2.47,10.85,6.86,14.27c2.11,1.64,4.04,3.62,5.76,5.89,5.46,7.23,8.47,16.84,8.47,27.06s-3.01,19.83-8.47,27.06c-2.01,2.66-4.32,4.92-6.85,6.7-4.63,3.26-7.43,8.53-7.54,14.19s2.47,11.04,6.96,14.48c2.42,1.85,4.63,4.11,6.59,6.71,6,7.99,9.31,18.61,9.31,29.91s-3.31,21.92-9.31,29.91c-2.2,2.93-4.73,5.42-7.5,7.38-4.81,3.41-7.61,8.99-7.49,14.88.12,5.9,3.16,11.35,8.11,14.55,2.88,1.87,5.48,4.32,7.72,7.29,5.46,7.23,8.47,16.84,8.47,27.06s-3.01,19.83-8.47,27.06c-1.76,2.33-3.75,4.35-5.92,6.02-4.23,3.25-6.78,8.23-6.95,13.56-.17,5.33,2.07,10.46,6.1,13.96,7.53,6.56,11.68,16.78,11.68,28.79,0,.67,0,2.46-.45,3.75-.43,1.24-1.19,1.86-2.28,1.86h0Z" fill="none" stroke="#16300f" stroke-miterlimit="10" stroke-width=".29"/>
    </g>
  </g>
  <g>
    <g>
      <path d="M187.38,482.87c-.35,0-.71-.04-1.06-.11-16.08-3.43-31.86-8.57-46.89-15.25-1.78-.79-2.92-2.57-2.88-4.52.03-1.58.81-3.06,2.1-3.96,3.75-2.61,5.91-6.95,5.72-11.51s-2.7-8.71-6.66-11c-12.23-7.07-19.83-20.6-19.83-35.32,0-13.43,6.32-25.93,16.9-33.43,3.77-2.67,5.89-7.11,5.6-11.72s-2.95-8.75-7.02-10.93c-13.55-7.25-21.97-21.75-21.97-37.83s8.33-30.42,21.74-37.71c4.29-2.34,6.97-6.83,6.97-11.72,0-4.89-2.67-9.38-6.97-11.72-13.41-7.29-21.74-21.74-21.74-37.71s9.27-31.85,23.61-38.66c4.39-2.09,7.3-6.39,7.59-11.24.29-4.85-2.07-9.48-6.18-12.08-11.43-7.24-18.53-20.47-18.53-34.53s6.73-26.79,18.01-34.2c4.03-2.65,6.32-7.26,5.99-12.06-.33-4.81-3.23-9.06-7.58-11.13-1.48-.71-2.94-1.5-4.33-2.38l.09.06c-.06-.04-.15-.1-.22-.14l.06.04c-1.41-.88-2.22-2.47-2.12-4.14.1-1.72,1.13-3.26,2.69-4,17.87-8.53,36.78-14.81,56.21-18.67.31-.06.62-.09.92-.09,1.52,0,2.96.77,3.84,2.05.86,1.25,1.04,2.83.5,4.23-.97,2.52-2.2,4.97-3.66,7.29-3.76,5.99-8.94,10.97-15,14.4-4.19,2.37-6.78,6.81-6.77,11.62s2.6,9.25,6.79,11.61c12.44,7.01,20.17,20.62,20.17,35.51s-8.57,29.78-21.82,36.39c-4.35,2.17-7.17,6.53-7.38,11.38-.2,4.85,2.25,9.44,6.4,11.96,12.42,7.54,20.13,21.64,20.13,36.78,0,15.97-8.33,30.42-21.74,37.71-4.29,2.33-6.97,6.83-6.97,11.72s2.67,9.38,6.97,11.72c13.41,7.29,21.74,21.75,21.74,37.71,0,14.52-6.91,27.88-18.47,35.72-3.82,2.59-6.04,6.98-5.84,11.6s2.76,8.81,6.79,11.07c12.46,7.01,20.2,20.62,20.2,35.52s-7.54,28.14-19.67,35.23c-4.23,2.47-6.76,7.05-6.61,11.94.16,4.89,2.98,9.3,7.35,11.5,6.94,3.48,12.81,8.87,16.97,15.59.92,1.48.96,3.34.11,4.86-.88,1.57-2.51,2.55-4.26,2.55Z" fill="#faf2d5"/>
      <path d="M187.38,482.87c-.35,0-.71-.04-1.06-.11-16.08-3.43-31.86-8.57-46.89-15.25-1.78-.79-2.92-2.57-2.88-4.52.03-1.58.81-3.06,2.1-3.96,3.75-2.61,5.91-6.95,5.72-11.51s-2.7-8.71-6.66-11c-12.23-7.07-19.83-20.6-19.83-35.32,0-13.43,6.32-25.93,16.9-33.43,3.77-2.67,5.89-7.11,5.6-11.72s-2.95-8.75-7.02-10.93c-13.55-7.25-21.97-21.75-21.97-37.83s8.33-30.42,21.74-37.71c4.29-2.34,6.97-6.83,6.97-11.72,0-4.89-2.67-9.38-6.97-11.72-13.41-7.29-21.74-21.74-21.74-37.71s9.27-31.85,23.61-38.66c4.39-2.09,7.3-6.39,7.59-11.24.29-4.85-2.07-9.48-6.18-12.08-11.43-7.24-18.53-20.47-18.53-34.53s6.73-26.79,18.01-34.2c4.03-2.65,6.32-7.26,5.99-12.06-.33-4.81-3.23-9.06-7.58-11.13-1.48-.71-2.94-1.5-4.33-2.38l.09.06c-.06-.04-.15-.1-.22-.14l.06.04c-1.41-.88-2.22-2.47-2.12-4.14.1-1.72,1.13-3.26,2.69-4,17.87-8.53,36.78-14.81,56.21-18.67.31-.06.62-.09.92-.09,1.52,0,2.96.77,3.84,2.05.86,1.25,1.04,2.83.5,4.23-.97,2.52-2.2,4.97-3.66,7.29-3.76,5.99-8.94,10.97-15,14.4-4.19,2.37-6.78,6.81-6.77,11.62s2.6,9.25,6.79,11.61c12.44,7.01,20.17,20.62,20.17,35.51s-8.57,29.78-21.82,36.39c-4.35,2.17-7.17,6.53-7.38,11.38-.2,4.85,2.25,9.44,6.4,11.96,12.42,7.54,20.13,21.64,20.13,36.78,0,15.97-8.33,30.42-21.74,37.71-4.29,2.33-6.97,6.83-6.97,11.72s2.67,9.38,6.97,11.72c13.41,7.29,21.74,21.75,21.74,37.71,0,14.52-6.91,27.88-18.47,35.72-3.82,2.59-6.04,6.98-5.84,11.6s2.76,8.81,6.79,11.07c12.46,7.01,20.2,20.62,20.2,35.52s-7.54,28.14-19.67,35.23c-4.23,2.47-6.76,7.05-6.61,11.94.16,4.89,2.98,9.3,7.35,11.5,6.94,3.48,12.81,8.87,16.97,15.59.92,1.48.96,3.34.11,4.86-.88,1.57-2.51,2.55-4.26,2.55Z" fill="#faf2d5"/>
    </g>
    <g>
      <path d="M187.38,482.87c-.35,0-.71-.04-1.06-.11-16.08-3.43-31.86-8.57-46.89-15.25-1.78-.79-2.92-2.57-2.88-4.52.03-1.58.81-3.06,2.1-3.96,3.75-2.61,5.91-6.95,5.72-11.51s-2.7-8.71-6.66-11c-12.23-7.07-19.83-20.6-19.83-35.32,0-13.43,6.32-25.93,16.9-33.43,3.77-2.67,5.89-7.11,5.6-11.72s-2.95-8.75-7.02-10.93c-13.55-7.25-21.97-21.75-21.97-37.83s8.33-30.42,21.74-37.71c4.29-2.34,6.97-6.83,6.97-11.72,0-4.89-2.67-9.38-6.97-11.72-13.41-7.29-21.74-21.74-21.74-37.71s9.27-31.85,23.61-38.66c4.39-2.09,7.3-6.39,7.59-11.24.29-4.85-2.07-9.48-6.18-12.08-11.43-7.24-18.53-20.47-18.53-34.53s6.73-26.79,18.01-34.2c4.03-2.65,6.32-7.26,5.99-12.06-.33-4.81-3.23-9.06-7.58-11.13-1.48-.71-2.94-1.5-4.33-2.38l.09.06c-.06-.04-.15-.1-.22-.14l.06.04c-1.41-.88-2.22-2.47-2.12-4.14.1-1.72,1.13-3.26,2.69-4,17.87-8.53,36.78-14.81,56.21-18.67.31-.06.62-.09.92-.09,1.52,0,2.96.77,3.84,2.05.86,1.25,1.04,2.83.5,4.23-.97,2.52-2.2,4.97-3.66,7.29-3.76,5.99-8.94,10.97-15,14.4-4.19,2.37-6.78,6.81-6.77,11.62s2.6,9.25,6.79,11.61c12.44,7.01,20.17,20.62,20.17,35.51s-8.57,29.78-21.82,36.39c-4.35,2.17-7.17,6.53-7.38,11.38-.2,4.85,2.25,9.44,6.4,11.96,12.42,7.54,20.13,21.64,20.13,36.78,0,15.97-8.33,30.42-21.74,37.71-4.29,2.33-6.97,6.83-6.97,11.72s2.67,9.38,6.97,11.72c13.41,7.29,21.74,21.75,21.74,37.71,0,14.52-6.91,27.88-18.47,35.72-3.82,2.59-6.04,6.98-5.84,11.6s2.76,8.81,6.79,11.07c12.46,7.01,20.2,20.62,20.2,35.52s-7.54,28.14-19.67,35.23c-4.23,2.47-6.76,7.05-6.61,11.94.16,4.89,2.98,9.3,7.35,11.5,6.94,3.48,12.81,8.87,16.97,15.59.92,1.48.96,3.34.11,4.86-.88,1.57-2.51,2.55-4.26,2.55Z" fill="none" stroke="#16300f" stroke-miterlimit="10" stroke-width=".29"/>
      <path d="M187.38,482.87c-.35,0-.71-.04-1.06-.11-16.08-3.43-31.86-8.57-46.89-15.25-1.78-.79-2.92-2.57-2.88-4.52.03-1.58.81-3.06,2.1-3.96,3.75-2.61,5.91-6.95,5.72-11.51s-2.7-8.71-6.66-11c-12.23-7.07-19.83-20.6-19.83-35.32,0-13.43,6.32-25.93,16.9-33.43,3.77-2.67,5.89-7.11,5.6-11.72s-2.95-8.75-7.02-10.93c-13.55-7.25-21.97-21.75-21.97-37.83s8.33-30.42,21.74-37.71c4.29-2.34,6.97-6.83,6.97-11.72,0-4.89-2.67-9.38-6.97-11.72-13.41-7.29-21.74-21.74-21.74-37.71s9.27-31.85,23.61-38.66c4.39-2.09,7.3-6.39,7.59-11.24.29-4.85-2.07-9.48-6.18-12.08-11.43-7.24-18.53-20.47-18.53-34.53s6.73-26.79,18.01-34.2c4.03-2.65,6.32-7.26,5.99-12.06-.33-4.81-3.23-9.06-7.58-11.13-1.48-.71-2.94-1.5-4.33-2.38l.09.06c-.06-.04-.15-.1-.22-.14l.06.04c-1.41-.88-2.22-2.47-2.12-4.14.1-1.72,1.13-3.26,2.69-4,17.87-8.53,36.78-14.81,56.21-18.67.31-.06.62-.09.92-.09,1.52,0,2.96.77,3.84,2.05.86,1.25,1.04,2.83.5,4.23-.97,2.52-2.2,4.97-3.66,7.29-3.76,5.99-8.94,10.97-15,14.4-4.19,2.37-6.78,6.81-6.77,11.62s2.6,9.25,6.79,11.61c12.44,7.01,20.17,20.62,20.17,35.51s-8.57,29.78-21.82,36.39c-4.35,2.17-7.17,6.53-7.38,11.38-.2,4.85,2.25,9.44,6.4,11.96,12.42,7.54,20.13,21.64,20.13,36.78,0,15.97-8.33,30.42-21.74,37.71-4.29,2.33-6.97,6.83-6.97,11.72s2.67,9.38,6.97,11.72c13.41,7.29,21.74,21.75,21.74,37.71,0,14.52-6.91,27.88-18.47,35.72-3.82,2.59-6.04,6.98-5.84,11.6s2.76,8.81,6.79,11.07c12.46,7.01,20.2,20.62,20.2,35.52s-7.54,28.14-19.67,35.23c-4.23,2.47-6.76,7.05-6.61,11.94.16,4.89,2.98,9.3,7.35,11.5,6.94,3.48,12.81,8.87,16.97,15.59.92,1.48.96,3.34.11,4.86-.88,1.57-2.51,2.55-4.26,2.55Z" fill="none" stroke="#16300f" stroke-miterlimit="10" stroke-width=".29"/>
    </g>
  </g>
  <g>
    <g>
      <path d="M248.82,504.14c-24.52,0-44.48-19.06-44.48-42.5,0-16.66,10.29-31.87,26.23-38.75,4.28-1.85,7.04-6.09,6.99-10.75-.04-4.66-2.88-8.85-7.2-10.62-17.35-7.11-28.55-23.32-28.55-41.31,0-17.05,10.4-32.91,26.5-40.41,4.17-1.94,6.79-6.16,6.7-10.76-.1-4.6-2.91-8.7-7.16-10.46-19.42-8.04-31.97-26.27-31.97-46.44s12.55-38.4,31.97-46.44c4.25-1.76,7.06-5.86,7.16-10.46.1-4.6-2.53-8.82-6.7-10.76-16.1-7.5-26.5-23.36-26.5-40.41,0-17.98,11.21-34.2,28.55-41.31,4.32-1.77,7.15-5.95,7.2-10.62.04-4.67-2.71-8.9-6.99-10.75-15.93-6.88-26.22-22.1-26.22-38.75C204.34,19.21,224.29.14,248.82.14s44.48,19.06,44.48,42.5c0,16.65-10.29,31.87-26.23,38.75-4.28,1.85-7.04,6.09-6.99,10.75.04,4.67,2.88,8.85,7.2,10.62,17.35,7.11,28.55,23.32,28.55,41.31,0,17.05-10.4,32.91-26.5,40.41-4.17,1.94-6.8,6.16-6.7,10.76.1,4.6,2.91,8.7,7.16,10.46,19.42,8.04,31.97,26.27,31.97,46.44s-12.55,38.4-31.97,46.44c-4.25,1.76-7.06,5.86-7.16,10.46s2.53,8.82,6.7,10.76c16.1,7.5,26.5,23.36,26.5,40.41,0,17.98-11.21,34.2-28.55,41.31-4.32,1.77-7.15,5.95-7.2,10.62-.04,4.66,2.71,8.9,6.99,10.75,15.93,6.89,26.23,22.1,26.23,38.75,0,23.43-19.95,42.5-44.48,42.5Z" fill="#faf2d5"/>
      <path d="M248.82,504.14c-24.52,0-44.48-19.06-44.48-42.5,0-16.66,10.29-31.87,26.23-38.75,4.28-1.85,7.04-6.09,6.99-10.75-.04-4.66-2.88-8.85-7.2-10.62-17.35-7.11-28.55-23.32-28.55-41.31,0-17.05,10.4-32.91,26.5-40.41,4.17-1.94,6.79-6.16,6.7-10.76-.1-4.6-2.91-8.7-7.16-10.46-19.42-8.04-31.97-26.27-31.97-46.44s12.55-38.4,31.97-46.44c4.25-1.76,7.06-5.86,7.16-10.46.1-4.6-2.53-8.82-6.7-10.76-16.1-7.5-26.5-23.36-26.5-40.41,0-17.98,11.21-34.2,28.55-41.31,4.32-1.77,7.15-5.95,7.2-10.62.04-4.67-2.71-8.9-6.99-10.75-15.93-6.88-26.22-22.1-26.22-38.75C204.34,19.21,224.29.14,248.82.14s44.48,19.06,44.48,42.5c0,16.65-10.29,31.87-26.23,38.75-4.28,1.85-7.04,6.09-6.99,10.75.04,4.67,2.88,8.85,7.2,10.62,17.35,7.11,28.55,23.32,28.55,41.31,0,17.05-10.4,32.91-26.5,40.41-4.17,1.94-6.8,6.16-6.7,10.76.1,4.6,2.91,8.7,7.16,10.46,19.42,8.04,31.97,26.27,31.97,46.44s-12.55,38.4-31.97,46.44c-4.25,1.76-7.06,5.86-7.16,10.46s2.53,8.82,6.7,10.76c16.1,7.5,26.5,23.36,26.5,40.41,0,17.98-11.21,34.2-28.55,41.31-4.32,1.77-7.15,5.95-7.2,10.62-.04,4.66,2.71,8.9,6.99,10.75,15.93,6.89,26.23,22.1,26.23,38.75,0,23.43-19.95,42.5-44.48,42.5Z" fill="#faf2d5"/>
    </g>
    <g>
      <path d="M248.82,504.14c-24.52,0-44.48-19.06-44.48-42.5,0-16.66,10.29-31.87,26.23-38.75,4.28-1.85,7.04-6.09,6.99-10.75-.04-4.66-2.88-8.85-7.2-10.62-17.35-7.11-28.55-23.32-28.55-41.31,0-17.05,10.4-32.91,26.5-40.41,4.17-1.94,6.79-6.16,6.7-10.76-.1-4.6-2.91-8.7-7.16-10.46-19.42-8.04-31.97-26.27-31.97-46.44s12.55-38.4,31.97-46.44c4.25-1.76,7.06-5.86,7.16-10.46.1-4.6-2.53-8.82-6.7-10.76-16.1-7.5-26.5-23.36-26.5-40.41,0-17.98,11.21-34.2,28.55-41.31,4.32-1.77,7.15-5.95,7.2-10.62.04-4.67-2.71-8.9-6.99-10.75-15.93-6.88-26.22-22.1-26.22-38.75C204.34,19.21,224.29.14,248.82.14s44.48,19.06,44.48,42.5c0,16.65-10.29,31.87-26.23,38.75-4.28,1.85-7.04,6.09-6.99,10.75.04,4.67,2.88,8.85,7.2,10.62,17.35,7.11,28.55,23.32,28.55,41.31,0,17.05-10.4,32.91-26.5,40.41-4.17,1.94-6.8,6.16-6.7,10.76.1,4.6,2.91,8.7,7.16,10.46,19.42,8.04,31.97,26.27,31.97,46.44s-12.55,38.4-31.97,46.44c-4.25,1.76-7.06,5.86-7.16,10.46s2.53,8.82,6.7,10.76c16.1,7.5,26.5,23.36,26.5,40.41,0,17.98-11.21,34.2-28.55,41.31-4.32,1.77-7.15,5.95-7.2,10.62-.04,4.66,2.71,8.9,6.99,10.75,15.93,6.89,26.23,22.1,26.23,38.75,0,23.43-19.95,42.5-44.48,42.5Z" fill="none" stroke="#16300f" stroke-miterlimit="10" stroke-width=".29"/>
      <path d="M248.82,504.14c-24.52,0-44.48-19.06-44.48-42.5,0-16.66,10.29-31.87,26.23-38.75,4.28-1.85,7.04-6.09,6.99-10.75-.04-4.66-2.88-8.85-7.2-10.62-17.35-7.11-28.55-23.32-28.55-41.31,0-17.05,10.4-32.91,26.5-40.41,4.17-1.94,6.79-6.16,6.7-10.76-.1-4.6-2.91-8.7-7.16-10.46-19.42-8.04-31.97-26.27-31.97-46.44s12.55-38.4,31.97-46.44c4.25-1.76,7.06-5.86,7.16-10.46.1-4.6-2.53-8.82-6.7-10.76-16.1-7.5-26.5-23.36-26.5-40.41,0-17.98,11.21-34.2,28.55-41.31,4.32-1.77,7.15-5.95,7.2-10.62.04-4.67-2.71-8.9-6.99-10.75-15.93-6.88-26.22-22.1-26.22-38.75C204.34,19.21,224.29.14,248.82.14s44.48,19.06,44.48,42.5c0,16.65-10.29,31.87-26.23,38.75-4.28,1.85-7.04,6.09-6.99,10.75.04,4.67,2.88,8.85,7.2,10.62,17.35,7.11,28.55,23.32,28.55,41.31,0,17.05-10.4,32.91-26.5,40.41-4.17,1.94-6.8,6.16-6.7,10.76.1,4.6,2.91,8.7,7.16,10.46,19.42,8.04,31.97,26.27,31.97,46.44s-12.55,38.4-31.97,46.44c-4.25,1.76-7.06,5.86-7.16,10.46s2.53,8.82,6.7,10.76c16.1,7.5,26.5,23.36,26.5,40.41,0,17.98-11.21,34.2-28.55,41.31-4.32,1.77-7.15,5.95-7.2,10.62-.04,4.66,2.71,8.9,6.99,10.75,15.93,6.89,26.23,22.1,26.23,38.75,0,23.43-19.95,42.5-44.48,42.5Z" fill="none" stroke="#16300f" stroke-miterlimit="10" stroke-width=".29"/>
    </g>
  </g>
  <g>
    <g>
      <path d="M44.42,400.52c-1.94,0-3.29-1.36-3.92-2.17-7.41-9.48-13.94-19.89-19.41-30.95-.79-1.59-.96-3.42-.47-4.88,2.75-8.11.59-17.08-5.54-23.06-.85-.83-1.53-1.96-2.02-3.35-6.71-19.2-10.93-39.26-12.56-59.64-.12-1.44.71-2.72,1.42-3.54.51-.58,1.2-1.2,2.01-1.79,5.77-4.2,9.18-10.92,9.15-18.06s-3.48-13.83-9.28-17.99c-.84-.61-1.55-1.22-2.09-1.83-.76-.85-1.65-2.18-1.56-3.68,1.21-20.6,5.06-40.93,11.46-60.43.6-1.83,1.52-3.15,2.72-3.93,7.5-4.82,11.4-13.66,9.91-22.45-.22-1.29,0-2.74.62-3.98,5.51-11.04,12.15-21.4,19.74-30.8,1.09-1.35,2.51-2.09,3.99-2.09,2.2,0,3.89,1.7,4.11,4.13.48,5.39-.81,12.05-3.55,18.28-2.53,5.77-5.88,10.57-9.66,13.89-9.13,8.02-10.14,21.88-2.26,31.13,1.98,2.32,3.8,5.15,5.43,8.41,3.44,6.89,5.5,14.73,5.5,20.96,0,10.48-3.78,20.04-10.65,26.92-1.91,1.91-4.04,3.6-6.34,5.03-6.4,3.96-10.35,10.9-10.51,18.42-.16,7.52,3.49,14.62,9.71,18.86,2.56,1.74,4.96,3.87,7.12,6.31,6.88,7.76,10.66,17.89,10.66,28.53,0,8.48-4.98,18.73-12.7,26.13-4.36,4.18-6.83,9.95-6.85,15.99-.02,6.04,2.43,11.83,6.76,16.03,3.46,3.35,6.55,8,8.94,13.44,2.74,6.23,4.12,12.85,3.79,18.17-.11,1.84-1.15,4-3.7,4Z" fill="#faf2d5"/>
      <path d="M44.42,400.52c-1.94,0-3.29-1.36-3.92-2.17-7.41-9.48-13.94-19.89-19.41-30.95-.79-1.59-.96-3.42-.47-4.88,2.75-8.11.59-17.08-5.54-23.06-.85-.83-1.53-1.96-2.02-3.35-6.71-19.2-10.93-39.26-12.56-59.64-.12-1.44.71-2.72,1.42-3.54.51-.58,1.2-1.2,2.01-1.79,5.77-4.2,9.18-10.92,9.15-18.06s-3.48-13.83-9.28-17.99c-.84-.61-1.55-1.22-2.09-1.83-.76-.85-1.65-2.18-1.56-3.68,1.21-20.6,5.06-40.93,11.46-60.43.6-1.83,1.52-3.15,2.72-3.93,7.5-4.82,11.4-13.66,9.91-22.45-.22-1.29,0-2.74.62-3.98,5.51-11.04,12.15-21.4,19.74-30.8,1.09-1.35,2.51-2.09,3.99-2.09,2.2,0,3.89,1.7,4.11,4.13.48,5.39-.81,12.05-3.55,18.28-2.53,5.77-5.88,10.57-9.66,13.89-9.13,8.02-10.14,21.88-2.26,31.13,1.98,2.32,3.8,5.15,5.43,8.41,3.44,6.89,5.5,14.73,5.5,20.96,0,10.48-3.78,20.04-10.65,26.92-1.91,1.91-4.04,3.6-6.34,5.03-6.4,3.96-10.35,10.9-10.51,18.42-.16,7.52,3.49,14.62,9.71,18.86,2.56,1.74,4.96,3.87,7.12,6.31,6.88,7.76,10.66,17.89,10.66,28.53,0,8.48-4.98,18.73-12.7,26.13-4.36,4.18-6.83,9.95-6.85,15.99-.02,6.04,2.43,11.83,6.76,16.03,3.46,3.35,6.55,8,8.94,13.44,2.74,6.23,4.12,12.85,3.79,18.17-.11,1.84-1.15,4-3.7,4Z" fill="#faf2d5"/>
    </g>
    <g>
      <path d="M44.42,400.52c-1.94,0-3.29-1.36-3.92-2.17-7.41-9.48-13.94-19.89-19.41-30.95-.79-1.59-.96-3.42-.47-4.88,2.75-8.11.59-17.08-5.54-23.06-.85-.83-1.53-1.96-2.02-3.35-6.71-19.2-10.93-39.26-12.56-59.64-.12-1.44.71-2.72,1.42-3.54.51-.58,1.2-1.2,2.01-1.79,5.77-4.2,9.18-10.92,9.15-18.06s-3.48-13.83-9.28-17.99c-.84-.61-1.55-1.22-2.09-1.83-.76-.85-1.65-2.18-1.56-3.68,1.21-20.6,5.06-40.93,11.46-60.43.6-1.83,1.52-3.15,2.72-3.93,7.5-4.82,11.4-13.66,9.91-22.45-.22-1.29,0-2.74.62-3.98,5.51-11.04,12.15-21.4,19.74-30.8,1.09-1.35,2.51-2.09,3.99-2.09,2.2,0,3.89,1.7,4.11,4.13.48,5.39-.81,12.05-3.55,18.28-2.53,5.77-5.88,10.57-9.66,13.89-9.13,8.02-10.14,21.88-2.26,31.13,1.98,2.32,3.8,5.15,5.43,8.41,3.44,6.89,5.5,14.73,5.5,20.96,0,10.48-3.78,20.04-10.65,26.92-1.91,1.91-4.04,3.6-6.34,5.03-6.4,3.96-10.35,10.9-10.51,18.42-.16,7.52,3.49,14.62,9.71,18.86,2.56,1.74,4.96,3.87,7.12,6.31,6.88,7.76,10.66,17.89,10.66,28.53,0,8.48-4.98,18.73-12.7,26.13-4.36,4.18-6.83,9.95-6.85,15.99-.02,6.04,2.43,11.83,6.76,16.03,3.46,3.35,6.55,8,8.94,13.44,2.74,6.23,4.12,12.85,3.79,18.17-.11,1.84-1.15,4-3.7,4Z" fill="none" stroke="#16300f" stroke-miterlimit="10" stroke-width=".29"/>
      <path d="M44.42,400.52c-1.94,0-3.29-1.36-3.92-2.17-7.41-9.48-13.94-19.89-19.41-30.95-.79-1.59-.96-3.42-.47-4.88,2.75-8.11.59-17.08-5.54-23.06-.85-.83-1.53-1.96-2.02-3.35-6.71-19.2-10.93-39.26-12.56-59.64-.12-1.44.71-2.72,1.42-3.54.51-.58,1.2-1.2,2.01-1.79,5.77-4.2,9.18-10.92,9.15-18.06s-3.48-13.83-9.28-17.99c-.84-.61-1.55-1.22-2.09-1.83-.76-.85-1.65-2.18-1.56-3.68,1.21-20.6,5.06-40.93,11.46-60.43.6-1.83,1.52-3.15,2.72-3.93,7.5-4.82,11.4-13.66,9.91-22.45-.22-1.29,0-2.74.62-3.98,5.51-11.04,12.15-21.4,19.74-30.8,1.09-1.35,2.51-2.09,3.99-2.09,2.2,0,3.89,1.7,4.11,4.13.48,5.39-.81,12.05-3.55,18.28-2.53,5.77-5.88,10.57-9.66,13.89-9.13,8.02-10.14,21.88-2.26,31.13,1.98,2.32,3.8,5.15,5.43,8.41,3.44,6.89,5.5,14.73,5.5,20.96,0,10.48-3.78,20.04-10.65,26.92-1.91,1.91-4.04,3.6-6.34,5.03-6.4,3.96-10.35,10.9-10.51,18.42-.16,7.52,3.49,14.62,9.71,18.86,2.56,1.74,4.96,3.87,7.12,6.31,6.88,7.76,10.66,17.89,10.66,28.53,0,8.48-4.98,18.73-12.7,26.13-4.36,4.18-6.83,9.95-6.85,15.99-.02,6.04,2.43,11.83,6.76,16.03,3.46,3.35,6.55,8,8.94,13.44,2.74,6.23,4.12,12.85,3.79,18.17-.11,1.84-1.15,4-3.7,4Z" fill="none" stroke="#16300f" stroke-miterlimit="10" stroke-width=".29"/>
    </g>
  </g>
  <g>
    <g>
      <path d="M396.48,450.85c-1.08,0-1.85-.63-2.28-1.87-.44-1.29-.44-3.08-.44-3.75,0-12,4.15-22.23,11.68-28.79,4.02-3.51,6.26-8.63,6.1-13.97-.17-5.33-2.72-10.31-6.95-13.56-2.17-1.66-4.16-3.69-5.92-6.02-5.46-7.23-8.46-16.84-8.46-27.06s3.01-19.83,8.47-27.06c2.25-2.97,4.84-5.43,7.72-7.29,4.95-3.21,7.99-8.66,8.11-14.55.12-5.9-2.68-11.47-7.49-14.88-2.77-1.97-5.29-4.45-7.5-7.38-6-7.99-9.31-18.61-9.31-29.91s3.31-21.92,9.31-29.91c1.95-2.6,4.17-4.86,6.59-6.71,4.49-3.44,7.08-8.82,6.96-14.48s-2.92-10.93-7.55-14.18c-2.53-1.78-4.84-4.04-6.85-6.7-5.46-7.23-8.47-16.84-8.47-27.06s3.01-19.83,8.47-27.06c1.71-2.27,3.65-4.25,5.76-5.9,4.39-3.42,6.93-8.7,6.86-14.27-.07-5.57-2.75-10.78-7.23-14.08-2.6-1.92-4.97-4.29-7.05-7.05-6-7.99-9.31-18.61-9.31-29.91,0-1.29,1.1-2.39,2.4-2.39.49,0,.93.14,1.35.42,15.39,10.5,29.56,22.8,42.12,36.57.48.53.7,1.22.6,1.93-.08.6-.36,1.12-.81,1.51-4.01,3.47-6.26,8.54-6.15,13.84.12,5.3,2.59,10.27,6.75,13.56,2.04,1.62,3.92,3.55,5.59,5.76,5.46,7.23,8.47,16.84,8.47,27.06s-3.01,19.83-8.47,27.06c-1.54,2.04-3.27,3.86-5.14,5.4-4.37,3.6-6.76,9.06-6.45,14.72.31,5.65,3.3,10.82,8.04,13.91,3.16,2.06,6.01,4.77,8.47,8.05,6,7.99,9.31,18.61,9.31,29.91s-3.31,21.92-9.31,29.91c-2.7,3.59-5.85,6.49-9.37,8.61-5.05,3.04-8.27,8.39-8.58,14.28-.32,5.89,2.31,11.55,7,15.12,2.21,1.68,4.24,3.73,6.03,6.1,5.46,7.23,8.47,16.84,8.47,27.06s-3.01,19.83-8.47,27.06c-1.4,1.85-2.95,3.51-4.61,4.95-7.14,6.17-8.22,16.84-2.47,24.32.45.58.82,1.23,1.11,1.93,1.26,3.1.55,6.61-1.81,8.96-10.68,10.58-18.08,17.19-31.26,26.13-2.46,1.67-3.62,1.67-4.01,1.67h0Z" fill="#faf2d5"/>
      <path d="M396.48,450.85c-1.08,0-1.85-.63-2.28-1.87-.44-1.29-.44-3.08-.44-3.75,0-12,4.15-22.23,11.68-28.79,4.02-3.51,6.26-8.63,6.1-13.97-.17-5.33-2.72-10.31-6.95-13.56-2.17-1.66-4.16-3.69-5.92-6.02-5.46-7.23-8.46-16.84-8.46-27.06s3.01-19.83,8.47-27.06c2.25-2.97,4.84-5.43,7.72-7.29,4.95-3.21,7.99-8.66,8.11-14.55.12-5.9-2.68-11.47-7.49-14.88-2.77-1.97-5.29-4.45-7.5-7.38-6-7.99-9.31-18.61-9.31-29.91s3.31-21.92,9.31-29.91c1.95-2.6,4.17-4.86,6.59-6.71,4.49-3.44,7.08-8.82,6.96-14.48s-2.92-10.93-7.55-14.18c-2.53-1.78-4.84-4.04-6.85-6.7-5.46-7.23-8.47-16.84-8.47-27.06s3.01-19.83,8.47-27.06c1.71-2.27,3.65-4.25,5.76-5.9,4.39-3.42,6.93-8.7,6.86-14.27-.07-5.57-2.75-10.78-7.23-14.08-2.6-1.92-4.97-4.29-7.05-7.05-6-7.99-9.31-18.61-9.31-29.91,0-1.29,1.1-2.39,2.4-2.39.49,0,.93.14,1.35.42,15.39,10.5,29.56,22.8,42.12,36.57.48.53.7,1.22.6,1.93-.08.6-.36,1.12-.81,1.51-4.01,3.47-6.26,8.54-6.15,13.84.12,5.3,2.59,10.27,6.75,13.56,2.04,1.62,3.92,3.55,5.59,5.76,5.46,7.23,8.47,16.84,8.47,27.06s-3.01,19.83-8.47,27.06c-1.54,2.04-3.27,3.86-5.14,5.4-4.37,3.6-6.76,9.06-6.45,14.72.31,5.65,3.3,10.82,8.04,13.91,3.16,2.06,6.01,4.77,8.47,8.05,6,7.99,9.31,18.61,9.31,29.91s-3.31,21.92-9.31,29.91c-2.7,3.59-5.85,6.49-9.37,8.61-5.05,3.04-8.27,8.39-8.58,14.28-.32,5.89,2.31,11.55,7,15.12,2.21,1.68,4.24,3.73,6.03,6.1,5.46,7.23,8.47,16.84,8.47,27.06s-3.01,19.83-8.47,27.06c-1.4,1.85-2.95,3.51-4.61,4.95-7.14,6.17-8.22,16.84-2.47,24.32.45.58.82,1.23,1.11,1.93,1.26,3.1.55,6.61-1.81,8.96-10.68,10.58-18.08,17.19-31.26,26.13-2.46,1.67-3.62,1.67-4.01,1.67h0Z" fill="#faf2d5"/>
    </g>
    <g>
      <path d="M396.48,450.85c-1.08,0-1.85-.63-2.28-1.87-.44-1.29-.44-3.08-.44-3.75,0-12,4.15-22.23,11.68-28.79,4.02-3.51,6.26-8.63,6.1-13.97-.17-5.33-2.72-10.31-6.95-13.56-2.17-1.66-4.16-3.69-5.92-6.02-5.46-7.23-8.46-16.84-8.46-27.06s3.01-19.83,8.47-27.06c2.25-2.97,4.84-5.43,7.72-7.29,4.95-3.21,7.99-8.66,8.11-14.55.12-5.9-2.68-11.47-7.49-14.88-2.77-1.97-5.29-4.45-7.5-7.38-6-7.99-9.31-18.61-9.31-29.91s3.31-21.92,9.31-29.91c1.95-2.6,4.17-4.86,6.59-6.71,4.49-3.44,7.08-8.82,6.96-14.48s-2.92-10.93-7.55-14.18c-2.53-1.78-4.84-4.04-6.85-6.7-5.46-7.23-8.47-16.84-8.47-27.06s3.01-19.83,8.47-27.06c1.71-2.27,3.65-4.25,5.76-5.9,4.39-3.42,6.93-8.7,6.86-14.27-.07-5.57-2.75-10.78-7.23-14.08-2.6-1.92-4.97-4.29-7.05-7.05-6-7.99-9.31-18.61-9.31-29.91,0-1.29,1.1-2.39,2.4-2.39.49,0,.93.14,1.35.42,15.39,10.5,29.56,22.8,42.12,36.57.48.53.7,1.22.6,1.93-.08.6-.36,1.12-.81,1.51-4.01,3.47-6.26,8.54-6.15,13.84.12,5.3,2.59,10.27,6.75,13.56,2.04,1.62,3.92,3.55,5.59,5.76,5.46,7.23,8.47,16.84,8.47,27.06s-3.01,19.83-8.47,27.06c-1.54,2.04-3.27,3.86-5.14,5.4-4.37,3.6-6.76,9.06-6.45,14.72.31,5.65,3.3,10.82,8.04,13.91,3.16,2.06,6.01,4.77,8.47,8.05,6,7.99,9.31,18.61,9.31,29.91s-3.31,21.92-9.31,29.91c-2.7,3.59-5.85,6.49-9.37,8.61-5.05,3.04-8.27,8.39-8.58,14.28-.32,5.89,2.31,11.55,7,15.12,2.21,1.68,4.24,3.73,6.03,6.1,5.46,7.23,8.47,16.84,8.47,27.06s-3.01,19.83-8.47,27.06c-1.4,1.85-2.95,3.51-4.61,4.95-7.14,6.17-8.22,16.84-2.47,24.32.45.58.82,1.23,1.11,1.93,1.26,3.1.55,6.61-1.81,8.96-10.68,10.58-18.08,17.19-31.26,26.13-2.46,1.67-3.62,1.67-4.01,1.67h0Z" fill="none" stroke="#16300f" stroke-miterlimit="10" stroke-width=".29"/>
      <path d="M396.48,450.85c-1.08,0-1.85-.63-2.28-1.87-.44-1.29-.44-3.08-.44-3.75,0-12,4.15-22.23,11.68-28.79,4.02-3.51,6.26-8.63,6.1-13.97-.17-5.33-2.72-10.31-6.95-13.56-2.17-1.66-4.16-3.69-5.92-6.02-5.46-7.23-8.46-16.84-8.46-27.06s3.01-19.83,8.47-27.06c2.25-2.97,4.84-5.43,7.72-7.29,4.95-3.21,7.99-8.66,8.11-14.55.12-5.9-2.68-11.47-7.49-14.88-2.77-1.97-5.29-4.45-7.5-7.38-6-7.99-9.31-18.61-9.31-29.91s3.31-21.92,9.31-29.91c1.95-2.6,4.17-4.86,6.59-6.71,4.49-3.44,7.08-8.82,6.96-14.48s-2.92-10.93-7.55-14.18c-2.53-1.78-4.84-4.04-6.85-6.7-5.46-7.23-8.47-16.84-8.47-27.06s3.01-19.83,8.47-27.06c1.71-2.27,3.65-4.25,5.76-5.9,4.39-3.42,6.93-8.7,6.86-14.27-.07-5.57-2.75-10.78-7.23-14.08-2.6-1.92-4.97-4.29-7.05-7.05-6-7.99-9.31-18.61-9.31-29.91,0-1.29,1.1-2.39,2.4-2.39.49,0,.93.14,1.35.42,15.39,10.5,29.56,22.8,42.12,36.57.48.53.7,1.22.6,1.93-.08.6-.36,1.12-.81,1.51-4.01,3.47-6.26,8.54-6.15,13.84.12,5.3,2.59,10.27,6.75,13.56,2.04,1.62,3.92,3.55,5.59,5.76,5.46,7.23,8.47,16.84,8.47,27.06s-3.01,19.83-8.47,27.06c-1.54,2.04-3.27,3.86-5.14,5.4-4.37,3.6-6.76,9.06-6.45,14.72.31,5.65,3.3,10.82,8.04,13.91,3.16,2.06,6.01,4.77,8.47,8.05,6,7.99,9.31,18.61,9.31,29.91s-3.31,21.92-9.31,29.91c-2.7,3.59-5.85,6.49-9.37,8.61-5.05,3.04-8.27,8.39-8.58,14.28-.32,5.89,2.31,11.55,7,15.12,2.21,1.68,4.24,3.73,6.03,6.1,5.46,7.23,8.47,16.84,8.47,27.06s-3.01,19.83-8.47,27.06c-1.4,1.85-2.95,3.51-4.61,4.95-7.14,6.17-8.22,16.84-2.47,24.32.45.58.82,1.23,1.11,1.93,1.26,3.1.55,6.61-1.81,8.96-10.68,10.58-18.08,17.19-31.26,26.13-2.46,1.67-3.62,1.67-4.01,1.67h0Z" fill="none" stroke="#16300f" stroke-miterlimit="10" stroke-width=".29"/>
    </g>
  </g>
  <g>
    <g>
      <path d="M309.41,492.4c-1.9,0-3.65-1.04-4.57-2.71-.85-1.56-.79-3.45.16-4.96,4.35-6.84,10.48-12.37,17.71-15.97,4.6-2.3,7.57-6.93,7.74-12.07.17-5.14-2.5-9.96-6.95-12.54-12.69-7.38-20.57-21.28-20.57-36.27s8.11-29.31,21.17-36.61c4.25-2.37,6.95-6.78,7.15-11.63.2-4.86-2.13-9.47-6.17-12.19-12.1-8.14-19.32-21.88-19.32-36.77,0-16.37,8.72-31.25,22.77-38.86,4.52-2.44,7.33-7.17,7.33-12.3s-2.81-9.86-7.33-12.3c-14.04-7.6-22.77-22.49-22.77-38.85,0-15.52,8.07-30.03,21.05-37.87,4.37-2.64,6.96-7.45,6.74-12.55-.21-5.1-3.18-9.68-7.76-11.95-13.89-6.9-22.87-21.62-22.87-37.51s8.09-29.28,21.12-36.58c4.41-2.47,7.15-7.14,7.15-12.2,0-5.06-2.73-9.73-7.14-12.2-6.3-3.54-11.7-8.63-15.62-14.71-1.55-2.4-2.85-4.94-3.88-7.55-.56-1.42-.38-3.04.49-4.31.93-1.37,2.47-2.19,4.13-2.19.32,0,.65.03.98.09,20.64,3.99,40.73,10.49,59.72,19.32,1.66.77,2.75,2.36,2.86,4.15.1,1.72-.76,3.36-2.25,4.27h0s-.07.04-.09.05c-1.38.84-2.82,1.62-4.28,2.31-4.58,2.17-7.63,6.64-7.98,11.69s2.07,9.9,6.31,12.67c11.78,7.69,18.81,20.84,18.81,35.18s-7.24,27.89-19.36,35.53c-4.32,2.72-6.81,7.58-6.5,12.68.31,5.1,3.37,9.62,7.98,11.8,15.05,7.12,24.78,22.77,24.78,39.87s-8.72,31.25-22.77,38.86c-4.52,2.44-7.33,7.17-7.33,12.3s2.81,9.86,7.33,12.3c14.04,7.6,22.77,22.49,22.77,38.86s-8.83,31.45-23.06,39.01c-4.29,2.28-7.1,6.63-7.4,11.48-.3,4.85,1.93,9.52,5.91,12.31,11.05,7.78,17.65,20.64,17.65,34.4,0,15.1-7.97,29.04-20.79,36.39-4.14,2.37-6.78,6.69-7.02,11.45-.24,4.76,1.97,9.32,5.86,12.08,1.32.94,2.1,2.41,2.12,4.02.03,2.05-1.14,3.84-3.07,4.67-15.98,6.92-32.74,12.23-49.82,15.78-.38.08-.75.12-1.12.12Z" fill="#faf2d5"/>
      <path d="M309.41,492.4c-1.9,0-3.65-1.04-4.57-2.71-.85-1.56-.79-3.45.16-4.96,4.35-6.84,10.48-12.37,17.71-15.97,4.6-2.3,7.57-6.93,7.74-12.07.17-5.14-2.5-9.96-6.95-12.54-12.69-7.38-20.57-21.28-20.57-36.27s8.11-29.31,21.17-36.61c4.25-2.37,6.95-6.78,7.15-11.63.2-4.86-2.13-9.47-6.17-12.19-12.1-8.14-19.32-21.88-19.32-36.77,0-16.37,8.72-31.25,22.77-38.86,4.52-2.44,7.33-7.17,7.33-12.3s-2.81-9.86-7.33-12.3c-14.04-7.6-22.77-22.49-22.77-38.85,0-15.52,8.07-30.03,21.05-37.87,4.37-2.64,6.96-7.45,6.74-12.55-.21-5.1-3.18-9.68-7.76-11.95-13.89-6.9-22.87-21.62-22.87-37.51s8.09-29.28,21.12-36.58c4.41-2.47,7.15-7.14,7.15-12.2,0-5.06-2.73-9.73-7.14-12.2-6.3-3.54-11.7-8.63-15.62-14.71-1.55-2.4-2.85-4.94-3.88-7.55-.56-1.42-.38-3.04.49-4.31.93-1.37,2.47-2.19,4.13-2.19.32,0,.65.03.98.09,20.64,3.99,40.73,10.49,59.72,19.32,1.66.77,2.75,2.36,2.86,4.15.1,1.72-.76,3.36-2.25,4.27h0s-.07.04-.09.05c-1.38.84-2.82,1.62-4.28,2.31-4.58,2.17-7.63,6.64-7.98,11.69s2.07,9.9,6.31,12.67c11.78,7.69,18.81,20.84,18.81,35.18s-7.24,27.89-19.36,35.53c-4.32,2.72-6.81,7.58-6.5,12.68.31,5.1,3.37,9.62,7.98,11.8,15.05,7.12,24.78,22.77,24.78,39.87s-8.72,31.25-22.77,38.86c-4.52,2.44-7.33,7.17-7.33,12.3s2.81,9.86,7.33,12.3c14.04,7.6,22.77,22.49,22.77,38.86s-8.83,31.45-23.06,39.01c-4.29,2.28-7.1,6.63-7.4,11.48-.3,4.85,1.93,9.52,5.91,12.31,11.05,7.78,17.65,20.64,17.65,34.4,0,15.1-7.97,29.04-20.79,36.39-4.14,2.37-6.78,6.69-7.02,11.45-.24,4.76,1.97,9.32,5.86,12.08,1.32.94,2.1,2.41,2.12,4.02.03,2.05-1.14,3.84-3.07,4.67-15.98,6.92-32.74,12.23-49.82,15.78-.38.08-.75.12-1.12.12Z" fill="#faf2d5"/>
    </g>
    <g>
      <path d="M309.41,492.4c-1.9,0-3.65-1.04-4.57-2.71-.85-1.56-.79-3.45.16-4.96,4.35-6.84,10.48-12.37,17.71-15.97,4.6-2.3,7.57-6.93,7.74-12.07.17-5.14-2.5-9.96-6.95-12.54-12.69-7.38-20.57-21.28-20.57-36.27s8.11-29.31,21.17-36.61c4.25-2.37,6.95-6.78,7.15-11.63.2-4.86-2.13-9.47-6.17-12.19-12.1-8.14-19.32-21.88-19.32-36.77,0-16.37,8.72-31.25,22.77-38.86,4.52-2.44,7.33-7.17,7.33-12.3s-2.81-9.86-7.33-12.3c-14.04-7.6-22.77-22.49-22.77-38.85,0-15.52,8.07-30.03,21.05-37.87,4.37-2.64,6.96-7.45,6.74-12.55-.21-5.1-3.18-9.68-7.76-11.95-13.89-6.9-22.87-21.62-22.87-37.51s8.09-29.28,21.12-36.58c4.41-2.47,7.15-7.14,7.15-12.2,0-5.06-2.73-9.73-7.14-12.2-6.3-3.54-11.7-8.63-15.62-14.71-1.55-2.4-2.85-4.94-3.88-7.55-.56-1.42-.38-3.04.49-4.31.93-1.37,2.47-2.19,4.13-2.19.32,0,.65.03.98.09,20.64,3.99,40.73,10.49,59.72,19.32,1.66.77,2.75,2.36,2.86,4.15.1,1.72-.76,3.36-2.25,4.27h0s-.07.04-.09.05c-1.38.84-2.82,1.62-4.28,2.31-4.58,2.17-7.63,6.64-7.98,11.69s2.07,9.9,6.31,12.67c11.78,7.69,18.81,20.84,18.81,35.18s-7.24,27.89-19.36,35.53c-4.32,2.72-6.81,7.58-6.5,12.68.31,5.1,3.37,9.62,7.98,11.8,15.05,7.12,24.78,22.77,24.78,39.87s-8.72,31.25-22.77,38.86c-4.52,2.44-7.33,7.17-7.33,12.3s2.81,9.86,7.33,12.3c14.04,7.6,22.77,22.49,22.77,38.86s-8.83,31.45-23.06,39.01c-4.29,2.28-7.1,6.63-7.4,11.48-.3,4.85,1.93,9.52,5.91,12.31,11.05,7.78,17.65,20.64,17.65,34.4,0,15.1-7.97,29.04-20.79,36.39-4.14,2.37-6.78,6.69-7.02,11.45-.24,4.76,1.97,9.32,5.86,12.08,1.32.94,2.1,2.41,2.12,4.02.03,2.05-1.14,3.84-3.07,4.67-15.98,6.92-32.74,12.23-49.82,15.78-.38.08-.75.12-1.12.12Z" fill="none" stroke="#16300f" stroke-miterlimit="10" stroke-width=".29"/>
      <path d="M309.41,492.4c-1.9,0-3.65-1.04-4.57-2.71-.85-1.56-.79-3.45.16-4.96,4.35-6.84,10.48-12.37,17.71-15.97,4.6-2.3,7.57-6.93,7.74-12.07.17-5.14-2.5-9.96-6.95-12.54-12.69-7.38-20.57-21.28-20.57-36.27s8.11-29.31,21.17-36.61c4.25-2.37,6.95-6.78,7.15-11.63.2-4.86-2.13-9.47-6.17-12.19-12.1-8.14-19.32-21.88-19.32-36.77,0-16.37,8.72-31.25,22.77-38.86,4.52-2.44,7.33-7.17,7.33-12.3s-2.81-9.86-7.33-12.3c-14.04-7.6-22.77-22.49-22.77-38.85,0-15.52,8.07-30.03,21.05-37.87,4.37-2.64,6.96-7.45,6.74-12.55-.21-5.1-3.18-9.68-7.76-11.95-13.89-6.9-22.87-21.62-22.87-37.51s8.09-29.28,21.12-36.58c4.41-2.47,7.15-7.14,7.15-12.2,0-5.06-2.73-9.73-7.14-12.2-6.3-3.54-11.7-8.63-15.62-14.71-1.55-2.4-2.85-4.94-3.88-7.55-.56-1.42-.38-3.04.49-4.31.93-1.37,2.47-2.19,4.13-2.19.32,0,.65.03.98.09,20.64,3.99,40.73,10.49,59.72,19.32,1.66.77,2.75,2.36,2.86,4.15.1,1.72-.76,3.36-2.25,4.27h0s-.07.04-.09.05c-1.38.84-2.82,1.62-4.28,2.31-4.58,2.17-7.63,6.64-7.98,11.69s2.07,9.9,6.31,12.67c11.78,7.69,18.81,20.84,18.81,35.18s-7.24,27.89-19.36,35.53c-4.32,2.72-6.81,7.58-6.5,12.68.31,5.1,3.37,9.62,7.98,11.8,15.05,7.12,24.78,22.77,24.78,39.87s-8.72,31.25-22.77,38.86c-4.52,2.44-7.33,7.17-7.33,12.3s2.81,9.86,7.33,12.3c14.04,7.6,22.77,22.49,22.77,38.86s-8.83,31.45-23.06,39.01c-4.29,2.28-7.1,6.63-7.4,11.48-.3,4.85,1.93,9.52,5.91,12.31,11.05,7.78,17.65,20.64,17.65,34.4,0,15.1-7.97,29.04-20.79,36.39-4.14,2.37-6.78,6.69-7.02,11.45-.24,4.76,1.97,9.32,5.86,12.08,1.32.94,2.1,2.41,2.12,4.02.03,2.05-1.14,3.84-3.07,4.67-15.98,6.92-32.74,12.23-49.82,15.78-.38.08-.75.12-1.12.12Z" fill="none" stroke="#16300f" stroke-miterlimit="10" stroke-width=".29"/>
    </g>
  </g>
  <g>
    <g>
      <path d="M456.95,400.52c-2.54,0-3.58-2.15-3.69-4-.33-5.32,1.05-11.94,3.79-18.17,2.39-5.44,5.48-10.09,8.94-13.44,4.34-4.2,6.78-9.99,6.76-16.03-.02-6.04-2.49-11.81-6.84-15.99-7.71-7.4-12.7-17.65-12.7-26.13,0-10.64,3.79-20.77,10.67-28.53,2.17-2.44,4.56-4.57,7.12-6.31,6.22-4.24,9.87-11.33,9.71-18.86-.16-7.52-4.12-14.46-10.52-18.42-2.29-1.42-4.42-3.11-6.33-5.03-6.86-6.88-10.65-16.44-10.65-26.92,0-6.23,2.05-14.07,5.5-20.96,1.63-3.26,3.45-6.09,5.43-8.41,7.88-9.25,6.88-23.12-2.26-31.13-3.79-3.32-7.13-8.13-9.66-13.9-2.74-6.23-4.03-12.89-3.55-18.28.22-2.43,1.91-4.13,4.11-4.13,1.48,0,2.9.74,3.99,2.1,7.59,9.4,14.24,19.76,19.74,30.8.62,1.24.84,2.69.62,3.98-1.5,8.79,2.4,17.63,9.91,22.44,1.5.96,2.31,2.67,2.72,3.93,6.39,19.5,10.25,39.83,11.46,60.43.09,1.51-.8,2.84-1.56,3.69-.54.61-1.25,1.22-2.09,1.83-5.8,4.16-9.26,10.85-9.28,17.99s3.38,13.86,9.15,18.06c.81.59,1.51,1.21,2.01,1.79.72.82,1.54,2.1,1.43,3.54-1.63,20.38-5.86,40.45-12.56,59.64-.49,1.39-1.17,2.52-2.02,3.35-6.13,5.98-8.28,14.94-5.54,23.05.5,1.47.32,3.29-.47,4.89-5.47,11.05-12,21.47-19.41,30.95-.63.81-1.98,2.17-3.92,2.17h0Z" fill="#faf2d5"/>
      <path d="M456.95,400.52c-2.54,0-3.58-2.15-3.69-4-.33-5.32,1.05-11.94,3.79-18.17,2.39-5.44,5.48-10.09,8.94-13.44,4.34-4.2,6.78-9.99,6.76-16.03-.02-6.04-2.49-11.81-6.84-15.99-7.71-7.4-12.7-17.65-12.7-26.13,0-10.64,3.79-20.77,10.67-28.53,2.17-2.44,4.56-4.57,7.12-6.31,6.22-4.24,9.87-11.33,9.71-18.86-.16-7.52-4.12-14.46-10.52-18.42-2.29-1.42-4.42-3.11-6.33-5.03-6.86-6.88-10.65-16.44-10.65-26.92,0-6.23,2.05-14.07,5.5-20.96,1.63-3.26,3.45-6.09,5.43-8.41,7.88-9.25,6.88-23.12-2.26-31.13-3.79-3.32-7.13-8.13-9.66-13.9-2.74-6.23-4.03-12.89-3.55-18.28.22-2.43,1.91-4.13,4.11-4.13,1.48,0,2.9.74,3.99,2.1,7.59,9.4,14.24,19.76,19.74,30.8.62,1.24.84,2.69.62,3.98-1.5,8.79,2.4,17.63,9.91,22.44,1.5.96,2.31,2.67,2.72,3.93,6.39,19.5,10.25,39.83,11.46,60.43.09,1.51-.8,2.84-1.56,3.69-.54.61-1.25,1.22-2.09,1.83-5.8,4.16-9.26,10.85-9.28,17.99s3.38,13.86,9.15,18.06c.81.59,1.51,1.21,2.01,1.79.72.82,1.54,2.1,1.43,3.54-1.63,20.38-5.86,40.45-12.56,59.64-.49,1.39-1.17,2.52-2.02,3.35-6.13,5.98-8.28,14.94-5.54,23.05.5,1.47.32,3.29-.47,4.89-5.47,11.05-12,21.47-19.41,30.95-.63.81-1.98,2.17-3.92,2.17h0Z" fill="#faf2d5"/>
    </g>
    <g>
      <path d="M456.95,400.52c-2.54,0-3.58-2.15-3.69-4-.33-5.32,1.05-11.94,3.79-18.17,2.39-5.44,5.48-10.09,8.94-13.44,4.34-4.2,6.78-9.99,6.76-16.03-.02-6.04-2.49-11.81-6.84-15.99-7.71-7.4-12.7-17.65-12.7-26.13,0-10.64,3.79-20.77,10.67-28.53,2.17-2.44,4.56-4.57,7.12-6.31,6.22-4.24,9.87-11.33,9.71-18.86-.16-7.52-4.12-14.46-10.52-18.42-2.29-1.42-4.42-3.11-6.33-5.03-6.86-6.88-10.65-16.44-10.65-26.92,0-6.23,2.05-14.07,5.5-20.96,1.63-3.26,3.45-6.09,5.43-8.41,7.88-9.25,6.88-23.12-2.26-31.13-3.79-3.32-7.13-8.13-9.66-13.9-2.74-6.23-4.03-12.89-3.55-18.28.22-2.43,1.91-4.13,4.11-4.13,1.48,0,2.9.74,3.99,2.1,7.59,9.4,14.24,19.76,19.74,30.8.62,1.24.84,2.69.62,3.98-1.5,8.79,2.4,17.63,9.91,22.44,1.5.96,2.31,2.67,2.72,3.93,6.39,19.5,10.25,39.83,11.46,60.43.09,1.51-.8,2.84-1.56,3.69-.54.61-1.25,1.22-2.09,1.83-5.8,4.16-9.26,10.85-9.28,17.99s3.38,13.86,9.15,18.06c.81.59,1.51,1.21,2.01,1.79.72.82,1.54,2.1,1.43,3.54-1.63,20.38-5.86,40.45-12.56,59.64-.49,1.39-1.17,2.52-2.02,3.35-6.13,5.98-8.28,14.94-5.54,23.05.5,1.47.32,3.29-.47,4.89-5.47,11.05-12,21.47-19.41,30.95-.63.81-1.98,2.17-3.92,2.17h0Z" fill="none" stroke="#16300f" stroke-miterlimit="10" stroke-width=".29"/>
      <path d="M456.95,400.52c-2.54,0-3.58-2.15-3.69-4-.33-5.32,1.05-11.94,3.79-18.17,2.39-5.44,5.48-10.09,8.94-13.44,4.34-4.2,6.78-9.99,6.76-16.03-.02-6.04-2.49-11.81-6.84-15.99-7.71-7.4-12.7-17.65-12.7-26.13,0-10.64,3.79-20.77,10.67-28.53,2.17-2.44,4.56-4.57,7.12-6.31,6.22-4.24,9.87-11.33,9.71-18.86-.16-7.52-4.12-14.46-10.52-18.42-2.29-1.42-4.42-3.11-6.33-5.03-6.86-6.88-10.65-16.44-10.65-26.92,0-6.23,2.05-14.07,5.5-20.96,1.63-3.26,3.45-6.09,5.43-8.41,7.88-9.25,6.88-23.12-2.26-31.13-3.79-3.32-7.13-8.13-9.66-13.9-2.74-6.23-4.03-12.89-3.55-18.28.22-2.43,1.91-4.13,4.11-4.13,1.48,0,2.9.74,3.99,2.1,7.59,9.4,14.24,19.76,19.74,30.8.62,1.24.84,2.69.62,3.98-1.5,8.79,2.4,17.63,9.91,22.44,1.5.96,2.31,2.67,2.72,3.93,6.39,19.5,10.25,39.83,11.46,60.43.09,1.51-.8,2.84-1.56,3.69-.54.61-1.25,1.22-2.09,1.83-5.8,4.16-9.26,10.85-9.28,17.99s3.38,13.86,9.15,18.06c.81.59,1.51,1.21,2.01,1.79.72.82,1.54,2.1,1.43,3.54-1.63,20.38-5.86,40.45-12.56,59.64-.49,1.39-1.17,2.52-2.02,3.35-6.13,5.98-8.28,14.94-5.54,23.05.5,1.47.32,3.29-.47,4.89-5.47,11.05-12,21.47-19.41,30.95-.63.81-1.98,2.17-3.92,2.17h0Z" fill="none" stroke="#16300f" stroke-miterlimit="10" stroke-width=".29"/>
    </g>
  </g>
</svg>