<?xml version="1.0" encoding="UTF-8"?>
<svg id="Layer_1" data-name="Layer 1" xmlns="http://www.w3.org/2000/svg" viewBox="0 0 500.31 497.95">
  <path d="M401.37,417.44c-3.14,0-5.83-.98-7.61-1.63-.92-.33-1.88-.5-2.85-.5-.66,0-1.33.08-1.98.24-1.7.42-3.55.8-5.55.8-1.32,0-2.61-.17-3.83-.5-3.79-1.04-6.28-3.52-8.09-5.34l-.3-.3c-.73-.71-1.58-1.29-2.51-1.69l-.45-.2c-2.4-1.05-5.13-2.24-7.91-4.01-3.38-2.15-6.23-4.48-8.34-6.26-.62-.53-1.32-.96-2.07-1.29l-.85-.36c-2.34-.98-5.52-2.32-8.01-5.17-2.49-2.85-3.43-6.17-4.12-8.59-.07-.26-.16-.58-.25-.86-.25-.86-.64-1.67-1.16-2.41-.34-.48-.72-1.01-1.11-1.55-1.49-2.05-3.15-4.33-4.43-7.14-1.3-2.83-1.88-5.66-2.34-7.93-.24-1.16-.45-2.24-.73-3.15-.25-.83-.56-1.78-.9-2.78-.81-2.4-1.73-5.12-2.19-8.22-.61-4.1-.91-7.84-.93-11.43-.01-3.14.48-6,.92-8.53l.04-.26c.15-.85.29-1.71.42-2.58.12-.84.15-1.76.2-3.18.08-2.34.17-5.25,1.05-8.29.86-2.96,2.16-5.51,3.31-7.76.36-.7.68-1.33.96-1.92.34-.71.59-1.47.72-2.25.05-.31.11-.71.16-1.04.38-2.49.89-5.84,2.88-8.97,2.09-3.28,5.11-5.09,7.31-6.41l.48-.29c.96-.58,1.79-1.34,2.44-2.25.29-.4.62-.87.93-1.32,1.32-1.89,2.97-4.26,5.3-6.31,2.71-2.36,5.71-4.61,9.19-6.87.19-.12.37-.25.55-.39.52-.4,1.09-.92,1.92-1.67,1.91-1.75,4.04-3.7,7.03-5.08,3.37-1.55,6.77-2.55,10.07-3.53l1.05-.31c.71-.21,1.41-.41,2.11-.6,3.56-.98,6.05-4.19,6.11-7.88.06-3.69-2.31-6.98-5.83-8.08-2.15-.67-4.17-1.49-6.12-2.28-.74-.3-1.46-.59-2.19-.87-3.33-1.29-5.6-3.46-7.42-5.2-.32-.31-.68-.64-.94-.88-.56-.51-1.18-.94-1.85-1.28-.59-.3-1.33-.64-2.1-1-2.1-.97-4.73-2.19-7.2-4.09-2.45-1.88-5.65-4.44-8.68-7.55-.54-.55-1.08-1.09-1.62-1.63-1.97-1.96-4.21-4.19-6.18-6.9-1.79-2.46-2.91-5.01-3.9-7.26-.38-.85-.74-1.67-1.06-2.33-.31-.63-.69-1.21-1.14-1.75-.26-.31-.66-.76-.98-1.11-1.68-1.87-3.78-4.2-4.97-7.51-1.12-3.1-1.25-5.99-1.37-8.54-.06-1.22-.1-1.99-.19-2.65-.02-.17-.05-.34-.09-.52-.66-3.23-.79-6.33-.9-9.07v-.14c-.04-.74-.07-1.48-.11-2.22-.06-.99-.22-2.14-.38-3.26-.33-2.32-.74-5.22-.48-8.3.27-3.19,1.26-5.82,2.14-8.13.54-1.44.81-2.18.99-2.92,0-.04.02-.08.03-.11.97-4.2,2.01-7.67,3.27-10.93,1.3-3.36,2.92-6.23,4.49-9l.6-1.07c.13-.24.26-.49.37-.74.23-.51.44-1.11.82-2.19.8-2.26,1.79-5.07,3.81-7.71,2.22-2.89,4.76-5.72,7.77-8.65.62-.61,1.27-1.36,2.18-2.44,1.55-1.84,3.48-4.12,6.03-5.98,3.08-2.24,6.52-2.81,8.79-3.19,1.69-.28,3.25-1.08,4.47-2.28,1.52-1.5,3.82-3.77,7.17-4.97,2.99-1.07,5.87-1.49,8.41-1.86.92-.13,1.87-.27,2.69-.43.81-.15,1.67-.4,2.99-.79,2.31-.68,5.15-1.51,8.27-1.57.18,0,.36,0,.54,0,3.07,0,5.97.52,8.52.97l.13.02c.76.14,1.52.27,2.27.38,3.96.6,7.7,1.48,11.13,2.61.77.25,1.56.49,2.35.72l.17.05c2.54.75,5.43,1.6,8.24,3.04,2.65,1.36,4.84,3.23,6.59,4.73,1.04.89,1.78,1.51,2.48,2.01.76.54,1.67,1.11,2.56,1.67,2.05,1.29,4.38,2.74,6.55,4.77,2.29,2.13,3.49,4.66,4.46,7.08.68,1.71,1.91,3.15,3.5,4.09,2.25,1.33,4.57,2.92,6.35,5.58,2.1,3.14,3.93,6.51,5.47,9.43.42.79.86,1.58,1.3,2.37l.05.1c1.28,2.29,2.59,4.65,3.64,7.25,1.22,3.01,1.16,5.85.95,8.23-.18,1.99.37,3.97,1.53,5.59,1.39,1.93,2.88,4.33,3.36,7.48.54,3.47-.2,6.46-.78,8.87-.08.34-.19.76-.26,1.08-.15.64-.22,1.29-.21,1.95.03,3.13-.18,6.41-.66,10.32-.42,3.4-1.15,6.85-2.29,10.84-.87,3.03-2.19,5.51-3.35,7.7-.47.89-.88,1.66-1.24,2.42-.37.76-.72,1.67-1.09,2.63-.84,2.17-1.89,4.86-3.73,7.45-1.8,2.54-3.88,4.45-5.71,6.13-.46.43-.91.84-1.32,1.22-.56.53-1.04,1.14-1.43,1.8-.13.23-.29.49-.42.72-1.23,2.15-2.87,5.01-5.85,7.19-2.78,2.02-5.9,4.3-9.41,6.15-3.16,1.67-6.3,2.01-8.82,2.28-.31.03-.69.07-1.02.11-1.11.13-2.18.48-3.15,1.03-.36.21-.82.48-1.19.7-1.52.91-3.41,2.03-5.64,2.81-3.4,1.19-5.64,4.43-5.57,8.03.08,3.6,2.47,6.74,5.91,7.78l1.27.39c.72.22,1.43.44,2.15.65,3.12.9,5.48,2.46,7.56,3.84.44.29,1,.66,1.41.92.87.54,1.82.91,2.82,1.11.31.06.69.13,1,.19,2.55.46,5.66,1.02,8.71,2.96,2.6,1.66,4.64,3.7,6.28,5.34.81.81,1.5,1.5,2.15,2.06.51.44,1.04.88,1.57,1.32,2.3,1.92,4.62,3.86,6.71,6.32,2.83,3.33,5.03,6.35,6.74,9.21.46.78,1.07,1.66,1.65,2.51,1.46,2.12,3.11,4.53,4.23,7.45,1.29,3.37,1.13,6.68,1.01,9.09-.02.44-.05.92-.05,1.26-.02.58.03,1.16.13,1.72.54,2.97.61,5.8.68,8.3l.03,1.31c.02.77.15,1.53.38,2.26l.28.85c.75,2.29,1.78,5.41,1.41,9.01-.35,3.44-1.82,6.12-3,8.26-.17.31-.38.69-.54.99-.33.62-.57,1.27-.73,1.95-.78,3.26-1.51,6.22-2.64,9.34-.17.46-.29.93-.37,1.41-.06.37-.15.99-.22,1.49-.32,2.37-.72,5.22-2.17,8.12-1.49,2.96-3.67,4.92-5.43,6.5-.26.24-.59.53-.83.75-.53.49-1,1.05-1.38,1.66l-.49.77c-1.43,2.27-2.89,4.58-4.64,6.86-.43.56-.78,1.16-1.06,1.81-.1.24-.4.98-.4.98-.92,2.25-2.05,5.04-4.45,7.46-2.04,2.06-4.26,3.62-6.21,5l-.09.06c-.87.62-1.7,1.2-2.41,1.77-.74.59-1.56,1.35-2.42,2.15-1.76,1.64-3.73,3.49-6.22,4.97-2.61,1.56-5.32,2.55-7.7,3.42-.92.34-1.88.68-2.7,1.03-3.16,1.31-6.8,2.47-10.81,3.44-3.37.82-7.07,1.36-11.3,1.66-.35.02-.71.04-1.06.04ZM261.16,497.88l.81-.08c3.15-.32,6.72-.69,10.1-1.42,3.29-.72,5.81-2.34,7.82-3.63.36-.23.81-.52,1.13-.72.52-.32,1.06-.58,1.64-.78,2.98-1.03,6.35-2.2,9.65-3.86,2.71-1.36,4.86-3.05,6.81-4.58.8-.63,1.56-1.22,2.28-1.72,2.56-1.79,4.51-3.81,6.25-5.61.67-.69,1.29-1.34,1.85-1.87.56-.54,1.26-1.09,2.26-1.86,1.86-1.44,3.96-3.07,5.81-5.5.25-.33.53-.64.83-.93.28-.27.82-.76,1.23-1.12,1.86-1.66,4.18-3.74,5.75-6.86,1.45-2.87,2.31-5.9,3.08-8.58l.04-.14c.21-.73.42-1.46.64-2.17,1.08-3.49.58-6.75.26-8.9-.25-1.63,0-3.29.69-4.78,1.11-2.36,2.29-5.17,2.29-8.61,0-.96.04-2,.1-3.17.11-2.61.24-5.57-.19-8.61-.44-3.1-1.42-5.89-2.29-8.37-.37-1.06-.72-2.06-.99-2.97-1.03-3.52-3.16-6.08-4.72-7.95l-.35-.42c-.86-1.04-1.46-2.27-1.74-3.59l-.16-.75c-.5-2.43-1.12-5.45-3-8.38-2.2-3.42-4.54-6.56-6.96-9.36-2.05-2.36-4.34-4.2-6.37-5.82-.79-.63-1.6-1.28-2.32-1.91-2.32-2.02-4.78-3.37-6.97-4.59-1-.55-1.94-1.07-2.77-1.61-.8-.52-1.67-1.17-2.61-1.88-1.97-1.49-4.21-3.19-7.03-4.48-2.8-1.28-5.54-1.87-7.95-2.38-1.14-.24-2.22-.47-3.17-.75-.9-.26-1.88-.65-3.02-1.1-1.44-.57-3.07-1.21-4.9-1.72-3.93-1.09-6.49-4.86-6.05-8.91.44-4.05,3.74-7.19,7.81-7.42,2.08-.12,4.55-.33,7.02-1.06,3.36-.98,5.85-2.88,7.85-4.4.46-.35,1.07-.81,1.42-1.05.38-.27.79-.5,1.21-.7,2.71-1.28,4.93-2.87,6.9-4.28.84-.6,1.7-1.22,2.51-1.74,3.26-2.1,6.2-4.29,8.98-6.68.28-.24.58-.47.9-.67.42-.27.97-.59,1.76-1.04,2.11-1.21,4.74-2.71,6.95-5.26,2.35-2.71,4.62-5.78,6.93-9.37,1.66-2.59,2.69-5.24,3.61-7.64.41-1.06.79-2.06,1.2-2.94,1.29-2.81,1.96-5.58,2.55-8.03l.03-.11c.23-.96.45-1.87.7-2.73.08-.27.17-.53.27-.78.22-.55.52-1.17.95-2.05l.04-.08c1.06-2.17,2.39-4.87,2.86-8.18.48-3.4-.19-6.38-.73-8.77-.1-.46-.23-1.04-.31-1.43-.18-.88-.21-1.78-.1-2.67.06-.5.19-1.28.29-1.89.38-2.32.86-5.22.41-8.43-.52-3.64-1.16-7.55-2.29-11.4-.89-3.02-2.21-5.62-3.39-7.92-.48-.94-.94-1.83-1.34-2.71-.34-.75-.63-1.66-1.06-3.06-.74-2.39-1.58-5.1-3.3-7.77-1.68-2.61-3.71-4.59-5.54-6.38-.84-.82-1.64-1.6-2.27-2.32-.55-.64-1.1-1.43-1.93-2.66-1.34-1.97-3-4.43-5.39-6.49-2.89-2.51-6.24-3.38-8.68-4.02-.26-.07-.58-.15-.85-.23-.78-.21-1.53-.54-2.21-.97-2.56-1.6-5.21-3.03-8.32-4.48-.71-.33-1.37-.77-1.96-1.29-.22-.19-.48-.42-.68-.61-1.87-1.68-4.43-3.98-8.09-5.05-.39-.11-.77-.21-1.14-.3-3.29-.74-5.81-3.4-6.37-6.73-.56-3.33.94-6.67,3.8-8.45l.82-.52c.32-.2.72-.46,1.02-.64.57-.34,1.17-.62,1.8-.82,2.79-.89,5.23-2.09,7.37-3.15l.17-.09c.66-.32,1.31-.65,1.99-.96.42-.2.86-.36,1.31-.48.42-.11,1.21-.3,1.81-.43,2.38-.53,5.35-1.2,8.22-3.05.75-.48,1.6-.93,2.94-1.61,2.14-1.09,4.8-2.45,7.15-4.49,2.37-2.06,4.29-4.42,5.98-6.51l.14-.17c.58-.72,1.15-1.42,1.74-2.1,2.02-2.33,3.48-4.86,4.77-7.09.56-.97,1.09-1.89,1.61-2.7,1.7-2.64,4.02-6.25,5.78-10.09,1.44-3.15,1.63-6.21,1.79-8.74.03-.55.08-1.24.12-1.64.05-.5.15-1,.29-1.48.82-2.79,1.83-6.26,2.43-10.08.1-.64.28-1.27.52-1.88.13-.32.32-.76.47-1.11.97-2.24,2.29-5.31,2.29-8.98,0-3.22-.49-6.21-.92-8.84v-.09c-.14-.75-.26-1.48-.36-2.21-.47-3.28-1.76-5.93-2.79-8.05l-.37-.77c-.53-1.12-.81-2.34-.81-3.59v-.41c0-2.5.02-5.92-1.68-9.3-2.03-4.03-4.46-7.58-6.15-9.85-2.31-3.12-5.45-4.62-7.75-5.73l-.26-.12c-1.09-.52-2.05-1.27-2.82-2.21-.22-.26-.44-.54-.66-.81-1.53-1.89-3.26-4.03-5.87-5.85-2.45-1.71-5.05-2.73-7.15-3.55-1.27-.5-2.1-.83-2.81-1.18-.11-.06-.22-.11-.33-.17-.55-.31-1.16-.72-2.22-1.46-1.95-1.36-4.16-2.9-7.11-3.92-2.65-.92-5.26-1.34-7.56-1.7-1.06-.17-2.16-.35-3.16-.56-3.29-.71-6.69-1.45-10.45-1.85-.35-.04-.69-.1-1.03-.18-.51-.12-1.13-.3-1.98-.55-2.16-.64-4.85-1.44-7.93-1.44-3.31,0-6.07,1.01-8.3,1.83l-.75.27c-.9.32-1.85.49-2.8.49-.21,0-.43,0-.64-.02-.37-.03-.8-.07-1.19-.1-1.16-.1-2.47-.22-3.87-.22-1.5,0-2.86.14-4.16.42-2.83.61-5.32,1.64-7.52,2.54-1.16.48-2.05.84-2.89,1.13-2.8.97-5.11,2.34-7.14,3.55-.95.56-1.85,1.1-2.66,1.51-3.01,1.51-6.03,3.33-9.23,5.55-.34.24-.7.45-1.07.63-.37.18-1.08.5-1.65.75-2.22.97-4.97,2.18-7.39,4.5-2.81,2.7-5.45,5.69-7.63,8.62-1.88,2.54-3.13,5.27-4.23,7.68-.42.92-.82,1.8-1.17,2.5-1.58,3.12-1.79,6.18-1.97,8.61-.03.39-.06.89-.1,1.25-.07.77-.25,1.52-.52,2.24-.19.49-.48,1.18-.73,1.75-.95,2.22-2.03,4.74-2.48,7.9-.41,2.87-.22,5.39-.03,7.83.08,1.08.17,2.2.17,3.19,0,.89-.09,1.83-.25,3.31-.25,2.3-.56,5.16-.12,8.23.14.96.2,2.09.27,3.34.14,2.5.29,5.32,1.16,8.28.88,2.99,2.26,5.51,3.48,7.73.54.98,1.09,1.99,1.5,2.87.41.9.8,1.95,1.21,3.06.88,2.36,1.88,5.04,3.55,7.63,1.67,2.6,3.69,4.64,5.48,6.45.82.83,1.59,1.61,2.23,2.34,2.05,2.36,4.32,4.18,6.32,5.78.79.63,1.6,1.28,2.32,1.9,2.97,2.58,5.88,4.78,8.87,6.73.41.27.8.57,1.15.91.31.29.84.83,1.24,1.23,1.76,1.8,3.96,4.03,7.14,5.48,3.28,1.5,6.48,1.58,9.09,1.64.45.01,1.02.03,1.39.05.59.03,1.17.12,1.73.28l.21.06c3.64.98,6.17,4.28,6.16,8.05,0,3.77-2.55,7.06-6.19,8.03-.4.1-.79.22-1.18.33-3.34.98-5.85,2.86-7.92,4.43-.47.35-1.05.79-1.39,1.02-.4.27-.82.51-1.25.71-2.54,1.16-6.39,2.92-9.9,5.19-2.61,1.68-4.66,3.65-6.46,5.39-.76.73-1.54,1.48-2.28,2.12-2.37,2.05-4.15,4.28-5.73,6.25-.66.83-1.29,1.61-1.86,2.27-.56.65-1.23,1.28-2.29,2.27-1.74,1.62-3.71,3.46-5.39,6-.22.33-.46.64-.72.94-.29.33-.9.96-1.37,1.44-1.74,1.78-3.91,3.99-5.33,7.1-1.33,2.9-2.13,5.92-2.84,8.58l-.04.14c-.23.85-.45,1.69-.69,2.51-1.04,3.53-.56,6.86-.21,9.31l.03.19c.2,1.49-.01,3-.61,4.38-.02.04-.06.14-.08.19-1.02,2.25-2.41,5.33-2.41,9.07,0,.98-.05,2.05-.1,3.17-.11,2.61-.24,5.57.19,8.61.44,3.11,1.42,5.9,2.29,8.37.37,1.06.72,2.05.99,2.97,1.03,3.52,3.17,6.08,4.75,7.98l.33.4c.86,1.04,1.45,2.27,1.73,3.59l.15.74c.5,2.43,1.12,5.45,3,8.38,2.2,3.42,4.55,6.57,6.97,9.36,2.04,2.36,4.34,4.2,6.38,5.83.82.66,1.6,1.28,2.31,1.9,2.33,2.02,4.78,3.38,7.02,4.61.98.54,1.91,1.06,2.71,1.57.81.52,1.68,1.18,2.61,1.88,1.97,1.49,4.21,3.19,7.04,4.48,2.8,1.28,5.53,1.87,7.95,2.38,1.14.24,2.22.48,3.18.75.9.26,1.88.65,3.02,1.1,1.44.57,3.07,1.21,4.89,1.72,3.93,1.09,6.49,4.86,6.05,8.91-.44,4.05-3.74,7.19-7.81,7.41-2.08.12-4.55.33-7.02,1.06-3.36.99-5.85,2.88-7.87,4.41-.46.35-1.06.8-1.4,1.04-.38.27-.79.5-1.21.7-2.7,1.27-4.92,2.86-6.89,4.27-.84.6-1.7,1.22-2.52,1.74-3.26,2.1-6.2,4.29-8.97,6.68-.28.24-.58.46-.89.67-.46.3-1.05.64-1.77,1.05-2.11,1.21-4.74,2.71-6.95,5.26-2.35,2.71-4.62,5.78-6.93,9.37-1.67,2.59-2.69,5.25-3.6,7.6-.39,1.02-.8,2.07-1.21,2.98-1.29,2.81-1.96,5.58-2.56,8.06-.24.99-.47,1.92-.72,2.8-.08.28-.17.55-.28.81-.21.52-.49,1.12-.98,2.11-1.06,2.17-2.39,4.87-2.86,8.17-.49,3.4.19,6.38.73,8.76.1.44.22,1,.3,1.39.19.94.21,1.9.07,2.85-.06.44-.18,1.08-.26,1.58-.39,2.24-.88,5.02-.44,8.13.5,3.52,1.13,7.3,2.28,11.02.95,3.08,2.37,5.64,3.63,7.91.47.85.91,1.64,1.24,2.29.02.03.03.06.05.1.3.62.57,1.33,1.05,2.69.84,2.36,1.79,5.03,3.71,7.62,1.87,2.52,4.16,4.39,6,5.9.88.72,1.65,1.35,2.33,2,.53.52,1.07,1.17,1.92,2.21,1.57,1.92,3.34,4.09,5.94,5.91,3.11,2.17,6.47,2.62,8.98,2.95l.56.08c.85.12,1.67.37,2.45.74,2.36,1.13,4.91,2.19,7.81,3.23.83.3,1.61.72,2.3,1.26l.42.32c1.91,1.5,4.54,3.55,8.17,4.33,1.37.3,2.84.44,4.47.44,1.22,0,2.39-.08,3.48-.16.76-.05,1.55-.11,2.25-.11h.03c.28,0,.55.01.83.04,1.23.12,2.54.18,4.01.18,1.21,0,2.33-.04,3.53-.08.7-.02,1.38-.05,2.02-.06.06,0,.11,0,.17,0,.79,0,1.58.11,2.34.34.28.08.61.18.87.26,1.91.58,4.3,1.31,7.04,1.31.52,0,1.04-.03,1.54-.08ZM117.6,416.24c3.56-.83,6.14-2.9,8-4.39l.37-.3c.98-.79,2.13-1.34,3.35-1.62l.8-.18c2.27-.5,5.09-1.13,7.93-2.78,2.72-1.58,4.84-3.6,6.59-5.25.87-.82,1.62-1.53,2.35-2.12l.11-.09c2.73-2.16,5.55-4.39,8.19-7.13.4-.41.84-.78,1.31-1.1.33-.23.87-.57,1.29-.84,2.15-1.37,4.83-3.07,6.88-5.98,1.82-2.58,2.88-5.38,3.74-7.64.52-1.39.87-2.28,1.26-3.05.38-.75.87-1.63,1.38-2.55l.05-.09c1.28-2.3,2.73-4.9,3.74-7.86,1.14-3.33,2.4-7.28,3.16-11.31.8-4.23,1.28-8.16,1.44-11.68.17-3.75-1.16-6.91-2.14-9.22l-.18-.43c-.52-1.24-.74-2.58-.62-3.92,0,0,.08-.89.08-.89.22-2.42.49-5.43-.32-8.72-.95-3.84-2.38-7.35-3.77-10.75l-.09-.23c-1.18-2.89-2.75-5.42-4.14-7.65l-.07-.11c-.48-.77-.96-1.55-1.43-2.35-2.08-3.57-4.51-6.72-6.63-9.4-2.41-3.05-4.95-5.83-7.77-8.49-2.48-2.35-5.01-4.09-7.45-5.78-.56-.39-1.13-.77-1.69-1.17-.55-.39-1.1-.78-1.67-1.2-2.32-1.67-4.72-3.4-7.58-4.89-.47-.25-.92-.54-1.33-.87-.31-.25-.81-.67-1.25-1.04-1.92-1.64-4.32-3.69-7.65-4.83-1.66-.57-3.43-.84-5.42-.84-1.47,0-2.83.15-4.08.29l-.78.08c-.29.03-.57.04-.86.04-.73,0-1.47-.1-2.18-.29-.52-.14-1.13-.32-1.73-.5l-.48-.14c-3.74-1.11-6.21-4.67-5.93-8.56.27-3.89,3.21-7.07,7.07-7.65.86-.13,1.72-.28,2.56-.44,3.3-.63,7.15-1.41,11.08-2.76.89-.3,1.83-.59,2.85-.89,2.44-.72,5.2-1.55,7.99-2.97,2.8-1.43,4.95-3.36,6.7-4.93.52-.47,1.1-.98,1.53-1.34.67-.56,1.43-1.01,2.24-1.33.32-.13.74-.29,1.08-.42,2.38-.9,5.34-2.02,7.97-4.52,2.72-2.58,5.53-5.25,8.07-8.47,1.89-2.4,3.09-4.95,4.15-7.2.54-1.15,1.01-2.15,1.49-2.98.05-.09.1-.17.16-.26.41-.64.94-1.32,1.82-2.42,1.58-1.96,3.37-4.19,4.57-7.16,1.4-3.45,1.27-6.85,1.17-9.35l-.02-.42c-.05-1.4.25-2.79.87-4.04l.32-.63c1.12-2.23,2.52-5,2.86-8.46.34-3.53.67-7.68.49-11.74-.21-4.47-.62-8.29-1.27-11.69-.67-3.51-1.79-6.74-2.88-9.87l-.48-1.39c-1.03-3-2.63-5.34-4.04-7.41-.92-1.35-1.36-2.01-1.71-2.68-.06-.11-.11-.22-.16-.33-.31-.67-.59-1.47-1-2.72-.8-2.4-1.71-5.13-3.59-7.78-1.96-2.78-4.48-4.53-6.5-5.93-.54-.38-1.26-.88-1.6-1.15-.34-.26-.66-.55-.95-.87l-.77-.81c-2.19-2.33-4.46-4.73-7.32-6.98-.76-.6-1.6-1.37-2.4-2.11-1.75-1.61-3.93-3.61-6.64-5.19-3.34-1.94-6.71-3.6-10.01-4.94-3.19-1.29-6.34-1.98-9.12-2.6l-.19-.04c-.53-.12-1.05-.23-1.57-.35-3.2-.74-6.2-.84-8.84-.92h-.22c-.73-.03-1.46-.06-2.19-.1-.54-.03-1.1-.05-1.66-.05-2.57,0-4.94.34-7.04.64l-.21.03c-.67.1-1.34.19-2.01.27-.32.04-.65.06-.97.06-.04,0-.08,0-.12,0-.42,0-1.17-.05-1.89-.1-.96-.07-2.04-.14-3.2-.14-2,0-3.77.23-5.43.7-3.27.93-6.72,2.25-10.55,4.03-.71.33-1.44.65-2.18.97l-.13.06c-2.41,1.05-5.14,2.24-7.76,3.95-2.79,1.83-4.52,4.23-5.91,6.15,0,0-.07.1-.08.1-.91,1.28-2.16,2.28-3.62,2.88-2.07.85-5.19,2.14-7.67,4.85-1.85,2.03-3.3,4.25-4.61,6.25-.63.97-1.22,1.88-1.81,2.69-1.74,2.4-2.64,4.85-3.43,7.02-.36.99-.62,1.68-.88,2.24-.11.24-.23.48-.37.71-1.9,3.27-3.49,6.35-4.88,9.42-1.59,3.52-2.75,7.01-3.72,10-.08.24-.17.48-.26.71-.22.52-.52,1.11-1.07,2.15-1.09,2.09-2.34,4.46-2.92,7.44-.57,2.93-.51,5.74-.46,8,.02,1.13.05,2.2,0,3.09-.05.82-.2,1.72-.43,3.13-.38,2.25-.86,5.06-.61,8.07.32,3.79,2.1,6.71,3.28,8.64.81,1.32,1.23,2.85,1.22,4.4-.02,2.36-.04,5.59,1.4,8.93l.57,1.33c1.19,2.8,2.53,5.97,4.47,8.95,1.91,2.92,4.16,5.34,6.35,7.68l1.01,1.09c2.52,2.73,5.32,5.31,8.32,7.68,3.04,2.4,6.42,4.41,9.35,6.12,2.78,1.61,5.6,2.66,8.09,3.58l.16.06c.82.3,1.63.61,2.43.93,3.65,1.48,7.17,2.34,10.58,3.18l.33.08c.31.08.61.17.91.28.42.15.91.36,1.76.75,3.31,1.49,5.27,4.96,4.85,8.57-.43,3.61-3.15,6.52-6.71,7.19-.34.07-.68.14-1.02.22-3.28.81-6.69,1.97-11.06,3.75-3.69,1.5-7.21,3.22-10.46,5.12-2.82,1.64-4.78,3.78-6.35,5.5-.6.66-1.06,1.16-1.46,1.54-.18.17-.37.34-.56.49-2.46,1.96-4.24,4.07-5.82,5.94-.31.37-.62.73-.91,1.06-.59.69-1.3,1.27-2.08,1.73l-.59.34c-2.14,1.24-5.08,2.93-7.14,6.1-1.93,2.97-2.51,6.03-2.97,8.47-.08.45-.19,1.02-.27,1.37-.12.54-.29,1.06-.51,1.57-.22.51-.45,1.01-.68,1.51l-.07.14c-1.09,2.41-2.33,5.13-3.1,8.3-.79,3.24-1.32,6.67-1.66,10.78-.03.37-.09.74-.17,1.11-.09.39-.29,1.16-.47,1.81-.63,2.29-1.41,5.15-1.21,8.44.18,2.9.83,5.63,1.4,8.03.23.98.47,1.99.65,2.92.55,2.78,1.49,5.32,2.33,7.61.37,1,.72,1.94,1.01,2.83.88,2.72,2.03,5.11,3.14,7.42l.04.08c.38.8.77,1.6,1.14,2.42,1.52,3.35,3.12,6.47,4.91,9.53.5.85.96,1.85,1.5,3.03.93,2.02,1.98,4.3,3.59,6.51.4.54.79,1.09,1.18,1.64l.1.14c1.63,2.29,3.33,4.65,5.37,6.89,2.25,2.46,4.85,3.81,6.96,4.92.29.15.64.33.92.49.87.47,1.66,1.1,2.31,1.84.29.33.68.8.99,1.17,1.44,1.74,3.24,3.9,5.84,5.59,2.64,1.72,5.26,2.52,7.64,3.25,1.25.38,1.86.58,2.43.81.09.04.18.08.27.12,3.2,1.48,6.21,2.32,9.14,3.14l1.33.37c2.79.79,6.55,1.77,10.86,2.25,2.57.28,5.35.55,8.29.55.79,0,1.59-.02,2.38-.06.14,0,.27-.01.41-.01.4,0,.8.03,1.19.09.35.05.88.14,1.29.21,1.46.25,3.28.56,5.25.56,1.33,0,2.62-.14,3.82-.42ZM332.27,412.35c-.44-3.1-1.42-5.89-2.29-8.37-.37-1.06-.72-2.05-.99-2.96-1.03-3.52-3.16-6.08-4.72-7.95l-.35-.42c-.87-1.04-1.46-2.27-1.74-3.59l-.16-.75c-.5-2.43-1.11-5.45-3-8.38-2.2-3.41-4.54-6.56-6.96-9.35-2.05-2.36-4.34-4.2-6.37-5.82-.78-.63-1.6-1.28-2.32-1.91-2.32-2.01-4.78-3.37-6.97-4.58-1-.55-1.95-1.07-2.77-1.61-.8-.52-1.66-1.17-2.6-1.88-1.97-1.49-4.21-3.19-7.04-4.48-2.8-1.28-5.53-1.86-7.95-2.38-1.14-.25-2.21-.47-3.17-.76-.9-.26-1.87-.65-3.01-1.1-1.44-.57-3.07-1.21-4.9-1.71-3.93-1.09-6.49-4.86-6.05-8.91.43-4.05,3.74-7.19,7.81-7.41,2.08-.12,4.54-.33,7.01-1.06,3.36-.98,5.86-2.88,7.85-4.4.47-.35,1.07-.81,1.41-1.05.39-.27.79-.51,1.21-.71,2.71-1.27,4.93-2.87,6.9-4.28.84-.6,1.71-1.21,2.51-1.74,3.26-2.1,6.2-4.29,8.98-6.68.28-.24.58-.47.9-.67.42-.27.97-.59,1.76-1.04,2.11-1.21,4.73-2.71,6.96-5.27,2.35-2.71,4.62-5.77,6.93-9.37,1.66-2.59,2.69-5.24,3.61-7.64.41-1.07.8-2.06,1.2-2.95,1.29-2.8,1.96-5.57,2.55-8.03l.02-.11c.23-.97.46-1.87.7-2.73.08-.27.17-.53.27-.78.22-.55.52-1.17.95-2.06l.04-.07c1.06-2.17,2.38-4.87,2.85-8.18.48-3.39-.18-6.37-.72-8.77-.11-.46-.23-1.04-.32-1.43-.17-.88-.21-1.78-.09-2.67.06-.5.18-1.28.28-1.89.38-2.32.87-5.22.41-8.42-.52-3.64-1.16-7.55-2.29-11.4-.88-3.02-2.21-5.62-3.39-7.92-.48-.95-.94-1.84-1.34-2.71-.34-.76-.62-1.66-1.06-3.06-.75-2.39-1.59-5.09-3.31-7.76-1.68-2.61-3.71-4.59-5.54-6.38-.84-.82-1.64-1.6-2.26-2.32-.56-.64-1.1-1.43-1.94-2.66-1.33-1.97-3-4.43-5.38-6.49-2.9-2.51-6.24-3.39-8.68-4.03-.27-.07-.58-.15-.86-.22-.78-.22-1.52-.54-2.21-.97-2.56-1.6-5.21-3.02-8.32-4.48-.72-.33-1.37-.77-1.96-1.28-.22-.19-.48-.42-.68-.61-1.87-1.68-4.43-3.99-8.09-5.06-.39-.11-.77-.21-1.15-.29-3.29-.74-5.81-3.4-6.37-6.73-.57-3.33.94-6.66,3.8-8.45l.82-.52c.32-.21.72-.46,1.02-.64.57-.35,1.17-.62,1.81-.82,2.79-.88,5.23-2.09,7.37-3.15l.17-.08c.66-.32,1.31-.65,1.99-.97.42-.2.86-.36,1.31-.48.42-.11,1.21-.29,1.81-.43,2.39-.53,5.36-1.2,8.23-3.05.74-.48,1.6-.92,2.94-1.61,2.14-1.1,4.79-2.45,7.15-4.49,2.38-2.06,4.29-4.43,5.98-6.51l.13-.17c.58-.72,1.16-1.42,1.75-2.1,2.02-2.34,3.48-4.86,4.76-7.1.57-.97,1.09-1.88,1.61-2.7,1.7-2.63,4.03-6.24,5.78-10.09,1.45-3.15,1.64-6.21,1.8-8.74.03-.55.08-1.24.12-1.64.05-.5.15-.99.29-1.48.82-2.78,1.83-6.25,2.42-10.08.11-.65.28-1.28.52-1.88.13-.32.32-.77.47-1.11.97-2.25,2.3-5.32,2.3-8.99,0-3.22-.48-6.21-.92-8.84l-.02-.08c-.12-.75-.24-1.48-.35-2.21-.47-3.29-1.76-5.93-2.79-8.05l-.37-.77c-.53-1.12-.82-2.35-.82-3.59v-.42c.02-2.5.03-5.92-1.67-9.29-2.04-4.04-4.47-7.58-6.15-9.85-2.31-3.11-5.45-4.62-7.75-5.72l-.26-.12c-1.09-.52-2.06-1.27-2.83-2.2-.22-.27-.44-.54-.66-.82-1.53-1.89-3.26-4.03-5.87-5.85-2.45-1.71-5.05-2.72-7.15-3.54-1.27-.5-2.1-.82-2.81-1.18-.11-.06-.22-.12-.32-.17-.56-.31-1.16-.72-2.22-1.46-1.96-1.36-4.17-2.9-7.11-3.93-2.65-.92-5.27-1.33-7.56-1.71-1.07-.17-2.16-.34-3.16-.56-3.29-.72-6.7-1.45-10.46-1.85-.35-.04-.69-.1-1.03-.17-.51-.12-1.12-.31-1.98-.56C256.03.8,253.34,0,250.25,0c-3.31,0-6.07,1.01-8.3,1.83l-.75.27c-.9.32-1.85.49-2.8.49-.21,0-.42,0-.63-.02-.37-.03-.81-.07-1.2-.11-1.16-.1-2.46-.22-3.86-.22-1.51,0-2.86.13-4.16.42-2.83.61-5.32,1.64-7.51,2.55-1.17.47-2.05.84-2.89,1.13-2.8.97-5.11,2.34-7.15,3.55-.95.57-1.85,1.1-2.65,1.51-3.01,1.51-6.04,3.33-9.24,5.55-.34.23-.7.45-1.07.63-.37.17-1.08.5-1.65.74-2.22.97-4.98,2.18-7.4,4.5-2.8,2.7-5.44,5.68-7.62,8.63-1.89,2.54-3.13,5.27-4.23,7.67-.42.93-.82,1.8-1.17,2.5-1.57,3.13-1.79,6.18-1.96,8.62-.03.39-.07.89-.1,1.24-.07.77-.25,1.52-.52,2.24-.19.49-.48,1.18-.72,1.76-.96,2.22-2.03,4.74-2.48,7.9-.42,2.87-.22,5.38-.03,7.83.09,1.08.17,2.2.17,3.19,0,.89-.09,1.83-.26,3.31-.25,2.3-.56,5.17-.12,8.23.14.97.21,2.09.27,3.34.14,2.5.29,5.32,1.16,8.28.87,3,2.25,5.52,3.48,7.74.53.97,1.08,1.98,1.49,2.87.42.9.8,1.95,1.21,3.05.88,2.36,1.88,5.03,3.55,7.63,1.67,2.6,3.69,4.64,5.47,6.45.82.82,1.58,1.61,2.22,2.34,2.05,2.36,4.33,4.19,6.32,5.78.79.63,1.61,1.28,2.33,1.91,2.97,2.58,5.87,4.78,8.87,6.73.42.27.8.57,1.16.91.31.29.84.83,1.24,1.24,1.76,1.8,3.96,4.03,7.14,5.48,3.28,1.5,6.47,1.58,9.09,1.64.45.02,1.01.03,1.39.05.59.03,1.17.12,1.74.27l.21.06c3.64.97,6.17,4.28,6.16,8.05,0,3.77-2.55,7.06-6.19,8.02-.39.11-.79.22-1.18.33-3.34.97-5.84,2.86-7.91,4.43-.47.35-1.06.78-1.4,1.02-.39.27-.82.52-1.25.72-2.55,1.16-6.39,2.92-9.91,5.18-2.6,1.68-4.65,3.65-6.46,5.4-.76.72-1.54,1.48-2.27,2.12-2.36,2.05-4.15,4.28-5.73,6.25-.67.83-1.29,1.61-1.86,2.27-.57.65-1.23,1.28-2.29,2.26-1.75,1.62-3.72,3.46-5.4,6.01-.22.32-.45.64-.72.93-.29.33-.9.97-1.36,1.45-1.75,1.77-3.91,3.99-5.33,7.1-1.33,2.9-2.14,5.92-2.85,8.58l-.03.14c-.22.85-.45,1.69-.69,2.51-1.04,3.53-.57,6.86-.22,9.31l.03.19c.2,1.49,0,3-.61,4.38-.02.05-.07.15-.08.19-1.02,2.25-2.41,5.33-2.41,9.07,0,.98-.04,2.05-.09,3.17-.12,2.61-.25,5.57.18,8.61.44,3.11,1.42,5.91,2.29,8.37.37,1.06.72,2.06.99,2.97,1.03,3.51,3.16,6.07,4.75,7.98l.33.4c.86,1.04,1.46,2.27,1.73,3.59l.15.73c.5,2.43,1.11,5.45,3,8.38,2.2,3.42,4.55,6.57,6.96,9.36,2.05,2.35,4.34,4.19,6.39,5.83.82.66,1.6,1.28,2.3,1.9,2.33,2.02,4.78,3.38,7.02,4.61.98.55,1.91,1.06,2.71,1.58.81.52,1.68,1.17,2.61,1.88,1.97,1.49,4.21,3.19,7.04,4.48,2.8,1.28,5.53,1.87,7.95,2.39,1.14.24,2.22.47,3.17.75.9.27,1.88.65,3.02,1.1,1.44.57,3.07,1.21,4.89,1.71,3.93,1.09,6.49,4.86,6.05,8.91-.43,4.05-3.74,7.19-7.81,7.41-2.08.12-4.54.33-7.01,1.06-3.36.99-5.86,2.88-7.87,4.41-.46.35-1.06.81-1.4,1.04-.39.27-.79.51-1.21.71-2.7,1.27-4.93,2.86-6.89,4.27-.84.6-1.71,1.22-2.52,1.75-3.26,2.11-6.2,4.28-8.97,6.68-.28.24-.58.47-.89.67-.46.3-1.05.64-1.77,1.06-2.11,1.21-4.73,2.7-6.95,5.26-2.35,2.71-4.63,5.78-6.94,9.37-1.66,2.59-2.7,5.25-3.59,7.6-.39,1.02-.8,2.07-1.21,2.99-1.29,2.81-1.96,5.58-2.56,8.05-.23.99-.47,1.93-.72,2.8-.07.27-.17.55-.28.82-.2.52-.49,1.11-.98,2.11-1.06,2.16-2.38,4.87-2.85,8.17-.48,3.39.19,6.37.72,8.76.1.44.23,1,.31,1.4.18.93.21,1.9.08,2.85-.07.44-.18,1.07-.27,1.57-.39,2.24-.88,5.03-.44,8.13.51,3.53,1.13,7.3,2.28,11.02.95,3.08,2.37,5.63,3.63,7.91.47.84.92,1.64,1.24,2.29.02.03.03.07.05.1.3.62.57,1.33,1.05,2.69.84,2.36,1.8,5.03,3.71,7.62,1.87,2.51,4.16,4.39,6.01,5.9.88.72,1.65,1.34,2.33,2,.52.52,1.07,1.17,1.92,2.21,1.56,1.91,3.34,4.09,5.94,5.91,3.1,2.16,6.47,2.61,8.98,2.95l.56.07c.85.12,1.68.37,2.45.74,2.36,1.14,4.91,2.2,7.81,3.23.82.3,1.61.72,2.3,1.26l.42.32c1.91,1.5,4.53,3.54,8.17,4.33,1.38.3,2.84.44,4.48.44,1.22,0,2.39-.07,3.49-.16.76-.05,1.54-.1,2.25-.11h.02c.28,0,.56.02.83.04,1.23.12,2.55.18,4.01.18,1.21,0,2.33-.03,3.54-.07.7-.02,1.38-.05,2.02-.06h.17c.79,0,1.58.11,2.34.33.27.08.61.18.87.27,1.91.58,4.29,1.31,7.04,1.31.52,0,1.04-.02,1.54-.07l.82-.08c3.14-.32,6.71-.69,10.09-1.42,3.3-.72,5.81-2.34,7.81-3.64.36-.22.82-.52,1.13-.72.52-.32,1.07-.57,1.63-.77,2.98-1.03,6.35-2.2,9.65-3.85,2.71-1.36,4.87-3.05,6.81-4.58.8-.62,1.56-1.22,2.27-1.72,2.56-1.79,4.51-3.8,6.26-5.62.67-.69,1.29-1.33,1.85-1.87.57-.54,1.26-1.09,2.25-1.86,1.86-1.44,3.96-3.07,5.82-5.51.26-.33.53-.64.83-.93.28-.27.81-.76,1.22-1.12,1.86-1.66,4.19-3.74,5.76-6.86,1.45-2.87,2.31-5.91,3.08-8.59l.04-.14c.21-.72.42-1.46.64-2.17,1.07-3.49.58-6.74.26-8.89-.25-1.63,0-3.29.69-4.78,1.11-2.36,2.29-5.17,2.29-8.61,0-.97.04-2,.1-3.17.11-2.61.24-5.57-.19-8.61ZM177.42,331.08l-.18-.42c-.52-1.24-.73-2.58-.62-3.92l.08-.89c.22-2.42.49-5.43-.32-8.72-.95-3.84-2.37-7.35-3.76-10.76l-.09-.22c-1.18-2.9-2.75-5.42-4.14-7.65l-.07-.12c-.48-.77-.97-1.55-1.43-2.35-2.08-3.57-4.51-6.72-6.63-9.4-2.41-3.05-4.95-5.82-7.76-8.49-2.48-2.34-5.02-4.09-7.45-5.77-.57-.38-1.13-.77-1.7-1.17-.55-.38-1.09-.78-1.67-1.2-2.31-1.66-4.72-3.39-7.57-4.89-.47-.24-.92-.53-1.34-.87-.31-.25-.81-.67-1.24-1.05-1.93-1.64-4.33-3.69-7.65-4.83-1.66-.57-3.44-.84-5.42-.84-1.48,0-2.84.15-4.08.29l-.78.08c-.28.02-.57.04-.86.04-.73,0-1.46-.1-2.18-.29-.51-.14-1.12-.32-1.73-.5l-.47-.14c-3.74-1.11-6.21-4.68-5.93-8.56.27-3.89,3.21-7.07,7.07-7.65.86-.12,1.71-.27,2.56-.43,3.3-.63,7.15-1.41,11.08-2.76.88-.31,1.83-.58,2.85-.89,2.44-.72,5.2-1.55,7.99-2.97,2.8-1.43,4.95-3.35,6.7-4.93.52-.47,1.1-.97,1.53-1.34.67-.56,1.43-1.01,2.24-1.33.32-.13.75-.29,1.08-.42,2.38-.9,5.33-2.02,7.97-4.53,2.72-2.58,5.52-5.24,8.06-8.46,1.9-2.4,3.1-4.95,4.16-7.2.54-1.16,1.01-2.16,1.49-2.98.05-.09.11-.17.16-.26.41-.65.95-1.33,1.82-2.42,1.58-1.96,3.37-4.19,4.58-7.16,1.4-3.45,1.26-6.86,1.17-9.35l-.02-.42c-.05-1.4.25-2.79.87-4.04l.32-.62c1.12-2.23,2.53-5,2.86-8.46.35-3.54.67-7.69.49-11.74-.21-4.47-.62-8.3-1.27-11.7-.67-3.51-1.79-6.73-2.87-9.86l-.48-1.39c-1.03-3-2.63-5.35-4.04-7.41-.92-1.35-1.36-2.01-1.71-2.67-.05-.11-.11-.22-.16-.32-.31-.67-.58-1.48-1-2.73-.81-2.4-1.71-5.13-3.59-7.78-1.96-2.78-4.48-4.53-6.5-5.94-.54-.37-1.26-.88-1.61-1.15-.34-.27-.66-.55-.96-.87l-.77-.81c-2.19-2.33-4.46-4.73-7.31-6.99-.76-.59-1.6-1.36-2.4-2.11-1.75-1.61-3.92-3.61-6.63-5.18-3.34-1.94-6.71-3.6-10.01-4.93-3.19-1.29-6.34-1.98-9.12-2.6l-.18-.04c-.53-.12-1.06-.23-1.57-.35-3.19-.74-6.19-.84-8.84-.92h-.22c-.73-.02-1.46-.05-2.19-.09-.53-.03-1.09-.05-1.66-.05-2.57,0-4.94.33-7.04.64l-.21.02c-.67.1-1.34.19-2.01.27-.32.03-.65.06-.97.06h-.12c-.42,0-1.17-.06-1.88-.1-.96-.07-2.05-.14-3.2-.14-2,0-3.77.23-5.42.7-3.27.93-6.71,2.25-10.55,4.04-.71.33-1.44.65-2.18.97l-.12.05c-2.41,1.05-5.14,2.24-7.76,3.95-2.8,1.83-4.53,4.23-5.92,6.15,0,0-.07.1-.07.11-.91,1.28-2.16,2.28-3.62,2.88-2.06.85-5.18,2.13-7.66,4.85-1.86,2.03-3.3,4.25-4.61,6.26-.63.97-1.22,1.88-1.81,2.69-1.74,2.4-2.64,4.85-3.43,7.01-.37.99-.62,1.68-.88,2.25-.11.24-.23.47-.37.71-1.9,3.27-3.49,6.36-4.88,9.43-1.58,3.51-2.75,7.01-3.72,10-.07.24-.17.47-.27.71-.22.52-.52,1.11-1.07,2.15-1.09,2.09-2.33,4.45-2.91,7.44-.57,2.93-.52,5.74-.47,8,.02,1.13.05,2.2,0,3.09-.05.82-.2,1.72-.44,3.14-.38,2.25-.86,5.06-.61,8.07.32,3.79,2.1,6.71,3.29,8.64.81,1.32,1.23,2.85,1.22,4.4-.02,2.35-.04,5.58,1.4,8.93l.57,1.33c1.19,2.8,2.53,5.97,4.48,8.94,1.91,2.93,4.15,5.34,6.35,7.69l1.01,1.09c2.52,2.73,5.33,5.32,8.32,7.68,3.04,2.4,6.41,4.42,9.34,6.12,2.78,1.61,5.6,2.66,8.09,3.58l.16.06c.82.31,1.63.61,2.43.93,3.65,1.48,7.18,2.35,10.58,3.18l.33.08c.31.07.62.17.91.27.42.16.91.37,1.76.75,3.31,1.5,5.28,4.96,4.85,8.57-.43,3.6-3.14,6.51-6.71,7.2-.35.06-.69.13-1.02.22-3.28.82-6.69,1.97-11.07,3.75-3.69,1.5-7.21,3.22-10.47,5.12-2.81,1.64-4.78,3.79-6.35,5.5-.6.67-1.06,1.16-1.46,1.54-.18.17-.37.34-.57.49-2.45,1.96-4.24,4.08-5.82,5.94-.31.37-.62.73-.9,1.07-.6.68-1.3,1.27-2.09,1.73l-.58.34c-2.15,1.24-5.08,2.94-7.14,6.11-1.93,2.97-2.5,6.02-2.97,8.47-.08.44-.19,1.02-.27,1.37-.12.54-.29,1.07-.51,1.57-.22.51-.45,1.01-.67,1.51l-.07.14c-1.1,2.4-2.33,5.13-3.1,8.3-.79,3.25-1.31,6.67-1.66,10.78-.03.37-.08.74-.17,1.11-.08.39-.29,1.16-.47,1.81-.63,2.3-1.41,5.15-1.21,8.45.17,2.9.82,5.62,1.4,8.03.23.98.47,2,.65,2.92.55,2.78,1.49,5.32,2.34,7.6.37,1,.72,1.94,1.01,2.84.89,2.71,2.03,5.11,3.15,7.42l.03.07c.38.8.77,1.61,1.14,2.42,1.52,3.35,3.13,6.47,4.91,9.54.5.85.96,1.85,1.5,3.03.93,2.02,1.98,4.3,3.59,6.51.4.54.79,1.09,1.18,1.64l.1.14c1.64,2.29,3.33,4.65,5.37,6.89,2.25,2.45,4.85,3.81,6.96,4.92.29.15.64.33.92.48.88.47,1.66,1.1,2.31,1.85.29.33.68.8.99,1.16,1.44,1.74,3.24,3.9,5.84,5.59,2.65,1.72,5.26,2.52,7.64,3.25,1.26.38,1.86.57,2.43.82.09.03.18.07.27.12,3.2,1.48,6.21,2.32,9.14,3.14l1.33.37c2.8.8,6.56,1.77,10.86,2.25,2.57.28,5.36.55,8.29.55.79,0,1.59-.02,2.38-.06.13,0,.27,0,.41,0,.4,0,.8.02,1.19.08.35.05.88.14,1.29.21,1.46.25,3.28.56,5.26.56,1.33,0,2.61-.14,3.82-.42,3.56-.82,6.15-2.9,8-4.38l.37-.3c.98-.79,2.12-1.34,3.34-1.62l.81-.18c2.26-.5,5.08-1.12,7.93-2.78,2.72-1.59,4.84-3.6,6.59-5.25.86-.82,1.61-1.54,2.35-2.11l.11-.09c2.72-2.16,5.54-4.38,8.19-7.12.4-.42.84-.78,1.31-1.11.32-.22.87-.57,1.29-.84,2.16-1.36,4.83-3.07,6.87-5.97,1.82-2.58,2.89-5.38,3.74-7.64.52-1.38.87-2.28,1.26-3.05.38-.76.87-1.63,1.38-2.55l.05-.09c1.28-2.3,2.73-4.9,3.74-7.85,1.13-3.34,2.4-7.29,3.15-11.32.8-4.23,1.29-8.15,1.44-11.67.17-3.75-1.17-6.91-2.13-9.22Z" fill="#faf2d5"/>
  <path d="M327.01,478.96c-1.93,2.16-.93,3.89,1.86,3.11,3.53-.98,8.15-.52,12.57-1.85,3.86-1.17,7.55-3.68,11.61-5.04s8.43-1.75,12.23-3.22c4.23-1.63,8.23-3.34,11.6-5.03s6.24-4.98,9.55-7.63c3.13-2.5,6.66-4.71,9.52-7.59s6.23-5.67,8.71-8.59c3.02-3.56,5.3-7.17,7.28-9.81,1.54-2.06-.49-5.02-3.03-4.65-3.12.45-7.2-.14-11.83.05-3.62.15-7.56.79-11.77.5-3.77-.26-7.59-1.23-11.6-2.01-3.77-.73-8.05-.16-11.86-1.51s-7.09-3.51-10.61-5.48c-1.88-1.05-3.32.04-3.41,2.2-.18,4.27-.31,8.43-.9,12.22-.66,4.25-3.27,7.84-4.32,11.51-1.19,4.17-1.39,8.39-2.92,11.85-1.78,4.04-3.66,7.74-5.64,10.86-2.49,3.93-4.75,7.53-7.03,10.08Z" fill="#faf2d5"/>
  <path d="M325.43,18.86c-1.93-2.16.81-5.88,3.6-5.11,3.53.98,7.77,1.83,12.18,3.16,3.86,1.17,8.08,2.03,12.14,3.4s7.92,3.19,11.72,4.66c4.23,1.63,8.03,3.61,11.4,5.3s6.98,3.75,10.3,6.4c3.13,2.5,5.93,5.52,8.79,8.4s6.49,5.4,8.97,8.31c3.02,3.56,5.47,7.03,7.44,9.67,1.54,2.06-.61,5.57-3.15,5.2-3.12-.45-7.06-2.08-11.68-2.26-3.62-.15-7.57,1.8-11.78,2.08-3.77.26-7.58.71-11.59,1.49-3.77.73-7.53,1.47-11.34,2.82s-7.45,2.25-10.96,4.22c-1.88,1.05-5.35-.39-5.44-2.54-.18-4.27,1.16-8.45.57-12.25-.66-4.25-1.19-8.39-2.24-12.06-1.19-4.17-3.54-7.71-5.06-11.17-1.78-4.04-3.49-7.77-5.47-10.89-2.49-3.93-6.11-6.26-8.39-8.81Z" fill="#faf2d5"/>
  <path d="M174.64,478.48c1.93,2.16.04,5.62-2.75,4.85-3.03-.84-7.01-1.98-11.24-3.72-3.39-1.4-7.15-2.87-10.89-4.59-3.54-1.62-6.37-4.97-9.89-6.67s-7.75-2.56-11.06-4.2c-4.03-2-7.54-4.04-10.43-5.48-4.18-2.09-7.21-5.14-10.43-7.6-3.65-2.78-8.19-4.19-10.98-7.22-3.05-3.32-4.45-7.8-6.95-11.14-1.54-2.06-.38-4.12,2.17-3.75,3.12.45,7.19.92,11.81,1.11,3.62.15,7.59-.99,11.8-1.28,3.77-.26,7.82.26,11.83-.52,3.77-.73,7.39-2.5,11.2-3.84s7.16-2.9,10.68-4.87c1.88-1.05,3.7.72,3.79,2.87.18,4.27,2.29,8.12,2.87,11.92.66,4.25.53,8.36,1.59,12.04,1.19,4.17,2.48,8.03,4.01,11.48,1.78,4.04,3.25,7.94,5.22,11.06,2.49,3.93,5.37,7,7.65,9.55Z" fill="#faf2d5"/>
  <path d="M174.17,17.51c1.93-2.16.54-5.1-2.25-4.33-3.53.98-7.8,1.75-12.22,3.09-3.86,1.17-7.57,3.59-11.64,4.95s-8.45,1.7-12.25,3.16c-4.23,1.63-7.8,4.21-11.17,5.9-3.42,1.71-6.88,3.88-10.19,6.52-3.13,2.5-6.02,5.41-8.87,8.29s-6.01,5.8-8.49,8.72c-3.02,3.56-5.79,6.74-7.77,9.38-1.54,2.06.4,5.26,2.94,4.89,3.12-.45,7.12-1.09,11.74-1.28,3.62-.15,7.62-.13,11.83.15,3.77.26,7.59,1.38,11.6,2.16,3.77.73,7.58,1.54,11.38,2.88s6.93,3.32,10.44,5.29c1.88,1.05,4.95-1.11,5.04-3.26.18-4.27-.49-8.44.1-12.23.66-4.25,2.21-8.11,3.26-11.79,1.19-4.17,2.58-8,4.1-11.46,1.78-4.04,4-7.47,5.97-10.58,2.49-3.93,4.15-7.9,6.43-10.45Z" fill="#faf2d5"/>
  <path d="M484.84,204.74c1.07-2.69,4.77-2.21,5.32.63.69,3.59,2.2,7.65,3.34,12.09.99,3.89.93,8.28,1.93,12.42s3.09,7.99,3.78,11.98c.77,4.43.82,8.7.81,12.47s.46,7.73.22,11.77-1.21,7.81-1.69,11.65c-.51,4.07-1.52,7.88-2.34,11.47-.99,4.33-1.31,8.43-2.81,11.39-1.16,2.3-4.75,1.94-5.55-.51-1.12-3.42-1.33-7.66-3.14-11.93-1.41-3.33-3.53-6.96-6.16-10.76-2.07-2.99-5.38-5.56-8.59-8.83-2.58-2.63-5.96-4.86-9.48-7.66-2.94-2.33-5.14-6.25-8.84-8.69-1.8-1.19-1.86-2.36.02-3.4,4.56-2.51,7.39-6.6,10.68-9.32,4.02-3.32,7.28-6.37,9.84-9.79,3.11-4.15,5.02-8.23,6.77-12.15,2.16-4.85,4.36-9.02,5.88-12.81Z" fill="#faf2d5"/>
  <path d="M10.34,204.9c-1.07-2.69-5.68-2.63-6.23.21-.69,3.58-1.12,7.82-1.67,12.26-.49,3.93.2,8.2-.16,12.38s-1.88,8.22-2.08,12.22C0,246.35,0,250.58,0,254.32s.96,7.66.97,11.67-.93,7.88-.76,11.72c.19,4.08,2.3,7.84,2.85,11.44.67,4.36.72,8.35,2.22,11.33,1.16,2.3,5.54,2.39,6.34-.05,1.13-3.44,1.38-7.71,3.55-12,1.66-3.29,4.13-6.59,7.03-10.35,2.29-2.97,4.41-6.66,7.77-9.89,2.74-2.64,6.6-4.54,10.22-7.35,3.05-2.37,6.58-4.52,10.35-7.01,1.8-1.19,1.38-5.05-.5-6.09-3.7-2.04-7.78-3.05-10.83-5.24-3.45-2.47-5.74-5.99-8.46-8.55-3.11-2.93-5.4-6.09-7.69-9.01-2.68-3.4-5.71-6.11-7.5-9.28-2.23-3.94-3.94-7.6-5.21-10.77Z" fill="#faf2d5"/>
</svg>