<?xml version="1.0" encoding="UTF-8"?>
<svg id="Layer_1" data-name="Layer 1" xmlns="http://www.w3.org/2000/svg" viewBox="0 0 487.58 487.58">
  <path d="M80.98,105.37c-16.24,0-29.4,17.43-29.4,38.92s13.16,38.92,29.4,38.92,29.4-17.43,29.4-38.92-13.16-38.92-29.4-38.92Z" fill="#eb741d"/>
  <ellipse cx="80.98" cy="347.86" rx="29.4" ry="38.92" fill="#eb741d"/>
  <ellipse cx="158.71" cy="399.18" rx="38.45" ry="40.85" fill="#eb741d"/>
  <circle cx="244.89" cy="243.79" r="48.46" transform="translate(-49.46 62.79) rotate(-13.28)" fill="#eb741d"/>
  <path d="M459.07,164.6c-4.95,7.79-8.01,18.55-8.01,30.44,0,23.77,12.22,43.03,27.3,43.03.03,0,.06,0,.09,0,2.44-.01,4.62-1.06,6.18-2.71-.89-25.96-5.88-50.88-14.35-74.12-3.78-1.68-8.64-.69-11.21,3.37Z" fill="#eb741d"/>
  <path d="M410.47,86.11c4.47,0,8.71-1.21,12.58-3.39-13.29-14.78-28.36-27.9-44.9-39.03.25,23.49,14.62,42.42,32.32,42.42Z" fill="#eb741d"/>
  <path d="M290.78,17.2c12.63,20.13,39.18,26.22,59.31,13.6.02-.01.04-.02.06-.03.94-.59,1.48-1.49,1.66-2.46-20.1-10.09-41.8-17.46-64.62-21.61-.45.88-.56,1.93-.16,2.98.99,2.58,2.23,5.1,3.76,7.53Z" fill="#eb741d"/>
  <path d="M78.05,202.01c-17.86,0-32.34,19.26-32.34,43.03s14.48,43.03,32.34,43.03,32.33-19.27,32.33-43.03-14.48-43.03-32.33-43.03Z" fill="#eb741d"/>
  <ellipse cx="158.71" cy="98.12" rx="38.45" ry="40.85" fill="#eb741d"/>
  <path d="M9.66,239.32s.07,0,.1,0c15.3,0,27.7-19.26,27.7-43.03,0-12.12-3.23-23.07-8.42-30.89-2.85-4.3-8.09-5.17-12.09-3.19-8.35,23.23-13.24,48.1-14.04,74.01,1.66,1.88,4.04,3.08,6.75,3.1Z" fill="#eb741d"/>
  <path d="M346.87,457.82c-5.89-3.03-12.56-4.73-19.63-4.73-16.92,0-31.55,9.76-38.58,23.95-.61,1.23-.49,2.52.08,3.56,21.17-3.99,41.36-10.74,60.18-19.88-.16-1.17-.83-2.28-2.04-2.9Z" fill="#eb741d"/>
  <path d="M78.05,402.71c-.05,0-.11,0-.16,0-4.73.03-7.85,3.79-8.09,7.83,12.11,12.63,25.57,23.94,40.17,33.7.8-1.13.93-3.07.93-4.76,0-23.76-14.99-36.77-32.85-36.77Z" fill="#eb741d"/>
  <path d="M154.05,253.62c-22.31,0-40.4,19.27-40.4,43.03s18.09,43.03,40.4,43.03,40.4-19.27,40.4-43.03-18.09-43.03-40.4-43.03Z" fill="#eb741d"/>
  <path d="M154.05,153.26c-22.31,0-40.4,19.26-40.4,43.03s18.09,43.03,40.4,43.03,40.4-19.27,40.4-43.03-18.09-43.03-40.4-43.03Z" fill="#eb741d"/>
  <path d="M64.14,83.16s.07.06.11.09c4.19,2.63,8.87,4.11,13.81,4.11,17.86,0,32.33-19.26,32.33-43.03v-.04c0-.39-.11-.74-.26-1.05-16.97,11.34-32.42,24.77-45.99,39.93Z" fill="#eb741d"/>
  <path d="M30.02,325.99c4.62-7.69,7.44-18.01,7.44-29.35,0-23.76-12.4-43.03-27.7-43.03-.03,0-.07,0-.1,0-2.62.01-4.94,1.19-6.54,3.02,1.34,25.54,6.67,50.03,15.36,72.86,3.93,1.78,8.97.77,11.53-3.5Z" fill="#eb741d"/>
  <path d="M204.18,43.08c0,22.48,18.23,40.71,40.71,40.71s40.71-18.23,40.71-40.71c0-20.21-14.73-36.97-34.03-40.16-2.59-.08-5.18-.14-7.79-.14-1.73,0-3.45.03-5.17.07-19.51,3.02-34.44,19.88-34.44,40.23Z" fill="#eb741d"/>
  <path d="M478.45,252.37h-.09c-15.07,0-27.3,19.27-27.3,43.03,0,11.47,2.85,21.9,7.49,29.61,2.44,4.05,7.18,5.08,10.92,3.49,8.64-23.02,13.87-47.71,15.05-73.46-1.53-1.62-3.68-2.66-6.08-2.68Z" fill="#eb741d"/>
  <path d="M423.05,404.87c-3.87-2.18-8.11-3.39-12.58-3.39-17.71,0-32.08,18.93-32.32,42.42,16.54-11.13,31.62-24.25,44.9-39.03Z" fill="#eb741d"/>
  <path d="M197.89,474.72c-7.59-12.24-21.14-20.4-36.6-20.4-5.73,0-11.2,1.12-16.2,3.15-2.14.87-3.18,2.86-3.11,4.81,17.48,8.16,36.1,14.28,55.56,18.07,1.2-1.52,1.55-3.7.35-5.62Z" fill="#eb741d"/>
  <path d="M138.36,31.99s.05.03.07.04c20.14,12.63,46.69,6.54,59.31-13.6,1.5-2.39,2.74-4.88,3.72-7.42.61-1.59.28-3.21-.6-4.42-22.83,4.11-44.54,11.44-64.66,21.49.01,1.5.71,2.98,2.16,3.89Z" fill="#eb741d"/>
  <path d="M251.58,484.66c19.3-3.19,34.03-19.95,34.03-40.16,0-22.49-18.23-40.71-40.71-40.71s-40.71,18.23-40.71,40.71c0,20.35,14.93,37.21,34.44,40.23,1.72.04,3.45.07,5.18.07,2.61,0,5.2-.06,7.79-.14Z" fill="#eb741d"/>
  <circle cx="244.9" cy="347.33" r="43.03" fill="#eb741d"/>
  <ellipse cx="410.47" cy="243.79" rx="32.34" ry="43.03" fill="#eb741d"/>
  <circle cx="244.9" cy="140.25" r="43.03" fill="#eb741d"/>
  <ellipse cx="413.4" cy="343.29" rx="29.4" ry="38.92" fill="#eb741d"/>
  <ellipse cx="334.47" cy="295.4" rx="40.4" ry="43.03" fill="#eb741d"/>
  <ellipse cx="413.4" cy="144.29" rx="29.4" ry="38.92" fill="#eb741d"/>
  <path d="M333.7,137.72c21.24,0,38.45-18.29,38.45-40.85s-17.22-40.85-38.45-40.85-38.45,18.29-38.45,40.85,17.21,40.85,38.45,40.85Z" fill="#eb741d"/>
  <ellipse cx="334.47" cy="195.04" rx="40.4" ry="43.03" fill="#eb741d"/>
  <path d="M333.7,357.52c-21.24,0-38.45,18.29-38.45,40.85s17.21,40.85,38.45,40.85,38.45-18.29,38.45-40.85-17.22-40.85-38.45-40.85Z" fill="#eb741d"/>
</svg>