<?xml version="1.0" encoding="UTF-8"?>
<svg id="Layer_1" data-name="Layer 1" xmlns="http://www.w3.org/2000/svg" viewBox="0 0 1212.41 495.56">
  <g>
    <g>
      <g>
        <path d="M454.63,289.53c-1.82,0-3.58-1.2-5.36-1.44s-3.71.09-5.44-.38-3.45-1.21-5.1-1.9-2.95-2.12-4.51-3.03-2.85-2.07-4.28-3.18-3.64-1.31-4.91-2.6-1.64-3.34-2.74-4.79-2.25-2.76-3.15-4.34-1.89-3.05-2.58-4.74c-.68-1.68-1.45-3.38-2.68-4.63s-2.95-2.06-4.58-2.76-3.33-1.81-5.14-1.84c-.09,0-.19.47-.27.47-1.78,0-3.64.26-5.23.9s-2.94,1.97-4.21,3.18-2.39,2.54-3.13,4.17c-.73,1.61-1.07,3.44-2,4.9s-2.35,2.66-3.48,3.98-2.48,2.46-3.8,3.6-2.81,2.03-4.28,2.98-2.79,2.14-4.38,2.87-3.43.67-5.11,1.17-3.12,2-4.86,2.25-3.54.18-5.3.18-3.52-.34-5.21-.58-3.3-1.15-4.95-1.63-3.45-.65-5.02-1.37-3.08-1.63-4.54-2.57-2.99-1.83-4.3-2.96-1.96-2.91-3.1-4.23-3.08-2.02-4.02-3.49-1.72-3.09-2.44-4.68-.27-3.57-.76-5.25-2.29-3.05-2.54-4.78.57-3.54.57-5.3.62-3.4.87-5.1-.38-3.63.1-5.28,2.07-2.92,2.79-4.49,1.07-3.31,2.01-4.77,1.38-3.35,2.51-4.66,2.97-1.99,4.28-3.13,2.3-2.75,3.76-3.7,3.52-.77,5.11-1.5,2.93-1.94,4.6-2.43,3.34-.97,5.08-1.22,3.45-.06,5.22-.06,3.51-.06,5.23.19,3.58.21,5.24.7,3.12,1.71,4.7,2.44,2.86,1.93,4.33,2.88,2.85,1.88,4.17,3.04,3.12,1.8,4.26,3.13,2.26,2.72,3.21,4.2,1.24,3.29,1.97,4.9c.73,1.63,2.5,2.41,3.74,3.59s2.2,2.74,3.82,3.39,3.33,1.63,5.11,1.63c.09,0,.17-.85.25-.86,1.81-.03,3.3-.84,4.9-1.53s3.72-.76,4.97-2.03,2.52-2.81,3.2-4.49c.69-1.69.23-3.92,1.11-5.47s2.36-2.85,3.44-4.28,2.71-2.42,3.97-3.69,2.28-2.83,3.71-3.94,2.9-2.17,4.46-3.08,3.22-1.63,4.89-2.33,3.22-1.85,4.97-2.32,3.73.29,5.53.05,3.51-.23,5.33-.23,3.5.28,5.26.51,3.71-.39,5.42.07,3.46,1.07,5.11,1.75,3.53,1.08,5.08,1.98,2.83,2.32,4.25,3.41c1.42,1.09,2.79,2.29,4.06,3.56s2.25,2.8,3.34,4.23,1.61,3.18,2.51,4.73,1.76,3.03,2.45,4.7,2.29,3,2.76,4.74-.16,3.68.08,5.47,1.19,3.49,1.19,5.31-.09,3.66-.32,5.42-.34,3.68-.8,5.4-1.74,3.26-2.42,4.9-.93,3.6-1.82,5.14-2.36,2.8-3.45,4.22-2.89,2.18-4.16,3.45-2.38,2.61-3.8,3.7-2.39,2.86-3.95,3.76-3.54.94-5.2,1.63-3.37.97-5.11,1.44c-1.71.46-3.32,1.37-5.11,1.61s-3.54,1.16-5.35,1.16Z" fill="#eb741d"/>
        <path d="M454.63,289.12c-1.82,0-3.69.05-5.47-.18s-3.55-.96-5.28-1.42-3.41-1.22-5.07-1.91-2.97-2.05-4.52-2.95-3.21-1.58-4.63-2.69-3.5-1.53-4.77-2.82-1.7-3.33-2.79-4.78-1.82-3.05-2.71-4.63-2.51-2.76-3.2-4.45c-.68-1.68-1.69-2.94-2.91-4.19s-2.49-2.3-4.12-3.01-3.2-.77-5.02-.8c-.09,0-.16-.19-.24-.19-1.78,0-3.54-.23-5.14.41s-2.61,2.17-3.88,3.38-2.68,2.16-3.42,3.78c-.73,1.61-1.76,3.02-2.7,4.48s-2.22,2.65-3.35,3.97-1.52,3.44-2.84,4.58-2.76,2.32-4.22,3.27-3.28,1.44-4.87,2.17-3.49.61-5.17,1.11-3.33.7-5.07.95-3.37.7-5.13.7-3.43-.26-5.13-.51-3.43-.42-5.08-.9-3.17-1.33-4.74-2.05-3.52-.81-4.97-1.74-2.5-2.48-3.81-3.61-2.31-2.53-3.45-3.84-2.3-2.54-3.24-4-1.96-2.84-2.69-4.43-1.99-2.99-2.48-4.67-.87-3.43-1.12-5.17.98-3.51.98-5.28-.7-3.51-.45-5.2,1.19-3.28,1.68-4.93,1.25-3.16,1.97-4.73,1.09-3.29,2.03-4.75,1.78-2.99,2.92-4.3,2.23-2.71,3.54-3.85,2.73-2.2,4.2-3.14,3.18-1.41,4.77-2.14,3.33-.77,5.01-1.27,3.23-.96,4.96-1.21,3.34-1.05,5.11-1.05,3.6-.45,5.31-.2,3.23,1.7,4.89,2.2,3.7.14,5.28.87,3.07,1.81,4.54,2.76,2.36,2.65,3.68,3.8,2.8,2.08,3.95,3.41,2.59,2.45,3.54,3.93,1.73,3.09,2.45,4.69c.73,1.63,1.05,3.6,2.29,4.78s3.26,1.42,4.88,2.07,3.18.85,4.96.85c.09,0,.18.87.26.87,1.81-.03,3.49-.93,5.1-1.62s3.31-1.45,4.55-2.72,2.51-2.7,3.19-4.38c.69-1.69,1-3.52,1.88-5.07s1.96-3.04,3.04-4.47,2.21-2.87,3.47-4.15,2.91-2.12,4.34-3.23,2.67-2.45,4.23-3.36,3.1-1.9,4.77-2.59,3.57-.62,5.32-1.09,3.46-.7,5.26-.93,3.5-.57,5.32-.57,3.61-.26,5.36-.03,3.72-.03,5.44.43,3.31,1.59,4.95,2.28,3.61.93,5.16,1.82,3.06,2.05,4.47,3.14,1.93,3.23,3.2,4.5,2.33,2.6,3.43,4.03,2.57,2.52,3.47,4.08,2.47,2.81,3.16,4.48-.05,3.8.41,5.54,1.77,3.26,2.01,5.06.48,3.59.48,5.41-.51,3.62-.74,5.37.03,3.73-.43,5.44-1.26,3.45-1.95,5.1-1.93,3.09-2.83,4.63-2.52,2.57-3.61,3.99-2.2,2.72-3.46,3.98-2.12,2.94-3.54,4.04-3.29,1.43-4.84,2.33-2.5,2.99-4.17,3.68-3.66.42-5.4.89c-1.71.46-3.33,1.66-5.13,1.89s-3.63.07-5.44.07Z" fill="#eb741d"/>
      </g>
      <g>
        <path d="M41.71,288.62c-1.82,0-3.65.4-5.41.17s-3.39-1.38-5.11-1.84-3.69-.31-5.33-.99-2.88-2.25-4.42-3.14-3.47-1.24-4.89-2.33-3.03-2.06-4.3-3.33-1.85-3.18-2.94-4.6-1.66-3.12-2.56-4.68-2.92-2.54-3.61-4.21-.75-3.57-1.21-5.31-1.34-3.42-1.58-5.21S0,249.52,0,247.7s1.22-3.55,1.45-5.3.01-3.64.47-5.36,1.04-3.46,1.72-5.11,1.93-3.03,2.83-4.58,2-2.91,3.09-4.32,1.52-3.43,2.79-4.7,2.96-2.11,4.38-3.2,3.2-1.59,4.75-2.49,3.05-1.74,4.71-2.43,3.34-1.01,5.09-1.47,3.27-1.65,5.06-1.88,3.56.4,5.38.4,3.63-.52,5.4-.29,3.64.37,5.37.83,3.59.84,5.25,1.53,2.81,2.45,4.37,3.36,2.89,2.01,4.32,3.11,2.79,2.15,4.06,3.44,2.59,2.43,3.69,3.88,1.95,2.95,2.85,4.53,2.42,2.81,3.11,4.5c.68,1.68,1.61,3.04,2.83,4.29s2.23,3.08,3.86,3.78,3.57,1.17,5.38,1.2c.09,0,.18-.06.27-.06,1.78,0,3.48-.96,5.08-1.6s3.17-1.5,4.44-2.71,1.65-2.92,2.39-4.55c.73-1.61,1.78-3.11,2.71-4.57s2.53-2.5,3.66-3.82,2.01-2.94,3.32-4.08,2.62-2.42,4.08-3.37,3.14-1.66,4.73-2.39,3.2-1.58,4.88-2.08,3.5-.52,5.24-.77,3.48-.26,5.25-.26,3.55-.21,5.25.03,3.32,1.24,4.97,1.72,3.16,1.35,4.73,2.07,3.3,1.14,4.75,2.08,3.36,1.39,4.67,2.53,1.8,3.15,2.94,4.47,2.13,2.67,3.08,4.14,2.61,2.54,3.34,4.12,1.29,3.3,1.79,4.97.19,3.52.44,5.26.04,3.41.04,5.17.64,3.53.4,5.23-1.04,3.35-1.53,5-.24,3.68-.96,5.25-2.81,2.44-3.75,3.9-1.36,3.28-2.49,4.59-2.62,2.28-3.94,3.42-2.21,2.89-3.67,3.83-3.08,1.76-4.67,2.49-3.41.89-5.09,1.38-3.43.37-5.17.62-3.37.46-5.13.46-3.53.34-5.24.09-3.64-.06-5.3-.56-3.4-1.19-4.98-1.92-2.87-2.15-4.33-3.1-2.84-2.04-4.16-3.19-3.06-1.95-4.2-3.28-2.05-2.92-2.99-4.4-.65-3.57-1.37-5.18c-.73-1.63-2.32-2.9-3.56-4.08s-3.04-1.67-4.66-2.33-3.19-2.02-4.97-2.02c-.09,0-.17.93-.25.94-1.81.03-3.42.52-5.03,1.22s-2.91,1.73-4.16,3-2.72,2.33-3.41,4.01c-.69,1.69-.66,3.75-1.54,5.3s-3.13,2.28-4.21,3.71-1.31,3.63-2.57,4.91-3.35,1.66-4.77,2.76-2.41,2.84-3.97,3.75-3.61.76-5.28,1.46-3.04,2.12-4.79,2.59-3.49,1.07-5.3,1.3-3.63-.22-5.45-.22Z" fill="#eb741d"/>
        <path d="M41.71,289.49c-1.82,0-3.7-.14-5.45-.37s-3.41-1.48-5.12-1.94-3.45-.96-5.09-1.64-3.06-1.82-4.6-2.72-2.82-2.08-4.24-3.17-2.93-1.97-4.2-3.24-2.58-2.44-3.67-3.86-1.94-2.96-2.84-4.52-2.33-2.83-3.02-4.49-.54-3.58-1.01-5.32-.82-3.41-1.06-5.21-.57-3.49-.57-5.31.38-3.55.61-5.3-.12-3.68.34-5.4,1.38-3.34,2.06-4.99,1.81-3.07,2.7-4.62,1.27-3.46,2.36-4.88,3.01-2.1,4.27-3.36,2.33-2.68,3.75-3.78,2.84-2.12,4.4-3.02,3.05-1.86,4.71-2.55,3.26-1.54,5-2.01,3.46-1.16,5.25-1.39,3.62.33,5.44.33,3.64-.05,5.41.18,3.64.39,5.37.85,3.62.76,5.28,1.45,2.99,2.17,4.55,3.08,2.99,1.98,4.42,3.08,3.43,1.62,4.7,2.9,1.79,3.26,2.88,4.71,1.93,3,2.82,4.58,2.23,2.9,2.92,4.59c.68,1.68,1.69,3,2.91,4.24s2.58,2.22,4.21,2.93,3.19,2.14,5,2.18c.09,0,.19-.72.27-.72,1.78,0,3.53-.29,5.13-.93s2.82-1.93,4.09-3.14,2.79-2.23,3.53-3.85c.73-1.61.75-3.61,1.68-5.07s2.89-2.23,4.02-3.55,2.14-2.74,3.45-3.88,2.91-1.86,4.37-2.8,2.49-2.71,4.07-3.44,3.26-1.43,4.94-1.93,3.61.22,5.35-.04,3.37-1.1,5.14-1.1,3.48.41,5.17.66,3.42.62,5.07,1.11,3.67.26,5.24.98,2.83,2.2,4.29,3.14,2.69,2.2,4,3.33,2.68,2.22,3.82,3.53,2.17,2.71,3.12,4.17,1.57,3.07,2.3,4.66,1.62,3.08,2.12,4.76,1.16,3.32,1.4,5.06.59,3.49.59,5.25-.35,3.55-.59,5.25-1.55,3.22-2.04,4.87-.33,3.57-1.05,5.14-2.03,2.86-2.96,4.31-1.53,3.2-2.67,4.51-2.82,2.09-4.13,3.23-2.72,2.06-4.19,3-2.57,2.51-4.16,3.24-3.34,1.05-5.02,1.54-3.27,1.48-5.01,1.73-3.53-.45-5.29-.45-3.41-.66-5.13-.91-3.45-.29-5.11-.79-3.09-1.5-4.67-2.23-3.08-1.44-4.54-2.39-3.03-1.66-4.35-2.81-3.32-1.66-4.47-2.99-1.46-3.3-2.41-4.79-1.36-3.16-2.09-4.76c-.73-1.63-2.09-3.03-3.33-4.22s-2.93-2.01-4.55-2.66-3.34-1.22-5.13-1.22c-.09,0-.16.72-.25.72-1.81.03-3.38.44-4.98,1.13s-3.49,1.09-4.74,2.36-2.33,2.8-3.01,4.48c-.69,1.69-.84,3.63-1.72,5.18s-2.38,2.78-3.46,4.21-2.49,2.57-3.75,3.85-2.59,2.42-4.01,3.52-2.3,3.05-3.86,3.96-3.19,1.88-4.86,2.58-3.77.16-5.52.63-3.36,1.47-5.16,1.7-3.6.86-5.43.86Z" fill="#eb741d"/>
      </g>
    </g>
    <g>
      <g>
        <path d="M396.45,438.84c-1.81,0-3.68-.1-5.44-.33s-3.39-1.5-5.11-1.96-3.67-.38-5.32-1.06-2.97-2.09-4.53-2.99-3.16-1.68-4.59-2.78-2.68-2.34-3.96-3.62-2.62-2.48-3.71-3.89-2.03-2.97-2.92-4.52-1.63-3.19-2.32-4.84-.82-3.46-1.28-5.2-1.19-3.37-1.42-5.15.13-3.54.13-5.35-.96-3.72-.72-5.51.4-3.72.87-5.47,1.19-3.53,1.9-5.21c.7-1.67,1-3.2,1.02-4.94s-.3-3.3-.96-4.95-1.4-2.99-2.66-4.29c-1.3-1.35-2.42-2.82-4.09-3.52s-3.53-1.37-5.37-1.37c-1.62,0-3.34.37-4.92.97-2.06.78-4.09,1.68-6.26,2.07s-4.36-.13-6.58-.13c-1.93,0-3.74-.14-5.62-.43s-4.05.47-5.86-.12-3.1-2.49-4.81-3.36-3.93-.87-5.49-2-2.31-3.16-3.67-4.52c-1.25-1.25-2.13-2.66-3.16-4.03s-3.23-2.07-4.05-3.58-1.58-3.22-2.18-4.84-.58-3.52-.95-5.21-.85-3.43-.97-5.16.72-3.47.84-5.2.43-3.37.8-5.07-.12-3.64.49-5.27,1.77-3.03,2.61-4.57,1.14-3.44,2.19-4.84,3.28-1.73,4.52-2.97c1.37-1.37,2.38-3.02,3.91-4.14s3.09-2.27,4.79-3.13,3.72-.86,5.54-1.45,3.47-1.57,5.37-1.87,3.75-1.11,5.69-1.11,3.87.44,5.74.73,3.82.67,5.63,1.26,3.46,1.67,5.17,2.54,3.6,1.47,5.16,2.6,3.11,2.33,4.47,3.7c1.25,1.25,1.42,3.39,2.45,4.77s2.04,2.73,2.87,4.26,2.07,2.85,2.67,4.48,1.15,3.3,1.51,5,.45,3.45.57,5.19.44,3.49.31,5.23-.77,3.4-1.15,5.11-1.35,3.15-1.97,4.8c-.64,1.7-.39,3.73-.34,5.48s.21,3.7.93,5.33,2.27,2.74,3.58,4c1.29,1.24,2.92,1.63,4.51,2.27s3.08,2.45,4.83,2.45,3.88-.46,5.59-1.18c1.69-.71,3.25-1.54,5.01-2.01s3.48-.88,5.3-1.12,3.57-.7,5.41-.7,3.63-.14,5.39.09,3.35,1.44,5.08,1.9,3.34,1.04,4.99,1.73,3.41,1.05,4.96,1.95,3.36,1.43,4.78,2.53,2.46,2.62,3.74,3.9,1.97,3,3.05,4.4,2.22,2.75,3.11,4.28,1.83,3.04,2.51,4.69,2.1,3.09,2.55,4.82.64,3.59.87,5.36.23,3.61.23,5.4.19,3.65-.04,5.43-.41,3.65-.87,5.39-1.91,3.16-2.6,4.83-1.44,3.25-2.34,4.81-1.39,3.38-2.49,4.82-2.51,2.59-3.79,3.87c-1.28,1.28-2.77,2.3-4.18,3.39s-3.1,1.76-4.65,2.66-2.9,2.16-4.56,2.85-3.25,1.71-4.98,2.17-3.58.64-5.36.87-3.6.61-5.41.61Z" fill="#eb741d"/>
        <path d="M396.45,438.96c-1.81,0-3.52-1.5-5.28-1.73s-3.79.67-5.52.22-3.11-2.04-4.76-2.73-3.74-.54-5.29-1.44-2.68-2.48-4.11-3.58-3.27-1.74-4.55-3.02-2.59-2.64-3.68-4.05-1.28-3.51-2.18-5.05-2.61-2.75-3.3-4.4-.92-3.55-1.38-5.29-.73-3.54-.96-5.33-.82-3.59-.82-5.4,1.35-3.59,1.58-5.39.81-3.48,1.28-5.23-.07-3.85.64-5.54c.7-1.67,1.54-3.23,1.55-4.98s-.45-3.49-1.1-5.15-1.58-3.09-2.84-4.4c-1.3-1.35-2.77-2.41-4.44-3.12s-3.48-1.49-5.33-1.49c-1.62,0-3.41.21-4.98.8-2.06.78-4.16,1.05-6.33,1.44s-4.22,1.65-6.44,1.65c-1.93,0-3.94.14-5.81-.15s-3.43-2.1-5.24-2.68-3.82-.61-5.53-1.48-3.38-1.8-4.93-2.94-2.94-2.43-4.3-3.8c-1.25-1.25-2.21-2.69-3.24-4.06s-1.73-2.98-2.55-4.49-1.84-2.94-2.44-4.56-.52-3.41-.88-5.1-.65-3.32-.77-5.05-.13-3.38,0-5.11-.31-3.5.06-5.2.43-3.52,1.03-5.15,1.49-3.18,2.33-4.72,2.04-2.82,3.09-4.22,2.48-2.36,3.73-3.61c1.37-1.37,2.4-3.06,3.93-4.17s2.96-2.62,4.66-3.48,3.92-.57,5.74-1.16,3.56-1.28,5.46-1.58,3.75-.37,5.68-.37,3.76.42,5.63.71,3.61.93,5.42,1.52,3.95.35,5.65,1.22,3.05,2.32,4.6,3.45,3.57,1.73,4.93,3.09c1.25,1.25,1.7,3.19,2.73,4.58s1.95,2.85,2.78,4.38,1.25,3.19,1.86,4.83,1.11,3.22,1.47,4.93,1.46,3.29,1.58,5.04.27,3.53.14,5.28-.31,3.54-.69,5.25-1.36,3.26-1.98,4.91c-.64,1.7-1.23,3.47-1.18,5.22s1.26,3.29,1.98,4.92,1.29,3.21,2.6,4.47c1.29,1.24,2.52,2.71,4.11,3.35s3.53.14,5.29.14,3.59.05,5.31-.68c1.69-.71,3.55-.81,5.31-1.28s3.45-1.05,5.27-1.29,3.58.05,5.42.05,3.56-.28,5.33-.05,3.7-.11,5.42.34,3.6.8,5.25,1.49,3.34,1.53,4.9,2.43,2.65,2.55,4.07,3.65,2.49,2.53,3.76,3.81,2.65,2.42,3.73,3.83,2.53,2.65,3.42,4.19,1.02,3.5,1.7,5.15,1.24,3.32,1.7,5.04.5,3.48.74,5.26.45,3.48.45,5.27.77,3.62.54,5.4-.89,3.49-1.36,5.23-1.41,3.27-2.1,4.93-1.5,3.18-2.4,4.74-1.04,3.6-2.14,5.03-2.9,2.21-4.19,3.49c-1.28,1.28-2.64,2.38-4.05,3.46s-2.59,2.57-4.13,3.46-3.28,1.48-4.93,2.17-3.31,1.41-5.04,1.87-3.5.79-5.29,1.02-3.56,1.01-5.37,1.01Z" fill="#eb741d"/>
      </g>
      <g>
        <path d="M168.13,203.23c-1.93,0-3.72-1.14-5.59-1.44s-4.03.49-5.84-.1-3.14-2.37-4.85-3.24-3.32-1.7-4.88-2.83-3.47-1.77-4.83-3.14c-1.25-1.25-1.82-3.04-2.85-4.43s-3.05-2.23-3.88-3.75-.9-3.49-1.51-5.12-1.24-3.29-1.61-5-1.17-3.42-1.29-5.17,1.3-3.48,1.43-5.23-.17-3.48.21-5.2,1.35-3.16,1.98-4.81c.64-1.7.5-3.7.45-5.45s-.21-3.71-.92-5.34-2.28-2.74-3.59-4c-1.29-1.24-2.71-2.17-4.3-2.81s-3.3-1.21-5.05-1.21-3.75.07-5.47.79c-1.69.71-3.25,1.71-5.01,2.18s-3.57.71-5.38.95-3.61-.27-5.45-.27-3.54.14-5.31-.09-3.63-.04-5.36-.5-3.39-1.19-5.04-1.87-3.48-1.08-5.04-1.98-3.09-1.91-4.52-3.01-2.62-2.48-3.9-3.76-1.78-3.19-2.85-4.6-2.36-2.67-3.25-4.21-1.98-3.01-2.65-4.65-1.6-3.27-2.06-4.99-1.08-3.51-1.31-5.28-.42-3.65-.42-5.44.98-3.55,1.22-5.33.43-3.54.89-5.28,1.49-3.23,2.17-4.89.86-3.52,1.76-5.08,1.63-3.24,2.73-4.68,3.02-2.08,4.3-3.36c1.28-1.28,1.98-3.18,3.39-4.26s2.99-2.07,4.53-2.97,3.32-1.43,4.97-2.11,3.51-.69,5.24-1.15,3.36-1.15,5.15-1.38,3.53-.02,5.33-.02,3.52.21,5.28.44,3.72-.4,5.45.05,3.54.9,5.19,1.59,3.33,1.5,4.88,2.41,2.32,2.93,3.75,4.03,3.34,1.55,4.62,2.83,2.49,2.64,3.57,4.05,1.65,3.21,2.55,4.75,1.42,3.23,2.11,4.88,1.72,3.15,2.18,4.88.18,3.55.41,5.34.85,3.46.85,5.27.02,3.64-.21,5.43-.37,3.64-.84,5.4-.87,3.58-1.58,5.26c-.7,1.67-1.16,3.3-1.18,5.04s-.14,3.63.52,5.28,1.93,2.95,3.19,4.26c1.3,1.35,2.61,2.8,4.27,3.51s3.65,1.31,5.49,1.31c1.62,0,3.07-1.33,4.64-1.93,2.06-.78,4.43-.59,6.6-.98s4.3-.9,6.52-.9c1.93,0,3.94-.44,5.81-.15s3.82.9,5.63,1.48,3.34,1.98,5.05,2.85,3.01,2.25,4.56,3.39,3.53,1.66,4.9,3.03c1.25,1.25,2.26,2.69,3.29,4.06s2.37,2.67,3.19,4.18,1.71,3.13,2.31,4.75.58,3.5.95,5.19.61,3.43.73,5.16.04,3.47-.08,5.21-.25,3.47-.62,5.17-1.16,3.26-1.77,4.89-1.73,2.93-2.57,4.47-.85,3.52-1.91,4.93-1.98,2.93-3.23,4.18c-1.37,1.37-3.36,2.03-4.89,3.15s-3.24,1.97-4.93,2.83-3.22,2.21-5.04,2.8-3.8.51-5.7.81-3.75.91-5.68.91Z" fill="#eb741d"/>
        <path d="M168.13,202.38c-1.93,0-3.9.83-5.77.53s-3.85-.66-5.66-1.25-3.77-1.13-5.47-2-3.03-2.46-4.59-3.59-3.49-1.87-4.85-3.24c-1.25-1.25-2.03-2.97-3.06-4.36s-2-2.91-2.82-4.44-.76-3.46-1.36-5.09-2.08-3.01-2.44-4.72-.53-3.5-.65-5.24.58-3.47.71-5.22-.52-3.6-.14-5.32,1.76-3.11,2.39-4.75c.64-1.7-.24-3.59-.29-5.34s.96-3.83.25-5.46-2.86-2.27-4.17-3.53c-1.29-1.24-1.99-3.42-3.59-4.06s-3.65-.1-5.4-.1-3.34.79-5.06,1.52c-1.69.71-3.71.53-5.47,1.01s-3.56.56-5.37.8-3.56,1.46-5.4,1.46-3.61-.68-5.38-.91-3.41-1.14-5.14-1.6-3.67-.32-5.32-1-3.05-1.92-4.61-2.82-3.43-1.34-4.86-2.44-2.08-3.04-3.36-4.31-2.91-2.2-3.99-3.61-1.6-3.23-2.48-4.77-2.18-2.9-2.86-4.55-.85-3.48-1.31-5.21-1.4-3.37-1.63-5.14.55-3.6.55-5.39-1.26-3.67-1.02-5.45,1.38-3.42,1.84-5.15,1.42-3.25,2.11-4.91.9-3.5,1.8-5.07,1.45-3.38,2.56-4.81,3.09-2.04,4.37-3.33c1.28-1.28,1.95-3.25,3.35-4.34s3.11-1.92,4.66-2.81,3.17-1.8,4.82-2.49,3.44-1.17,5.17-1.63,3.57-.51,5.35-.74,3.56.27,5.36.27,3.64-.82,5.41-.59,3.54.78,5.26,1.24,3.36,1.27,5.02,1.95,3.62.83,5.18,1.73,3.05,2.01,4.48,3.11,2.39,2.74,3.67,4.02,2.31,2.74,3.39,4.15,2.21,2.82,3.1,4.36,1.22,3.35,1.91,5,1.54,3.2,2.01,4.93.43,3.5.66,5.28,1.37,3.47,1.37,5.28-.79,3.62-1.03,5.41-.58,3.56-1.06,5.31-1.21,3.37-1.92,5.05c-.7,1.67-1.33,3.6-1.34,5.35s.49,3.76,1.15,5.41,2.49,2.57,3.75,3.88c1.3,1.35,2.49,2.7,4.15,3.41s3.49.75,5.34.75c1.62,0,3.07-.39,4.65-.98,2.06-.78,4.25-1.57,6.42-1.96s4.47.34,6.69.34c1.93,0,3.95-.78,5.82-.48s3.89.71,5.7,1.3,3.11,2.53,4.81,3.4,3.37,1.67,4.92,2.8,3.75,1.53,5.11,2.89c1.25,1.25,1.59,3.29,2.62,4.66s2.3,2.66,3.12,4.17,1.61,3.11,2.21,4.73.6,3.43.97,5.12,1.75,3.29,1.87,5.02-.86,3.51-.99,5.25-.74,3.34-1.11,5.04-.53,3.39-1.14,5.03-1.57,3.02-2.41,4.56-1.78,2.86-2.83,4.26-1.73,2.99-2.97,4.24c-1.37,1.37-3.15,2.12-4.68,3.24s-2.96,2.32-4.66,3.19-3.08,2.59-4.9,3.18-3.93.04-5.83.33-3.72.24-5.65.24Z" fill="#eb741d"/>
      </g>
    </g>
    <g>
      <g>
        <path d="M328.21,203.32c-1.93,0-3.82-.6-5.69-.9s-3.77-.66-5.58-1.24-3.62-1.24-5.33-2.11-2.97-2.38-4.52-3.51-2.82-2.4-4.19-3.77c-1.25-1.25-3.14-1.87-4.17-3.24s-1.35-3.27-2.18-4.78-1.79-2.97-2.39-4.59-1.33-3.23-1.69-4.92-.82-3.42-.95-5.15.11-3.5.24-5.23-.2-3.58.17-5.29.79-3.48,1.4-5.12,1.83-3.04,2.66-4.58,1.43-3.26,2.48-4.67,2.26-2.72,3.51-3.96c1.37-1.37,3.2-2.25,4.73-3.37s3-2.52,4.69-3.39,3.52-1.69,5.34-2.28,3.96.25,5.86-.05,3.66-1.29,5.59-1.29c2.23,0,4.4.45,6.55.84s4.09,1.46,6.15,2.24c1.58.6,3.46.45,5.09.45,1.84,0,3.81-.24,5.5-.96s3.47-1.68,4.77-3.04c1.26-1.31,1.57-3.31,2.22-4.94s1.27-3.33,1.25-5.1-.09-3.64-.79-5.31c-.71-1.68-1.97-3.15-2.44-4.87s-.2-3.66-.45-5.43.11-3.56.1-5.35-.24-3.55-.01-5.33-.52-3.79-.05-5.53,2.24-3.05,2.93-4.72,1.38-3.25,2.28-4.82.94-3.7,2.04-5.14,3.33-1.84,4.61-3.13c1.28-1.28,1.75-3.44,3.16-4.53s3.08-1.97,4.62-2.86,3.17-1.81,4.82-2.49,3.35-1.5,5.09-1.97,3.64-.28,5.43-.51,3.57.3,5.38.3,3.7-1.17,5.46-.94,3.48,1.22,5.21,1.68,3.24,1.56,4.89,2.25,3.72.57,5.28,1.47,2.96,2.12,4.39,3.22,2.55,2.55,3.82,3.83c1.28,1.28,3.04,2.19,4.12,3.6s1.66,3.29,2.55,4.83,1.3,3.36,1.98,5.01,1.75,3.2,2.21,4.92.18,3.61.42,5.38.61,3.52.61,5.31.35,3.63.12,5.41-1.2,3.42-1.66,5.15-1.2,3.32-1.88,4.98-1.45,3.19-2.36,4.76-1.35,3.36-2.45,4.79-1.93,3.11-3.21,4.4c-1.28,1.28-3.49,1.48-4.9,2.57s-2.27,3.04-3.81,3.94-3.67.64-5.32,1.32-2.99,2.27-4.72,2.74-3.52.95-5.3,1.19-3.62-.4-5.43-.4-3.57-.56-5.36-.79-3.71.18-5.47-.29-3.3-1.52-4.98-2.23c-1.72-.72-3.67-1.01-5.46-1.01s-3.53.53-5.16,1.18-2.72,2.03-4.01,3.27c-1.31,1.26-2.32,2.54-3.03,4.13s-2.22,3.21-2.27,4.99,1.12,3.5,1.76,5.2c.78,2.06.98,4.27,1.37,6.44s.29,4.29.29,6.52c0,1.93.1,3.79-.2,5.66s.26,4.03-.33,5.84-1.51,3.62-2.38,5.32-1.75,3.52-2.88,5.07-2.44,3.06-3.81,4.43c-1.37,1.37-3.43,1.97-4.96,3.08s-2.98,2.48-4.67,3.35-3.73.93-5.55,1.52-3.48,1.81-5.38,2.11-3.83.44-5.76.44Z" fill="#eb741d"/>
        <path d="M328.21,203.18c-1.93,0-3.94.33-5.82.03s-3.66-1.39-5.47-1.98-3.85-.82-5.55-1.7-2.69-2.9-4.24-4.03-3.31-1.89-4.68-3.26c-1.25-1.25-2.12-2.75-3.15-4.12s-2.1-2.75-2.92-4.26-1.71-3.03-2.31-4.65-.59-3.41-.95-5.1-1.22-3.3-1.34-5.03.65-3.43.78-5.16.34-3.35.71-5.06.29-3.46.89-5.1,1.71-2.97,2.54-4.5.7-3.67,1.75-5.07c1.03-1.37,2.38-2.61,3.63-3.85,1.37-1.37,2.84-2.7,4.37-3.82s3.38-1.93,5.08-2.8,3.72-.95,5.54-1.54,3.61-.98,5.51-1.27,3.7-.68,5.64-.68c2.23,0,4.48-.36,6.64.03s4.07,1.75,6.14,2.53c1.58.6,3.4,1.02,5.02,1.02,1.84,0,3.91-.39,5.6-1.11s3.13-2.16,4.43-3.51c1.26-1.31,2.37-2.86,3.02-4.48s.03-3.54,0-5.32.37-3.55-.33-5.22c-.71-1.68-1.61-3.28-2.08-5.01s-.97-3.53-1.22-5.3-.55-3.64-.56-5.43.44-3.63.67-5.42.86-3.51,1.32-5.25.21-3.77.9-5.44,2.38-2.87,3.29-4.44,2.26-2.73,3.37-4.17,2.16-2.76,3.45-4.05c1.28-1.28,1.93-3.24,3.34-4.32s3.18-1.76,4.72-2.65,3.03-2,4.69-2.69,3.68-.22,5.41-.68,3.27-1.65,5.06-1.88,3.57.02,5.38.02,3.53.41,5.29.64,3.68-.22,5.41.24,3.41,1.17,5.07,1.86,3.07,1.84,4.62,2.75,2.83,2.1,4.26,3.19,3.25,1.67,4.53,2.95c1.28,1.28,2.93,2.31,4,3.71s1.12,3.6,2.01,5.14c.9,1.56,1.69,3.11,2.37,4.76s1.58,3.22,2.04,4.95.77,3.49,1,5.27.54,3.56.54,5.35-.51,3.54-.75,5.32-.55,3.5-1.02,5.24-.39,3.65-1.08,5.31-2.38,2.79-3.28,4.36-1.81,2.99-2.91,4.42-1.77,3.14-3.05,4.42c-1.28,1.28-2.7,2.37-4.11,3.46s-2.97,1.99-4.52,2.88-3.14,1.69-4.79,2.38-3.46.77-5.19,1.23-3.31,1.48-5.09,1.71-3.56,1.1-5.36,1.1-3.57-1.51-5.36-1.74-3.49-.65-5.25-1.13-3.79-.07-5.48-.78c-1.72-.72-3.39-1.54-5.18-1.54s-3.38.78-5,1.43-3.62.87-4.91,2.11c-1.31,1.26-2.6,2.86-3.31,4.46s-1.01,3.67-1.06,5.44,1.32,3.34,1.96,5.04c.78,2.06,1.56,4.25,1.95,6.42s-.4,4.47-.4,6.69c0,1.93.64,3.92.35,5.79s-1.84,3.49-2.43,5.3c-.59,1.82-.5,3.89-1.38,5.6s-2.72,2.76-3.85,4.31-1.71,3.47-3.07,4.84c-1.37,1.37-2.43,3.16-3.96,4.27s-3.61,1.55-5.31,2.41-3.28,2.18-5.1,2.77-3.9.17-5.8.47-3.73.94-5.67.94Z" fill="#eb741d"/>
      </g>
      <g>
        <path d="M99.89,438.76c-1.81,0-3.68,0-5.45-.24s-3.49-1.14-5.21-1.6-3.71-.42-5.36-1.1-3.14-1.9-4.69-2.8-2.58-2.56-4.01-3.66-2.93-2.01-4.21-3.29c-1.28-1.28-2.98-2.21-4.06-3.61s-1.92-3.11-2.8-4.65-1.31-3.37-1.99-5.01-.86-3.45-1.32-5.17-1.45-3.34-1.68-5.11-.78-3.58-.78-5.37.55-3.59.78-5.37.62-3.53,1.09-5.27,1.02-3.43,1.71-5.1.86-3.62,1.76-5.18,2.3-2.84,3.4-4.27,2.2-2.87,3.48-4.16c1.28-1.28,3.34-1.63,4.75-2.72s2.83-2.08,4.37-2.98,2.74-2.5,4.4-3.18,3.42-1.16,5.16-1.62,3.44-1.31,5.23-1.54,3.64-.36,5.45-.36,3.76.02,5.56.26,3.35,1.93,5.11,2.41,3.8.13,5.48.84c1.72.73,3.37,1.71,5.16,1.71s3.41-.79,5.03-1.45,2.99-1.57,4.28-2.81c1.31-1.26,2.54-2.53,3.24-4.13s.62-3.41.67-5.18-.09-3.38-.73-5.08c-.62-1.65-1.38-3.32-1.75-5.01s-.48-3.54-.61-5.27.11-3.54.23-5.27-.04-3.59.32-5.29,1.54-3.22,2.14-4.86.86-3.46,1.69-5,2.14-2.79,3.19-4.2,2.25-2.63,3.5-3.88c1.37-1.37,2.64-2.82,4.17-3.94s3.35-1.86,5.05-2.72,3.24-2.22,5.06-2.81,3.72-1.24,5.62-1.54,3.89-.27,5.82-.27,3.95-.08,5.83.22,3.53,1.84,5.34,2.43,3.65,1.07,5.35,1.94,3.73,1.29,5.28,2.42,3.12,2.35,4.49,3.72c1.25,1.25,1.73,3.17,2.76,4.54s2.64,2.48,3.46,3.99,1.11,3.37,1.71,4.99.36,3.47.72,5.16,1.08,3.29,1.2,5.02.98,3.5.86,5.23-1.21,3.36-1.57,5.06-1.22,3.19-1.83,4.82-1.41,3.05-2.25,4.58c-.82,1.51-1.62,2.94-2.67,4.34s-1.41,3.31-2.65,4.56c-1.37,1.37-3.1,2.3-4.63,3.42s-2.82,2.81-4.51,3.68-3.67,1.32-5.49,1.91-3.86.16-5.76.45-3.69.44-5.62.44c-2.23,0-4.51.8-6.66.41s-4.05-1.88-6.11-2.66c-1.58-.6-3.4.17-5.02.17-1.84,0-3.65-.18-5.34.54s-3.7,1.24-5,2.6c-1.26,1.31-1.22,3.49-1.86,5.11s-2.11,3.22-2.1,5,1.01,3.49,1.71,5.16c.71,1.68.56,3.59,1.03,5.31s.83,3.42,1.08,5.2,1.71,3.49,1.72,5.29-.48,3.64-.71,5.43-.13,3.71-.59,5.45-1.72,3.27-2.41,4.94-1.43,3.31-2.34,4.87-2.21,2.81-3.32,4.25-1.77,3.21-3.06,4.5c-1.28,1.28-2.65,2.49-4.06,3.58s-2.71,2.53-4.26,3.43-3.43,1.31-5.09,2-3.29,1.66-5.03,2.13-3.65.27-5.44.51-3.58.73-5.38.73Z" fill="#eb741d"/>
        <path d="M99.89,438.86c-1.81,0-3.5-1.5-5.27-1.73s-3.76.6-5.48.14-3.12-1.95-4.77-2.64-3.76-.49-5.31-1.39-2.82-2.3-4.24-3.4-2.64-2.41-3.92-3.68c-1.28-1.28-2.48-2.61-3.56-4.01s-1.54-3.25-2.42-4.79-2.9-2.58-3.58-4.22-.2-3.74-.66-5.46-1.39-3.36-1.62-5.14.43-3.59.43-5.38-.09-3.53.14-5.31.52-3.49.98-5.23.64-3.53,1.33-5.2,1.81-3.07,2.71-4.63,1.08-3.59,2.18-5.03,2.68-2.44,3.97-3.73c1.28-1.28,2.83-2.22,4.24-3.3s2.5-2.77,4.04-3.67,3.17-1.89,4.82-2.57,3.57-.82,5.31-1.28,3.53-.73,5.32-.96,3.58-.12,5.39-.12,3.63.33,5.42.57,3.77-.15,5.53.33,3.28,1.73,4.96,2.45c1.72.73,3.6,1.69,5.4,1.69s3.43-1.27,5.06-1.92,3.41-1.17,4.7-2.41c1.31-1.26,1.73-3.16,2.43-4.75s1.6-3.23,1.65-5-.03-3.66-.67-5.35c-.62-1.65-1.99-3.07-2.37-4.76s-.71-3.51-.84-5.24.35-3.55.47-5.28.04-3.56.41-5.26.74-3.49,1.34-5.13,2.15-2.87,2.98-4.41,1.43-3.19,2.48-4.6,2.47-2.43,3.72-3.67c1.37-1.37,2.64-2.76,4.18-3.88s3.17-2.13,4.86-3,3.45-1.62,5.27-2.2,3.66-1.05,5.56-1.35,3.77-1.04,5.7-1.04,3.76,1.22,5.63,1.51,3.73.57,5.54,1.15,3.6,1.17,5.3,2.04,3.62,1.4,5.18,2.53,2.98,2.43,4.35,3.8c1.25,1.25,2.76,2.33,3.79,3.7s1.82,3.08,2.64,4.59.83,3.46,1.43,5.08,2.14,3.03,2.51,4.72.62,3.53.74,5.26.03,3.57-.09,5.3-1.24,3.36-1.61,5.06-.58,3.43-1.19,5.06-1.19,3.28-2.03,4.82c-.82,1.51-1.71,3.05-2.76,4.45s-2.36,2.55-3.61,3.79c-1.37,1.37-2.97,2.41-4.5,3.53s-3.07,2.29-4.77,3.15-3.3,2.11-5.12,2.7-3.91.03-5.81.32-3.7.48-5.63.48c-2.23,0-4.33-.26-6.49-.65s-4.15-1.1-6.22-1.88c-1.58-.6-3.47.12-5.09.12-1.84,0-3.54.31-5.23,1.03s-3.24,1.54-4.54,2.89c-1.26,1.31-1.62,3.01-2.27,4.63s-1.28,3.14-1.26,4.92.26,3.39.96,5.06c.71,1.68.88,3.54,1.35,5.26s1.22,3.45,1.47,5.22.12,3.63.13,5.42-.3,3.58-.53,5.37-.43,3.57-.89,5.31-1.31,3.33-2,5-1.61,3.15-2.51,4.72-2.03,2.86-3.14,4.3-1.55,3.36-2.84,4.65c-1.28,1.28-2.74,2.35-4.15,3.44s-2.71,2.45-4.26,3.35-3.18,1.8-4.83,2.48-3.52.89-5.26,1.35-3.5.76-5.29.99-3.56.95-5.37.95Z" fill="#eb741d"/>
      </g>
    </g>
    <g>
      <g>
        <path d="M247.9,174.72c-1.76,0-3.46-.88-5.15-1.12s-3.48-.33-5.13-.81-3.61-.44-5.18-1.16-3.01-1.91-4.47-2.85-2.45-2.54-3.76-3.68-2.43-2.41-3.57-3.73-2.32-2.55-3.26-4.01-2.59-2.58-3.31-4.16-.31-3.6-.8-5.28-1.83-3.15-2.08-4.89-.33-3.52-.33-5.28.66-3.51.91-5.22.6-3.46,1.09-5.12,1.7-3.06,2.43-4.64,1.04-3.37,1.99-4.83,2.37-2.54,3.52-3.85,2.05-2.82,3.38-3.97,2.41-2.64,3.9-3.59,3.41-1.03,5.01-1.76c1.65-.75,3.2-1.88,4.4-3.15s2.04-3,2.69-4.65.46-3.42.43-5.23-.6-3.32-1.29-4.93-1.21-3.3-2.48-4.54-2.48-2.77-4.16-3.45c-1.69-.69-3.86-.37-5.42-1.25s-2.31-3.07-3.74-4.15-3.69-1.26-4.96-2.52-1.78-3.28-2.88-4.7-2.32-2.75-3.23-4.31-2.14-2.99-2.83-4.66-1.19-3.44-1.66-5.19-.15-3.63-.39-5.43-.97-3.52-.97-5.35-.15-3.67.08-5.43,1.13-3.48,1.59-5.19.28-3.75.97-5.4,2.56-2.77,3.45-4.31,1.87-3,2.96-4.42,1.61-3.36,2.88-4.63,3.31-1.65,4.73-2.74,2.38-2.85,3.94-3.75,3.31-1.44,4.97-2.13,3.53-.58,5.27-1.05,3.35-1.08,5.15-1.32,3.5-.86,5.31-.86,3.66-.12,5.41.11,3.69.28,5.4.74,3.06,2.21,4.7,2.89,3.22,1.43,4.77,2.33,3.15,1.67,4.56,2.76,2.86,2.15,4.12,3.42,2.32,2.7,3.42,4.12,1.98,2.94,2.88,4.49,2.09,2.94,2.78,4.6.69,3.51,1.16,5.25,1.76,3.28,1.99,5.08-.45,3.61-.45,5.42-.09,3.59-.32,5.36.16,3.74-.3,5.47-1.57,3.31-2.26,4.97-1.54,3.25-2.44,4.81-1.88,3.06-2.99,4.49-2.72,2.34-4,3.61-2.46,2.54-3.9,3.64-2.66,2.43-4.24,3.33-3.15,1.73-4.84,2.41c-1.68.68-2.83,2.01-4.07,3.23s-2.27,2.52-2.98,4.15-1.33,3.19-1.36,5.01.23,3.55.86,5.18,1.12,3.59,2.34,4.89,3.14,1.76,4.8,2.5c1.61.73,3.22,1.5,4.68,2.43s2.29,2.73,3.61,3.87,3.36,1.56,4.5,2.87,1.25,3.41,2.2,4.87,1.72,2.92,2.45,4.5,1.52,3.06,2.02,4.73,1.57,3.19,1.83,4.93,0,3.49,0,5.25.1,3.5-.14,5.2-.71,3.42-1.2,5.07-.7,3.48-1.42,5.05-1.29,3.35-2.23,4.81-3.09,2.04-4.23,3.35-2.41,2.37-3.72,3.51-2.46,2.35-3.92,3.3-2.75,2.11-4.33,2.84-2.98,2.04-4.66,2.53-3.46.72-5.2.97-3.5.35-5.26.35Z" fill="#eb741d"/>
        <path d="M247.9,175.03c-1.76,0-3.47-1.13-5.16-1.37s-3.55-.14-5.2-.62-3.32-1.17-4.89-1.89-2.75-2.18-4.21-3.12-2.84-1.9-4.15-3.04-2.57-2.26-3.71-3.58-2.25-2.6-3.2-4.06-1.85-2.91-2.57-4.5-2.03-2.97-2.52-4.65-.99-3.42-1.24-5.16.78-3.53.78-5.3.1-3.45.35-5.16-.23-3.64.26-5.31,1.64-3.15,2.37-4.73,1.32-3.27,2.27-4.74,2.61-2.37,3.76-3.69,2-2.87,3.33-4.01,2.34-2.76,3.82-3.71,3.33-1.26,4.93-1.98c1.65-.75,3.41-1.49,4.61-2.75s1.42-3.27,2.06-4.93.68-3.19.65-5.01.43-3.62-.26-5.23-1.42-3.49-2.69-4.73-3.12-1.88-4.8-2.56c-1.69-.69-3.67-.83-5.22-1.71s-2.3-3.07-3.73-4.15-3.21-1.72-4.49-2.99-2.16-2.86-3.27-4.28-2.23-2.78-3.14-4.34-2.59-2.76-3.28-4.43-.24-3.73-.71-5.49-1.76-3.32-2-5.12-.21-3.64-.21-5.46.06-3.66.28-5.42,1.02-3.5,1.48-5.21.93-3.49,1.61-5.13c.69-1.66,1.94-3.02,2.84-4.57s1.62-3.2,2.71-4.62,2.49-2.55,3.75-3.81,1.97-3.21,3.39-4.3,3.07-1.97,4.62-2.87,3.53-.93,5.19-1.62,3.3-1.19,5.05-1.66,3.37-1.13,5.16-1.37,3.52-.26,5.34-.26,3.51.62,5.26.85,3.59.08,5.3.54,3.51.8,5.15,1.48,3.24,1.55,4.78,2.44,2.97,1.99,4.39,3.08,2.54,2.48,3.8,3.75,2.66,2.37,3.76,3.8,1.88,3.01,2.78,4.56,1.83,3.04,2.52,4.71.93,3.4,1.4,5.15.6,3.43.84,5.22,1.55,3.45,1.55,5.26-.05,3.7-.28,5.47-1.89,3.3-2.36,5.03.2,3.87-.49,5.53-2.19,2.97-3.09,4.53-1.47,3.37-2.58,4.79-2.67,2.47-3.95,3.74-2.28,2.89-3.73,3.98-2.9,2.25-4.48,3.15-3.63.75-5.32,1.44c-1.68.68-2.58,2.51-3.83,3.73s-2.99,2.17-3.69,3.81-.99,3.47-1.03,5.28-.14,3.82.49,5.45,2.15,3,3.37,4.3,2.51,2.74,4.16,3.48c1.61.73,3.55.77,5.01,1.7s2.63,2.36,3.95,3.5,2.21,2.67,3.36,3.98,2.27,2.57,3.22,4.04,1.86,2.9,2.59,4.49,1.48,3.13,1.98,4.81.25,3.44.5,5.18,1.26,3.35,1.26,5.11-.75,3.42-.99,5.12-.16,3.49-.65,5.14-1.24,3.23-1.96,4.8-.79,3.57-1.73,5.03-2.88,2.21-4.02,3.52-2.55,2.25-3.86,3.39-2.58,2.17-4.05,3.11-2.52,2.55-4.1,3.27-3.14,1.64-4.82,2.13-3.44.78-5.17,1.03-3.49.73-5.25.73Z" fill="#eb741d"/>
      </g>
      <g>
        <path d="M248.44,495.56c-1.82,0-3.63-.23-5.39-.46s-3.35-1.46-5.06-1.92-3.55-.55-5.19-1.24-3.44-1.15-4.98-2.04-3.33-1.57-4.75-2.66-2.01-3.15-3.28-4.42-2.83-2.24-3.92-3.66-1.69-3.14-2.59-4.69-1.36-3.23-2.05-4.89-2.05-3.02-2.52-4.77-.54-3.52-.77-5.31-.68-3.52-.68-5.33,1-3.53,1.23-5.3.01-3.63.48-5.36.61-3.62,1.3-5.28,1.37-3.41,2.28-4.96,2.53-2.66,3.64-4.09,1.65-3.38,2.94-4.66,3.46-1.5,4.91-2.59,2.33-2.98,3.91-3.88,3.58-.85,5.27-1.54c1.68-.68,2.96-2.13,4.21-3.35s1.94-2.85,2.64-4.48,1.71-3.18,1.74-4.99-.3-3.67-.93-5.29-1.51-3.39-2.73-4.68-3.06-1.82-4.71-2.57c-1.61-.73-3.4-1.22-4.86-2.15s-2.43-2.66-3.74-3.79-2.92-2.04-4.06-3.35-1.41-3.28-2.36-4.75-1.72-2.93-2.45-4.51-2.46-2.78-2.96-4.46-1.07-3.42-1.32-5.16,1.01-3.56,1.01-5.32-.73-3.52-.48-5.21,1.18-3.29,1.66-4.95.29-3.61,1.01-5.18,2.11-2.83,3.05-4.29,1.81-2.98,2.95-4.29,2.89-1.95,4.21-3.08,2.1-2.91,3.57-3.85,3.11-1.55,4.7-2.28,3.22-1.22,4.9-1.72,3.4-.3,5.14-.55,3.33-1,5.09-1,3.55-.34,5.25-.1,3.2,1.63,4.85,2.12,3.7.02,5.27.74,3.28,1.43,4.73,2.37,2.59,2.44,3.9,3.58,2.39,2.53,3.53,3.84,1.68,3.01,2.62,4.48,1.68,2.92,2.41,4.5,2.47,2.76,2.96,4.44-.17,3.57.08,5.31.61,3.35.61,5.12.46,3.55.21,5.26-1.53,3.22-2.02,4.89-.36,3.57-1.09,5.15-1.53,3.18-2.47,4.65-1.78,3.1-2.93,4.41-3.22,1.69-4.55,2.84-1.98,3.17-3.46,4.11-3.45.98-5.05,1.7c-1.65.75-3.49,1.59-4.69,2.86s-1.94,3.19-2.58,4.85-.91,3.5-.88,5.31.89,3.45,1.58,5.06,1.16,3.55,2.43,4.79,3,2.05,4.67,2.73c1.69.69,3.53,1.05,5.08,1.93s2.59,2.62,4.02,3.7,3.57,1.4,4.84,2.67,2.53,2.68,3.63,4.11,1.27,3.5,2.17,5.06,2.8,2.65,3.5,4.32,1.29,3.46,1.76,5.21-.26,3.74-.02,5.54.14,3.52.14,5.35.11,3.56-.12,5.31-.94,3.41-1.4,5.12-.16,3.7-.84,5.35-1.13,3.51-2.02,5.05-2.81,2.45-3.9,3.87-1.4,3.56-2.66,4.83-2.75,2.42-4.17,3.52-3.08,1.95-4.63,2.85-3.28,1.51-4.94,2.2-3.54.62-5.28,1.08-3.32,1.51-5.11,1.74-3.57.47-5.39.47Z" fill="#eb741d"/>
        <path d="M248.44,494.99c-1.82,0-3.61.14-5.36-.09s-3.64-.28-5.36-.74-3.36-1.35-5.01-2.04-3.16-1.69-4.7-2.59-3.15-1.71-4.57-2.8-2.6-2.45-3.87-3.71-3.01-2.15-4.1-3.57-1.99-3.04-2.9-4.59-1.6-3.24-2.3-4.9-.44-3.59-.91-5.34-2.19-3.21-2.42-5.01-.35-3.65-.35-5.46.3-3.7.53-5.48,1.07-3.53,1.53-5.26.45-3.73,1.14-5.39,2.64-2.74,3.55-4.3,2.1-2.83,3.21-4.26,1.74-3.2,3.03-4.47,2.77-2.27,4.21-3.36,2.39-2.96,3.98-3.86,3.31-1.61,5-2.3c1.68-.68,3.83-.64,5.08-1.87s1.56-3.28,2.27-4.91,1.85-3.21,1.88-5.02-.32-3.74-.95-5.37-2.3-2.75-3.52-4.04c-1.2-1.27-2.31-2.73-3.96-3.48-1.61-.73-2.88-1.93-4.34-2.86s-3.01-1.7-4.33-2.84-2.88-2.05-4.03-3.36-1.59-3.14-2.54-4.6-2.18-2.72-2.91-4.31-.99-3.31-1.49-4.98-2.03-3.13-2.28-4.87.08-3.56.08-5.32-.17-3.57.08-5.27.44-3.57.93-5.22,2.3-2.87,3.02-4.44.75-3.54,1.69-5,1.95-2.96,3.09-4.27,2.78-2.17,4.09-3.3,2.67-2.2,4.13-3.15,2.99-1.72,4.58-2.45,3.28-.99,4.96-1.48,3.18-1.59,4.92-1.84c1.7-.24,3.47.66,5.23.66s3.53-.85,5.23-.61,3.22,1.47,4.87,1.96,3.17,1.18,4.74,1.9,3.58.64,5.03,1.58,3.13,1.73,4.44,2.86,2.38,2.63,3.52,3.95,1.66,3.1,2.61,4.56,1.4,3.11,2.13,4.69,1.51,3.04,2,4.72.93,3.27,1.18,5.01,1.49,3.38,1.49,5.14-.85,3.51-1.1,5.22-.42,3.51-.91,5.18-1.52,3.17-2.25,4.75-1.31,3.26-2.26,4.73-2.23,2.69-3.38,4-2.4,2.49-3.73,3.64-2.96,1.74-4.44,2.69-2.61,2.37-4.22,3.1c-1.65.75-3.45,1.47-4.65,2.74s-1.51,3.26-2.15,4.92-.81,3.25-.77,5.06,0,3.55.69,5.15,1.4,3.4,2.67,4.65,3.13,1.63,4.81,2.32c1.69.69,3.37,1.47,4.92,2.35s3.15,1.89,4.58,2.97,2.22,2.95,3.5,4.22,2.91,2.21,4.01,3.63,2.14,2.93,3.05,4.48c.91,1.56,1.91,3.11,2.61,4.78s1.72,3.29,2.19,5.05-.57,3.79-.33,5.59,1.76,3.49,1.76,5.31-1.35,3.55-1.58,5.3-.73,3.45-1.19,5.17-.63,3.53-1.31,5.17-1.15,3.44-2.04,4.98-1.79,3.16-2.88,4.58-3.09,2.02-4.35,3.29-1.81,3.34-3.23,4.43-2.93,2.16-4.49,3.06-3.3,1.5-4.96,2.2-3.27,1.67-5.01,2.14-3.71-.32-5.5-.09-3.48.61-5.29.61Z" fill="#eb741d"/>
      </g>
    </g>
    <path d="M307.68,247.68c0,1.96-.13,3.92-.32,5.83s-.88,3.81-1.26,5.7-.46,3.89-1.02,5.74-2.1,3.35-2.84,5.13-.69,3.94-1.61,5.65-2.23,3.2-3.31,4.81-1.87,3.46-3.1,4.96-2.91,2.61-4.29,3.98-2.98,2.43-4.49,3.67-2.59,3-4.21,4.08-3.4,1.9-5.11,2.82-3.76,1.03-5.57,1.77-3.49,1.54-5.36,2.1-3.53,1.77-5.45,2.15-3.78,1.15-5.73,1.34-3.92-1.23-5.88-1.23-3.85.2-5.77.02-4.1.94-5.99.57-3.82-1.12-5.66-1.68-3.83-1.07-5.62-1.81-3.63-1.62-5.33-2.54-2.88-2.81-4.5-3.89-2.94-2.5-4.44-3.74c-1.5-1.23-3.58-1.83-4.95-3.2s-1.99-3.43-3.22-4.93-3.01-2.58-4.09-4.2-2-3.35-2.92-5.07-1.89-3.42-2.64-5.22-1.12-3.73-1.68-5.6-.85-3.77-1.23-5.69-.74-3.79-.93-5.74-.44-3.85-.44-5.81.1-3.91.28-5.82.99-3.78,1.37-5.67.7-3.8,1.26-5.65,1.61-3.5,2.35-5.29,1.08-3.74,1.99-5.45,1.19-3.85,2.27-5.46,2.7-2.88,3.93-4.38,2.53-2.97,3.91-4.34,2.97-2.5,4.48-3.74,3.14-2.25,4.76-3.34,2.97-2.59,4.69-3.51,3.4-1.99,5.2-2.74,3.63-1.54,5.5-2.1,4.08.39,6,0,3.65-1.53,5.6-1.72,3.87-.09,5.83-.09,3.82.86,5.74,1.04,4.12-1.21,6.01-.84,3.5,2.14,5.35,2.7,3.69,1.12,5.48,1.86,3.52,1.58,5.22,2.5,3.86,1.14,5.47,2.22,2.71,2.89,4.21,4.13,3.37,2.07,4.75,3.45,2.74,2.81,3.97,4.31,1.62,3.62,2.7,5.24,3.27,2.58,4.19,4.3,1.02,3.85,1.77,5.65,1.3,3.64,1.87,5.51.56,3.82.94,5.74,2.07,3.62,2.26,5.57-.39,3.94-.39,5.9Z" fill="#eb741d"/>
    <path d="M120.99,309.29c0,1.89-.58,3.66-.98,5.43s-.69,3.67-1.48,5.31-2.47,2.72-3.62,4.16-1.8,3.31-3.24,4.46-3.16,1.86-4.83,2.66-3.25,1.81-5.07,2.22-3.65.17-5.53.17-3.61-.47-5.37-.87-3.76-.37-5.4-1.16-3.15-1.97-4.59-3.11-2.2-2.9-3.35-4.34-2.19-2.8-2.99-4.47-2.04-3.12-2.46-4.94-1.06-3.63-1.06-5.52,1.55-3.55,1.95-5.31.73-3.52,1.52-5.16.72-3.94,1.87-5.38,2.73-2.69,4.17-3.84,3.03-2.35,4.7-3.16,3.54-1.46,5.36-1.87,3.76.29,5.64.29,3.61.52,5.37.92,3.83.22,5.47,1.01,2.78,2.49,4.21,3.63,3.22,1.94,4.37,3.39,2.07,3.08,2.88,4.75,1.55,3.38,1.96,5.2.48,3.65.48,5.54Z" fill="#eb741d"/>
    <path d="M112.78,186.11c0,1.89-.58,3.66-.98,5.43s-.69,3.67-1.48,5.31-2.47,2.72-3.62,4.16-1.8,3.31-3.24,4.46-3.16,1.86-4.83,2.66-3.25,1.81-5.07,2.22-3.65.17-5.53.17-3.61-.47-5.37-.87-3.76-.37-5.4-1.16-3.15-1.97-4.59-3.11-2.2-2.9-3.35-4.34-2.19-2.8-2.99-4.47-2.04-3.12-2.46-4.94-1.06-3.63-1.06-5.52,1.55-3.55,1.95-5.31.73-3.52,1.52-5.16.72-3.94,1.87-5.38,2.73-2.69,4.17-3.84,3.03-2.35,4.7-3.16c1.64-.79,3.54-1.46,5.36-1.87s3.76.29,5.64.29,3.61.52,5.37.92,3.83.22,5.47,1.01,2.78,2.49,4.21,3.63,3.22,1.94,4.37,3.39,2.07,3.08,2.88,4.75,1.55,3.38,1.96,5.2.48,3.65.48,5.54Z" fill="#eb741d"/>
    <path d="M211.33,95.77c0,1.89-.58,3.66-.98,5.43s-.69,3.67-1.48,5.31-2.47,2.72-3.62,4.16-1.8,3.31-3.24,4.46-3.16,1.86-4.83,2.66-3.25,1.81-5.07,2.22-3.65.17-5.53.17-3.61-.47-5.37-.87-3.76-.37-5.4-1.16-3.15-1.97-4.59-3.11-2.2-2.9-3.35-4.34-2.19-2.8-2.99-4.47-2.04-3.12-2.46-4.94-1.06-3.63-1.06-5.52,1.55-3.55,1.95-5.31.73-3.52,1.52-5.16.72-3.94,1.87-5.38,2.73-2.69,4.17-3.84,3.03-2.35,4.7-3.16,3.54-1.46,5.36-1.87,3.76.29,5.64.29,3.61.52,5.37.92,3.83.22,5.47,1.01,2.78,2.49,4.21,3.63,3.22,1.94,4.37,3.39,2.07,3.08,2.88,4.75,1.55,3.38,1.96,5.2.48,3.65.48,5.54Z" fill="#eb741d"/>
    <path d="M334.52,95.77c0,1.89-.58,3.66-.98,5.43s-.69,3.67-1.48,5.31-2.47,2.72-3.62,4.16-1.8,3.31-3.24,4.46-3.16,1.86-4.83,2.66-3.25,1.81-5.07,2.22-3.65.17-5.53.17-3.61-.47-5.37-.87-3.76-.37-5.4-1.16-3.15-1.97-4.59-3.11-2.2-2.9-3.35-4.34-2.19-2.8-2.99-4.47-2.04-3.12-2.46-4.94-1.06-3.63-1.06-5.52,1.55-3.55,1.95-5.31.73-3.52,1.52-5.16.72-3.94,1.87-5.38,2.73-2.69,4.17-3.84,3.03-2.35,4.7-3.16c1.64-.79,3.54-1.46,5.36-1.87s3.76.29,5.64.29,3.61.52,5.37.92,3.83.22,5.47,1.01,2.78,2.49,4.21,3.63,3.22,1.94,4.37,3.39,2.07,3.08,2.88,4.75,1.55,3.38,1.96,5.2.48,3.65.48,5.54Z" fill="#eb741d"/>
    <path d="M424.85,186.11c0,1.89-.58,3.66-.98,5.43s-.69,3.67-1.48,5.31-2.47,2.72-3.62,4.16-1.8,3.31-3.24,4.46-3.16,1.86-4.83,2.66-3.25,1.81-5.07,2.22-3.65.17-5.53.17-3.61-.47-5.37-.87-3.76-.37-5.4-1.16-3.15-1.97-4.59-3.11-2.2-2.9-3.35-4.34-2.19-2.8-2.99-4.47-2.04-3.12-2.46-4.94-1.06-3.63-1.06-5.52,1.55-3.55,1.95-5.31.73-3.52,1.52-5.16.72-3.94,1.87-5.38,2.73-2.69,4.17-3.84,3.03-2.35,4.7-3.16,3.54-1.46,5.36-1.87,3.76.29,5.64.29,3.61.52,5.37.92,3.83.22,5.47,1.01,2.78,2.49,4.21,3.63,3.22,1.94,4.37,3.39,2.07,3.08,2.88,4.75,1.55,3.38,1.96,5.2.48,3.65.48,5.54Z" fill="#eb741d"/>
    <path d="M424.85,309.29c0,1.89-.58,3.66-.98,5.43s-.69,3.67-1.48,5.31-2.47,2.72-3.62,4.16-1.8,3.31-3.24,4.46-3.16,1.86-4.83,2.66-3.25,1.81-5.07,2.22-3.65.17-5.53.17-3.61-.47-5.37-.87-3.76-.37-5.4-1.16-3.15-1.97-4.59-3.11-2.2-2.9-3.35-4.34-2.19-2.8-2.99-4.47-2.04-3.12-2.46-4.94-1.06-3.63-1.06-5.52,1.55-3.55,1.95-5.31.73-3.52,1.52-5.16.72-3.94,1.87-5.38,2.73-2.69,4.17-3.84,3.03-2.35,4.7-3.16,3.54-1.46,5.36-1.87,3.76.29,5.64.29,3.61.52,5.37.92,3.83.22,5.47,1.01,2.78,2.49,4.21,3.63,3.22,1.94,4.37,3.39,2.07,3.08,2.88,4.75,1.55,3.38,1.96,5.2.48,3.65.48,5.54Z" fill="#eb741d"/>
    <path d="M334.55,399.63c0,1.89-.24,3.75-.65,5.51s-1.37,3.43-2.17,5.07-1.48,3.41-2.63,4.84-3.01,2.1-4.45,3.25-2.48,2.83-4.15,3.63-3.48,1.1-5.3,1.52-3.55,1.03-5.44,1.03-3.67-.66-5.43-1.06-3.4-1.25-5.04-2.04-3.57-1.2-5-2.34-2.63-2.61-3.78-4.05-1.5-3.3-2.31-4.97-1.51-3.2-1.92-5.02-1.29-3.48-1.29-5.36-.21-3.85.19-5.61,2.3-3.1,3.09-4.74,1.49-3.26,2.64-4.69,1.57-3.68,3.02-4.83,3.25-2.02,4.92-2.82,3.47-1.61,5.29-2.03,3.76-.62,5.64-.62,3.68,1.12,5.44,1.52,3.38,1.3,5.03,2.09,3.67,1.06,5.11,2.2,2.15,3.04,3.3,4.48,2.71,2.6,3.51,4.27,1.33,3.45,1.74,5.27.65,3.62.65,5.51Z" fill="#eb741d"/>
    <path d="M211.33,399.63c0,1.89-.58,3.66-.98,5.43s-.69,3.67-1.48,5.31-2.47,2.72-3.62,4.16-1.8,3.31-3.24,4.46-3.16,1.86-4.83,2.66-3.25,1.81-5.07,2.22-3.65.17-5.53.17-3.61-.47-5.37-.87-3.76-.37-5.4-1.16-3.15-1.97-4.59-3.11-2.2-2.9-3.35-4.34-2.19-2.8-2.99-4.47-2.04-3.12-2.46-4.94-1.06-3.63-1.06-5.52,1.55-3.55,1.95-5.31.73-3.52,1.52-5.16.72-3.94,1.87-5.38,2.73-2.69,4.17-3.84,3.03-2.35,4.7-3.16,3.54-1.46,5.36-1.87,3.76.29,5.64.29,3.61.52,5.37.92,3.83.22,5.47,1.01,2.78,2.49,4.21,3.63,3.22,1.94,4.37,3.39,2.07,3.08,2.88,4.75,1.55,3.38,1.96,5.2.48,3.65.48,5.54Z" fill="#eb741d"/>
  </g>
  <g>
    <path d="M1203.89,335.09c-.79-1.85-2.9-2.38-4.48-2.38-7.12.27-14.23,1.85-21.35,2.11-6.41.59-12.9.77-19.42.77-5.28,0-10.59-.12-15.89-.24,15.02-17.92,34.78-31.89,52.18-47.43,2.37-1.85,8.17-5.27,6.06-8.7-.48-1.11-1.34-1.56-2.3-1.56-.63,0-1.29.19-1.92.51-18.45,10.8-45.59,39-61.66,54.81-5.31-3.65-11.68-5.01-17.63-5.01-10.21,0-19.22,3.99-19.69,7.27-17.38,12.57-36.02,22.04-55.17,25.41-2.01.39-3.94.61-5.69.61-5.39,0-9.14-2.16-8.54-8.52,1.36-11.9,30.19-43.76,50.41-64.72h.01c4.65-4.84,8.83-9.08,12.13-12.37,1.73-1.72,3.21-3.18,4.38-4.33.99-.96,1.98-1.92,2.97-2.88,8.76-8.48,17.57-16.72,26.81-24.53,5.27-4.74,12.38-9.22,17.13-14.23,1.05-1.32,1.31-2.9,0-4.22-.72-.71-1.33-.99-1.92-.99-.73,0-1.43.41-2.3.99-15.42,10.62-29.15,23.66-42.56,36.57-.57.54-1.14,1.09-1.71,1.64-1.25,1.2-2.83,2.75-4.68,4.59-5.66,5.6-13.82,13.89-22.51,23.17-12.57,13.42-26.24,28.88-35.08,41.27-.14-.01-.29-.02-.45-.02-.17,0-.34.01-.52.03-8.3,1.19-16.61,2.23-25.02,2.23-2.8,0-5.62-.12-8.45-.38,3.16-4.48,5.53-10.02,7.64-15.02,1.32-3.95,1.85-5.27.26-9.49-1.46-3.39-4.28-4.81-7.63-4.81-13.57,0-35.75,23.29-10.81,33.01-3.14,4.1-20.39,22.1-28.35,22.1-.74,0-1.4-.16-1.96-.49-8.17-5.01,12.13-25.3,15.29-29.78,1.59-2.39-.12-5.23-2.53-5.23-.78,0-1.64.3-2.48,1.01-.07.06-.13.12-.2.18-1.05-.05-2.2-.07-3.44-.07-16.04,0-46.54,3.69-61.18,4.64v-.53c7.12-6.59,16.07-14.23,22.14-22.14,1.88-2.51.77-5.36-1.62-5.36-.62,0-1.32.19-2.07.62-17.4,9.49-33.21,20.82-51.13,29.78-7.11.26-14.23.52-21.34,1.05-8.03-2.81-17.12-3.63-25.89-3.63-2.75,0-5.46.08-8.1.21-9.23.26-35.05,2.1-42.69,5.53-2.9,1.32-3.69,5.53,0,6.59,3.36.87,8.84,1.15,14.74,1.15,8.4,0,17.67-.58,22.94-.89,12.65-.79,25.03-1.84,37.68-2.63l3.16,1.05c-23.19,8.96-41.11,14.18-65.62,18.93-5.74,1.09-10.31,1.54-19.41,1.54-8.44,0-12.46-1.25-16.65-5.18-5.8-5.27-2.9-16.91.53-22.71,11.07-19.24,26.41-34.81,47.06-46.79,10.77-6.25,24.12-13.87,37.76-20.48,3.06-1.48,6.14-2.92,9.19-4.29,14.01-6.3,27.64-11.21,38.12-12.59,1.1-.15,2.16-.25,3.18-.32.33-.02.66-.04.98-.05.46-.02.91-.03,1.35-.03,1.36,0,2.64.09,3.83.27,15.18,2.31-1.35,18.13-10.59,25.98l-1,4.84-1.13,5.44c13.56-10.22,25.45-22.64,24.32-32.31-.27-3.16-2.38-7.64-5.27-9.22-2.13-1.25-5.01-1.81-8.48-1.81-1.78,0-3.72.15-5.79.43-10.47,1.41-24.27,6.2-38.18,12.1-3.08,1.3-6.16,2.66-9.21,4.05-14.33,6.53-28.04,13.72-37.53,19.06-3.64,2.04-6.66,3.81-8.86,5.17-13.17,8.17-15.61,10.92-26.68,21.72-8.17,7.91-14.28,17.13-19.82,27.14-3.95,6.85-7.43,18.34-2.16,25.98,5.1,7.36,12.35,10.18,25.03,10.18,33.17,0,72.95-14.37,90.3-22.57,4.48,6.59,3.69,15.02,1.32,22.14-7.38,7.64-27.4,27.66-30.57,36.89-.85,2.55.36,4.58,2.52,4.58.52,0,1.09-.11,1.7-.37,18.18-8.17,33.47-38.73,33.99-39,10.28-11.06,20.82-21.87,31.36-32.94,19.34-.91,43.39-1.03,63.51-3.59-14.72,16.82-14.2,33.48-2.43,33.48,7.87,0,20.75-7.44,37.47-27.25,6.72,0,13.3.43,19.81.43,4.57,0,9.11-.21,13.63-.93-2.82,4.59-4.63,8.48-4.98,11.3-.53,3.69,0,8.17,2.37,11.33,3.25,4.34,7.98,5.82,13.18,5.82,2.4,0,4.89-.31,7.38-.81,17.65-3.95,45.32-16.07,57.44-27.14.34-.34.61-.68.84-1.03,6.14,1.04,20.87,2.35,24.2,2.35l-18.19,21.34c-6.58,7.91-12.38,15.29-18.18,23.72-2.63,3.95-4.74,9.48,0,13.7.97.84,2.32,1.24,3.97,1.24,15.91,0,59.38-36.53,47.68-59.21,3.69,0,9.49.26,16.07.26,2.58.04,5.18.06,7.76.06,14.79,0,28.87-.71,34.93-2.96,1.59-.52,2.64-2.37,2.38-4.21ZM864.48,359.86c0-5.8-.52-11.34-3.68-16.34,3.42-1.06,6.85-2.9,10.01-4.74,5.01-.27,9.75-.53,14.76-.53-7.65,6.59-14.23,14.23-21.09,21.61ZM990.78,328.38c-.51.83-1,1.63-1.47,2.42-4.1-2.02-5.9-4.41-5.36-7.14.97-4.95,8.66-9.97,12.84-10.35.35,4.76-3.01,10.21-6.01,15.07ZM1099.85,391.19c-1.06.57-1.79.85-2.27.99.18-.62.58-1.56,1.34-2.71,6.85-10.39,29.11-35.69,36.78-43.99,6.27,14.13-19.35,36.79-35.85,45.71ZM841.03,303.19c.85,1.01,1.8,1.49,2.86,1.49.6,0,1.22-.15,1.88-.44,4.73-1.66,12.21-5.51,20.17-10.58h-15.3c-2.75,1.48-5.45,3.03-8.03,4.79-1.58,1.05-2.37,2.9-1.58,4.74Z" fill="#ff7900"/>
    <g>
      <path d="M580.31,155.48c.2-1.18,1.22-2.04,2.41-2.04h30.96c1.52,0,2.67,1.37,2.41,2.87l-.07.42-23.95,130.55c0,.05-.02.1-.03.15l-.1.39c-.27,1.09-1.25,1.85-2.37,1.85h-30.93c-1.52,0-2.67-1.37-2.41-2.87l.07-.42,23.96-130.62.05-.28Z" fill="#ff7900"/>
      <path d="M654.44,186.31c-.44,2.08,1.81,3.7,3.64,2.6,10.01-6,20.5-9,31.46-9,9.66,0,17.9,2.96,24.73,8.89,6.83,5.93,10.24,13.85,10.24,23.77,0,2.83-.26,5.54-.77,8.12-7.73,41.22-11.92,63.44-12.56,66.66l-.12.47c-.27,1.09-1.25,1.85-2.37,1.85h-31.09c-1.53,0-2.68-1.39-2.4-2.89l.04-.2,11.01-54.68c.77-3.86,1.16-6.5,1.16-7.92,0-4.12-.94-7.21-2.8-9.27-1.87-2.06-5.31-3.09-10.34-3.09-12.02,0-20.92,3.91-26.73,11.73-.21.29-.36.62-.43.97l-13.03,63.04-.05.28c-.2,1.18-1.22,2.04-2.41,2.04h-29.99c-1.52,0-2.67-1.37-2.41-2.87l.07-.42,18.74-101.83.05-.28c.2-1.18,1.22-2.04,2.41-2.04h31.76c1.51,0,2.66,1.36,2.41,2.84l-.11.63-.13.6Z" fill="#ff7900"/>
      <path d="M799.47,289.66h27.54c1.12,0,2.09-.76,2.37-1.85l.1-.4c.01-.05.02-.09.03-.14l2.7-15.38c-11.51,5.67-22.94,11.96-32.74,17.77ZM837.65,224.46h-29.22c-1.19,0-2.21.86-2.41,2.04l-.05.28-8.12,46.16c9.61-5.28,23.23-12.37,37.48-18.75l4.65-26.45.08-.41c.26-1.5-.89-2.87-2.41-2.87ZM796.92,278.26l-1.43,8.11-.08.42c-.02.13-.04.27-.04.4,10.69-6.39,24.12-13.87,37.76-20.48l1.32-7.51c-14.33,6.53-28.04,13.72-37.53,19.06ZM847.48,165.77c-2.97-2.64-6.7-3.96-11.21-3.96-5.02,0-9.5,1.55-13.43,4.64-3.93,3.09-6.35,7.34-7.25,12.75-.25,1.55-.38,2.84-.38,3.87,0,4.51,1.48,8.08,4.44,10.72,2.96,2.64,6.7,3.96,11.21,3.96,5.02,0,9.5-1.54,13.43-4.64,3.93-3.09,6.34-7.34,7.25-12.75.25-1.54.38-2.83.38-3.86,0-4.51-1.48-8.09-4.44-10.73Z" fill="#ff7900"/>
      <path d="M952.88,188.79c-6.83-5.92-15.07-8.88-24.73-8.88-10.97,0-21.46,2.99-31.47,8.99-1.82,1.1-4.08-.51-3.63-2.6l.12-.6.11-.63c.25-1.49-.9-2.85-2.41-2.85h-31.76c-1.2,0-2.21.87-2.41,2.05l-.05.27-12.08,65.65c13.85-5.75,27.6-10.34,38.18-11.51l2.97-14.38c.07-.35.22-.69.43-.97,5.81-7.82,14.72-11.74,26.73-11.74,5.03,0,8.47,1.04,10.34,3.1s2.8,5.15,2.8,9.27c0,1.42-.38,4.06-1.16,7.92l-11.01,54.69-.04.2c-.28,1.5.87,2.89,2.4,2.89h31.09c1.12,0,2.1-.76,2.37-1.85l.12-.47c.64-3.22,4.83-25.44,12.56-66.66.51-2.58.77-5.28.77-8.12,0-9.92-3.41-17.84-10.24-23.77ZM843.66,255.15l-1.34,7.27c14.01-6.3,27.64-11.21,38.12-12.59l1.4-6.78c-10.47,1.41-24.27,6.2-38.18,12.1Z" fill="#ff7900"/>
      <g>
        <path d="M879.53,254.23l-3.91,18.92-1.35,6.56-1.58,7.63-.05.28c-.19,1.18-1.21,2.04-2.4,2.04h-30c-1.52,0-2.67-1.37-2.4-2.87l.07-.42,3.47-18.84c14.17-6.51,27.85-11.63,38.15-13.3Z" fill="#ff7900"/>
        <path d="M883.62,249.51c.33-.02.66-.04.98-.05l.02-.11-1,.16Z" fill="#ff7900"/>
        <path d="M875.62,273.15l-1.35,6.56-1.58,7.63-.05.28c-.19,1.18-1.21,2.04-2.4,2.04h-30c-1.52,0-2.67-1.37-2.4-2.87l.07-.42,3.47-18.84c14.17-6.51,27.85-11.63,38.15-13.3l-3.91,18.92Z" fill="#ff7900"/>
      </g>
      <path d="M975.78,184.27c.2-1.18,1.22-2.04,2.41-2.04h29.22c1.52,0,2.67,1.37,2.41,2.87l-.07.42-18.92,101.76s-.02.1-.03.15l-.1.4c-.27,1.09-1.25,1.85-2.37,1.85h-29.19c-1.52,0-2.67-1.37-2.41-2.87l.07-.42,18.94-101.83.05-.28ZM979.02,160.2c.9-5.41,3.32-9.66,7.25-12.75,3.93-3.09,8.41-4.64,13.43-4.64,4.51,0,8.24,1.32,11.21,3.96,2.96,2.64,4.44,6.22,4.44,10.72,0,1.03-.13,2.32-.39,3.86-.9,5.41-3.32,9.66-7.25,12.75-3.93,3.09-8.41,4.64-13.43,4.64-4.51,0-8.25-1.32-11.21-3.96-2.96-2.64-4.44-6.21-4.44-10.72,0-1.03.13-2.32.39-3.86Z" fill="#ff7900"/>
      <path d="M1089.06,268.25c-5.66,5.6-13.82,13.89-22.51,23.17,3.08-.5,6.08-1.24,8.97-2.24,1.18-.41,2.27-.8,3.28-1.17h.01c4.65-4.84,8.83-9.08,12.13-12.37l-1.88-7.39ZM1097.56,182.22h-22.5c-1.56,0-2.71-1.43-2.39-2.94l4.78-22.56.11-.64c.25-1.48-.9-2.84-2.41-2.84h-33.28c-1.12,0-2.09.76-2.37,1.85l-.11.47-5.2,24.72c-.24,1.13-1.23,1.94-2.39,1.94h-13.53c-1.2,0-2.21.87-2.41,2.05l-.05.27-4.63,25.9-.11.63c-.25,1.49.9,2.84,2.41,2.84h11.93c1.54,0,2.69,1.4,2.4,2.91l-3.88,19.89c-1.93,10.44-2.9,18.49-2.9,24.16,0,20.87,11.98,31.3,35.94,31.3,1.07,0,2.14-.03,3.19-.09,10.89-11.76,21.33-22.33,27.69-28.58l-1.51-5.92-.11-.5c-.4-1.75-2.47-2.49-3.89-1.39l-.29.23c-.1.08-.21.15-.33.21l-1.95,1.07c-1.42.9-3.54,1.77-6.38,2.61-2.83.83-5.73,1.25-8.69,1.25s-4.8-.58-5.89-1.74c-1.1-1.16-1.65-3.09-1.65-5.79,0-1.55.39-4.26,1.16-8.12.26-1.55,1.03-4.64,2.32-9.28l4.78-20.33c.26-1.11,1.24-1.89,2.37-1.89h25.18c1.19,0,2.21-.86,2.41-2.04l.04-.28,4.45-25.89.1-.63c.25-1.49-.9-2.85-2.41-2.85Z" fill="#ff7900"/>
      <path d="M1201.64,260.91l-.44-.24-22.61-12.36-.65-.33c-.98-.49-2.17-.27-2.91.55l-.49.55c-6.7,7.99-15.07,11.98-25.12,11.98-6.06,0-11.02-1.29-14.88-3.86-2.86-1.91-4.87-4.34-6.04-7.31-.63-1.59.57-3.32,2.28-3.32h34.29c14.55,0,26.08-3.45,34.59-10.34,8.5-6.89,12.75-14.91,12.75-24.06,0-10.3-4.35-18.26-13.04-23.86-8.7-5.6-19.68-8.4-32.95-8.4-17.91,0-33.72,5.21-47.44,15.65-13.72,10.43-22.06,23.76-25.02,40-.65,4.25-.97,7.85-.97,10.82,0,3.89.39,7.57,1.16,11.03,12.96-12.44,26.4-25.07,41.46-35.44h.03s.03-.03.03-.03c.95-.64,2.56-1.71,4.64-1.71,1.77,0,3.42.75,4.9,2.24,2.72,2.72,2.85,6.67.31,9.84l-.11.14-.12.12c-2.99,3.17-6.75,6.04-10.37,8.83-2.53,1.94-4.92,3.77-7,5.64l-.05.04-.05.04c-9.84,8.33-19.19,17.17-27.24,24.96,1.86,2.64,4.07,5.09,6.62,7.34,9.46,8.37,21.93,12.56,37.39,12.56,11.46,0,22.28-2.42,32.46-7.25,10.17-4.83,18.55-11.43,25.12-19.8l.31-.44c.86-1.2.47-2.89-.84-3.58ZM1144.7,219.13c-2.58,0-3.4-3.52-1.07-4.64,5.08-2.44,10.87-3.67,17.38-3.67,3.99,0,7.21.26,9.66.77,2.45.52,3.99,1,4.64,1.45.64.46.97.81.97,1.07,0,.51-.55,1.16-1.65,1.93-1.09.77-2.93,1.48-5.5,2.12-2.58.65-5.54.97-8.89.97h-15.54ZM1142.23,225.45c-.72-.71-1.33-.99-1.92-.99-.73,0-1.43.41-2.3.99-15.42,10.62-29.15,23.66-42.56,36.57.76,2.24,1.71,4.37,2.84,6.41,8.76-8.48,17.57-16.72,26.81-24.53,5.27-4.74,12.38-9.22,17.13-14.23,1.05-1.32,1.31-2.9,0-4.22Z" fill="#ff7900"/>
    </g>
    <path d="M743.63,180.48c1.56-6.05,3.3-11.36,5.24-15.93,2.13-5.02,5.05-9.88,8.79-14.59,3.73-4.7,8.6-8.28,14.59-10.72,5.99-2.45,12.98-3.67,20.97-3.67,6.54,0,14.48,2.05,21.97,8.99l.73.73c1,.86,1.13,2.94.79,3.92l-.09.27-5.99,26.09-.31.4c-.87,1.13-2.53,1.28-3.59.31l-.36-.33c-7.22-6.31-9.5-9.47-15.29-9.47s-10.03,4.26-12.4,12.77c-.43,1.55.75,3.08,2.36,3.08h25.32c1.51,0,2.66,1.36,2.41,2.84l-.11.63-4.64,25.89-.05.28c-.2,1.18-1.22,2.04-2.41,2.04h-27.43c-1.16,0-2.16.82-2.39,1.96l-1.92,9.45-7.34,36.91-1.55,9.08-3.28,15.84c-1.55,6.7-3.38,12.53-5.51,17.49-2.13,4.96-5.06,9.82-8.79,14.59-3.74,4.76-8.66,8.41-14.78,10.92-6.12,2.51-13.3,3.77-21.54,3.77-11.59,0-21.26-4.57-28.98-13.72l-.19-.19-.21-.29c-.47-.66-.58-1.52-.3-2.28l.12-.33,8.12-19.9.26-.59c.65-1.46,2.51-1.91,3.76-.92l.43.34c6.06,4.64,12.5,6.96,19.32,6.96,3.99,0,6.99-1.55,8.99-4.64,2-3.09,3.57-7.54,4.73-13.33l3.09-15.46,1.55-8.89,7.34-36.52,1.52-7.3c.31-1.52,6.79-35.39,7.06-36.48Z" fill="#ff7900"/>
  </g>
</svg>